# Blender 3.3.0
# www.blender.org
mtllib computer5.mtl
o Cube
v 1.000000 -0.232532 -1.000000
v 1.000000 -1.000000 -1.000000
v 1.000000 -0.232532 1.000000
v 1.000000 -1.000000 1.000000
v -1.000000 -0.232532 -1.000000
v -1.000000 -1.000000 -1.000000
v -1.000000 -0.232532 1.000000
v -1.000000 -1.000000 1.000000
v 1.000000 -0.460792 -1.000000
v -1.000000 -0.460792 1.000000
v 1.000000 -0.460792 1.000000
v -1.000000 -0.460792 -1.000000
v 1.000000 -0.518415 -1.000000
v 1.000000 -0.518415 1.000000
v -1.000000 -0.518415 -1.000000
v -1.000000 -0.518415 1.000000
v 1.000000 -0.784137 -1.000000
v 1.000000 -0.784137 1.000000
v -1.000000 -0.784137 -1.000000
v -1.000000 -0.784137 1.000000
v -1.047385 -0.784137 1.063407
v 1.047385 -0.784137 -1.063407
v 1.047385 -0.784137 1.063407
v -1.047385 -0.784137 -1.063407
v 0.203921 -1.000000 -1.000000
v 0.203921 -0.232532 1.000000
v 0.203921 -1.000000 1.000000
v 0.203921 -0.232532 -1.000000
v 0.203921 -0.460792 -1.000000
v 0.203921 -0.460792 1.000000
v 0.203921 -0.518415 1.000000
v 0.203921 -0.518415 -1.000000
v 0.203921 -0.784137 -1.000000
v 0.203921 -0.784137 1.000000
v 0.213584 -0.784137 -1.063407
v 0.213584 -0.784137 1.063407
v 0.493938 -1.000000 1.000000
v 0.493938 -0.232532 -1.000000
v 0.493938 -0.460792 -1.000000
v 0.493938 -0.518415 -1.000000
v 0.493938 -0.784137 -1.000000
v 0.517343 -0.784137 -1.063407
v 0.493938 -1.000000 -1.000000
v 0.493938 -0.232532 1.000000
v 0.493938 -0.460792 1.000000
v 0.493938 -0.518415 1.000000
v 0.493938 -0.784137 1.000000
v 0.517343 -0.784137 1.063407
v -1.023543 -0.518415 1.031504
v -1.047385 -0.548645 1.063407
v -1.035464 -0.522465 1.047456
v -1.044191 -0.533530 1.059133
v 1.023543 -0.518415 1.031504
v 1.047385 -0.548645 1.063407
v 1.035464 -0.522465 1.047456
v 1.044191 -0.533530 1.059133
v -1.023543 -0.518415 -1.031504
v -1.047385 -0.548645 -1.063407
v -1.035464 -0.522465 -1.047456
v -1.044191 -0.533530 -1.059133
v 1.047385 -0.548645 -1.063407
v 1.023543 -0.518415 -1.031504
v 1.044191 -0.533530 -1.059133
v 1.035464 -0.522465 -1.047456
v 0.213584 -0.548645 1.063407
v 0.208741 -0.518415 1.031628
v 0.212935 -0.533530 1.059150
v 0.211162 -0.522465 1.047518
v 0.208741 -0.518415 -1.031628
v 0.213584 -0.548645 -1.063407
v 0.211162 -0.522465 -1.047518
v 0.212935 -0.533530 -1.059150
v 0.517343 -0.548645 -1.063407
v 0.505612 -0.518415 -1.031628
v 0.515771 -0.533530 -1.059150
v 0.511478 -0.522465 -1.047518
v 0.517343 -0.548645 1.063407
v 0.505612 -0.518415 1.031628
v 0.515771 -0.533530 1.059150
v 0.511478 -0.522465 1.047518
v -1.034292 -0.460730 1.035442
v -1.043414 -0.451408 1.044871
v -1.038853 -0.459475 1.040156
v -1.042192 -0.456063 1.043607
v -1.034292 -0.232470 1.035442
v -1.043414 -0.241759 1.044871
v -1.038853 -0.233708 1.040156
v -1.042192 -0.237108 1.043607
v 1.034292 -0.232470 1.035442
v 1.043414 -0.241759 1.044871
v 1.038853 -0.233708 1.040156
v 1.042192 -0.237108 1.043607
v 1.043414 -0.241759 -1.012651
v 1.034108 -0.232453 -1.012651
v 1.042167 -0.237106 -1.012651
v 1.038761 -0.233700 -1.012651
v -1.034108 -0.232470 -1.012651
v -1.043414 -0.241759 -1.012651
v -1.038761 -0.233708 -1.012651
v -1.042167 -0.237108 -1.012651
v 1.034108 -0.460731 -1.012651
v 1.043414 -0.451408 -1.012651
v 1.038761 -0.459475 -1.012651
v 1.042167 -0.456063 -1.012651
v 1.043414 -0.451408 1.044871
v 1.034292 -0.460730 1.035442
v 1.042192 -0.456063 1.043607
v 1.038853 -0.459475 1.040156
v -1.043414 -0.451408 -1.012651
v -1.034108 -0.460714 -1.012651
v -1.042167 -0.456061 -1.012651
v -1.038761 -0.459467 -1.012651
v 0.212774 -0.241759 1.044871
v 0.210916 -0.232470 1.035451
v 0.212525 -0.237108 1.043609
v 0.211845 -0.233708 1.040161
v 0.212774 -0.241759 -1.012651
v 0.203468 -0.232453 -1.003345
v 0.211527 -0.237106 -1.011405
v 0.208121 -0.233700 -1.007998
v 0.203468 -0.460714 -1.003345
v 0.212774 -0.451408 -1.012651
v 0.208121 -0.459467 -1.007998
v 0.211527 -0.456061 -1.011405
v 0.210916 -0.460730 1.035451
v 0.212774 -0.451408 1.044871
v 0.211845 -0.459475 1.040161
v 0.212525 -0.456063 1.043609
v 0.524687 -0.232453 -1.003345
v 0.515381 -0.241759 -1.012651
v 0.520034 -0.233700 -1.007998
v 0.516628 -0.237106 -1.011405
v 0.515381 -0.451408 -1.012651
v 0.524687 -0.460714 -1.003345
v 0.516628 -0.456061 -1.011405
v 0.520034 -0.459467 -1.007998
v 0.515381 -0.241759 1.044871
v 0.510880 -0.232470 1.035451
v 0.514778 -0.237108 1.043609
v 0.513131 -0.233708 1.040161
v 0.510880 -0.460730 1.035451
v 0.515381 -0.451408 1.044871
v 0.513131 -0.459475 1.040161
v 0.514778 -0.456063 1.043609
v 0.524687 -0.232453 -1.052209
v 0.515381 -0.241759 -1.061515
v 0.520034 -0.233700 -1.056862
v 0.516628 -0.237106 -1.060268
v 1.034108 -0.232453 -1.052209
v 1.043414 -0.241759 -1.061515
v 1.038761 -0.233700 -1.056862
v 1.042167 -0.237106 -1.060268
v 1.034108 -0.460714 -1.052209
v 1.043414 -0.451408 -1.061515
v 1.038761 -0.459467 -1.056862
v 1.042167 -0.456061 -1.060268
v -1.034108 -0.232453 -1.052209
v -1.043414 -0.241759 -1.061515
v -1.038761 -0.233700 -1.056862
v -1.042167 -0.237106 -1.060268
v -1.034108 -0.460714 -1.052209
v -1.043414 -0.451408 -1.061515
v -1.038761 -0.459467 -1.056862
v -1.042167 -0.456061 -1.060268
v 0.524687 -0.460714 -1.052209
v 0.515381 -0.451408 -1.061515
v 0.520034 -0.459467 -1.056862
v 0.516628 -0.456061 -1.060268
v 0.203468 -0.232453 -1.052209
v 0.212774 -0.241759 -1.061515
v 0.208121 -0.233700 -1.056862
v 0.211527 -0.237106 -1.060268
v 0.203468 -0.460714 -1.052209
v 0.212774 -0.451408 -1.061515
v 0.208121 -0.459467 -1.056862
v 0.211527 -0.456061 -1.060268
vn -0.0000 1.0000 -0.0000
vn -0.0000 -1.0000 -0.0000
vn -0.0000 -0.0000 1.0000
vn 1.0000 -0.0000 -0.0000
vn -0.0000 -0.0000 -1.0000
vn -1.0000 -0.0000 -0.0000
vn -0.0000 1.0000 -0.0018
vn -0.0021 -1.0000 -0.0000
vn -0.0000 -1.0000 -0.0099
vn -0.0001 -1.0000 -0.0092
vn 0.0018 1.0000 -0.0000
vn -0.0000 0.9997 0.0235
vn -0.0000 1.0000 0.0002
vn -0.0000 -1.0000 0.0018
vn -0.0021 1.0000 -0.0000
vn -0.0000 -0.9997 -0.0235
vn -0.0000 -1.0000 -0.0002
vn -0.0000 1.0000 0.0089
vn 0.0018 -1.0000 -0.0000
vn 0.0001 0.9999 0.0102
vn -0.0000 0.9691 0.2465
vn -0.0000 0.7252 0.6885
vn -0.0000 0.2716 0.9624
vn -0.3217 0.9468 -0.0000
vn -0.7852 0.6193 -0.0000
vn -0.9784 0.2068 -0.0000
vn 0.3217 0.9468 -0.0000
vn 0.7852 0.6193 -0.0000
vn 0.9784 0.2068 -0.0000
vn -0.0000 0.9691 -0.2465
vn 0.0001 0.7252 -0.6885
vn -0.0000 0.2716 -0.9624
vn -0.0000 0.9690 0.2470
vn -0.0000 0.7246 0.6892
vn -0.0000 0.2711 0.9625
vn -0.0000 0.7252 -0.6885
vn -0.0000 0.9690 -0.2470
vn -0.0000 0.7246 -0.6892
vn -0.0000 0.2711 -0.9625
vn 0.0001 0.7252 0.6885
vn -0.0000 0.9672 0.2542
vn -0.0000 0.7122 0.7020
vn -0.0000 0.2620 0.9651
vn 0.2604 0.9655 -0.0000
vn 0.7103 0.7039 -0.0000
vn 0.9665 0.2565 -0.0000
vn -0.2596 0.9657 -0.0000
vn -0.7100 0.7042 -0.0000
vn -0.9665 0.2566 -0.0000
vn 0.9666 -0.2563 -0.0000
vn 0.7113 -0.7029 -0.0000
vn 0.2629 -0.9648 -0.0000
vn -0.9666 -0.2564 -0.0000
vn -0.7109 -0.7033 -0.0000
vn -0.2620 -0.9651 -0.0000
vn -0.0000 -0.2618 0.9651
vn -0.0000 -0.7109 0.7033
vn -0.0000 -0.9663 0.2574
vn -0.0000 0.9671 0.2543
vn -0.0000 0.7120 0.7022
vn -0.0000 0.2619 0.9651
vn -0.0000 -0.2617 0.9652
vn -0.0000 -0.7107 0.7035
vn -0.0000 -0.9663 0.2575
vn -0.0000 0.9659 -0.2588
vn -0.0000 0.7071 -0.7071
vn -0.0000 0.2588 -0.9659
vn -0.0000 -0.2588 -0.9659
vn -0.0000 -0.7071 -0.7071
vn -0.0000 -0.9659 -0.2588
vn -0.0000 0.9671 0.2542
vn -0.2588 0.9659 -0.0000
vn -0.7071 0.7071 -0.0000
vn -0.9659 0.2588 -0.0000
vn -0.2588 -0.9659 -0.0000
vn -0.7071 -0.7071 -0.0000
vn -0.9659 -0.2588 -0.0000
vn 0.9659 -0.2588 -0.0000
vn 0.7071 -0.7071 -0.0000
vn 0.2588 -0.9659 -0.0000
vn -0.2581 0.9661 0.0003
vn -0.7068 0.7074 0.0001
vn -0.9659 0.2589 -0.0000
vn 0.2595 -0.9657 -0.0003
vn 0.7074 -0.7068 -0.0001
vn 0.2588 0.9659 -0.0000
vn 0.7071 0.7071 -0.0000
vn 0.9659 0.2589 -0.0000
vn 0.9659 0.2588 -0.0000
vt 0.789537 0.780369
vt 0.500000 0.375000
vt 0.000000 0.366943
vt 0.475972 0.367249
vt 0.692156 0.780369
vt 0.250000 0.375000
vt 0.459276 0.367249
vt 0.983674 0.681675
vt 0.789537 0.877751
vt 0.457318 0.368848
vt 0.982476 0.366943
vt 0.500000 0.125000
vt 0.692156 0.877751
vt 0.476004 0.368848
vt 0.000000 0.681675
vt 0.250000 0.125000
vt 0.000000 0.589416
vt 0.475972 0.589833
vt 0.476004 0.590741
vt 0.000000 0.905803
vt 0.983674 0.905803
vt 0.459276 0.589833
vt 0.457318 0.590741
vt 0.982476 0.589415
vt 0.000000 0.565641
vt 0.475972 0.566046
vt 0.983674 0.881852
vt 0.459276 0.566046
vt 0.457318 0.567028
vt 0.982476 0.565641
vt 0.000000 0.881852
vt 0.476004 0.567028
vt 0.475972 0.436826
vt 0.000000 0.456006
vt 0.475972 0.456357
vt 0.000000 0.446241
vt 0.459276 0.436826
vt 0.459276 0.456357
vt 0.983674 0.771401
vt 0.457318 0.457679
vt 0.457318 0.442054
vt 0.982476 0.446241
vt 0.982476 0.456006
vt 0.476004 0.457679
vt 0.000000 0.771401
vt 0.476004 0.442054
vt 0.000000 0.761635
vt 0.000000 0.771401
vt 0.476004 0.442054
vt 0.000000 0.761635
vt 0.476004 0.457679
vt 0.475972 0.436826
vt 0.475972 0.456357
vt 0.000000 0.456006
vt 0.000000 0.446241
vt 0.459276 0.436826
vt 0.459276 0.456357
vt 0.983674 0.771401
vt 0.457318 0.442054
vt 0.982476 0.446241
vt 0.982476 0.456006
vt 0.457318 0.457679
vt 0.391064 0.366943
vt 0.500000 0.275490
vt 0.692156 0.819131
vt 0.592133 0.681675
vt 0.250000 0.275490
vt 0.789537 0.819131
vt 0.391064 0.589416
vt 0.592133 0.905803
vt 0.592133 0.881852
vt 0.391064 0.565641
vt 0.391064 0.446241
vt 0.391064 0.456006
vt 0.592133 0.771401
vt 0.592133 0.761635
vt 0.391064 0.446241
vt 0.391064 0.456006
vt 0.592133 0.771401
vt 0.592133 0.761635
vt 0.734774 0.681675
vt 0.250000 0.311742
vt 0.789537 0.805010
vt 0.248597 0.589416
vt 0.248597 0.565641
vt 0.248597 0.446241
vt 0.248597 0.456006
vt 0.248597 0.446241
vt 0.248597 0.456006
vt 0.248597 0.366943
vt 0.500000 0.311742
vt 0.692156 0.805010
vt 0.734774 0.905803
vt 0.734774 0.881852
vt 0.734774 0.771401
vt 0.734774 0.761635
vt 0.734774 0.771401
vt 0.734774 0.761635
vt 0.000000 0.881852
vt 0.476004 0.567028
vt 0.000000 0.869286
vt 0.476004 0.554588
vt 0.000000 0.881852
vt 0.476004 0.567028
vt 0.001500 0.875569
vt 0.475967 0.560808
vt 0.459276 0.566046
vt 0.983674 0.881852
vt 0.459276 0.553568
vt 0.983674 0.869286
vt 0.459276 0.566046
vt 0.983674 0.881852
vt 0.459310 0.559807
vt 0.982174 0.875569
vt 0.457318 0.567028
vt 0.982476 0.565641
vt 0.982476 0.553168
vt 0.457318 0.554588
vt 0.457318 0.567028
vt 0.982476 0.565641
vt 0.457356 0.560808
vt 0.980977 0.559405
vt 0.475972 0.553568
vt 0.000000 0.553169
vt 0.475972 0.566046
vt 0.000000 0.565641
vt 0.475938 0.559807
vt 0.001498 0.559405
vt 0.475972 0.566046
vt 0.000000 0.565641
vt 0.592133 0.869286
vt 0.592133 0.881852
vt 0.591828 0.875569
vt 0.592133 0.881852
vt 0.391064 0.565641
vt 0.391064 0.553168
vt 0.391064 0.565641
vt 0.391368 0.559405
vt 0.248597 0.553168
vt 0.248597 0.565641
vt 0.249334 0.559405
vt 0.248597 0.565641
vt 0.734773 0.869286
vt 0.734774 0.881852
vt 0.734035 0.875569
vt 0.734773 0.881852
vt 0.476004 0.590741
vt 0.000000 0.905803
vt 0.476004 0.594571
vt 0.000000 0.909671
vt 0.476004 0.590741
vt 0.000000 0.905803
vt 0.475993 0.592655
vt 0.000576 0.907737
vt 0.692156 0.877751
vt 0.000000 0.996815
vt 0.476004 0.680844
vt 0.692156 0.877751
vt 0.000576 1.000683
vt 0.692215 0.877751
vt 0.475993 0.684674
vt 0.692156 0.780369
vt 0.459276 0.680217
vt 0.983674 0.996815
vt 0.692156 0.780369
vt 0.459287 0.684059
vt 0.692156 0.780427
vt 0.983098 1.000683
vt 0.475972 0.680217
vt 0.789667 0.780369
vt 0.789537 0.780804
vt 0.789537 0.780369
vt 0.475972 0.684059
vt 0.789602 0.780369
vt 0.789537 0.780587
vt 0.789667 0.877751
vt 0.789537 0.877316
vt 0.457318 0.680844
vt 0.789602 0.877751
vt 0.789537 0.877533
vt 0.789537 0.877751
vt 0.457318 0.684674
vt 0.475994 0.589833
vt 0.004381 0.589416
vt 0.475972 0.593675
vt 0.475983 0.589833
vt 0.002191 0.589416
vt 0.475972 0.591753
vt 0.000000 0.589416
vt 0.475972 0.589833
vt 0.459276 0.593675
vt 0.983674 0.909671
vt 0.459276 0.589833
vt 0.983674 0.905803
vt 0.459287 0.591753
vt 0.983098 0.907736
vt 0.459276 0.589833
vt 0.983673 0.905803
vt 0.457318 0.594571
vt 0.457293 0.590741
vt 0.978094 0.589415
vt 0.457318 0.592656
vt 0.457318 0.590741
vt 0.982476 0.589415
vt 0.457306 0.590741
vt 0.980285 0.589415
vt 0.592133 0.996815
vt 0.692156 0.819131
vt 0.592015 1.000683
vt 0.692156 0.819131
vt 0.592133 1.000683
vt 0.692156 0.819131
vt 0.391064 0.679754
vt 0.789537 0.819265
vt 0.789537 0.819565
vt 0.391064 0.683594
vt 0.789537 0.819131
vt 0.789537 0.819198
vt 0.789537 0.819348
vt 0.392419 0.589415
vt 0.395445 0.589416
vt 0.391064 0.593255
vt 0.392501 0.589416
vt 0.391358 0.591335
vt 0.592133 0.905803
vt 0.592133 0.909671
vt 0.592133 0.905803
vt 0.592015 0.907736
vt 0.789537 0.803833
vt 0.789537 0.804576
vt 0.248597 0.679754
vt 0.789537 0.804418
vt 0.789537 0.804793
vt 0.789537 0.805010
vt 0.248597 0.683594
vt 0.248597 0.593255
vt 0.236336 0.589416
vt 0.236721 0.589416
vt 0.244216 0.589416
vt 0.248303 0.591335
vt 0.244520 0.589416
vt 0.734774 0.996815
vt 0.692156 0.805010
vt 0.734489 1.000683
vt 0.692156 0.805010
vt 0.734774 1.000683
vt 0.692156 0.805010
vt 0.734774 0.905803
vt 0.734774 0.909671
vt 0.734773 0.905803
vt 0.734489 0.907737
vt 0.789537 0.804576
vt 0.248597 0.679754
vt 0.789537 0.804793
vt 0.248010 0.683594
vt 0.789537 0.805010
vt 0.248597 0.683594
vt 0.789537 0.780804
vt 0.000000 0.679754
vt 0.475972 0.680217
vt 0.789537 0.780587
vt 0.000587 0.683594
vt 0.789537 0.780369
vt 0.475972 0.684059
vt 0.004381 0.589416
vt 0.000000 0.593255
vt 0.475972 0.593675
vt 0.002191 0.589416
vt 0.000587 0.591335
vt 0.000000 0.589416
vt 0.475972 0.589833
vt 0.789537 0.877316
vt 0.982476 0.679754
vt 0.457318 0.680844
vt 0.789537 0.877533
vt 0.981889 0.683594
vt 0.789537 0.877751
vt 0.457318 0.684674
vt 0.978094 0.589415
vt 0.982476 0.593255
vt 0.457318 0.594571
vt 0.980285 0.589415
vt 0.981889 0.591335
vt 0.457318 0.590741
vt 0.982476 0.589415
vt 0.244216 0.589416
vt 0.248597 0.593255
vt 0.246406 0.589416
vt 0.248303 0.591335
vt 0.789537 0.819565
vt 0.391064 0.679754
vt 0.789537 0.819348
vt 0.391651 0.683594
vt 0.391064 0.683594
vt 0.789537 0.819131
vt 0.395445 0.589416
vt 0.391064 0.593255
vt 0.393255 0.589416
vt 0.391358 0.591335
s 0
usemtl Material
f 28/68/1 5/9/1 7/13/1 26/65/1
f 121/221/2 110/201/2 161/279/2 173/296/2
f 129/230/1 94/171/1 149/258/1 145/252/1
f 43/91/2 2/2/2 4/6/2 37/82/2
f 126/226/3 113/207/3 86/156/3 82/150/3
f 102/185/4 93/169/4 90/163/4 105/191/4
f 40/85/5 39/84/5 9/17/5 13/25/5
f 13/26/4 9/18/4 11/22/4 14/28/4
f 16/32/6 10/19/6 12/23/6 15/29/6
f 31/71/3 30/70/3 10/20/3 16/31/3
f 18/37/2 17/33/2 22/52/2 23/56/2
f 14/27/1 46/94/1 78/144/1 53/108/1
f 47/95/2 18/39/2 23/58/2 48/97/2
f 22/53/4 61/123/4 54/109/4 23/57/4
f 43/90/5 41/87/5 17/34/5 2/3/5
f 2/4/4 17/35/4 18/38/4 4/7/4
f 8/14/6 20/44/6 19/40/6 6/10/6
f 27/66/3 34/75/3 20/45/3 8/15/3
f 26/65/7 7/13/7 85/155/7 114/208/7
f 12/23/8 10/19/8 81/147/8 110/200/8
f 3/5/7 44/92/7 138/243/7 89/162/7
f 142/249/3 137/242/3 113/207/3 126/226/3
f 93/169/4 102/185/4 154/267/4 150/260/4
f 29/69/9 12/24/9 110/201/9 121/220/9
f 9/17/10 39/84/10 134/237/10 101/184/10
f 7/13/11 5/9/11 97/176/11 85/155/11
f 31/71/1 16/31/1 49/99/1 66/132/1
f 16/32/1 15/29/1 57/115/1 49/100/1
f 23/58/3 54/110/3 77/143/3 48/97/3
f 46/94/1 31/71/1 66/132/1 78/144/1
f 42/89/5 73/139/5 61/124/5 22/54/5
f 36/79/3 65/131/3 50/101/3 21/48/3
f 19/41/2 20/46/2 21/49/2 24/59/2
f 33/73/2 19/42/2 24/60/2 35/77/2
f 41/86/2 33/73/2 35/77/2 42/88/2
f 40/85/1 13/25/1 62/126/1 74/140/1
f 15/30/1 32/72/1 69/135/1 57/116/1
f 32/72/1 40/85/1 74/140/1 69/135/1
f 28/68/12 38/83/12 129/229/12 118/214/12
f 82/149/6 86/157/6 98/178/6 109/199/6
f 97/177/13 118/215/13 169/290/13 157/272/13
f 166/287/5 146/253/5 150/259/5 154/266/5
f 44/92/7 26/65/7 114/208/7 138/243/7
f 37/81/3 47/95/3 34/75/3 27/66/3
f 6/11/5 19/43/5 33/74/5 25/63/5
f 20/47/2 34/76/2 36/80/2 21/50/2
f 48/97/3 77/143/3 65/131/3 36/79/3
f 46/94/3 45/93/3 30/70/3 31/71/3
f 15/30/5 12/24/5 29/69/5 32/72/5
f 6/12/2 25/64/2 27/67/2 8/16/2
f 30/70/14 45/93/14 141/248/14 125/225/14
f 38/83/1 28/68/1 26/65/1 44/92/1
f 1/1/1 38/83/1 44/92/1 3/5/1
f 45/93/14 11/21/14 106/194/14 141/248/14
f 14/27/3 11/21/3 45/93/3 46/94/3
f 13/26/1 14/28/1 53/107/1 62/125/1
f 4/8/3 18/39/3 47/95/3 37/81/3
f 1/1/15 3/5/15 89/162/15 94/170/15
f 105/192/3 90/164/3 137/242/3 142/249/3
f 24/61/5 58/117/5 70/136/5 35/78/5
f 17/36/2 41/86/2 42/88/2 22/55/2
f 35/78/5 70/136/5 73/139/5 42/89/5
f 133/236/6 130/231/6 146/253/6 166/287/6
f 117/213/4 122/222/4 174/297/4 170/291/4
f 39/84/16 29/69/16 121/220/16 134/238/16
f 25/63/5 33/74/5 41/87/5 43/90/5
f 34/76/2 47/96/2 48/98/2 36/80/2
f 32/72/5 29/69/5 39/84/5 40/85/5
f 25/64/2 43/91/2 37/82/2 27/67/2
f 162/280/5 158/273/5 170/291/5 174/297/5
f 101/184/17 134/239/17 165/286/17 153/265/17
f 5/9/18 28/68/18 118/214/18 97/177/18
f 109/199/6 98/178/6 158/274/6 162/281/6
f 11/22/19 9/18/19 101/183/19 106/193/19
f 38/83/20 1/1/20 94/171/20 129/229/20
f 122/222/5 117/213/5 130/231/5 133/236/5
f 66/132/21 49/99/21 51/103/21 68/134/21
f 68/134/22 51/103/22 52/105/22 67/133/22
f 67/133/23 52/105/23 50/101/23 65/131/23
f 49/100/24 57/115/24 59/119/24 51/104/24
f 51/104/25 59/119/25 60/121/25 52/106/25
f 52/106/26 60/121/26 58/118/26 50/102/26
f 62/125/27 53/107/27 55/111/27 64/129/27
f 64/129/28 55/111/28 56/113/28 63/127/28
f 63/127/29 56/113/29 54/109/29 61/123/29
f 74/140/30 62/126/30 64/130/30 76/142/30
f 76/142/31 64/130/31 63/128/31 75/141/31
f 75/141/32 63/128/32 61/124/32 73/139/32
f 78/144/33 66/132/33 68/134/33 80/146/33
f 80/146/34 68/134/34 67/133/34 79/145/34
f 79/145/35 67/133/35 65/131/35 77/143/35
f 57/116/30 69/135/30 71/137/30 59/120/30
f 59/120/36 71/137/36 72/138/36 60/122/36
f 60/122/32 72/138/32 70/136/32 58/117/32
f 69/135/37 74/140/37 76/142/37 71/137/37
f 71/137/38 76/142/38 75/141/38 72/138/38
f 72/138/39 75/141/39 73/139/39 70/136/39
f 53/108/21 78/144/21 80/146/21 55/112/21
f 55/112/40 80/146/40 79/145/40 56/114/40
f 56/114/23 79/145/23 77/143/23 54/110/23
f 21/51/6 50/102/6 58/118/6 24/62/6
f 114/208/41 85/155/41 87/158/41 116/212/41
f 116/212/42 87/158/42 88/160/42 115/210/42
f 115/209/43 88/159/43 86/156/43 113/207/43
f 94/170/44 89/162/44 91/165/44 96/174/44
f 96/174/45 91/165/45 92/167/45 95/172/45
f 95/173/46 92/166/46 90/163/46 93/169/46
f 85/155/47 97/176/47 99/179/47 87/158/47
f 87/158/48 99/179/48 100/181/48 88/160/48
f 88/161/49 100/182/49 98/178/49 86/157/49
f 102/185/50 105/191/50 107/195/50 104/188/50
f 104/188/51 107/195/51 108/197/51 103/186/51
f 103/186/52 108/197/52 106/193/52 101/183/52
f 82/149/53 109/199/53 111/202/53 84/153/53
f 84/153/54 111/202/54 112/205/54 83/151/54
f 83/151/55 112/205/55 110/200/55 81/147/55
f 126/226/56 82/150/56 84/154/56 128/228/56
f 128/228/57 84/154/57 83/152/57 127/227/57
f 127/227/58 83/152/58 81/148/58 125/225/58
f 138/243/59 114/208/59 116/212/59 140/247/59
f 140/247/60 116/212/60 115/210/60 139/245/60
f 139/244/61 115/211/61 113/207/61 137/242/61
f 142/249/62 126/226/62 128/228/62 144/251/62
f 144/251/63 128/228/63 127/227/63 143/250/63
f 143/250/64 127/227/64 125/225/64 141/248/64
f 118/214/65 129/229/65 131/232/65 120/218/65
f 120/218/66 131/232/66 132/234/66 119/217/66
f 119/216/67 132/235/67 130/231/67 117/213/67
f 122/222/68 133/236/68 135/240/68 124/224/68
f 124/224/69 135/240/69 136/241/69 123/223/69
f 123/223/70 136/241/70 134/238/70 121/220/70
f 89/162/71 138/243/71 140/247/71 91/165/71
f 91/165/42 140/247/42 139/245/42 92/167/42
f 92/168/43 139/246/43 137/242/43 90/164/43
f 105/192/56 142/249/56 144/251/56 107/196/56
f 107/196/57 144/251/57 143/250/57 108/198/57
f 108/198/58 143/250/58 141/248/58 106/194/58
f 145/252/65 149/258/65 151/261/65 147/254/65
f 147/254/66 151/261/66 152/263/66 148/256/66
f 148/255/67 152/262/67 150/259/67 146/253/67
f 166/287/68 154/266/68 156/269/68 168/289/68
f 168/289/69 156/269/69 155/268/69 167/288/69
f 167/288/70 155/268/70 153/265/70 165/286/70
f 157/272/65 169/290/65 171/292/65 159/275/65
f 159/275/66 171/292/66 172/295/66 160/277/66
f 160/276/67 172/293/67 170/291/67 158/273/67
f 162/280/68 174/297/68 176/299/68 164/283/68
f 164/283/69 176/299/69 175/298/69 163/282/69
f 163/282/70 175/298/70 173/296/70 161/279/70
f 129/230/72 145/252/72 147/254/72 131/233/72
f 131/233/73 147/254/73 148/256/73 132/234/73
f 132/235/74 148/257/74 146/253/74 130/231/74
f 165/286/75 134/239/75 136/241/75 167/288/75
f 167/288/76 136/241/76 135/240/76 168/289/76
f 168/289/77 135/240/77 133/236/77 166/287/77
f 109/199/77 162/281/77 164/284/77 111/203/77
f 111/204/76 164/285/76 163/282/76 112/206/76
f 112/206/75 163/282/75 161/279/75 110/201/75
f 174/297/78 122/222/78 124/224/78 176/299/78
f 176/299/79 124/224/79 123/223/79 175/298/79
f 175/298/80 123/223/80 121/221/80 173/296/80
f 97/177/81 157/272/81 159/275/81 99/180/81
f 99/180/82 159/275/82 160/277/82 100/181/82
f 100/182/83 160/278/83 158/274/83 98/178/83
f 101/184/84 153/265/84 155/268/84 103/187/84
f 103/187/85 155/268/85 156/270/85 104/189/85
f 104/190/78 156/271/78 154/267/78 102/185/78
f 149/258/86 94/171/86 96/175/86 151/261/86
f 151/261/87 96/175/87 95/172/87 152/263/87
f 152/264/88 95/173/88 93/169/88 150/260/88
f 117/213/89 170/291/89 172/294/89 119/216/89
f 119/217/87 172/295/87 171/292/87 120/219/87
f 120/219/86 171/292/86 169/290/86 118/215/86
f 10/20/14 30/70/14 125/225/14 81/148/14
