# Blender 3.3.0
# www.blender.org
mtllib computer6.mtl
o Cube
v -1.000000 2.080533 -1.000000
v -1.000000 -1.000000 -1.000000
v -1.000000 2.080533 1.000000
v -1.000000 -1.000000 1.000000
v 1.000000 2.080533 -0.619056
v 0.619056 2.080533 -1.000000
v 0.619056 -1.000000 -1.000000
v 1.000000 -1.000000 -0.619056
v 0.619056 2.080533 1.000000
v 1.000000 2.080533 0.619056
v 1.000000 -1.000000 0.619056
v 0.619056 -1.000000 1.000000
v 0.798678 -1.000000 -1.000000
v 0.798678 -1.000000 1.000000
v -1.000000 -1.000000 -0.896207
v -1.000000 2.080533 -0.896207
v -1.000000 -1.000000 0.903391
v -1.000000 2.080533 0.903391
v -1.053848 -1.000000 0.903391
v -1.053848 -1.000000 1.000000
v -1.053848 2.080533 1.000000
v -1.053848 2.080533 -1.000000
v -1.053848 -1.000000 -1.000000
v -1.053848 2.080533 -0.896207
v -1.053848 -1.000000 -0.896207
v -1.053848 2.080533 0.903391
v 1.000000 -0.132119 -0.619056
v 1.000000 -0.132119 0.619056
v 0.798678 -0.132119 -1.000000
v 0.798678 -0.132119 1.000000
v -1.000000 -0.132119 -0.896207
v -1.000000 -0.132119 0.903391
v -1.053848 -0.132119 1.000000
v -1.053848 -0.132119 -1.000000
v -1.053848 -0.132119 -0.896207
v -1.053848 -0.132119 0.903391
v -1.000000 1.347327 1.000000
v 0.619056 1.347327 -1.000000
v 1.000000 1.347327 0.619056
v 0.798678 1.347327 -1.000000
v -1.053848 1.347327 1.000000
v -1.000000 1.347327 -1.000000
v 1.000000 1.347327 -0.619056
v 0.619056 1.347327 1.000000
v 0.798678 1.347327 1.000000
v -1.000000 1.347327 -0.896207
v -1.000000 1.347327 0.903391
v -1.053848 1.347327 -1.000000
v -1.053848 1.347327 -0.896207
v -1.053848 1.347327 0.903391
v -1.000000 -1.000000 -1.140987
v 0.619056 -1.000000 1.140987
v 0.619056 -1.000000 -1.140987
v -1.000000 -1.000000 1.140987
v 1.000000 -1.000000 0.584652
v 1.000000 2.080533 0.584652
v 1.000000 -0.132119 0.584652
v 1.000000 1.347327 0.584652
v 1.000000 -1.000000 -0.584106
v 1.000000 2.080533 -0.584106
v 1.000000 -0.132119 -0.584106
v 1.000000 1.347327 -0.584106
v -1.000000 0.374762 -1.000000
v 1.000000 0.374762 -0.619056
v 0.619056 0.374762 1.000000
v 0.798678 0.374762 1.000000
v -1.000000 0.374762 -0.896207
v -1.000000 0.374762 0.903391
v -1.053848 0.374762 -1.000000
v -1.053848 0.374762 -0.896207
v -1.053848 0.374762 0.903391
v -1.000000 0.374762 1.000000
v 0.619056 0.374762 -1.000000
v 1.000000 0.374762 0.619056
v 0.798678 0.374762 -1.000000
v -1.053848 0.374762 1.000000
v 1.000000 0.374762 0.584652
v 1.000000 0.374762 -0.584106
v -1.000000 0.431452 1.000000
v 0.619056 0.431452 -1.000000
v 1.000000 0.431452 0.619056
v 0.798678 0.431452 -1.000000
v -1.053848 0.431452 1.000000
v -1.000000 0.431452 -1.000000
v 1.000000 0.431452 -0.619056
v 0.619056 0.431452 1.000000
v 0.798678 0.431452 1.000000
v -1.000000 0.431452 -0.896207
v -1.000000 0.431452 0.903391
v -1.053848 0.431452 -1.000000
v -1.053848 0.431452 -0.896207
v -1.053848 0.431452 0.903391
v 1.000000 0.431452 0.584652
v 1.000000 0.431452 -0.584106
v 1.000000 2.080533 0.542535
v 1.000000 -0.312760 -0.619056
v 1.000000 1.347327 0.542535
v 1.000000 -1.000000 0.542535
v 1.000000 0.374762 0.542535
v 1.000000 0.431452 0.542535
v 1.000000 -1.000000 -0.547081
v 1.000000 2.080533 -0.547081
v -1.000000 -0.312760 -1.000000
v 1.000000 1.347327 -0.547081
v 1.000000 0.374762 -0.547081
v 1.000000 0.431452 -0.547081
v 1.075110 -0.132119 0.542535
v 1.075110 -0.132119 0.584652
v 1.075110 0.374762 0.584652
v 1.075110 -1.000000 0.584652
v 1.075110 -1.000000 -0.547081
v 1.075110 -1.000000 -0.584106
v 1.075110 -0.132119 -0.584106
v 1.075110 0.374762 -0.584106
v 1.075110 0.374762 0.542535
v 1.075110 -0.132119 -0.547081
v 1.075110 -1.000000 0.542535
v 1.075110 0.374762 -0.547081
v 1.075110 0.431452 -0.547081
v 1.075110 0.431452 0.542535
v 0.619056 -0.312760 1.000000
v 0.798678 -0.312760 1.000000
v -1.000000 -0.312760 -0.896207
v -1.000000 -0.312760 0.903391
v -1.053848 -0.312760 -1.000000
v -1.053848 -0.312760 -0.896207
v -1.053848 -0.312760 0.903391
v -1.000000 -0.312760 1.000000
v 0.619056 -0.312760 -1.000000
v 1.000000 -0.312760 0.619056
v 0.798678 -0.312760 -1.000000
v -1.053848 -0.312760 1.000000
v -1.000000 -0.312760 -1.140987
v 0.619056 -0.312760 1.140987
v -1.000000 -0.312760 1.140987
v 0.619056 -0.312760 -1.140987
v 1.000000 -0.312760 0.584652
v 1.000000 -0.312760 -0.584106
v 1.075110 -0.312760 0.584652
v 1.075110 -0.312760 -0.584106
v 1.075110 -0.312760 0.542535
v 1.075110 -0.312760 -0.547081
v -1.000000 -0.252182 1.000000
v 0.619056 -0.252182 -1.000000
v 1.000000 -0.252182 0.619056
v 0.798678 -0.252182 -1.000000
v -1.053848 -0.252182 1.000000
v -1.000000 -0.252182 1.140987
v 0.619056 -0.252182 -1.140987
v -1.000000 -0.252182 -1.000000
v 1.000000 -0.252182 -0.619056
v 0.619056 -0.252182 1.000000
v 0.798678 -0.252182 1.000000
v -1.000000 -0.252182 -0.896207
v -1.000000 -0.252182 0.903391
v -1.053848 -0.252182 -1.000000
v -1.053848 -0.252182 -0.896207
v -1.053848 -0.252182 0.903391
v -1.000000 -0.252182 -1.140987
v 0.619056 -0.252182 1.140987
v 1.000000 -0.252182 0.584652
v 1.000000 -0.252182 -0.584106
v 1.075110 -0.252182 0.584652
v 1.075110 -0.252182 -0.584106
v 1.075110 -0.252182 0.542535
v 1.075110 -0.252182 -0.547081
v 1.138032 -0.312760 0.584652
v 1.138032 -1.000000 0.584652
v 1.138032 -1.000000 -0.547081
v 1.138032 -1.000000 -0.584106
v 1.138032 -0.312760 -0.584106
v 1.138032 -1.000000 0.542535
v 1.138032 -0.312760 0.542535
v 1.138032 -0.312760 -0.547081
v 1.138032 -0.252182 0.542535
v 1.138032 -0.252182 -0.547081
v -0.064985 -1.000000 -1.000000
v -0.064985 2.080533 -1.000000
v -0.064985 -0.132119 -1.000000
v -0.064985 1.347327 -1.000000
v -0.064985 -1.000000 -1.140987
v -0.064985 0.374762 -1.000000
v -0.064985 0.431452 -1.000000
v -0.064985 -0.312760 -1.140987
v -0.064985 -0.252182 -1.140987
v -1.000000 2.040065 1.000000
v 1.000000 2.040065 0.619056
v 0.798678 2.040065 -1.000000
v -1.053848 2.040065 1.000000
v -1.000000 2.040065 -1.000000
v 1.000000 2.040065 -0.619056
v 0.798678 2.040065 1.000000
v -1.000000 2.040065 -0.896207
v -1.000000 2.040065 0.903391
v -1.053848 2.040065 -1.000000
v -1.053848 2.040065 -0.896207
v -1.053848 2.040065 0.903391
v -1.000000 2.040163 1.059759
v 0.619056 2.040163 -1.059759
v 0.798678 2.040163 -1.059759
v -1.000000 2.040163 -1.059759
v 0.619056 2.040163 1.059759
v 0.798678 2.040163 1.059759
v 1.000000 2.040065 0.584652
v 1.000000 2.040065 -0.584106
v 1.000000 2.040065 0.542535
v 1.000000 2.040065 -0.547081
v -0.064985 2.040163 -1.059759
v -1.000000 1.446418 -1.000000
v 1.000000 1.446418 -0.619056
v 0.798678 1.446418 1.000000
v -1.000000 1.446418 -0.896207
v -1.000000 1.446418 0.903391
v -1.053848 1.446418 -1.000000
v -1.053848 1.446418 -0.896207
v -1.053848 1.446418 0.903391
v -1.000000 1.446516 -1.059759
v 0.619056 1.446516 1.059759
v 0.798678 1.446516 1.059759
v 1.000000 1.446418 0.584652
v 1.000000 1.446418 -0.584106
v 1.000000 1.446418 0.542535
v 1.000000 1.446418 -0.547081
v -0.064985 1.446516 -1.059759
v -1.000000 1.446418 1.000000
v 1.000000 1.446418 0.619056
v 0.798678 1.446418 -1.000000
v -1.053848 1.446418 1.000000
v -1.000000 1.446516 1.059759
v 0.619056 1.446516 -1.059759
v 0.798678 1.446516 -1.059759
v 0.591764 2.080533 -1.000000
v 0.591764 -0.132119 -1.000000
v 0.591764 1.347327 -1.000000
v 0.591764 0.374762 -1.000000
v 0.591764 0.431452 -1.000000
v 0.591764 -0.312760 -1.140987
v 0.591764 -0.252182 -1.140987
v 0.591764 -1.000000 -1.000000
v 0.591764 -1.000000 -1.140987
v 0.591764 2.040163 -1.059759
v 0.591764 1.446516 -1.059759
v -0.069729 2.080533 1.000000
v -0.069729 -1.000000 1.000000
v -0.069729 -0.132119 1.000000
v -0.069729 1.347327 1.000000
v -0.069729 -1.000000 1.140987
v -0.069729 0.374762 1.000000
v -0.069729 0.431452 1.000000
v -0.069729 -0.312760 1.140987
v -0.069729 -0.252182 1.140987
v -0.069729 2.040163 1.059759
v -0.069729 1.446516 1.059759
v 0.582036 2.080533 1.000000
v 0.582036 -1.000000 1.000000
v 0.582036 -0.132119 1.000000
v 0.582036 1.347327 1.000000
v 0.582036 -1.000000 1.140987
v 0.582036 0.374762 1.000000
v 0.582036 0.431452 1.000000
v 0.582036 -0.312760 1.140987
v 0.582036 -0.252182 1.140987
v 0.582036 2.040163 1.059759
v 0.582036 1.446516 1.059759
v -1.000000 2.080533 0.003592
v -1.000000 -1.000000 0.003592
v -1.000000 -0.132119 0.003592
v -1.000000 1.347327 0.003592
v -1.000000 0.374762 0.003592
v -1.000000 0.431452 0.003592
v -1.000000 -0.312760 0.003592
v -1.000000 -0.252182 0.003592
v -1.000000 2.040065 0.003592
v -1.000000 1.446418 0.003592
v -1.000000 2.126955 -0.896207
v -0.943864 2.183091 -0.896207
v -0.992479 2.155023 -0.896207
v -0.971932 2.175570 -0.896207
v -0.943864 2.183091 -0.943864
v -1.000000 2.126955 -1.000000
v -0.971932 2.175570 -0.971932
v -0.992479 2.155023 -0.992479
v 0.619056 2.126955 -1.000000
v 0.595803 2.183091 -0.943864
v 0.615940 2.155023 -0.992479
v 0.607430 2.175570 -0.971932
v 0.943864 2.183091 -0.595803
v 1.000000 2.126955 -0.619056
v 0.971932 2.175570 -0.607430
v 0.992479 2.155023 -0.615940
v 1.000000 2.126955 0.619056
v 0.943864 2.183091 0.595803
v 0.992479 2.155023 0.615940
v 0.971932 2.175570 0.607430
v 0.595803 2.183091 0.943864
v 0.619056 2.126955 1.000000
v 0.607430 2.175570 0.971932
v 0.615940 2.155023 0.992479
v 0.591764 2.126955 -1.000000
v 0.591764 2.183091 -0.943864
v 0.591764 2.155023 -0.992479
v 0.591764 2.175570 -0.971932
v 1.000000 2.126955 0.584652
v 0.943864 2.183091 0.584652
v 0.992479 2.155023 0.584652
v 0.971932 2.175570 0.584652
v 0.582036 2.183091 0.943864
v 0.582036 2.126955 1.000000
v 0.582036 2.175570 0.971932
v 0.582036 2.155023 0.992479
v -1.000000 2.126955 0.003592
v -0.943864 2.183091 0.003592
v -0.992479 2.155023 0.003592
v -0.971932 2.175570 0.003592
v -1.000000 2.126955 1.000000
v -0.943864 2.183091 0.943864
v -0.992479 2.155023 0.992479
v -0.971932 2.175570 0.971932
v -0.943864 2.183091 0.903391
v -1.000000 2.126955 0.903391
v -0.971932 2.175570 0.903391
v -0.992479 2.155023 0.903391
v 1.000000 2.126955 0.542535
v 0.943864 2.183091 0.542535
v 0.992479 2.155023 0.542535
v 0.971932 2.175570 0.542535
v 0.943864 2.183091 -0.584106
v 1.000000 2.126955 -0.584106
v 0.971932 2.175570 -0.584106
v 0.992479 2.155023 -0.584106
v 1.000000 2.126955 -0.547081
v 0.943864 2.183091 -0.547081
v 0.992479 2.155023 -0.547081
v 0.971932 2.175570 -0.547081
v -0.064985 2.183091 -0.943864
v -0.064985 2.126955 -1.000000
v -0.064985 2.175570 -0.971932
v -0.064985 2.155023 -0.992479
v -0.069729 2.126955 1.000000
v -0.069729 2.183091 0.943864
v -0.069729 2.155023 0.992479
v -0.069729 2.175570 0.971932
v 1.105595 2.080533 -0.619056
v 1.135595 2.080533 -0.626069
v 1.143531 2.080533 -0.645228
v 1.127277 -1.000000 -0.671401
v 1.105595 -1.000000 -0.619056
v 1.143531 -1.000000 -0.645228
v 1.135595 -1.000000 -0.626069
v 1.105595 2.080533 0.619056
v 1.143531 2.080533 0.645228
v 1.135595 2.080533 0.626069
v 1.105595 -1.000000 0.619056
v 1.127277 -1.000000 0.671401
v 1.135595 -1.000000 0.626069
v 1.143531 -1.000000 0.645228
v 1.105595 -0.132119 -0.619056
v 1.127277 -0.132119 -0.671401
v 1.135595 -0.132119 -0.626069
v 1.143531 -0.132119 -0.645228
v 1.105595 -0.132119 0.619056
v 1.127277 -0.132119 0.671401
v 1.135595 -0.132119 0.626069
v 1.143531 -0.132119 0.645228
v 1.105595 1.347327 0.619056
v 1.127277 1.347327 0.671401
v 1.135595 1.347327 0.626069
v 1.143531 1.347327 0.645228
v 1.105595 1.347327 -0.619056
v 1.127277 1.347327 -0.671401
v 1.135595 1.347327 -0.626069
v 1.143531 1.347327 -0.645228
v 1.127277 0.374762 -0.671401
v 1.105595 0.374762 -0.619056
v 1.143531 0.374762 -0.645228
v 1.135595 0.374762 -0.626069
v 1.105595 0.374762 0.619056
v 1.127277 0.374762 0.671401
v 1.135595 0.374762 0.626069
v 1.143531 0.374762 0.645228
v 1.127277 0.431452 0.671401
v 1.105595 0.431452 0.619056
v 1.143531 0.431452 0.645228
v 1.135595 0.431452 0.626069
v 1.127277 0.431452 -0.671401
v 1.105595 0.431452 -0.619056
v 1.143531 0.431452 -0.645228
v 1.135595 0.431452 -0.626069
v 1.127277 -0.312760 -0.671401
v 1.105595 -0.312760 -0.619056
v 1.143531 -0.312760 -0.645228
v 1.135595 -0.312760 -0.626069
v 1.105595 -0.312760 0.619056
v 1.127277 -0.312760 0.671401
v 1.135595 -0.312760 0.626069
v 1.143531 -0.312760 0.645228
v 1.127277 -0.252182 0.671401
v 1.105595 -0.252182 0.619056
v 1.143531 -0.252182 0.645228
v 1.135595 -0.252182 0.626069
v 1.127277 -0.252182 -0.671401
v 1.105595 -0.252182 -0.619056
v 1.143531 -0.252182 -0.645228
v 1.135595 -0.252182 -0.626069
v 1.127277 2.040065 0.671401
v 1.105595 2.040065 0.619056
v 1.143531 2.040065 0.645228
v 1.135595 2.040065 0.626069
v 1.105595 2.040065 -0.619056
v 1.127277 2.040065 -0.671401
v 1.135595 2.040065 -0.626069
v 1.143531 2.040065 -0.645228
v 1.127277 1.446418 -0.671401
v 1.105595 1.446418 -0.619056
v 1.143531 1.446418 -0.645228
v 1.135595 1.446418 -0.626069
v 1.127277 1.446418 0.671401
v 1.105595 1.446418 0.619056
v 1.143531 1.446418 0.645228
v 1.135595 1.446418 0.626069
v -0.064985 2.040163 -1.084080
v -0.012227 1.987405 -1.136838
v -0.057917 2.033095 -1.110459
v -0.038606 2.013784 -1.129770
v -0.012227 1.499275 -1.136838
v -0.064985 1.446516 -1.084080
v -0.038606 1.472896 -1.129770
v -0.057917 1.453585 -1.110459
v 0.591764 2.040163 -1.084080
v 0.539006 1.987405 -1.136838
v 0.584696 2.033095 -1.110459
v 0.565385 2.013784 -1.129770
v 0.539006 1.499275 -1.136838
v 0.591764 1.446516 -1.084080
v 0.565385 1.472896 -1.129770
v 0.584696 1.453584 -1.110459
v 0.529278 1.987405 1.136838
v 0.582036 2.040163 1.084080
v 0.555657 2.013784 1.129770
v 0.574968 2.033095 1.110459
v -0.069729 2.040163 1.084080
v -0.016971 1.987405 1.136838
v -0.062661 2.033095 1.110459
v -0.043350 2.013784 1.129770
v 0.582036 1.446516 1.084080
v 0.529278 1.499275 1.136838
v 0.574968 1.453584 1.110459
v 0.555657 1.472896 1.129770
v -0.016971 1.499275 1.136838
v -0.069729 1.446516 1.084080
v -0.043350 1.472896 1.129770
v -0.062661 1.453585 1.110459
v -1.000000 2.047849 1.059759
v -1.000000 2.080577 1.026977
v -1.000000 2.064232 1.055367
v -1.000000 2.076212 1.043368
v 0.619056 2.080577 -1.026977
v 0.619056 2.047849 -1.059759
v 0.619056 2.076212 -1.043368
v 0.619056 2.064232 -1.055367
v -1.000000 2.080577 -1.026977
v -1.000000 2.047849 -1.059759
v -1.000000 2.076212 -1.043368
v -1.000000 2.064232 -1.055367
v 0.619056 2.047849 1.059759
v 0.619056 2.080577 1.026977
v 0.619056 2.064232 1.055367
v 0.619056 2.076212 1.043368
v 0.798678 2.047849 -1.059759
v 0.798678 2.080577 -1.026977
v 0.798678 2.064232 -1.055367
v 0.798678 2.076212 -1.043368
v 0.798678 2.080577 1.026977
v 0.798678 2.047849 1.059759
v 0.798678 2.076212 1.043368
v 0.798678 2.064232 1.055367
v -0.064985 2.080577 -1.026977
v -0.064985 2.047849 -1.059759
v -0.064985 2.076212 -1.043368
v -0.064985 2.064232 -1.055367
v 0.591764 2.047849 -1.059759
v 0.591764 2.080577 -1.026977
v 0.591764 2.064232 -1.055367
v 0.591764 2.076212 -1.043368
v -0.069729 2.047849 1.059759
v -0.069729 2.080577 1.026977
v -0.069729 2.064232 1.055367
v -0.069729 2.076212 1.043368
v 0.582036 2.080577 1.026977
v 0.582036 2.047849 1.059759
v 0.582036 2.076212 1.043368
v 0.582036 2.064232 1.055367
v 0.769204 2.080533 -1.000000
v 0.798678 2.059692 -1.000000
v 0.798678 2.080567 -1.020841
v 0.783941 2.077741 -1.000000
v 0.794729 2.070112 -1.000000
v 0.798678 2.059692 1.000000
v 0.769204 2.080533 1.000000
v 0.798678 2.080567 1.020841
v 0.794729 2.070112 1.000000
v 0.783941 2.077741 1.000000
v 1.127277 2.059692 -0.671401
v 1.143531 2.080533 -0.645228
v 1.129454 2.070112 -0.667895
v 1.135404 2.077741 -0.658315
v 1.143531 2.080533 0.645228
v 1.127277 2.059692 0.671401
v 1.135404 2.077741 0.658315
v 1.129454 2.070112 0.667895
v -1.000000 -0.161535 1.000000
v -0.970584 -0.132119 1.000000
v -1.000000 -0.102703 1.000000
v -1.029416 -0.132119 1.000000
v -0.996059 -0.146827 1.000000
v -0.985292 -0.136060 1.000000
v -0.970584 -0.132119 -1.000000
v -1.000000 -0.161535 -1.000000
v -1.029416 -0.132119 -1.000000
v -1.000000 -0.102703 -1.000000
v -0.985292 -0.136060 -1.000000
v -0.996059 -0.146827 -1.000000
v 0.619056 -0.161535 -1.000000
v 0.591764 -0.132119 -1.000000
v 0.619056 -0.102703 -1.000000
v 0.648471 -0.132119 -1.000000
v 0.615399 -0.146827 -1.000000
v 0.605410 -0.136060 -1.000000
v 0.589640 -0.132119 1.000000
v 0.619056 -0.161535 1.000000
v 0.648471 -0.132119 1.000000
v 0.619056 -0.102703 1.000000
v 0.604348 -0.136060 1.000000
v 0.615115 -0.146827 1.000000
v -0.970584 -0.132119 -1.111571
v -1.000000 -0.161535 -1.140987
v -0.985292 -0.136060 -1.126279
v -0.996059 -0.146827 -1.137046
v 0.589640 -0.132119 1.111571
v 0.619056 -0.161535 1.140987
v 0.604348 -0.136060 1.126279
v 0.615115 -0.146827 1.137046
v -0.970584 -0.132119 1.111571
v -1.000000 -0.161535 1.140987
v -0.985292 -0.136060 1.126279
v -0.996059 -0.146827 1.137046
v 0.589640 -0.132119 -1.111571
v 0.619056 -0.161535 -1.140987
v 0.604348 -0.136060 -1.126279
v 0.615115 -0.146827 -1.137046
v -0.064985 -0.132119 -1.111571
v -0.064985 -0.161535 -1.140987
v -0.064985 -0.136060 -1.126279
v -0.064985 -0.146827 -1.137046
v 0.591764 -0.161535 -1.140987
v 0.591764 -0.132119 -1.111571
v 0.591764 -0.146827 -1.137046
v 0.591764 -0.136060 -1.126279
v -0.069729 -0.161535 1.140987
v -0.069729 -0.132119 1.111571
v -0.069729 -0.146827 1.137046
v -0.069729 -0.136060 1.126279
v 0.582036 -0.161535 1.140987
v 0.582036 -0.132119 1.111571
v 0.582036 -0.146827 1.137046
v 0.582036 -0.136060 1.126279
v -1.000000 1.347345 1.010892
v -1.000000 1.396292 1.059759
v -1.000000 1.353932 1.035326
v -1.000000 1.371848 1.053212
v 0.619056 1.347345 -1.010892
v 0.619056 1.396292 -1.059759
v 0.619056 1.353932 -1.035326
v 0.619056 1.371848 -1.053212
v 0.798678 1.347345 -1.010892
v 0.798678 1.396292 -1.059759
v 0.798678 1.353932 -1.035326
v 0.798678 1.371848 -1.053212
v -1.000000 1.396292 -1.059759
v -1.000000 1.347345 -1.010892
v -1.000000 1.371848 -1.053212
v -1.000000 1.353932 -1.035326
v 0.619056 1.396292 1.059759
v 0.619056 1.347345 1.010892
v 0.619056 1.371848 1.053212
v 0.619056 1.353932 1.035326
v 0.798678 1.396292 1.059759
v 0.798678 1.347345 1.010892
v 0.798678 1.371848 1.053212
v 0.798678 1.353932 1.035326
v -0.064985 1.396292 -1.059759
v -0.064985 1.347345 -1.010892
v -0.064985 1.371848 -1.053212
v -0.064985 1.353932 -1.035326
v 0.591764 1.347345 -1.010892
v 0.591764 1.396292 -1.059759
v 0.591764 1.353932 -1.035326
v 0.591764 1.371848 -1.053212
v -0.069729 1.347345 1.010892
v -0.069729 1.396292 1.059759
v -0.069729 1.353932 1.035326
v -0.069729 1.371848 1.053212
v 0.582036 1.347345 1.010892
v 0.582036 1.396292 1.059759
v 0.582036 1.353932 1.035326
v 0.582036 1.371848 1.053212
vn -0.0000 -1.0000 -0.0000
vn -0.0000 1.0000 -0.0000
vn -0.0000 1.0000 -0.0016
vn -1.0000 -0.0000 -0.0000
vn 1.0000 -0.0000 -0.0000
vn -0.0000 -0.0000 1.0000
vn -0.0000 -1.0000 0.0016
vn 0.7071 -0.0000 -0.7071
vn -0.0000 -0.0000 -1.0000
vn 0.7071 -0.0000 0.7071
vn -0.0000 1.0000 0.0016
vn 0.8495 -0.0000 -0.5276
vn -0.0000 -1.0000 -0.0016
vn -0.2588 0.9659 -0.0000
vn -0.7071 0.7071 -0.0000
vn -0.9659 0.2588 -0.0000
vn 0.1830 0.9659 -0.1830
vn 0.5000 0.7071 -0.5000
vn 0.6830 0.2588 -0.6830
vn 0.1830 0.9659 0.1830
vn 0.5000 0.7071 0.5000
vn 0.6830 0.2588 0.6830
vn -0.0000 0.9659 -0.2588
vn -0.0000 0.7071 -0.7071
vn -0.0000 0.2588 -0.9659
vn 0.2588 0.9659 -0.0000
vn 0.7071 0.7071 -0.0000
vn 0.9659 0.2588 -0.0000
vn -0.0000 0.2588 0.9659
vn -0.0000 0.7071 0.7071
vn -0.0000 0.9659 0.2588
vn 0.2276 -0.0000 0.9737
vn 0.9239 -0.0000 0.3827
vn 0.2276 -0.0000 -0.9737
vn 0.9239 -0.0000 -0.3827
vn 0.8495 -0.0000 0.5276
vn -0.2588 -0.0000 -0.9659
vn -0.7071 -0.0000 -0.7071
vn -0.9659 -0.0000 -0.2588
vn -0.0000 -0.2588 -0.9659
vn -0.0000 -0.7071 -0.7071
vn -0.0000 -0.9659 -0.2588
vn 0.9659 -0.0000 -0.2588
vn 0.2588 -0.0000 -0.9659
vn -0.0000 -0.2588 0.9659
vn -0.0000 -0.7071 0.7071
vn -0.0000 -0.9659 0.2588
vn -0.9659 -0.0000 0.2588
vn -0.7071 -0.0000 0.7071
vn -0.2588 -0.0000 0.9659
vn 0.2588 -0.0000 0.9659
vn 0.9659 -0.0000 0.2588
vn -0.0000 0.9663 -0.2574
vn -0.0000 0.7077 -0.7065
vn -0.0000 0.2589 -0.9659
vn -0.0000 0.2589 0.9659
vn -0.0000 0.7077 0.7065
vn -0.0000 0.9663 0.2574
vn -0.0000 0.9663 0.2573
vn -0.0000 0.9663 -0.2573
vn 0.1799 0.9498 0.2560
vn 0.5124 0.7247 0.4606
vn 0.8812 0.3339 0.3345
vn 0.8812 0.3339 -0.3345
vn 0.5125 0.7247 -0.4606
vn 0.1799 0.9498 -0.2560
vn 0.2562 0.9290 -0.2670
vn 0.5820 0.5567 -0.5927
vn 0.6946 0.1764 -0.6974
vn 0.2562 0.9290 0.2670
vn 0.5820 0.5567 0.5927
vn 0.6946 0.1764 0.6974
vn 0.9682 0.2502 -0.0010
vn 0.7191 0.6949 -0.0037
vn 0.2661 0.9639 -0.0036
vn -0.0000 -0.9655 0.2603
vn -0.0000 -0.7065 0.7077
vn -0.0000 -0.2587 0.9660
vn -0.0000 -0.2587 -0.9660
vn -0.0000 -0.7065 -0.7077
vn -0.0000 -0.9655 -0.2603
vt -0.000225 0.999977
vt 0.947463 0.003774
vt 0.562344 0.048507
vt -0.000225 0.256410
vt 0.947463 0.381216
vt 0.000000 0.999893
vt 0.000000 0.256836
vt 0.377137 0.048507
vt 0.570510 0.075666
vt 0.953970 1.000000
vt 0.642309 0.003774
vt 0.447819 0.256410
vt 0.562344 0.198437
vt 0.527067 0.233714
vt 0.953970 0.383057
vt 0.642309 0.381216
vt 0.570510 0.309324
vt 0.518198 1.000000
vt 0.412413 0.233714
vt 0.518198 0.383057
vt 0.377137 0.198437
vt 0.447931 0.256836
vt 0.562344 0.198437
vt 0.954102 0.676025
vt 0.472427 0.256410
vt 0.472539 0.256836
vt 0.377137 0.198437
vt 0.527196 0.678711
vt 0.552732 0.048507
vt 0.564375 0.035450
vt -0.000410 0.035450
vt 0.947463 0.023362
vt 0.386083 0.048507
vt 0.564376 0.241636
vt 0.564376 0.035190
vt -0.000410 0.241636
vt 0.947463 0.362984
vt 0.386083 0.048507
vt 0.564376 0.241636
vt 0.377137 0.048507
vt 0.564376 0.252705
vt 0.000000 0.256836
vt 0.947463 0.381216
vt -0.000410 0.252705
vt 0.000000 0.999893
vt -0.000410 0.023558
vt 0.947463 0.003774
vt -0.000225 0.999977
vt 0.562344 0.048507
vt -0.000225 0.256410
vt 0.564375 0.023558
vt -0.000410 0.035450
vt 0.947463 0.023362
vt 0.552732 0.048507
vt 0.564375 0.035450
vt 0.947463 0.362984
vt -0.000410 0.241636
vt 0.953970 0.556869
vt 0.518198 0.556869
vt 0.954102 0.767299
vt 0.472427 0.465896
vt 0.527196 0.769198
vt 0.472539 0.466178
vt 0.405258 0.035450
vt 0.405258 0.241636
vt 0.405258 0.035190
vt 0.405258 0.252705
vt 0.000000 0.466178
vt 0.405258 0.023558
vt -0.000225 0.465896
vt 0.405258 0.035450
vt 0.405258 0.241636
vt 0.000000 0.823036
vt 0.452741 0.822998
vt 0.447819 0.822999
vt 0.518198 0.853160
vt 0.472427 0.822998
vt 0.954102 0.922890
vt 0.134016 0.252705
vt 0.000000 0.823036
vt -0.000225 0.822999
vt 0.953970 0.853160
vt 0.447931 0.823036
vt 0.454083 0.823036
vt 0.472539 0.823036
vt 0.527196 0.923447
vt 0.134016 0.035450
vt 0.134016 0.241636
vt 0.134016 0.035190
vt -0.000225 0.822999
vt 0.134016 0.023558
vt 0.134016 0.035450
vt 0.134016 0.241636
vt 0.562344 0.048507
vt -0.000225 0.256410
vt 0.377137 0.198437
vt 0.447931 0.256836
vt 0.454083 0.256836
vt 0.447819 0.256410
vt 0.452741 0.256410
vt 0.562344 0.198437
vt 0.000000 0.256836
vt 0.377137 0.048507
vt 0.415599 0.233714
vt 0.530307 0.383057
vt 0.530307 1.000000
vt 0.530307 0.556869
vt 0.530307 0.853160
vt 0.523830 0.233714
vt 0.941669 0.383057
vt 0.941669 1.000000
vt 0.941669 0.556869
vt 0.941669 0.853160
vt -0.000225 0.588245
vt 0.953970 0.658382
vt 0.447931 0.588443
vt 0.454083 0.588443
vt 0.527196 0.822046
vt 0.472539 0.588443
vt 0.312326 0.035450
vt 0.312326 0.241636
vt 0.312326 0.035190
vt 0.312326 0.023558
vt -0.000225 0.588245
vt 0.312326 0.035450
vt 0.312326 0.241636
vt 0.000000 0.588443
vt 0.452741 0.588245
vt 0.447819 0.588245
vt 0.518198 0.658382
vt 0.954102 0.820607
vt 0.472427 0.588245
vt 0.312326 0.252705
vt 0.000000 0.588443
vt 0.530307 0.658382
vt 0.941669 0.658382
vt 0.000000 0.602117
vt 0.452741 0.601928
vt 0.447819 0.601928
vt 0.518198 0.669736
vt 0.954102 0.826569
vt 0.472427 0.601928
vt 0.301933 0.252705
vt 0.000000 0.602117
vt -0.000225 0.601928
vt 0.953970 0.669736
vt 0.447931 0.602117
vt 0.454083 0.602117
vt 0.472539 0.602117
vt 0.527196 0.827957
vt 0.301933 0.035450
vt 0.301933 0.241636
vt 0.301933 0.035190
vt -0.000225 0.601928
vt 0.301933 0.023558
vt 0.301933 0.035450
vt 0.301933 0.241636
vt 0.530307 0.669736
vt 0.941669 0.669736
vt 0.545131 1.000000
vt 0.953970 0.520691
vt 0.545131 0.853160
vt 0.419500 0.233714
vt 0.545131 0.658382
vt 0.545131 0.669736
vt 0.520402 0.233714
vt 0.928637 1.000000
vt -0.000225 0.422293
vt 0.928637 0.853160
vt 0.928637 0.658382
vt 0.928637 0.669736
vt 0.545131 0.556869
vt 0.530307 0.556869
vt 0.530307 0.658382
vt 0.415599 0.233714
vt 0.530307 0.383057
vt 0.520402 0.233714
vt 0.941669 0.383057
vt 0.523830 0.233714
vt 0.941669 0.556869
vt 0.941669 0.658382
vt 0.545131 0.658382
vt 0.928637 0.556869
vt 0.419500 0.233714
vt 0.928637 0.658382
vt 0.928637 0.669736
vt 0.545131 0.669736
vt 0.447931 0.422605
vt 0.472539 0.422605
vt 0.527196 0.750364
vt 0.438377 0.035450
vt 0.438377 0.241636
vt 0.438377 0.035190
vt -0.000225 0.422293
vt 0.438377 0.023558
vt 0.438377 0.035450
vt 0.438377 0.241636
vt 0.000000 0.422605
vt 0.447819 0.422293
vt 0.518198 0.520691
vt 0.954102 0.748301
vt 0.472427 0.422293
vt 0.438377 0.252705
vt 0.000000 0.422605
vt -0.000225 0.422293
vt 0.447931 0.422605
vt 0.454083 0.422605
vt 0.000000 0.422605
vt 0.447819 0.422293
vt 0.452741 0.422293
vt 0.530307 0.520691
vt 0.941669 0.520691
vt 0.530307 0.520691
vt 0.941669 0.520691
vt 0.545131 0.520691
vt 0.928637 0.520691
vt 0.000000 0.437217
vt 0.447819 0.436915
vt 0.518198 0.532823
vt 0.954102 0.754672
vt 0.472427 0.436915
vt 0.427270 0.252705
vt 0.000000 0.437217
vt 0.000000 0.437217
vt 0.452741 0.436915
vt 0.447819 0.436915
vt -0.000225 0.436915
vt 0.953970 0.532823
vt 0.447931 0.437217
vt 0.472539 0.437217
vt 0.527196 0.756680
vt 0.427270 0.035450
vt 0.427270 0.241636
vt 0.427270 0.035190
vt -0.000225 0.436915
vt 0.427270 0.023558
vt 0.427270 0.035450
vt 0.427270 0.241636
vt -0.000225 0.436915
vt 0.447931 0.437217
vt 0.454083 0.437217
vt 0.530307 0.532823
vt 0.941669 0.532823
vt 0.530307 0.532823
vt 0.941669 0.532823
vt 0.545131 0.532823
vt 0.928637 0.532823
vt 0.530307 0.520691
vt 0.415599 0.233714
vt 0.530307 0.383057
vt 0.928637 0.383057
vt 0.520402 0.233714
vt 0.941669 0.383057
vt 0.523830 0.233714
vt 0.941669 0.520691
vt 0.545131 0.383057
vt 0.419500 0.233714
vt 0.545131 0.520691
vt 0.928637 0.520691
vt 0.545131 0.532823
vt 0.928637 0.532823
vt 0.562344 0.135092
vt 0.771235 0.003774
vt 0.261366 0.465896
vt 0.261366 0.822999
vt 0.562344 0.135092
vt 0.261366 0.256410
vt 0.261366 0.588245
vt 0.261366 0.601928
vt 0.261366 0.422293
vt 0.261366 0.436915
vt 0.000000 0.990131
vt 0.518198 0.991896
vt 0.954101 0.995744
vt 0.000000 0.990131
vt 0.007009 0.252705
vt -0.000225 0.990209
vt 0.953970 0.991896
vt 0.527196 0.995673
vt 0.007009 0.035450
vt 0.007009 0.035190
vt 0.007009 0.241636
vt 0.007009 0.023558
vt -0.000225 0.990209
vt 0.007009 0.035450
vt 0.007009 0.241636
vt 0.000000 0.990131
vt 0.447819 0.990209
vt 0.452741 0.990209
vt 0.472427 0.990209
vt 0.954101 0.995744
vt -0.000225 0.990209
vt 0.447931 0.990131
vt 0.454083 0.990131
vt 0.527196 0.995673
vt 0.472539 0.990131
vt 0.530307 0.991896
vt 0.941669 0.991896
vt 0.545131 0.991896
vt 0.928637 0.991896
vt 0.261366 0.990209
vt -0.000225 0.846917
vt 0.953970 0.873005
vt 0.527196 0.933779
vt 0.115848 0.035450
vt 0.115849 0.241636
vt 0.115849 0.035190
vt 0.115848 0.023558
vt -0.000225 0.846917
vt 0.115848 0.035450
vt 0.115849 0.241636
vt -0.000225 0.846917
vt 0.454083 0.846938
vt 0.447931 0.846938
vt 0.527196 0.933779
vt 0.472539 0.846938
vt 0.530307 0.873005
vt 0.941669 0.873005
vt 0.545131 0.873005
vt 0.928637 0.873005
vt 0.261366 0.846917
vt 0.000000 0.846938
vt 0.518198 0.873005
vt 0.954102 0.933311
vt 0.115849 0.252705
vt 0.000000 0.846938
vt 0.000000 0.846938
vt 0.447819 0.846917
vt 0.452741 0.846917
vt 0.472427 0.846917
vt 0.954101 0.933311
vt 0.647453 0.003774
vt 0.445106 0.465896
vt 0.445106 0.822999
vt 0.445106 0.588245
vt 0.445106 0.601928
vt 0.445106 0.422293
vt 0.445106 0.436915
vt 0.562344 0.195910
vt 0.562344 0.195910
vt 0.445106 0.256410
vt 0.445106 0.990209
vt 0.445106 0.846917
vt 0.772129 0.381216
vt 0.377137 0.134653
vt 0.260905 0.466178
vt 0.260905 0.823036
vt 0.260905 0.256836
vt 0.377137 0.134653
vt 0.260905 0.588443
vt 0.260905 0.602117
vt 0.260905 0.422605
vt 0.260905 0.437217
vt 0.260905 0.990131
vt 0.260905 0.846938
vt 0.649287 0.381216
vt 0.377137 0.195009
vt 0.443700 0.466178
vt 0.443700 0.823036
vt 0.443700 0.256836
vt 0.377137 0.195009
vt 0.443700 0.588443
vt 0.443700 0.602117
vt 0.443700 0.422605
vt 0.443700 0.437217
vt 0.443701 0.990131
vt 0.443700 0.846938
vt -0.000410 0.029038
vt -0.000410 0.250509
vt 0.469407 0.048507
vt 0.564375 0.250509
vt 0.564375 0.247788
vt 0.405258 0.250509
vt 0.405258 0.247788
vt 0.134016 0.250509
vt 0.134016 0.247788
vt 0.312326 0.250509
vt 0.312326 0.247788
vt 0.301933 0.250509
vt 0.301933 0.247788
vt 0.438377 0.250509
vt 0.438377 0.247788
vt 0.427270 0.250509
vt 0.427270 0.247788
vt 0.007009 0.250509
vt 0.007009 0.247788
vt 0.007009 0.029038
vt 0.115848 0.250509
vt 0.115848 0.247788
vt -0.000410 0.035450
vt 0.947463 0.023362
vt 0.936883 0.023362
vt 0.947463 0.023362
vt -0.000410 0.035450
vt 0.942173 0.023362
vt 0.936883 0.014368
vt 0.947463 0.003774
vt 0.942173 0.009071
vt 0.946755 0.004484
vt 0.642309 0.003774
vt 0.646692 0.014368
vt 0.642395 0.003982
vt 0.644501 0.009071
vt 0.581091 0.080055
vt 0.570510 0.075666
vt 0.953970 1.000000
vt 0.575800 0.077861
vt 0.570925 0.075251
vt 0.570510 0.076254
vt 0.952873 1.000000
vt 0.570510 0.309324
vt 0.518198 1.000000
vt 0.581091 0.304936
vt 0.570925 0.309739
vt 0.570510 0.308736
vt 0.519295 1.000000
vt 0.575800 0.307130
vt 0.646692 0.370622
vt 0.642309 0.381216
vt 0.644501 0.375919
vt 0.642395 0.381008
vt 0.647453 0.003774
vt 0.647453 0.014368
vt 0.647453 0.003774
vt 0.647453 0.009071
vt 0.530307 1.000000
vt 0.581091 0.302831
vt 0.570510 0.302831
vt 0.530307 1.000000
vt 0.575800 0.302831
vt 0.649287 0.370622
vt 0.649287 0.381216
vt 0.649287 0.375919
vt 0.649287 0.381216
vt -0.000410 0.250509
vt -0.000410 0.029038
vt 0.936883 0.193173
vt -0.000410 0.250509
vt 0.947463 0.193173
vt -0.000410 0.029038
vt 0.942173 0.193173
vt 0.947463 0.381216
vt 0.936883 0.370622
vt 0.946755 0.380506
vt 0.942173 0.375919
vt 0.936883 0.362984
vt 0.947463 0.362984
vt -0.000410 0.241636
vt 0.942173 0.362984
vt 0.947463 0.362984
vt -0.000410 0.241636
vt 0.545131 1.000000
vt 0.581091 0.294883
vt 0.570510 0.294883
vt 0.545131 1.000000
vt 0.575800 0.294883
vt 0.581091 0.082262
vt 0.941669 1.000000
vt 0.575800 0.082262
vt 0.570510 0.082262
vt 0.941669 1.000000
vt 0.928637 1.000000
vt 0.581091 0.089250
vt 0.570510 0.089250
vt 0.928637 1.000000
vt 0.575800 0.089250
vt 0.771235 0.014368
vt 0.771235 0.003774
vt 0.771235 0.009071
vt 0.771235 0.003774
vt 0.772129 0.381216
vt 0.772129 0.370622
vt 0.772129 0.381216
vt 0.772129 0.375919
vt 0.570510 0.075666
vt 0.953970 1.000000
vt 0.571832 0.074343
vt 0.953970 1.000000
vt 0.575443 0.070727
vt 0.871049 1.000000
vt 0.953970 1.000000
vt 0.531914 0.228866
vt 0.882461 0.676025
vt 0.527067 0.233714
vt 0.953970 0.383057
vt 0.529491 0.231290
vt 0.953970 0.383057
vt 0.871049 0.676025
vt 0.527716 0.233064
vt 0.953970 0.383057
vt 0.570510 0.309324
vt 0.518198 1.000000
vt 0.575443 0.314263
vt 0.518198 1.000000
vt 0.617232 0.999892
vt 0.571832 0.310647
vt 0.518198 1.000000
vt 0.412413 0.233714
vt 0.518198 0.383057
vt 0.407566 0.228866
vt 0.604860 0.678711
vt 0.411764 0.233064
vt 0.518198 0.383057
vt 0.409990 0.231290
vt 0.518198 0.383057
vt 0.617232 0.678711
vt 0.953970 0.556869
vt 0.882461 0.767299
vt 0.953970 0.556869
vt 0.953970 0.556869
vt 0.871049 0.767299
vt 0.518198 0.556869
vt 0.604860 0.769198
vt 0.518198 0.556869
vt 0.518198 0.556869
vt 0.617232 0.769198
vt 0.518198 0.853160
vt 0.604860 0.923447
vt 0.518198 0.853160
vt 0.518198 0.853160
vt 0.617232 0.923447
vt 0.953970 0.853160
vt 0.882461 0.922890
vt 0.953970 0.853160
vt 0.953970 0.853160
vt 0.871049 0.922890
vt 0.882461 0.820607
vt 0.953970 0.658382
vt 0.953970 0.658382
vt 0.871049 0.820607
vt 0.953970 0.658382
vt 0.518198 0.658382
vt 0.604860 0.822046
vt 0.518198 0.658382
vt 0.518198 0.658382
vt 0.617232 0.822046
vt 0.604860 0.827957
vt 0.518198 0.669736
vt 0.518198 0.669736
vt 0.617232 0.827957
vt 0.518198 0.669736
vt 0.882461 0.826569
vt 0.953970 0.669736
vt 0.953970 0.669736
vt 0.871049 0.826569
vt 0.953970 0.669736
vt 0.882461 0.748301
vt 0.953970 0.520691
vt 0.953970 0.520691
vt 0.871049 0.748301
vt 0.953970 0.520691
vt 0.518198 0.520691
vt 0.604860 0.750364
vt 0.518198 0.520691
vt 0.518198 0.520691
vt 0.617232 0.750364
vt 0.604860 0.756680
vt 0.518198 0.532823
vt 0.518198 0.532823
vt 0.617232 0.756680
vt 0.518198 0.532823
vt 0.882461 0.754672
vt 0.953970 0.532823
vt 0.953970 0.532823
vt 0.871049 0.754672
vt 0.953970 0.532823
vt 0.604860 0.995673
vt 0.518198 0.991896
vt 0.518198 0.991896
vt 0.617232 0.995673
vt 0.518198 0.991896
vt 0.953970 0.991896
vt 0.882461 0.995744
vt 0.953970 0.991896
vt 0.953970 0.991896
vt 0.871049 0.995744
vt 0.882461 0.933311
vt 0.953970 0.873005
vt 0.953970 0.873005
vt 0.871049 0.933311
vt 0.953970 0.873005
vt 0.604860 0.933779
vt 0.518198 0.873005
vt 0.518198 0.873005
vt 0.617232 0.933779
vt 0.518198 0.873005
vt 0.261366 0.990209
vt 0.276126 0.977474
vt 0.262354 0.989356
vt 0.268746 0.983842
vt 0.276126 0.859651
vt 0.261366 0.846917
vt 0.268746 0.853284
vt 0.262354 0.847770
vt 0.445106 0.990209
vt 0.430345 0.977474
vt 0.444117 0.989356
vt 0.437726 0.983842
vt 0.430345 0.859651
vt 0.445106 0.846917
vt 0.437725 0.853284
vt 0.444117 0.847770
vt 0.428904 0.977405
vt 0.443701 0.990131
vt 0.436302 0.983768
vt 0.442709 0.989279
vt 0.260905 0.990131
vt 0.275702 0.977405
vt 0.261897 0.989279
vt 0.268304 0.983769
vt 0.443700 0.846938
vt 0.428904 0.859663
vt 0.442709 0.847790
vt 0.436302 0.853300
vt 0.275702 0.859663
vt 0.260905 0.846938
vt 0.268304 0.853300
vt 0.261897 0.847790
vt 0.000000 0.991985
vt 0.947463 0.381216
vt 0.000000 0.999893
vt 0.000000 0.999893
vt 0.947463 0.381216
vt 0.000000 0.995939
vt 0.947463 0.381216
vt 0.000000 0.998833
vt 0.642309 0.003774
vt 0.452741 0.992064
vt 0.447819 0.992064
vt 0.642309 0.003774
vt 0.452741 0.999977
vt 0.642309 0.003774
vt 0.447819 0.999977
vt -0.000225 0.999977
vt 0.947463 0.003774
vt -0.000225 0.992064
vt -0.000225 0.998917
vt 0.947463 0.003774
vt -0.000225 0.996020
vt 0.947463 0.003774
vt -0.000225 0.999977
vt 0.454083 0.991985
vt 0.447931 0.991985
vt 0.642309 0.381216
vt 0.454083 0.999892
vt 0.642309 0.381216
vt 0.447931 0.999892
vt 0.642309 0.381216
vt 0.954101 0.996552
vt 0.472427 0.992064
vt 0.954101 1.000000
vt 0.642309 0.003774
vt 0.954101 0.998276
vt 0.642309 0.003774
vt 0.472427 0.999977
vt 0.954102 0.999538
vt 0.642309 0.003774
vt 0.527196 0.999892
vt 0.642309 0.381216
vt 0.527196 0.996475
vt 0.472539 0.991985
vt 0.527196 0.999435
vt 0.642309 0.381216
vt 0.527196 0.998183
vt 0.642309 0.381216
vt 0.472539 0.999892
vt 0.771235 0.003774
vt 0.261366 0.992064
vt 0.771235 0.003774
vt 0.771235 0.003774
vt 0.261366 0.999977
vt 0.445106 0.992064
vt 0.647453 0.003774
vt 0.647453 0.003774
vt 0.445106 0.999977
vt 0.647453 0.003774
vt 0.260905 0.991985
vt 0.772129 0.381216
vt 0.260905 0.999892
vt 0.772129 0.381216
vt 0.772129 0.381216
vt 0.649287 0.381216
vt 0.443701 0.991985
vt 0.649287 0.381216
vt 0.443700 0.999892
vt 0.649287 0.381216
vt 0.642309 0.003774
vt 0.642309 0.003774
vt 0.954101 0.997808
vt 0.954101 1.000000
vt 0.642309 0.003774
vt 0.642309 0.003774
vt 0.642309 0.003774
vt 0.954102 1.000000
vt 0.642309 0.381216
vt 0.527196 0.997720
vt 0.642309 0.381216
vt 0.527196 0.999892
vt 0.642309 0.381216
vt 0.642309 0.381216
vt 0.527196 0.999892
vt 0.642309 0.381216
vt 0.882461 0.997808
vt 0.871049 1.000000
vt 0.575443 0.070727
vt 0.880932 0.998904
vt 0.580376 0.065788
vt 0.882461 1.000000
vt 0.876755 0.999706
vt 0.577910 0.068257
vt 0.617232 0.999892
vt 0.575443 0.314263
vt 0.604860 0.997720
vt 0.611046 0.999601
vt 0.577910 0.316733
vt 0.606517 0.998806
vt 0.580376 0.319202
vt 0.604860 0.999892
vt 0.000000 0.459082
vt 0.000000 0.466178
vt 0.008250 0.466178
vt 0.000000 0.473273
vt 0.000000 0.466178
vt 0.000000 0.462630
vt 0.000000 0.465227
vt 0.004125 0.466178
vt 0.008005 0.465896
vt -0.000225 0.465896
vt -0.000225 0.458795
vt -0.000225 0.465896
vt -0.000225 0.472996
vt 0.003890 0.465896
vt 0.000878 0.465896
vt -0.000225 0.462345
vt 0.452741 0.465896
vt 0.447819 0.458795
vt 0.445106 0.465896
vt 0.447819 0.472996
vt 0.452741 0.472996
vt 0.451849 0.465896
vt 0.452741 0.465896
vt 0.451718 0.465896
vt 0.447819 0.465896
vt 0.452741 0.465896
vt 0.448923 0.465896
vt 0.447931 0.466178
vt 0.445833 0.466178
vt 0.447931 0.459082
vt 0.451961 0.466178
vt 0.454083 0.473273
vt 0.447931 0.473273
vt 0.447931 0.466178
vt 0.447931 0.465227
vt 0.447931 0.466178
vt 0.454083 0.466178
vt 0.447931 0.462630
vt 0.008005 0.465896
vt -0.000225 0.458795
vt 0.003890 0.465896
vt 0.000326 0.462345
vt 0.445833 0.466178
vt 0.447931 0.459082
vt 0.454083 0.459082
vt 0.447931 0.466178
vt 0.454083 0.466178
vt 0.449958 0.466178
vt 0.447931 0.462630
vt 0.452978 0.462630
vt 0.008250 0.466178
vt 0.000000 0.459082
vt 0.004125 0.466178
vt 0.000553 0.462630
vt 0.444511 0.465896
vt 0.452741 0.458795
vt 0.447819 0.458795
vt 0.448626 0.465896
vt 0.451638 0.462345
vt 0.447819 0.465896
vt 0.452741 0.465896
vt 0.261366 0.465896
vt 0.261366 0.458795
vt 0.261366 0.465896
vt 0.261366 0.462345
vt 0.445106 0.458795
vt 0.445106 0.465896
vt 0.445106 0.462345
vt 0.445106 0.465896
vt 0.260905 0.459082
vt 0.260905 0.466178
vt 0.260905 0.462630
vt 0.260905 0.466178
vt 0.443700 0.459082
vt 0.443700 0.466178
vt 0.443700 0.462630
vt 0.443700 0.466178
vt 0.000000 0.823036
vt 0.000000 0.834823
vt 0.000000 0.823562
vt 0.000000 0.828928
vt 0.447819 0.822999
vt 0.452741 0.822998
vt 0.447819 0.834794
vt 0.452741 0.834794
vt 0.447819 0.822999
vt 0.452741 0.822998
vt 0.447819 0.828894
vt 0.452741 0.828894
vt 0.954102 0.922890
vt 0.472427 0.822999
vt 0.954101 0.928029
vt 0.472427 0.834794
vt 0.954102 0.923578
vt 0.472427 0.822998
vt 0.954101 0.925460
vt 0.472427 0.828894
vt -0.000225 0.834794
vt -0.000225 0.822999
vt -0.000225 0.828894
vt -0.000225 0.823525
vt 0.447931 0.834823
vt 0.454083 0.834823
vt 0.447931 0.823036
vt 0.454083 0.823036
vt 0.447931 0.828927
vt 0.454083 0.828927
vt 0.447931 0.823036
vt 0.454083 0.823036
vt 0.527196 0.928542
vt 0.472539 0.834823
vt 0.527196 0.923447
vt 0.472539 0.823036
vt 0.527196 0.925995
vt 0.472539 0.828927
vt 0.527196 0.924130
vt 0.472539 0.823036
vt 0.261366 0.834794
vt 0.261366 0.822999
vt 0.261366 0.828894
vt 0.261366 0.822999
vt 0.445106 0.822999
vt 0.445106 0.834794
vt 0.445106 0.822999
vt 0.445106 0.828894
vt 0.260905 0.823036
vt 0.260905 0.834823
vt 0.260905 0.823036
vt 0.260905 0.828927
vt 0.443700 0.823036
vt 0.443700 0.834823
vt 0.443700 0.823036
vt 0.443700 0.828927
s 0
usemtl Material
f 2/3/1 177/262/1 239/339/1 7/13/1 8/14/1 59/109/1 101/166/1 98/163/1 55/104/1 11/19/1 12/21/1 255/357/1 244/345/1 4/8/1 17/33/1 266/370/1 15/29/1
f 3/5/2 18/37/2 26/56/2 21/43/2
f 9/16/3 254/356/3 489/682/3 466/644/3
f 265/368/4 18/36/4 320/448/4 311/436/4
f 204/297/5 56/106/5 10/18/5 187/273/5
f 121/188/6 12/22/6 14/26/6 122/189/6
f 192/279/5 498/696/5 500/698/5 473/658/5 475/662/5 476/664/5 474/660/5 203/295/5
f 257/359/7 44/84/7 584/823/7 603/848/7
f 8/14/1 7/13/1 13/23/1 346/482/1 348/486/1 349/489/1 347/484/1
f 373/527/8 358/508/8 29/60/8 75/131/8
f 6/11/2 5/9/2 343/475/2 344/477/2 345/479/2 504/705/2 493/687/2
f 389/547/8 346/483/8 13/24/8 131/201/8
f 11/20/9 130/200/9 393/552/9 353/499/9
f 12/21/1 11/19/1 353/498/1 355/502/1 356/504/1 354/500/1 14/27/1
f 10/17/2 9/16/2 499/697/2 507/712/2 351/493/2 352/496/2 350/491/2
f 5/10/6 191/278/6 409/572/6 343/476/6
f 273/385/4 265/369/4 16/31/4 193/280/4
f 17/33/1 4/8/1 20/40/1 19/38/1
f 196/285/4 24/52/4 22/46/4 195/283/4
f 189/276/4 21/44/4 26/57/4 197/286/4
f 193/280/6 16/31/6 24/52/6 196/285/6
f 16/32/2 1/2/2 22/47/2 24/53/2
f 2/3/1 15/29/1 25/54/1 23/49/1
f 186/272/6 3/6/6 21/45/6 189/275/6
f 124/192/9 17/34/9 19/39/9 127/197/9
f 103/168/9 2/4/9 23/50/9 125/194/9
f 150/227/4 518/729/4 536/758/4 159/239/4
f 68/121/9 32/65/9 36/72/9 71/126/9
f 245/346/6 248/350/6 72/127/6 513/722/6 512/721/6
f 154/232/6 31/64/6 35/71/6 157/237/6
f 147/222/4 33/67/4 36/72/4 158/238/4
f 157/237/4 35/71/4 34/69/4 156/236/4
f 272/383/4 267/373/4 31/64/4 154/232/4
f 27/58/6 151/228/6 402/563/6 357/507/6
f 233/333/9 235/335/9 73/128/9 525/739/9 524/737/9
f 145/219/9 28/59/9 361/512/9 398/558/9
f 358/508/8 401/562/8 146/220/8 29/60/8
f 177/262/1 2/3/1 51/94/1 181/266/1
f 45/86/10 87/150/10 381/537/10 366/518/10
f 152/229/5 530/748/5 540/762/5 160/240/5
f 161/242/5 57/107/5 28/59/5 145/219/5
f 128/198/4 4/7/4 54/102/4 135/208/4
f 572/802/9 230/328/9 231/330/9 576/811/9
f 43/82/6 85/146/6 386/543/6 369/522/6
f 81/140/9 39/76/9 365/517/9 382/538/9
f 413/577/8 370/523/8 40/78/8 227/324/8
f 213/306/9 47/88/9 50/93/9 216/311/9
f 209/302/9 42/81/9 48/90/9 214/309/9
f 79/137/6 37/73/6 41/80/6 83/144/6
f 88/151/6 46/87/6 49/92/6 91/156/6
f 83/143/4 41/79/4 50/93/4 92/157/4
f 91/156/4 49/92/4 48/91/4 90/155/4
f 270/379/4 268/375/4 46/87/4 88/151/4
f 80/139/9 38/75/9 40/77/9 82/142/9
f 236/336/9 234/334/9 38/74/9 80/138/9
f 210/303/6 43/82/6 369/522/6 414/578/6
f 93/158/5 58/108/5 39/76/5 81/140/5
f 249/351/6 246/347/6 37/73/6 79/137/6
f 179/264/2 233/333/2 556/785/2 551/780/2
f 238/338/9 555/784/9 548/774/9 149/225/9
f 514/723/6 513/722/6 72/127/6 76/134/6 33/68/6
f 526/740/9 525/738/9 73/129/9 75/132/9 29/61/9
f 255/357/1 12/21/1 52/96/1 258/361/1
f 129/199/5 7/12/5 53/99/5 136/209/5
f 519/730/9 518/729/9 150/227/9 156/235/9 34/70/9
f 531/749/6 530/748/6 152/229/6 153/230/6 30/63/6
f 243/344/3 3/5/3 454/620/3 486/678/3
f 232/332/11 6/11/11 457/627/11 482/673/11
f 495/690/5 494/689/5 188/274/5 200/291/5 469/649/5 471/653/5 472/656/5 470/651/5
f 44/83/7 45/85/7 588/831/7 584/822/7
f 199/288/9 458/629/9 469/650/9 200/290/9
f 596/841/9 242/343/9 230/329/9 572/803/9
f 1/2/11 178/263/11 477/667/11 461/635/11
f 241/342/9 481/672/9 458/628/9 199/289/9
f 178/263/11 232/332/11 482/673/11 477/667/11
f 45/86/5 211/304/5 219/315/5 587/828/5 589/832/5 590/834/5 588/830/5
f 583/821/6 218/313/6 264/367/6 604/849/6
f 579/816/9 217/312/9 224/321/9 591/836/9
f 100/165/5 97/162/5 58/108/5 93/158/5
f 105/170/9 106/171/9 119/186/9 118/185/9
f 206/299/5 95/160/5 56/106/5 204/297/5
f 191/278/5 5/10/5 60/111/5 205/298/5
f 151/228/5 27/58/5 61/112/5 162/243/5
f 85/146/5 43/82/5 62/113/5 94/159/5
f 27/58/5 64/115/5 78/136/5 61/112/5
f 55/104/1 98/163/1 117/184/1 110/175/1
f 245/346/2 512/721/2 543/769/2 560/789/2
f 57/107/5 77/135/5 74/130/5 28/59/5
f 66/118/10 30/62/10 362/513/10 378/533/10
f 233/333/1 524/737/1 547/773/1 556/785/1
f 529/747/6 532/750/6 65/117/6 259/362/6 256/358/6
f 267/373/4 269/377/4 67/120/4 31/64/4
f 35/71/4 70/125/4 69/123/4 34/69/4
f 33/67/4 76/133/4 71/126/4 36/72/4
f 31/64/6 67/120/6 70/125/6 35/71/6
f 517/727/9 520/731/9 63/114/9 182/268/9 179/264/9
f 86/147/6 65/116/6 66/119/6 87/149/6
f 74/130/9 81/140/9 382/538/9 377/532/9
f 401/562/8 389/547/8 131/201/8 146/220/8
f 385/542/8 373/527/8 75/131/8 82/141/8
f 89/152/9 68/121/9 71/126/9 92/157/9
f 84/145/9 63/114/9 69/124/9 90/154/9
f 42/81/9 84/145/9 90/154/9 48/90/9
f 47/88/9 89/152/9 92/157/9 50/93/9
f 370/523/8 385/542/8 82/141/8 40/78/8
f 39/76/9 226/323/9 418/583/9 365/517/9
f 85/146/6 64/115/6 374/528/6 386/543/6
f 44/83/6 86/147/6 87/149/6 45/85/6
f 64/115/5 85/146/5 94/159/5 78/136/5
f 99/164/5 100/165/5 93/158/5 77/135/5
f 248/350/6 249/351/6 79/137/6 72/127/6
f 77/135/5 93/158/5 81/140/5 74/130/5
f 87/150/10 66/118/10 378/533/10 381/537/10
f 235/335/9 236/336/9 80/138/9 73/128/9
f 73/129/9 80/139/9 82/142/9 75/132/9
f 269/377/4 270/379/4 88/151/4 67/120/4
f 70/125/4 91/156/4 90/155/4 69/123/4
f 76/133/4 83/143/4 92/157/4 71/126/4
f 67/120/6 88/151/6 91/156/6 70/125/6
f 72/127/6 79/137/6 83/144/6 76/134/6
f 77/135/6 57/107/6 108/173/6 109/174/6
f 101/166/1 59/109/1 112/179/1 111/177/1
f 207/300/5 102/167/5 95/160/5 206/299/5
f 100/165/6 99/164/6 115/182/6 120/187/6
f 106/171/5 104/169/5 97/162/5 100/165/5
f 94/159/5 62/113/5 104/169/5 106/171/5
f 61/112/9 78/136/9 114/181/9 113/180/9
f 205/298/5 60/111/5 102/167/5 207/300/5
f 106/171/2 100/165/2 120/187/2 119/186/2
f 78/136/5 94/159/5 106/171/5 105/170/5
f 165/246/5 107/172/5 108/173/5 163/244/5
f 107/172/5 115/182/5 109/174/5 108/173/5
f 118/185/5 119/186/5 120/187/5 115/182/5
f 116/183/5 118/185/5 115/182/5 107/172/5
f 166/247/5 116/183/5 107/172/5 165/246/5
f 164/245/5 113/180/5 116/183/5 166/247/5
f 113/180/5 114/181/5 118/185/5 116/183/5
f 137/211/6 55/105/6 110/176/6 139/213/6
f 98/163/1 101/166/1 111/177/1 117/184/1
f 162/243/9 61/112/9 113/180/9 164/245/9
f 78/136/2 105/170/2 118/185/2 114/181/2
f 99/164/2 77/135/2 109/174/2 115/182/2
f 59/110/9 138/212/9 140/214/9 112/178/9
f 161/242/6 137/211/6 139/213/6 163/244/6
f 166/247/2 165/246/2 175/260/2 176/261/2
f 112/178/9 140/214/9 171/255/9 170/253/9
f 117/184/1 111/177/1 169/252/1 172/257/1
f 8/15/5 96/161/5 138/212/5 59/110/5
f 12/22/5 121/188/5 134/206/5 52/97/5
f 2/4/4 103/168/4 133/205/4 51/95/4
f 144/218/5 129/199/5 136/209/5 149/226/5
f 247/348/6 250/352/6 135/208/6 54/102/6
f 240/341/9 237/337/9 136/210/9 53/100/9
f 143/217/4 128/198/4 135/208/4 148/224/4
f 55/105/5 137/211/5 130/200/5 11/20/5
f 122/190/10 14/28/10 354/501/10 394/553/10
f 7/12/9 129/199/9 131/202/9 13/25/9
f 266/371/4 271/381/4 123/191/4 15/30/4
f 25/55/4 126/196/4 125/195/4 23/51/4
f 20/41/4 132/203/4 127/197/4 19/39/4
f 15/30/6 123/191/6 126/196/6 25/55/6
f 4/7/6 128/198/6 132/204/6 20/42/6
f 150/227/9 103/168/9 125/194/9 156/235/9
f 155/233/9 124/192/9 127/197/9 158/238/9
f 130/200/9 145/219/9 398/558/9 393/552/9
f 192/279/10 211/304/10 417/582/10 405/567/10
f 151/228/6 96/161/6 390/548/6 402/563/6
f 152/229/6 121/188/6 122/189/6 153/230/6
f 529/747/2 256/358/2 564/793/2 539/761/2
f 64/115/6 27/58/6 357/507/6 374/528/6
f 28/59/9 74/130/9 377/532/9 361/512/9
f 30/62/10 153/231/10 397/557/10 362/513/10
f 32/65/9 155/233/9 158/238/9 36/72/9
f 517/727/2 179/264/2 551/780/2 535/757/2
f 143/217/6 511/719/6 514/723/6 33/68/6 147/223/6
f 144/218/9 523/736/9 526/740/9 29/61/9 146/221/9
f 57/107/6 161/242/6 163/244/6 108/173/6
f 138/212/9 162/243/9 164/245/9 140/214/9
f 140/214/5 164/245/5 166/247/5 142/216/5
f 165/246/6 141/215/6 173/258/6 175/260/6
f 141/215/5 165/246/5 163/244/5 139/213/5
f 96/161/5 151/228/5 162/243/5 138/212/5
f 121/188/5 152/229/5 160/240/5 134/206/5
f 103/168/4 150/227/4 159/239/4 133/205/4
f 250/352/6 251/353/6 148/224/6 135/208/6
f 237/337/9 238/338/9 149/225/9 136/210/9
f 137/211/5 161/242/5 145/219/5 130/200/5
f 153/231/10 122/190/10 394/553/10 397/557/10
f 129/199/9 144/218/9 146/221/9 131/202/9
f 271/381/4 272/383/4 154/232/4 123/191/4
f 126/196/4 157/237/4 156/236/4 125/195/4
f 132/203/4 147/222/4 158/238/4 127/197/4
f 123/191/6 154/232/6 157/237/6 126/196/6
f 128/198/6 143/217/6 147/223/6 132/204/6
f 170/253/5 171/255/5 174/259/5 169/251/5
f 169/251/5 174/259/5 173/258/5 172/256/5
f 172/256/5 173/258/5 167/248/5 168/250/5
f 174/259/5 176/261/5 175/260/5 173/258/5
f 140/214/2 142/216/2 174/259/2 171/255/2
f 110/175/1 117/184/1 172/257/1 168/249/1
f 142/216/9 166/247/9 176/261/9 174/259/9
f 139/213/6 110/176/6 168/250/6 167/248/6
f 141/215/2 139/213/2 167/248/2 173/258/2
f 111/177/1 112/179/1 170/254/1 169/252/1
f 133/205/9 159/239/9 185/271/9 184/270/9
f 51/95/9 133/205/9 184/270/9 181/267/9
f 63/114/9 84/145/9 183/269/9 182/268/9
f 63/114/9 520/731/9 519/730/9 34/70/9 69/124/9
f 591/836/9 224/321/9 242/343/9 596/841/9
f 201/292/9 462/636/9 478/668/9 208/301/9
f 190/277/4 1/1/4 461/634/4 463/637/4 464/639/4 462/636/4 201/292/4
f 523/736/5 144/218/5 149/226/5 548/775/5
f 160/241/6 540/763/6 563/792/6 262/365/6
f 84/145/9 42/81/9 180/265/9 183/269/9
f 239/339/1 177/262/1 181/266/1 240/340/1
f 217/312/9 201/292/9 208/301/9 224/321/9
f 221/318/5 205/298/5 207/300/5 223/320/5
f 223/320/5 207/300/5 206/299/5 222/319/5
f 210/303/5 191/278/5 205/298/5 221/318/5
f 222/319/5 206/299/5 204/297/5 220/317/5
f 345/480/12 412/576/12 410/573/12 503/703/12 505/706/12 506/709/12 504/704/12
f 211/304/5 192/279/5 203/295/5 219/315/5
f 202/294/6 465/642/6 490/683/6 263/366/6
f 230/328/9 199/288/9 200/290/9 231/330/9
f 242/343/9 241/342/9 199/289/9 230/329/9
f 253/355/6 252/354/6 198/287/6 229/327/6
f 1/1/9 190/277/9 195/284/9 22/48/9
f 18/36/9 194/282/9 197/286/9 26/57/9
f 96/161/6 8/15/6 347/485/6 390/548/6
f 187/273/9 10/18/9 350/492/9 406/568/9
f 500/699/3 499/697/3 9/16/3 466/644/3 473/659/3
f 252/354/6 485/677/6 453/619/6 198/287/6
f 225/322/6 186/272/6 189/275/6 228/326/6
f 212/305/6 193/280/6 196/285/6 215/310/6
f 228/325/4 189/276/4 197/286/4 216/311/4
f 215/310/4 196/285/4 195/283/4 214/308/4
f 274/388/4 273/385/4 193/280/4 212/305/4
f 191/278/6 210/303/6 414/578/6 409/572/6
f 220/317/5 204/297/5 187/273/5 226/323/5
f 209/302/4 190/277/4 201/292/4 217/312/4
f 180/265/13 42/81/13 580/817/13 592/837/13
f 58/108/5 220/317/5 226/323/5 39/76/5
f 211/304/10 45/86/10 366/518/10 417/582/10
f 268/375/4 274/388/4 212/305/4 46/87/4
f 49/92/4 215/310/4 214/308/4 48/91/4
f 41/79/4 228/325/4 216/311/4 50/93/4
f 46/87/6 212/305/6 215/310/6 49/92/6
f 37/73/6 225/322/6 228/326/6 41/80/6
f 225/322/4 37/73/4 567/796/4 569/798/4 570/799/4 568/797/4 229/327/4
f 38/74/13 234/334/13 595/840/13 571/801/13
f 40/77/13 38/75/13 571/800/13 575/809/13
f 234/334/13 180/265/13 592/837/13 595/840/13
f 97/162/5 222/319/5 220/317/5 58/108/5
f 43/82/5 210/303/5 221/318/5 62/113/5
f 104/169/5 223/320/5 222/319/5 97/162/5
f 62/113/5 221/318/5 223/320/5 104/169/5
f 42/81/4 209/302/4 217/312/4 579/816/4 581/818/4 582/819/4 580/817/4
f 188/274/5 227/324/5 231/331/5 200/291/5
f 202/293/6 218/314/6 219/316/6 203/296/6
f 190/277/9 209/302/9 214/309/9 195/284/9
f 194/282/9 213/306/9 216/311/9 197/286/9
f 410/573/8 413/577/8 227/324/8 188/274/8
f 226/323/9 187/273/9 406/568/9 418/583/9
f 186/272/4 225/322/4 229/327/4 198/287/4
f 246/347/7 257/359/7 603/848/7 599/844/7
f 7/13/1 239/339/1 240/340/1 53/101/1
f 227/324/5 40/78/5 575/808/5 577/812/5 578/814/5 576/810/5 231/331/5
f 184/270/9 185/271/9 238/338/9 237/337/9
f 181/267/9 184/270/9 237/337/9 240/341/9
f 182/268/9 183/269/9 236/336/9 235/335/9
f 179/264/9 182/268/9 235/335/9 233/333/9
f 208/301/9 478/668/9 481/672/9 241/342/9
f 254/356/3 243/344/3 486/678/3 489/682/3
f 185/271/9 552/781/9 555/784/9 238/338/9
f 262/365/6 563/792/6 559/788/6 251/353/6
f 183/269/9 180/265/9 234/334/9 236/336/9
f 253/355/1 264/367/1 445/611/1 450/616/1
f 261/364/6 262/365/6 251/353/6 250/352/6
f 258/360/6 261/364/6 250/352/6 247/348/6
f 259/362/6 260/363/6 249/351/6 248/350/6
f 256/358/6 259/362/6 248/350/6 245/346/6
f 600/845/6 253/355/6 229/327/6 568/797/6
f 263/366/6 490/683/6 485/677/6 252/354/6
f 4/8/1 244/345/1 247/349/1 54/103/1
f 256/358/2 245/346/2 560/789/2 564/793/2
f 260/363/6 257/359/6 246/347/6 249/351/6
f 86/148/6 44/84/6 257/359/6 260/363/6
f 251/353/6 559/788/6 544/770/6 148/224/6
f 159/239/9 536/758/9 552/781/9 185/271/9
f 498/696/10 192/279/10 405/567/10 508/713/10
f 465/643/6 202/293/6 203/296/6 474/661/6
f 65/116/6 532/751/6 531/749/6 30/63/6 66/119/6
f 65/117/6 86/148/6 260/363/6 259/362/6
f 52/98/6 134/207/6 261/364/6 258/360/6
f 134/207/6 160/241/6 262/365/6 261/364/6
f 218/313/6 202/294/6 263/366/6 264/367/6
f 218/314/6 583/820/6 587/829/6 219/316/6
f 604/849/6 264/367/6 253/355/6 600/845/6
f 244/345/1 255/357/1 258/361/1 247/349/1
f 208/301/2 241/342/2 429/595/2 421/587/2
f 264/367/5 263/366/5 438/604/5 445/611/5
f 242/343/1 224/321/1 426/592/1 434/600/1
f 425/591/9 422/588/9 430/596/9 433/599/9
f 446/612/6 437/603/6 442/608/6 449/615/6
f 263/366/2 252/354/2 441/607/2 438/604/2
f 241/342/5 242/343/5 434/600/5 429/595/5
f 252/354/4 253/355/4 450/616/4 441/607/4
f 47/89/4 213/307/4 274/389/4 268/376/4
f 213/307/4 194/281/4 273/386/4 274/389/4
f 124/193/4 155/234/4 272/384/4 271/382/4
f 17/35/4 124/193/4 271/382/4 266/372/4
f 68/122/4 89/153/4 270/380/4 269/378/4
f 32/66/4 68/122/4 269/378/4 267/374/4
f 89/153/4 47/89/4 268/376/4 270/380/4
f 155/234/4 32/66/4 267/374/4 272/384/4
f 194/282/4 18/36/4 265/368/4 273/387/4
f 16/31/4 265/369/4 311/435/4 275/390/4
f 3/5/6 243/344/6 339/471/6 315/442/6
f 232/332/9 178/263/9 336/468/9 299/422/9
f 102/167/5 60/111/5 328/458/5 331/462/5
f 5/9/8 6/11/8 283/400/8 288/405/8
f 287/404/2 284/401/2 300/423/2 335/467/2 279/396/2 276/392/2 312/437/2 319/446/2 316/443/2 340/472/2 307/431/2 295/418/2 292/413/2 304/427/2 324/453/2 332/463/2 327/457/2
f 95/160/5 102/167/5 331/462/5 323/452/5
f 6/11/9 232/332/9 299/422/9 283/400/9
f 9/16/10 10/17/10 291/411/10 296/419/10
f 178/263/9 1/2/9 280/397/9 336/468/9
f 60/111/5 5/10/5 288/406/5 328/458/5
f 243/344/6 254/356/6 308/432/6 339/471/6
f 56/106/5 95/160/5 323/452/5 303/426/5
f 18/37/4 3/5/4 315/442/4 320/447/4
f 254/356/6 9/16/6 296/419/6 308/432/6
f 10/18/5 56/106/5 303/426/5 291/412/5
f 276/392/14 279/396/14 281/398/14 278/395/14
f 278/395/15 281/398/15 282/399/15 277/393/15
f 277/393/16 282/399/16 280/397/16 275/391/16
f 284/401/17 287/404/17 289/407/17 286/403/17
f 286/403/18 289/407/18 290/408/18 285/402/18
f 285/402/19 290/408/19 288/405/19 283/400/19
f 292/413/20 295/418/20 297/420/20 294/417/20
f 294/417/21 297/420/21 298/421/21 293/414/21
f 293/414/22 298/421/22 296/419/22 291/411/22
f 300/423/23 284/401/23 286/403/23 302/425/23
f 302/425/24 286/403/24 285/402/24 301/424/24
f 301/424/25 285/402/25 283/400/25 299/422/25
f 304/427/26 292/413/26 294/417/26 306/430/26
f 306/430/27 294/417/27 293/415/27 305/428/27
f 305/429/28 293/416/28 291/412/28 303/426/28
f 308/432/29 296/419/29 298/421/29 310/434/29
f 310/434/30 298/421/30 297/420/30 309/433/30
f 309/433/31 297/420/31 295/418/31 307/431/31
f 312/437/14 276/392/14 278/395/14 314/441/14
f 314/441/15 278/395/15 277/393/15 313/439/15
f 313/438/16 277/394/16 275/390/16 311/435/16
f 316/443/14 319/446/14 321/449/14 318/445/14
f 318/445/15 321/449/15 322/450/15 317/444/15
f 317/444/16 322/450/16 320/447/16 315/442/16
f 324/453/26 304/427/26 306/430/26 326/456/26
f 326/456/27 306/430/27 305/428/27 325/454/27
f 325/455/28 305/429/28 303/426/28 323/452/28
f 287/404/26 327/457/26 329/459/26 289/407/26
f 289/407/27 329/459/27 330/460/27 290/409/27
f 290/410/28 330/461/28 328/458/28 288/406/28
f 332/463/26 324/453/26 326/456/26 334/466/26
f 334/466/27 326/456/27 325/454/27 333/464/27
f 333/465/28 325/455/28 323/452/28 331/462/28
f 327/457/26 332/463/26 334/466/26 329/459/26
f 329/459/27 334/466/27 333/464/27 330/460/27
f 330/461/28 333/465/28 331/462/28 328/458/28
f 279/396/23 335/467/23 337/469/23 281/398/23
f 281/398/24 337/469/24 338/470/24 282/399/24
f 282/399/25 338/470/25 336/468/25 280/397/25
f 335/467/23 300/423/23 302/425/23 337/469/23
f 337/469/24 302/425/24 301/424/24 338/470/24
f 338/470/25 301/424/25 299/422/25 336/468/25
f 315/442/29 339/471/29 341/473/29 317/444/29
f 317/444/30 341/473/30 342/474/30 318/445/30
f 318/445/31 342/474/31 340/472/31 316/443/31
f 339/471/29 308/432/29 310/434/29 341/473/29
f 341/473/30 310/434/30 309/433/30 342/474/30
f 342/474/31 309/433/31 307/431/31 340/472/31
f 319/446/14 312/437/14 314/441/14 321/449/14
f 321/449/15 314/441/15 313/439/15 322/450/15
f 322/451/16 313/440/16 311/436/16 320/448/16
f 1/2/4 16/32/4 275/391/4 280/397/4
f 390/548/32 347/485/32 349/490/32 392/551/32
f 392/551/33 349/490/33 348/487/33 391/549/33
f 391/550/12 348/488/12 346/483/12 389/547/12
f 406/568/34 350/492/34 352/497/34 408/571/34
f 408/571/35 352/497/35 351/494/35 407/569/35
f 374/528/32 357/507/32 359/509/32 376/531/32
f 376/531/33 359/509/33 360/510/33 375/529/33
f 375/530/12 360/511/12 358/508/12 373/527/12
f 398/558/34 361/512/34 363/514/34 400/561/34
f 400/561/35 363/514/35 364/515/35 399/559/35
f 399/560/36 364/516/36 362/513/36 397/557/36
f 382/538/34 365/517/34 367/519/34 384/541/34
f 384/541/35 367/519/35 368/520/35 383/539/35
f 383/540/36 368/521/36 366/518/36 381/537/36
f 414/578/32 369/522/32 371/524/32 416/581/32
f 416/581/33 371/524/33 372/525/33 415/579/33
f 415/580/12 372/526/12 370/523/12 413/577/12
f 386/543/32 374/528/32 376/531/32 388/546/32
f 388/546/33 376/531/33 375/529/33 387/544/33
f 387/545/12 375/530/12 373/527/12 385/542/12
f 361/512/34 377/532/34 379/534/34 363/514/34
f 363/514/35 379/534/35 380/535/35 364/515/35
f 364/516/36 380/536/36 378/533/36 362/513/36
f 377/532/34 382/538/34 384/541/34 379/534/34
f 379/534/35 384/541/35 383/539/35 380/535/35
f 380/536/36 383/540/36 381/537/36 378/533/36
f 369/522/32 386/543/32 388/546/32 371/524/32
f 371/524/33 388/546/33 387/544/33 372/525/33
f 372/526/12 387/545/12 385/542/12 370/523/12
f 402/563/32 390/548/32 392/551/32 404/566/32
f 404/566/33 392/551/33 391/549/33 403/564/33
f 403/565/12 391/550/12 389/547/12 401/562/12
f 353/499/34 393/552/34 395/554/34 355/503/34
f 355/503/35 395/554/35 396/555/35 356/505/35
f 356/506/36 396/556/36 394/553/36 354/501/36
f 393/552/34 398/558/34 400/561/34 395/554/34
f 395/554/35 400/561/35 399/559/35 396/555/35
f 396/556/36 399/560/36 397/557/36 394/553/36
f 357/507/32 402/563/32 404/566/32 359/509/32
f 359/509/33 404/566/33 403/564/33 360/510/33
f 360/511/12 403/565/12 401/562/12 358/508/12
f 418/583/34 406/568/34 408/571/34 420/586/34
f 420/586/35 408/571/35 407/569/35 419/584/35
f 419/585/36 407/570/36 405/567/36 417/582/36
f 343/476/32 409/572/32 411/574/32 344/478/32
f 344/478/33 411/574/33 412/575/33 345/481/33
f 407/570/36 351/495/36 507/711/36 509/714/36 510/716/36 508/713/36 405/567/36
f 409/572/32 414/578/32 416/581/32 411/574/32
f 411/574/33 416/581/33 415/579/33 412/575/33
f 412/576/12 415/580/12 413/577/12 410/573/12
f 365/517/34 418/583/34 420/586/34 367/519/34
f 367/519/35 420/586/35 419/584/35 368/520/35
f 368/521/36 419/585/36 417/582/36 366/518/36
f 6/11/11 493/687/11 495/691/11 470/652/11 457/627/11
f 422/588/37 425/591/37 427/593/37 424/590/37
f 424/590/38 427/593/38 428/594/38 423/589/38
f 423/589/39 428/594/39 426/592/39 421/587/39
f 421/587/23 429/595/23 431/597/23 423/589/23
f 423/589/24 431/597/24 432/598/24 424/590/24
f 424/590/25 432/598/25 430/596/25 422/588/25
f 425/591/40 433/599/40 435/601/40 427/593/40
f 427/593/41 435/601/41 436/602/41 428/594/41
f 428/594/42 436/602/42 434/600/42 426/592/42
f 429/595/43 434/600/43 436/602/43 431/597/43
f 431/597/8 436/602/8 435/601/8 432/598/8
f 432/598/44 435/601/44 433/599/44 430/596/44
f 438/604/31 441/607/31 443/609/31 440/606/31
f 440/606/30 443/609/30 444/610/30 439/605/30
f 439/605/29 444/610/29 442/608/29 437/603/29
f 446/612/45 449/615/45 451/617/45 448/614/45
f 448/614/46 451/617/46 452/618/46 447/613/46
f 447/613/47 452/618/47 450/616/47 445/611/47
f 441/607/48 450/616/48 452/618/48 443/609/48
f 443/609/49 452/618/49 451/617/49 444/610/49
f 444/610/50 451/617/50 449/615/50 442/608/50
f 437/603/51 446/612/51 448/614/51 439/605/51
f 439/605/10 448/614/10 447/613/10 440/606/10
f 440/606/52 447/613/52 445/611/52 438/604/52
f 224/321/4 208/301/4 421/587/4 426/592/4
f 482/673/53 457/627/53 459/630/53 484/676/53
f 484/676/54 459/630/54 460/632/54 483/674/54
f 483/675/55 460/631/55 458/628/55 481/672/55
f 490/683/56 465/642/56 467/645/56 492/685/56
f 492/686/57 467/646/57 468/648/57 491/684/57
f 491/684/58 468/648/58 466/644/58 489/682/58
f 473/659/59 466/644/59 468/648/59 475/663/59
f 475/663/57 468/648/57 467/646/57 476/665/57
f 476/666/56 467/647/56 465/643/56 474/661/56
f 457/627/60 470/652/60 472/657/60 459/630/60
f 459/630/54 472/657/54 471/654/54 460/632/54
f 460/633/55 471/655/55 469/650/55 458/629/55
f 461/635/60 477/667/60 479/669/60 463/638/60
f 463/638/54 479/669/54 480/670/54 464/640/54
f 464/641/55 480/671/55 478/668/55 462/636/55
f 477/667/53 482/673/53 484/676/53 479/669/53
f 479/669/54 484/676/54 483/674/54 480/670/54
f 480/671/55 483/675/55 481/672/55 478/668/55
f 453/619/56 485/677/56 487/679/56 455/622/56
f 455/623/57 487/680/57 488/681/57 456/625/57
f 456/625/58 488/681/58 486/678/58 454/620/58
f 485/677/56 490/683/56 492/685/56 487/679/56
f 487/680/57 492/686/57 491/684/57 488/681/57
f 488/681/58 491/684/58 489/682/58 486/678/58
f 3/6/4 186/272/4 198/287/4 453/619/4 455/624/4 456/626/4 454/621/4
f 493/687/61 496/692/61 495/691/61
f 496/692/62 497/693/62 495/691/62
f 497/693/63 494/688/63 495/691/63
f 498/695/64 501/700/64 500/699/64
f 501/700/65 502/702/65 500/699/65
f 502/702/66 499/697/66 500/699/66
f 493/687/67 504/705/67 506/710/67 496/692/67
f 496/692/68 506/710/68 505/707/68 497/693/68
f 497/694/69 505/708/69 503/703/69 494/689/69
f 507/712/70 499/697/70 502/702/70 509/715/70
f 509/715/71 502/702/71 501/700/71 510/717/71
f 510/718/72 501/701/72 498/696/72 508/713/72
f 503/703/8 410/573/8 188/274/8 494/689/8
f 511/719/6 515/724/6 516/725/6 512/720/6 513/722/6 514/723/6
f 517/727/9 521/732/9 522/733/9 518/728/9 519/730/9 520/731/9
f 523/735/9 527/742/9 528/745/9 524/737/9 525/739/9 526/741/9
f 529/746/6 533/753/6 534/756/6 530/748/6 531/749/6 532/752/6
f 556/785/23 547/773/23 549/776/23 558/787/23
f 558/787/24 549/776/24 550/777/24 557/786/24
f 557/786/25 550/777/25 548/774/25 555/784/25
f 560/789/31 543/769/31 545/771/31 562/791/31
f 562/791/30 545/771/30 546/772/30 561/790/30
f 561/790/29 546/772/29 544/770/29 559/788/29
f 543/769/14 512/721/14 516/726/14 545/771/14
f 545/771/15 516/726/15 515/724/15 546/772/15
f 546/772/16 515/724/16 511/719/16 544/770/16
f 540/762/28 530/748/28 534/756/28 542/767/28
f 542/767/27 534/756/27 533/754/27 541/764/27
f 541/765/26 533/755/26 529/747/26 539/761/26
f 523/736/73 548/775/73 550/778/73 527/743/73
f 527/744/74 550/779/74 549/776/74 528/745/74
f 528/745/75 549/776/75 547/773/75 524/737/75
f 536/758/16 518/729/16 522/734/16 538/760/16
f 538/760/15 522/734/15 521/732/15 537/759/15
f 537/759/14 521/732/14 517/727/14 535/757/14
f 535/757/23 551/780/23 553/782/23 537/759/23
f 537/759/24 553/782/24 554/783/24 538/760/24
f 538/760/25 554/783/25 552/781/25 536/758/25
f 551/780/23 556/785/23 558/787/23 553/782/23
f 553/782/24 558/787/24 557/786/24 554/783/24
f 554/783/25 557/786/25 555/784/25 552/781/25
f 564/793/31 560/789/31 562/791/31 566/795/31
f 566/795/30 562/791/30 561/790/30 565/794/30
f 565/794/29 561/790/29 559/788/29 563/792/29
f 539/761/31 564/793/31 566/795/31 541/766/31
f 541/766/30 566/795/30 565/794/30 542/768/30
f 542/768/29 565/794/29 563/792/29 540/763/29
f 511/719/4 143/217/4 148/224/4 544/770/4
f 584/822/76 588/831/76 590/835/76 586/826/76
f 586/826/77 590/835/77 589/833/77 585/824/77
f 585/824/78 589/833/78 587/829/78 583/820/78
f 572/802/79 576/811/79 578/815/79 574/806/79
f 574/806/80 578/815/80 577/813/80 573/804/80
f 573/804/81 577/813/81 575/809/81 571/800/81
f 596/841/79 572/803/79 574/807/79 598/843/79
f 598/843/80 574/807/80 573/805/80 597/842/80
f 597/842/81 573/805/81 571/801/81 595/840/81
f 600/845/78 568/797/78 570/799/78 602/847/78
f 602/847/77 570/799/77 569/798/77 601/846/77
f 601/846/76 569/798/76 567/796/76 599/844/76
f 579/816/79 591/836/79 593/838/79 581/818/79
f 581/818/80 593/838/80 594/839/80 582/819/80
f 582/819/81 594/839/81 592/837/81 580/817/81
f 591/836/79 596/841/79 598/843/79 593/838/79
f 593/838/80 598/843/80 597/842/80 594/839/80
f 594/839/81 597/842/81 595/840/81 592/837/81
f 604/849/78 600/845/78 602/847/78 606/851/78
f 606/851/77 602/847/77 601/846/77 605/850/77
f 605/850/76 601/846/76 599/844/76 603/848/76
f 583/821/78 604/849/78 606/851/78 585/825/78
f 585/825/77 606/851/77 605/850/77 586/827/77
f 586/827/76 605/850/76 603/848/76 584/823/76
f 37/73/7 246/347/7 599/844/7 567/796/7
