# Blender 3.3.0
# www.blender.org
mtllib Computer1.mtl
o 5678
v -0.265189 -0.004233 -0.920256
v 0.440695 -0.004233 -0.920256
v 0.432192 1.506201 -0.920256
v 0.440695 1.487723 -0.920256
v -0.256686 1.506201 -0.920256
v -0.265189 1.487723 -0.920256
v 0.440695 1.291127 -0.920256
v -0.265189 1.291127 -0.920256
v 0.440695 1.084649 -0.920256
v -0.265189 1.084649 -0.920256
v 0.440695 0.980334 -0.920256
v -0.265189 0.980334 -0.920256
v 0.440695 0.673963 -0.920256
v -0.265189 0.673963 -0.920256
v 0.415894 -0.004233 -1.000000
v 0.415894 -0.004233 1.000000
v 0.407988 1.506201 -0.920256
v 0.415894 -0.004233 -0.920256
v 0.415894 1.487723 -1.000000
v 0.415894 1.291127 -1.000000
v 0.415894 1.291127 1.000000
v 0.415894 1.084649 1.000000
v 0.415894 1.084649 -1.000000
v 0.415894 0.980334 1.000000
v 0.415894 0.980334 -1.000000
v 0.415894 0.673963 1.000000
v 0.415894 0.673963 -1.000000
v -0.240516 -0.004233 -1.000000
v -0.240516 -0.004233 -0.920256
v -0.240516 1.291127 -1.000000
v -0.240516 1.291127 1.000000
v -0.240516 1.084649 1.000000
v -0.240516 1.084649 -1.000000
v -0.240516 0.980334 1.000000
v -0.240516 0.980334 -1.000000
v -0.240516 0.673963 1.000000
v -0.240516 0.673963 -1.000000
v -0.240516 -0.004233 1.000000
v -0.232607 1.506201 -0.920256
v -0.240516 1.487723 -1.000000
v 0.415894 -0.004233 -0.973082
v 0.415894 0.673963 -0.973082
v -0.240516 -0.004233 -0.973082
v -0.240516 0.673963 -0.973082
v 0.415894 0.673963 -1.022440
v 0.415894 0.683288 -1.032177
v 0.415894 0.676694 -1.029325
v 0.415894 0.971010 -1.032177
v 0.415894 0.980334 -1.022440
v 0.415894 0.977603 -1.029325
v 0.415894 1.084649 -1.022440
v 0.415894 1.093974 -1.032177
v 0.415894 1.087380 -1.029325
v 0.415894 1.281803 -1.032177
v 0.415894 1.291127 -1.022440
v 0.415894 1.288396 -1.029325
v -0.240516 1.291127 -1.022440
v -0.240516 1.281803 -1.032177
v -0.240516 1.288396 -1.029325
v -0.240516 1.093974 -1.032177
v -0.240516 1.084649 -1.022440
v -0.240516 1.087380 -1.029325
v -0.240516 0.980334 -1.022440
v -0.240516 0.971010 -1.032177
v -0.240516 0.977603 -1.029325
v -0.240516 0.683288 -1.032177
v -0.240516 0.673963 -1.022440
v -0.240516 0.676694 -1.029325
v 0.433633 -0.004233 -1.000000
v 0.440695 -0.004233 -0.984375
v 0.438627 -0.004233 -0.995424
v -0.265189 -0.004233 -0.984375
v -0.258127 -0.004233 -1.000000
v -0.263121 -0.004233 -0.995424
v 0.431715 1.491238 -1.000000
v 0.432192 1.506201 -0.984375
v 0.432052 1.501818 -0.995424
v 0.440695 1.487723 -0.984375
v 0.433427 1.487723 -1.000000
v 0.438566 1.487723 -0.995424
v -0.257921 1.487723 -1.000000
v -0.265189 1.487723 -0.984375
v -0.263061 1.487723 -0.995424
v -0.256209 1.491238 -1.000000
v -0.256686 1.506201 -0.984375
v -0.256547 1.501818 -0.995424
v -0.258003 1.291127 -1.000000
v -0.265189 1.291127 -0.984375
v -0.263084 1.291127 -0.995424
v 0.440695 1.291127 -0.984375
v 0.433509 1.291127 -1.000000
v 0.438590 1.291127 -0.995424
v 0.440695 1.084649 -0.984375
v 0.433566 1.084649 -1.000000
v 0.438607 1.084649 -0.995424
v -0.258060 1.084649 -1.000000
v -0.265189 1.084649 -0.984375
v -0.263101 1.084649 -0.995424
v 0.440695 0.980334 -0.984375
v 0.433604 0.980334 -1.000000
v 0.438618 0.980334 -0.995424
v -0.258099 0.980334 -1.000000
v -0.265189 0.980334 -0.984375
v -0.263112 0.980334 -0.995424
v 0.433626 0.673963 -1.000000
v 0.440695 0.673963 -0.984375
v 0.438625 0.673963 -0.995424
v -0.258120 0.673963 -1.000000
v -0.265189 0.673963 -0.984375
v -0.263119 0.673963 -0.995424
v 0.414390 1.491238 -1.000000
v 0.407988 1.506201 -0.984375
v 0.409863 1.501818 -0.995424
v -0.239011 1.491238 -1.000000
v -0.232607 1.506201 -0.984375
v -0.234483 1.501818 -0.995424
v 0.440695 -0.004233 0.976394
v 0.430292 -0.004233 1.000000
v 0.437648 -0.004233 0.993086
v -0.254786 -0.004233 1.000000
v -0.265189 -0.004233 0.976394
v -0.262142 -0.004233 0.993086
v 0.430292 1.478359 1.000000
v 0.440695 1.487723 0.976394
v 0.437648 1.484981 0.993086
v 0.427883 1.483594 1.000000
v 0.432192 1.506201 0.976394
v 0.430930 1.499579 0.993086
v -0.252377 1.483594 1.000000
v -0.256686 1.506201 0.976394
v -0.255424 1.499579 0.993086
v -0.254786 1.478359 1.000000
v -0.265189 1.487723 0.976394
v -0.262142 1.484981 0.993086
v 0.430292 1.291127 1.000000
v 0.440695 1.291127 0.976394
v 0.437648 1.291127 0.993086
v -0.265189 1.291127 0.976394
v -0.254786 1.291127 1.000000
v -0.262142 1.291127 0.993086
v 0.430292 1.084649 1.000000
v 0.440695 1.084649 0.976394
v 0.437648 1.084649 0.993086
v -0.265189 1.084649 0.976394
v -0.254786 1.084649 1.000000
v -0.262142 1.084649 0.993086
v 0.430292 0.980334 1.000000
v 0.440695 0.980334 0.976394
v 0.437648 0.980334 0.993086
v -0.265189 0.980334 0.976394
v -0.254786 0.980334 1.000000
v -0.262142 0.980334 0.993086
v 0.440695 0.673963 0.976394
v 0.430292 0.673963 1.000000
v 0.437648 0.673963 0.993086
v -0.254786 0.673963 1.000000
v -0.265189 0.673963 0.976394
v -0.262142 0.673963 0.993086
v 0.407988 1.506201 0.976394
v 0.408819 1.483594 1.000000
v 0.408232 1.499579 0.993086
v -0.232607 1.506201 0.976394
v -0.233438 1.483594 1.000000
v -0.232851 1.499579 0.993086
v -0.175148 -0.004233 0.975985
v -0.162940 1.506201 -0.920256
v -0.169129 1.487723 -1.000000
v -0.169129 1.291127 -1.000000
v -0.175148 1.291127 0.975985
v -0.175148 1.084649 0.975985
v -0.169129 1.084649 -1.000000
v -0.175148 0.980334 0.975985
v -0.169129 0.980334 -1.000000
v -0.175148 0.673963 0.975985
v -0.169129 0.673963 -1.000000
v -0.169129 -0.004233 -0.973082
v -0.169129 0.673963 -0.973082
v -0.169129 1.281803 -1.032177
v -0.169129 1.288396 -1.029325
v -0.169129 1.291127 -1.022440
v -0.169129 1.084649 -1.022440
v -0.169129 1.087380 -1.029325
v -0.169129 1.093974 -1.032177
v -0.169129 0.971010 -1.032177
v -0.169129 0.977603 -1.029325
v -0.169129 0.980334 -1.022440
v -0.169129 0.673963 -1.022440
v -0.169129 0.676694 -1.029325
v -0.169129 0.683288 -1.032177
v -0.162940 1.506201 -0.984375
v -0.164408 1.501818 -0.995424
v -0.167952 1.491238 -1.000000
v -0.169610 1.483594 0.975985
v -0.169150 1.499579 0.969071
v -0.168959 1.506201 0.952379
v 0.349317 -0.004233 0.975985
v 0.348889 1.506201 -0.920256
v 0.355336 1.487723 -1.000000
v 0.355336 1.288396 -1.029325
v 0.355336 1.291127 -1.022440
v 0.355336 1.087380 -1.029325
v 0.355336 1.093974 -1.032177
v 0.355336 0.977603 -1.029325
v 0.355336 0.980334 -1.022440
v 0.355336 0.676694 -1.029325
v 0.355336 0.683288 -1.032177
v 0.348889 1.506201 -0.984375
v 0.343548 1.483594 0.975985
v 0.355336 1.291127 -1.000000
v 0.349317 1.291127 0.975985
v 0.349317 1.084649 0.975985
v 0.355336 1.084649 -1.000000
v 0.349317 0.980334 0.975985
v 0.355336 0.980334 -1.000000
v 0.349317 0.673963 0.975985
v 0.355336 0.673963 -1.000000
v 0.355336 -0.004233 -0.973082
v 0.355336 0.673963 -0.973082
v 0.355336 1.281803 -1.032177
v 0.355336 1.084649 -1.022440
v 0.355336 0.971010 -1.032177
v 0.355336 0.673963 -1.022440
v 0.350418 1.501818 -0.995424
v 0.354110 1.491238 -1.000000
v 0.343069 1.499579 0.969071
v 0.342870 1.506201 0.952379
v 0.405135 -0.004233 1.000000
v 0.397489 1.506201 -0.920256
v 0.405135 1.487723 -1.000000
v 0.405135 1.288396 -1.029325
v 0.405135 1.291127 -1.022440
v 0.405135 1.087380 -1.029325
v 0.405135 1.093974 -1.032177
v 0.405135 0.977603 -1.029325
v 0.405135 0.980334 -1.022440
v 0.405135 0.676694 -1.029325
v 0.405135 0.683288 -1.032177
v 0.397489 1.506201 -0.984375
v 0.392273 1.483594 0.975985
v 0.405135 -0.004233 -0.920256
v 0.405135 1.291127 -1.000000
v 0.399116 1.291127 0.975985
v 0.399116 1.084649 0.975985
v 0.405135 1.084649 -1.000000
v 0.405135 0.980334 1.000000
v 0.405135 0.980334 -1.000000
v 0.405135 0.673963 1.000000
v 0.405135 0.673963 -1.000000
v 0.405135 -0.004233 -0.973082
v 0.405135 0.673963 -0.973082
v 0.405135 1.281803 -1.032177
v 0.405135 1.084649 -1.022440
v 0.405135 0.971010 -1.032177
v 0.405135 0.673963 -1.022440
v 0.399302 1.501818 -0.995424
v 0.403681 1.491238 -1.000000
v 0.391705 1.499579 0.969071
v 0.391469 1.506201 0.952379
v -0.215038 -0.004233 -0.920256
v -0.215038 1.291127 -1.000000
v -0.221057 1.291127 0.975985
v -0.221057 1.084649 0.975985
v -0.215038 1.084649 -1.000000
v -0.215038 0.980334 1.000000
v -0.215038 0.980334 -1.000000
v -0.215038 0.673963 1.000000
v -0.215038 0.673963 -1.000000
v -0.215038 -0.004233 -0.973082
v -0.215038 0.673963 -0.973082
v -0.215038 1.281803 -1.032177
v -0.215038 1.084649 -1.022440
v -0.215038 0.971010 -1.032177
v -0.215038 0.673963 -1.022440
v -0.209473 1.501818 -0.995424
v -0.213650 1.491238 -1.000000
v -0.213987 1.499579 0.969071
v -0.213762 1.506201 0.952379
v -0.215038 -0.004233 1.000000
v -0.207743 1.506201 -0.920256
v -0.215038 1.487723 -1.000000
v -0.215038 1.288396 -1.029325
v -0.215038 1.291127 -1.022440
v -0.215038 1.087380 -1.029325
v -0.215038 1.093974 -1.032177
v -0.215038 0.977603 -1.029325
v -0.215038 0.980334 -1.022440
v -0.215038 0.676694 -1.029325
v -0.215038 0.683288 -1.032177
v -0.207743 1.506201 -0.984375
v -0.214529 1.483594 0.975985
v 0.440695 1.017559 -0.920256
v -0.265189 1.017559 -0.920256
v 0.415894 1.017559 -1.000000
v 0.415894 1.017559 1.000000
v -0.240516 1.017559 -1.000000
v -0.240516 1.017559 1.000000
v -0.265189 1.017559 -0.984375
v -0.263108 1.017559 -0.995424
v -0.258085 1.017559 -1.000000
v 0.440695 1.017559 -0.984375
v 0.438614 1.017559 -0.995424
v 0.433591 1.017559 -1.000000
v 0.430292 1.017559 1.000000
v 0.437648 1.017559 0.993086
v 0.440695 1.017559 0.976394
v -0.265189 1.017559 0.976394
v -0.262142 1.017559 0.993086
v -0.254786 1.017559 1.000000
v -0.175148 1.017559 0.975985
v -0.169129 1.017559 -1.000000
v 0.355336 1.017559 -1.000000
v 0.349317 1.017559 0.975985
v 0.405135 1.017559 1.000000
v 0.405135 1.017559 -1.000000
v -0.215038 1.017559 1.000000
v -0.215038 1.017559 -1.000000
v -0.175148 1.084649 0.975985
v -0.271092 1.518293 -0.920256
v -0.279949 1.499815 -0.920256
v 0.446505 1.518293 -0.920256
v 0.455362 1.499815 -0.920256
v 0.455362 0.673963 -0.920256
v 0.455362 -0.004233 -0.920256
v 0.421292 1.518293 -0.920256
v -0.279949 0.673963 -0.920256
v -0.279949 -0.004233 -0.920256
v 0.455362 1.291127 -0.920256
v -0.279949 1.291127 -0.920256
v 0.455362 1.084649 -0.920256
v -0.279949 1.084649 -0.920256
v 0.455362 1.017559 -0.920256
v 0.455362 0.980334 -0.920256
v -0.279949 1.017559 -0.920256
v -0.279949 0.980334 -0.920256
v 0.410354 1.518293 -0.920256
v -0.246009 1.518293 -0.920256
v 0.446505 1.518293 -0.984375
v 0.455362 1.499815 -0.984375
v -0.279949 1.499815 -0.984375
v -0.271092 1.518293 -0.984375
v -0.279949 1.291127 -0.984375
v 0.421292 1.518293 -0.984375
v 0.455362 0.673963 -0.984375
v 0.455362 -0.004233 -0.984375
v -0.279949 1.084649 -0.984375
v 0.455362 1.291127 -0.984375
v 0.455362 1.084649 -0.984375
v -0.279949 1.017559 -0.984375
v 0.455362 1.017559 -0.984375
v 0.455362 0.980334 -0.984375
v -0.279949 0.673963 -0.984375
v -0.279949 0.980334 -0.984375
v -0.279949 -0.004233 -0.984375
v 0.410354 1.518293 -0.984375
v -0.246009 1.518293 -0.984375
v -0.220108 1.518293 -0.920256
v -0.173438 1.518293 -0.920256
v -0.220108 1.518293 -0.984375
v -0.173438 1.518293 -0.984375
v 0.359729 1.518293 -0.920256
v 0.359729 1.518293 -0.984375
v -0.215038 -0.049909 1.000000
v -0.175148 -0.049909 0.975985
v 0.355336 -0.049909 -0.920256
v -0.169129 -0.049909 -0.920256
v 0.355336 -0.049909 -0.973082
v -0.169129 -0.049909 -0.973082
v 0.349317 -0.049909 0.975985
v 0.405135 -0.049909 -0.920256
v 0.405135 -0.049909 -0.973082
v 0.405135 -0.049909 1.000000
v -0.215038 -0.049909 -0.920256
v -0.215038 -0.049909 -0.973082
vn -1.0000 -0.0000 -0.0000
vn -0.0000 -1.0000 -0.0000
vn -0.0000 -0.0000 1.0000
vn -0.0000 1.0000 -0.0000
vn 1.0000 -0.0000 -0.0000
vn -0.0000 -0.0000 -1.0000
vn 0.7810 -0.0276 0.6239
vn -0.9084 0.4180 -0.0000
vn 0.9084 0.4180 -0.0000
vn 0.4640 0.1762 0.8682
vn 0.7770 -0.0000 0.6295
vn -0.0000 0.3970 -0.9178
vn -0.0000 0.9295 -0.3687
vn -0.0000 -0.9295 -0.3687
vn -0.0000 -0.3970 -0.9178
vn 0.6307 0.2946 -0.7179
vn 0.8943 0.4123 -0.1736
vn -0.6307 0.2946 -0.7179
vn -0.8943 0.4123 -0.1736
vn -0.9821 0.0001 -0.1882
vn -0.6671 0.0002 -0.7450
vn 0.9829 -0.0000 -0.1841
vn 0.6755 -0.0000 -0.7374
vn -0.9825 -0.0000 -0.1864
vn -0.6707 0.0001 -0.7417
vn 0.9821 0.0001 -0.1882
vn 0.6671 0.0002 -0.7450
vn 0.9825 -0.0000 -0.1864
vn 0.6707 0.0001 -0.7417
vn -0.9827 0.0001 -0.1854
vn -0.6728 0.0002 -0.7398
vn 0.9828 0.0001 -0.1849
vn 0.6738 0.0002 -0.7389
vn -0.9828 -0.0000 -0.1845
vn -0.6747 -0.0000 -0.7381
vn 0.9828 -0.0000 -0.1845
vn 0.6747 -0.0000 -0.7381
vn -0.9829 -0.0000 -0.1841
vn -0.6755 -0.0000 -0.7374
vn 0.5364 0.2468 0.8071
vn 0.8844 0.4070 0.2283
vn -0.5364 0.2468 0.8071
vn -0.8844 0.4070 0.2283
vn 0.6849 -0.0000 0.7287
vn 0.9837 -0.0000 0.1796
vn -0.0000 0.3970 0.9178
vn -0.0000 0.9295 0.3687
vn -0.9837 -0.0000 0.1796
vn -0.6849 -0.0000 0.7287
vn -0.8051 0.2107 0.5544
vn -0.4791 0.8136 0.3296
vn -0.3952 -0.0000 0.9186
vn 0.5158 -0.0000 0.8567
vn -0.8198 -0.0000 0.5727
vn -0.6536 0.1048 0.7495
vn -0.8212 -0.0297 0.5698
vn 0.7644 0.2330 0.6012
vn 0.4305 0.8369 0.3380
vn 0.6728 0.0002 -0.7398
vn 0.9827 0.0001 -0.1854
vn -0.6738 0.0002 -0.7389
vn -0.9828 0.0001 -0.1849
vn 0.4864 0.3328 0.8079
vn -0.3792 0.2815 0.8814
vn -0.9017 0.4323 -0.0000
vn 0.9017 0.4323 -0.0000
vt 0.125000 0.637108
vt 0.125000 0.792958
vt 0.125000 0.661716
vt 0.294684 0.001657
vt 0.265951 0.625528
vt 0.178137 0.637108
vt 0.296642 -0.000978
vt 0.190441 0.862680
vt 0.003491 0.563357
vt 0.296643 0.536290
vt 0.000174 0.563357
vt 0.272161 0.563357
vt 0.294683 0.534418
vt 0.275477 0.563357
vt 0.296643 0.465494
vt 0.294683 0.464216
vt 0.296643 0.391139
vt 0.294684 0.390485
vt 0.296643 0.353575
vt 0.294684 0.353235
vt 0.296642 0.243247
vt 0.294684 0.243834
vt 0.169354 0.627140
vt 0.018168 -0.004632
vt 0.257167 0.865560
vt 0.222173 0.833822
vt 0.989571 -0.000733
vt 0.012930 0.563357
vt 0.257167 0.625528
vt 0.169354 0.637108
vt 0.366216 0.509968
vt 0.222173 0.593790
vt 0.007086 0.542736
vt 0.018168 0.533128
vt 0.018168 0.462267
vt 0.261176 0.461242
vt 0.007086 0.465425
vt 0.989562 0.466144
vt 0.989562 0.391731
vt 0.028140 0.388701
vt 0.018168 0.387844
vt 0.989562 0.354137
vt 0.018168 0.348455
vt 0.019294 0.350245
vt 0.018168 0.350245
vt 0.989562 0.243724
vt 0.018168 0.239817
vt 0.019294 0.239817
vt 0.260994 0.234657
vt 0.133739 0.782990
vt 0.261176 -0.004632
vt 0.133739 0.792958
vt 0.133739 0.713648
vt 0.133739 0.637108
vt 0.261176 0.462267
vt 0.269368 0.465425
vt 0.018168 0.461242
vt 0.732805 0.465232
vt 0.732805 0.391141
vt 0.236327 0.388700
vt 0.261176 0.387844
vt 0.732805 0.353711
vt 0.259385 0.350245
vt 0.261176 0.350245
vt 0.261176 0.348455
vt 0.732805 0.243776
vt 0.259385 0.239817
vt 0.261176 0.239817
vt 0.019338 0.234657
vt 0.733036 -0.000733
vt 0.133739 0.877140
vt 0.262770 0.563357
vt 0.261176 0.533128
vt 0.269368 0.542736
vt 0.018168 -0.004632
vt 0.260994 0.243764
vt 0.018168 0.239817
vt 0.261176 -0.004632
vt 0.261176 0.579138
vt 0.261176 0.239817
vt 0.019338 0.243764
vt 0.015154 0.239817
vt 0.260994 0.227066
vt 0.013357 0.243178
vt 0.021636 0.246068
vt 0.013884 0.240801
vt 0.021636 0.242899
vt 0.260994 0.223772
vt 0.013357 0.346884
vt 0.021636 0.343838
vt 0.015154 0.350245
vt 0.018168 0.353960
vt 0.013884 0.349261
vt 0.018168 0.356349
vt 0.021636 0.347006
vt 0.018168 0.387844
vt 0.028140 0.383335
vt 0.018168 0.391205
vt 0.018168 0.394877
vt 0.018168 0.388829
vt 0.018168 0.391766
vt 0.028140 0.381006
vt 0.018168 0.458906
vt 0.018168 0.457543
vt 0.018168 0.462267
vt 0.261176 0.465703
vt 0.018168 0.461283
vt 0.261176 0.467639
vt 0.018168 0.460654
vt 0.261176 0.462267
vt 0.018168 0.465703
vt 0.261176 0.458906
vt 0.261176 0.457544
vt 0.261176 0.461283
vt 0.261176 0.460654
vt 0.018168 0.467639
vt 0.261176 0.391205
vt 0.261176 0.394884
vt 0.261176 0.387844
vt 0.236327 0.383335
vt 0.261176 0.388829
vt 0.236327 0.381006
vt 0.261176 0.391774
vt 0.270282 0.350245
vt 0.261176 0.353960
vt 0.275010 0.346884
vt 0.258010 0.343838
vt 0.273625 0.349261
vt 0.258010 0.347006
vt 0.261176 0.356349
vt 0.275010 0.243178
vt 0.258010 0.246068
vt 0.270282 0.239817
vt 0.019338 0.227066
vt 0.273625 0.240801
vt 0.019338 0.223772
vt 0.258010 0.242899
vt 0.175636 0.627140
vt 0.011601 -0.004632
vt 0.178137 0.629094
vt 0.190441 0.854665
vt 0.288878 -0.003792
vt 0.177405 0.627713
vt 0.292957 -0.003792
vt 0.008987 -0.004632
vt 0.125000 0.784943
vt 0.125000 0.653701
vt 0.275086 -0.003400
vt 0.127501 0.782990
vt 0.267696 -0.004632
vt 0.125733 0.783562
vt 0.270310 -0.004632
vt 0.012311 0.534395
vt 0.271061 0.554128
vt 0.011787 0.539053
vt 0.271575 0.556792
vt 0.271007 0.556792
vt 0.012186 0.539789
vt 0.275714 0.554128
vt 0.288878 0.538920
vt 0.000080 0.542736
vt 0.011677 0.533128
vt 0.009381 0.533962
vt 0.275132 0.556792
vt 0.292957 0.538920
vt 0.008987 0.533128
vt 0.276322 0.542736
vt 0.267619 0.533128
vt 0.275086 0.533381
vt -0.000147 0.554128
vt 0.269916 0.533962
vt 0.000435 0.556792
vt 0.270310 0.533128
vt 0.266986 0.534395
vt 0.004505 0.554128
vt 0.267510 0.539053
vt 0.003992 0.556792
vt 0.004559 0.556792
vt 0.267111 0.539789
vt 0.276355 0.465425
vt 0.267650 0.462267
vt 0.275086 0.462649
vt 0.270310 0.462267
vt 0.288878 0.467407
vt 0.000047 0.465425
vt 0.011647 0.462267
vt 0.292957 0.467407
vt 0.008987 0.462267
vt 0.288878 0.392298
vt 0.011626 0.387844
vt 0.008987 0.387844
vt 0.292957 0.392298
vt 0.267671 0.387844
vt 0.275086 0.388362
vt 0.270310 0.387844
vt 0.288878 0.354353
vt 0.011612 0.350245
vt 0.292957 0.354353
vt 0.008987 0.350245
vt 0.267685 0.350245
vt 0.275086 0.350831
vt 0.270310 0.350245
vt 0.011604 0.239817
vt 0.288878 0.242908
vt 0.292957 0.242908
vt 0.008987 0.239817
vt 0.267693 0.239817
vt 0.275086 0.240604
vt 0.270310 0.239817
vt 0.018725 0.534395
vt 0.261696 0.554128
vt 0.262421 0.556792
vt 0.020401 0.539789
vt 0.261696 0.556792
vt 0.021095 0.539789
vt 0.260619 0.534395
vt 0.013823 0.554127
vt 0.013097 0.556792
vt 0.258942 0.539788
vt 0.013823 0.556792
vt 0.258248 0.539788
vt 0.265951 0.862609
vt 0.717567 -0.000978
vt 0.262266 0.865560
vt 0.995198 -0.000733
vt 0.264871 0.864696
vt 0.999263 -0.000733
vt 0.722806 -0.000978
vt 0.128684 0.877140
vt 0.727459 -0.000733
vt 0.125000 0.874190
vt 0.717650 0.001657
vt 0.126079 0.876276
vt 0.723153 0.000462
vt 0.995197 0.533664
vt 0.000174 0.994640
vt 0.717567 0.536290
vt 0.998915 0.537740
vt 0.000522 1.000007
vt 0.999263 0.536053
vt 0.722806 0.535302
vt 0.994256 0.535551
vt 0.003490 0.994640
vt 0.996289 0.543002
vt 0.003142 1.000007
vt 0.995447 0.543702
vt 0.003983 1.000007
vt 0.728382 0.535477
vt 0.272161 0.994640
vt 0.726367 0.543002
vt 0.272509 1.000007
vt 0.727209 0.543701
vt 0.271669 1.000007
vt 0.727437 0.533578
vt 0.275477 0.994639
vt 0.717650 0.534419
vt 0.723742 0.537740
vt 0.275129 1.000007
vt 0.723153 0.534746
vt 0.995194 0.466164
vt 0.717567 0.465494
vt 0.999263 0.466179
vt 0.722806 0.465494
vt 0.717886 0.465185
vt 0.727223 0.465212
vt 0.723153 0.465197
vt 0.995194 0.391744
vt 0.717567 0.391139
vt 0.722806 0.391139
vt 0.999263 0.391754
vt 0.717886 0.391111
vt 0.727223 0.391129
vt 0.723153 0.391119
vt 0.995194 0.354147
vt 0.717567 0.353574
vt 0.999263 0.354154
vt 0.722806 0.353574
vt 0.717886 0.353689
vt 0.727223 0.353701
vt 0.723153 0.353694
vt 0.717567 0.243247
vt 0.995194 0.243723
vt 0.999263 0.243722
vt 0.722806 0.243247
vt 0.727223 0.243777
vt 0.717886 0.243779
vt 0.723153 0.243778
vt 0.012930 0.994640
vt 0.986805 0.535549
vt 0.986481 0.543702
vt 0.012930 1.000007
vt 0.262770 0.994640
vt 0.735777 0.535453
vt 0.736126 0.543701
vt 0.262770 1.000007
vt 0.760935 -0.000733
vt 0.235599 0.563357
vt 0.240844 0.542736
vt 0.234748 0.533128
vt 0.139672 0.461755
vt 0.240844 0.465425
vt 0.760728 0.465331
vt 0.760728 0.391206
vt 0.213686 0.388700
vt 0.234748 0.387844
vt 0.760728 0.353757
vt 0.234748 0.349350
vt 0.760728 0.243770
vt 0.045619 0.234657
vt 0.234748 -0.004632
vt 0.045619 0.243764
vt 0.234748 0.239817
vt 0.234748 0.457543
vt 0.044596 0.467639
vt 0.234748 0.460654
vt 0.044596 0.465703
vt 0.213686 0.383335
vt 0.234748 0.391773
vt 0.213686 0.381006
vt 0.234748 0.394884
vt 0.232304 0.343838
vt 0.234748 0.356349
vt 0.232304 0.347006
vt 0.234748 0.353960
vt 0.045619 0.227066
vt 0.232304 0.242899
vt 0.045619 0.223772
vt 0.232304 0.246068
vt 0.040780 0.554128
vt 0.232457 0.539788
vt 0.040780 0.556792
vt 0.234312 0.534395
vt 0.763077 0.535464
vt 0.235599 1.000007
vt 0.763353 0.543701
vt 0.235599 0.994640
vt 0.965904 -0.000733
vt 0.035980 0.563357
vt 0.040587 0.533128
vt 0.031283 0.542736
vt 0.040587 0.460654
vt 0.238757 0.467639
vt 0.238757 0.465703
vt 0.047346 0.381006
vt 0.040587 0.391766
vt 0.040587 0.394877
vt 0.043443 0.347006
vt 0.040587 0.356349
vt 0.040587 0.353960
vt 0.238699 0.223772
vt 0.043443 0.242899
vt 0.043443 0.246068
vt 0.238828 0.554128
vt 0.963646 0.535540
vt 0.031283 0.465425
vt 0.248598 0.461295
vt 0.965875 0.466060
vt 0.965875 0.391677
vt 0.047346 0.388701
vt 0.040587 0.387844
vt 0.965875 0.354098
vt 0.040587 0.349350
vt 0.965875 0.243729
vt 0.238699 0.234657
vt 0.040587 -0.004632
vt 0.040587 0.239817
vt 0.238699 0.243764
vt 0.040587 0.457543
vt 0.047346 0.383335
vt 0.043443 0.343838
vt 0.238699 0.227066
vt 0.042974 0.539789
vt 0.238828 0.556792
vt 0.041041 0.534395
vt 0.035980 1.000007
vt 0.963384 0.543701
vt 0.035980 0.994639
vt 0.218363 0.833822
vt 0.225642 0.572690
vt 0.985366 -0.000733
vt 0.017025 0.563357
vt 0.011385 0.542736
vt 0.022151 0.533128
vt 0.257193 0.467639
vt 0.022151 0.460654
vt 0.257193 0.465703
vt 0.022151 0.391766
vt 0.031552 0.381006
vt 0.022151 0.394877
vt 0.022151 0.356349
vt 0.025511 0.347006
vt 0.022151 0.353960
vt 0.025511 0.242899
vt 0.257033 0.223772
vt 0.025511 0.246068
vt 0.257633 0.554128
vt 0.982691 0.535548
vt 0.218363 0.593790
vt 0.225642 0.987016
vt 0.362406 0.509968
vt 0.011385 0.465425
vt 0.258941 0.461252
vt 0.985354 0.466129
vt 0.985354 0.391722
vt 0.031552 0.388701
vt 0.022151 0.387844
vt 0.985354 0.354130
vt 0.022151 0.349350
vt 0.985354 0.243725
vt 0.257033 0.234657
vt 0.022151 -0.004632
vt 0.022151 0.239817
vt 0.257033 0.243764
vt 0.022151 0.457543
vt 0.031552 0.383335
vt 0.025511 0.343838
vt 0.257033 0.227066
vt 0.024982 0.539789
vt 0.257633 0.556792
vt 0.022690 0.534395
vt 0.017025 1.000007
vt 0.982378 0.543702
vt 0.017025 0.994639
vt 0.235933 0.572690
vt 0.142762 0.509968
vt 0.142762 0.713648
vt 0.142762 0.637108
vt 0.061533 0.461425
vt 0.259187 0.465425
vt 0.742770 0.465267
vt 0.742770 0.391164
vt 0.228247 0.388700
vt 0.251744 0.387844
vt 0.742770 0.353727
vt 0.251744 0.349350
vt 0.742770 0.243774
vt 0.028717 0.234657
vt 0.251744 0.579138
vt 0.251744 -0.004632
vt 0.028717 0.243764
vt 0.251744 0.239817
vt 0.251744 0.457543
vt 0.228247 0.383335
vt 0.248836 0.343838
vt 0.028717 0.227066
vt 0.023444 0.556792
vt 0.249043 0.539788
vt 0.251230 0.534395
vt 0.745844 0.543701
vt 0.253073 1.000007
vt 0.253073 0.994640
vt 0.235933 0.987016
vt 0.142762 0.877140
vt 0.742993 -0.000733
vt 0.253073 0.563357
vt 0.259187 0.542736
vt 0.251744 0.533128
vt 0.027600 0.467639
vt 0.251744 0.460654
vt 0.027600 0.465703
vt 0.251744 0.391773
vt 0.228247 0.381006
vt 0.251744 0.394884
vt 0.251744 0.356349
vt 0.248836 0.347006
vt 0.251744 0.353960
vt 0.248836 0.242899
vt 0.028717 0.223772
vt 0.248836 0.246068
vt 0.023444 0.554128
vt 0.745521 0.535457
vt 0.296643 0.366979
vt 0.294684 0.366528
vt 0.018168 0.363662
vt 0.989562 0.367553
vt 0.261176 0.363662
vt 0.732805 0.367068
vt 0.275086 0.364224
vt 0.270310 0.363662
vt 0.267680 0.363662
vt 0.288878 0.367894
vt 0.008987 0.363662
vt 0.292957 0.367894
vt 0.011617 0.363662
vt 0.995194 0.367563
vt 0.722806 0.366979
vt 0.999263 0.367571
vt 0.717567 0.366979
vt 0.717886 0.367043
vt 0.723153 0.367049
vt 0.727223 0.367057
vt 0.760728 0.367121
vt 0.234748 0.363087
vt 0.040587 0.363087
vt 0.965875 0.367508
vt 0.985354 0.367545
vt 0.022151 0.363087
vt 0.742770 0.367087
vt 0.251744 0.363087
vt 0.760728 0.391206
vt 0.004505 0.543194
vt 0.272161 0.563357
vt -0.000148 0.543194
vt 0.294683 0.534418
vt 0.275477 0.563357
vt 0.271061 0.543194
vt 0.003491 0.563357
vt 0.296643 0.536290
vt 0.272137 0.538920
vt 0.275714 0.543194
vt 0.000174 0.563357
vt 0.272137 0.242908
vt 0.296642 0.243247
vt 0.272137 -0.003792
vt 0.296642 -0.000978
vt 0.190441 0.862680
vt 0.261696 0.543194
vt 0.012930 0.563357
vt 0.294684 0.243834
vt 0.125000 0.661716
vt 0.294684 0.001657
vt 0.296643 0.465494
vt 0.272137 0.467407
vt 0.294683 0.464216
vt 0.296643 0.391139
vt 0.272137 0.392298
vt 0.294684 0.390485
vt 0.296643 0.366979
vt 0.272137 0.367894
vt 0.296643 0.353575
vt 0.272137 0.354353
vt 0.294684 0.366528
vt 0.294684 0.353235
vt 0.257633 0.543194
vt 0.017025 0.563357
vt 0.013823 0.543194
vt 0.262770 0.563357
vt 0.271061 0.554128
vt 0.275714 0.554128
vt 0.288878 0.538920
vt -0.000147 0.554128
vt 0.275086 0.533381
vt 0.004505 0.554128
vt 0.275086 0.462649
vt 0.261696 0.554128
vt 0.288878 0.242908
vt 0.190441 0.854665
vt 0.288878 -0.003792
vt 0.275086 0.388362
vt 0.288878 0.467407
vt 0.288878 0.392298
vt 0.275086 0.364224
vt 0.288878 0.367894
vt 0.288878 0.354353
vt 0.275086 0.240604
vt 0.275086 0.350831
vt 0.125000 0.653701
vt 0.275086 -0.003400
vt 0.257633 0.554128
vt 0.013823 0.554127
vt 0.023444 0.543194
vt 0.253073 0.563357
vt 0.040780 0.543194
vt 0.235599 0.563357
vt 0.023444 0.554128
vt 0.040780 0.554128
vt 0.238828 0.543194
vt 0.035980 0.563357
vt 0.238828 0.554128
vt 0.246224 0.987016
vt 0.742993 -0.000733
vt 0.283352 0.995463
vt 0.760935 -0.000733
vt 0.300105 0.990252
vt 0.522900 0.559298
vt 0.302633 0.559298
vt 0.522900 0.547835
vt 0.040587 -0.004632
vt 0.302633 0.547835
vt 0.234748 -0.004632
vt 0.520372 0.990252
vt 0.965904 -0.000733
vt 0.235933 0.987016
vt 0.543814 0.559298
vt 0.362406 0.509968
vt 0.543814 0.547835
vt 0.022151 -0.004632
vt 0.235933 0.572690
vt 0.543814 0.995463
vt 0.985366 -0.000733
vt 0.246224 0.572690
vt 0.142762 0.509968
vt 0.283352 0.559298
vt 0.251744 -0.004632
vt 0.283352 0.547835
s 0
usemtl Material.001
f 138/264/1 133/256/1 6/13/1 8/16/1
f 1/1/2 29/54/2 38/71/2 120/229/2 122/233/2 121/231/2
f 31/58/3 163/293/3 129/248/3 132/254/3 139/265/3
f 3/9/4 17/28/4 159/288/4 127/243/4
f 7/15/5 4/10/5 124/237/5 136/261/5
f 11/19/3 13/21/3 322/513/3 332/530/3
f 39/72/4 5/12/4 130/249/4 162/292/4
f 72/146/2 74/151/2 73/149/2 28/50/2 29/52/2 1/2/2
f 9/17/5 7/15/5 136/261/5 142/268/5
f 105/203/6 69/139/6 15/24/6 27/47/6
f 207/353/6 190/329/6 359/566/6 361/569/6
f 88/182/6 97/194/6 345/549/6 341/544/6
f 40/74/6 30/56/6 87/180/6 81/167/6
f 79/162/6 19/34/6 111/210/6 75/153/6
f 289/470/6 115/217/6 355/560/6 358/565/6
f 297/478/6 103/201/6 352/556/6 348/552/6
f 79/161/6 91/185/6 20/37/6 19/33/6
f 32/59/3 31/58/3 139/265/3 145/272/3
f 12/20/3 292/473/3 333/532/3 334/533/3
f 141/267/3 135/260/3 21/38/3 22/39/3
f 291/472/5 9/17/5 142/268/5 305/488/5
f 306/489/1 144/271/1 10/18/1 292/473/1
f 303/485/3 141/267/3 22/39/3 294/475/3
f 291/472/3 11/19/3 332/530/3 331/528/3
f 13/21/5 11/19/5 148/275/5 153/281/5
f 103/201/6 109/208/6 351/555/6 352/556/6
f 91/186/6 94/190/6 23/41/6 20/35/6
f 36/66/3 34/62/3 151/279/3 156/285/3
f 280/457/6 40/73/6 114/216/6 275/448/6
f 154/282/3 147/274/3 24/42/3 26/46/3
f 261/430/7 290/471/7 163/293/7 31/58/7
f 112/211/6 238/396/6 354/559/6 342/545/6
f 302/484/6 100/197/6 25/45/6 293/474/6
f 135/260/3 123/235/3 126/242/3 160/289/3 21/38/3
f 18/29/2 2/5/2 117/222/2 119/226/2 118/224/2 16/25/2
f 37/68/6 28/51/6 73/150/6 108/207/6
f 38/70/3 36/66/3 156/285/3 120/230/3
f 10/18/3 8/16/3 328/524/3 330/527/3
f 100/197/6 105/203/6 27/47/6 25/45/6
f 35/64/6 37/68/6 108/207/6 102/200/6
f 2/7/5 13/21/5 153/281/5 117/223/5
f 295/476/6 35/64/6 102/200/6 299/480/6
f 157/286/1 150/278/1 12/20/1 14/22/1
f 238/396/6 207/353/6 361/569/6 354/559/6
f 296/477/3 32/59/3 145/272/3 308/491/3
f 144/271/1 138/264/1 8/16/1 10/18/1
f 40/73/6 81/168/6 84/174/6 114/216/6
f 7/15/3 9/17/3 329/525/3 327/522/3
f 15/23/2 69/138/2 71/143/2 70/140/2 2/6/2 18/30/2
f 249/411/2 41/75/2 18/31/2 240/400/2
f 130/249/8 5/12/8 6/14/8 133/255/8
f 240/398/2 18/32/2 16/26/2 227/378/2
f 3/9/9 127/243/9 124/236/9 4/11/9
f 121/232/1 157/286/1 14/22/1 1/4/1
f 82/169/6 88/182/6 341/544/6 339/542/6
f 30/55/6 33/61/6 96/193/6 87/181/6
f 37/67/1 35/63/1 63/124/1 65/128/1 64/126/1 66/131/1 68/135/1 67/133/1
f 278/454/3 266/436/3 36/66/3 38/70/3
f 316/499/6 265/435/6 35/64/6 295/476/6
f 266/436/3 264/434/3 34/62/3 36/66/3
f 33/61/1 30/55/1 57/110/1 59/114/1 58/112/1 60/117/1 62/121/1 61/119/1
f 315/498/10 262/431/10 32/59/10 296/477/10
f 262/431/11 261/430/11 31/58/11 32/59/11
f 280/456/6 260/429/6 30/56/6 40/74/6
f 8/16/3 6/13/3 319/504/3 328/524/3
f 279/455/4 39/72/4 162/292/4 277/451/4
f 267/437/2 37/69/2 67/134/2 273/445/2
f 263/432/2 33/60/2 61/120/2 271/443/2
f 270/442/6 284/463/6 60/118/6 58/113/6
f 246/408/4 25/43/4 49/92/4 235/392/4
f 20/35/5 23/41/5 51/96/5 53/100/5 52/98/5 54/103/5 56/107/5 55/105/5
f 272/444/6 288/469/6 66/132/6 64/127/6
f 241/402/4 20/36/4 55/106/4 231/386/4
f 269/441/6 268/439/6 43/78/6 44/80/6
f 248/410/2 27/49/2 42/76/2 250/413/2
f 27/47/1 15/24/1 41/75/1 42/77/1
f 28/51/5 37/68/5 44/80/5 43/78/5
f 270/442/12 58/113/12 59/115/12 281/459/12
f 281/458/13 59/116/13 57/111/13 282/460/13
f 271/443/14 61/120/14 62/122/14 283/462/14
f 283/461/15 62/123/15 60/118/15 284/463/15
f 272/444/12 64/127/12 65/129/12 285/465/12
f 285/464/13 65/130/13 63/125/13 286/466/13
f 273/445/14 67/134/14 68/136/14 287/468/14
f 287/467/15 68/137/15 66/132/15 288/469/15
f 25/44/5 27/48/5 45/82/5 47/86/5 46/84/5 48/89/5 50/93/5 49/91/5
f 79/162/16 75/153/16 77/155/16 80/163/16
f 80/164/17 77/156/17 76/154/17 78/159/17
f 84/174/18 81/168/18 83/171/18 86/176/18
f 86/177/19 83/172/19 82/170/19 85/175/19
f 88/182/20 82/169/20 83/173/20 89/183/20
f 89/183/21 83/173/21 81/168/21 87/181/21
f 112/211/13 76/154/13 77/157/13 113/212/13
f 113/213/12 77/158/12 75/153/12 111/210/12
f 106/204/22 70/142/22 71/144/22 107/205/22
f 107/206/23 71/145/23 69/139/23 105/203/23
f 97/194/24 88/182/24 89/183/24 98/195/24
f 98/195/25 89/183/25 87/181/25 96/193/25
f 78/160/26 90/184/26 92/187/26 80/165/26
f 80/166/27 92/188/27 91/186/27 79/162/27
f 90/184/28 93/189/28 95/192/28 92/187/28
f 92/188/29 95/191/29 94/190/29 91/186/29
f 297/478/30 97/194/30 98/195/30 298/479/30
f 298/479/31 98/195/31 96/193/31 299/480/31
f 300/481/32 99/196/32 101/198/32 301/483/32
f 301/482/33 101/199/33 100/197/33 302/484/33
f 109/208/34 103/201/34 104/202/34 110/209/34
f 110/209/35 104/202/35 102/200/35 108/207/35
f 99/196/36 106/204/36 107/205/36 101/198/36
f 101/199/37 107/206/37 105/203/37 100/197/37
f 72/148/38 109/208/38 110/209/38 74/152/38
f 74/152/39 110/209/39 108/207/39 73/150/39
f 238/396/13 112/211/13 113/214/13 255/419/13
f 255/418/12 113/215/12 111/210/12 256/420/12
f 85/175/13 115/217/13 116/218/13 86/178/13
f 86/179/12 116/219/12 114/216/12 84/174/12
f 93/189/6 90/184/6 346/550/6 347/551/6
f 126/242/40 123/235/40 125/238/40 128/244/40
f 128/245/41 125/239/41 124/236/41 127/243/41
f 132/254/42 129/248/42 131/250/42 134/257/42
f 134/258/43 131/251/43 130/249/43 133/255/43
f 154/282/44 118/225/44 119/227/44 155/283/44
f 155/284/45 119/228/45 117/223/45 153/281/45
f 160/289/46 126/242/46 128/246/46 161/290/46
f 161/291/47 128/247/47 127/243/47 159/288/47
f 157/286/48 121/232/48 122/234/48 158/287/48
f 158/287/49 122/234/49 120/230/49 156/285/49
f 123/235/44 135/260/44 137/262/44 125/240/44
f 125/241/45 137/263/45 136/261/45 124/237/45
f 133/256/48 138/264/48 140/266/48 134/259/48
f 134/259/49 140/266/49 139/265/49 132/254/49
f 135/260/44 141/267/44 143/270/44 137/262/44
f 137/263/45 143/269/45 142/268/45 136/261/45
f 138/264/48 144/271/48 146/273/48 140/266/48
f 140/266/49 146/273/49 145/272/49 139/265/49
f 303/485/44 147/274/44 149/276/44 304/487/44
f 304/486/45 149/277/45 148/275/45 305/488/45
f 306/489/48 150/278/48 152/280/48 307/490/48
f 307/490/49 152/280/49 151/279/49 308/491/49
f 147/274/44 154/282/44 155/283/44 149/276/44
f 149/277/45 155/284/45 153/281/45 148/275/45
f 150/278/48 157/286/48 158/287/48 152/280/48
f 152/280/49 158/287/49 156/285/49 151/279/49
f 239/397/50 160/289/50 161/290/50 257/422/50
f 257/421/51 161/291/51 159/288/51 258/423/51
f 129/248/46 163/293/46 164/294/46 131/252/46
f 131/253/47 164/295/47 162/292/47 130/249/47
f 118/225/3 154/282/3 26/46/3 16/27/3
f 276/450/47 194/334/47 195/336/47 277/451/47
f 290/471/46 193/333/46 194/335/46 276/449/46
f 274/447/12 191/330/12 192/332/12 275/448/12
f 289/470/13 190/329/13 191/331/13 274/446/13
f 205/351/15 188/326/15 189/328/15 206/352/15
f 222/371/14 187/325/14 188/327/14 205/350/14
f 203/348/13 185/322/13 186/324/13 204/349/13
f 221/370/12 184/321/12 185/323/12 203/347/12
f 201/345/15 182/318/15 183/320/15 202/346/15
f 220/369/14 181/317/14 182/319/14 201/344/14
f 199/342/13 179/314/13 180/316/13 200/343/13
f 219/368/12 178/313/12 179/315/12 199/341/12
f 267/437/2 175/309/2 177/311/2 269/440/2
f 218/366/6 217/365/6 176/310/6 177/312/6
f 260/428/4 168/300/4 180/316/4 282/460/4
f 221/370/6 206/352/6 189/328/6 184/321/6
f 265/435/4 173/307/4 186/324/4 286/466/4
f 219/368/6 202/346/6 183/320/6 178/313/6
f 212/359/2 171/304/2 181/317/2 220/369/2
f 216/364/2 175/309/2 187/325/2 222/371/2
f 197/338/4 166/297/4 195/336/4 226/377/4
f 72/147/2 1/3/2 326/520/2 353/557/2
f 198/340/6 209/355/6 168/301/6 167/298/6
f 211/358/3 210/357/3 169/302/3 317/500/3
f 312/495/3 211/358/3 317/500/3 309/492/3
f 215/363/3 213/361/3 172/306/3 174/308/3
f 311/494/6 214/362/6 173/307/6 310/493/6
f 196/337/3 215/363/3 174/308/3 165/296/3
f 278/452/1 259/424/1 372/591/1 362/570/1
f 268/439/6 176/310/6 367/580/6 373/594/6
f 210/357/3 208/354/3 193/333/3 169/302/3
f 198/339/6 167/299/6 192/332/6 224/374/6
f 229/383/6 198/339/6 224/374/6 256/420/6
f 242/403/3 239/397/3 208/354/3 210/357/3
f 227/380/52 247/409/52 215/363/52 196/337/52
f 314/497/6 246/408/6 214/362/6 311/494/6
f 247/409/52 245/407/52 213/361/52 215/363/52
f 243/404/3 211/358/3 312/495/3
f 243/404/3 242/403/3 210/357/3 211/358/3
f 229/382/6 241/401/6 209/355/6 198/340/6
f 228/381/4 197/338/4 226/377/4 258/423/4
f 248/410/2 216/364/2 222/371/2 254/417/2
f 244/405/2 212/359/2 220/369/2 252/415/2
f 251/414/6 233/389/6 202/346/6 219/368/6
f 253/416/6 237/395/6 206/352/6 221/370/6
f 250/412/6 249/411/6 217/365/6 218/366/6
f 251/414/12 219/368/12 199/341/12 230/385/12
f 230/384/13 199/342/13 200/343/13 231/386/13
f 252/415/14 220/369/14 201/344/14 232/388/14
f 232/387/15 201/345/15 202/346/15 233/389/15
f 253/416/12 221/370/12 203/347/12 234/391/12
f 234/390/13 203/348/13 204/349/13 235/392/13
f 254/417/14 222/371/14 205/350/14 236/394/14
f 236/393/15 205/351/15 206/352/15 237/395/15
f 194/334/47 225/375/47 226/377/47 195/336/47
f 193/333/46 208/354/46 225/376/46 194/335/46
f 191/330/12 223/372/12 224/374/12 192/332/12
f 190/329/13 207/353/13 223/373/13 191/331/13
f 175/309/2 216/364/2 218/367/2 177/311/2
f 168/300/4 209/356/4 200/343/4 180/316/4
f 173/307/4 214/362/4 204/349/4 186/324/4
f 292/473/3 10/18/3 330/527/3 333/532/3
f 165/296/53 278/454/53 362/571/53 363/573/53
f 259/425/1 268/439/1 373/594/1 372/592/1
f 47/87/15 236/393/15 237/395/15 46/85/15
f 45/83/14 254/417/14 236/394/14 47/88/14
f 50/94/13 234/390/13 235/392/13 49/92/13
f 48/90/12 253/416/12 234/391/12 50/95/12
f 53/101/15 232/387/15 233/389/15 52/99/15
f 51/97/14 252/415/14 232/388/14 53/102/14
f 56/108/13 230/384/13 231/386/13 55/106/13
f 54/104/12 251/414/12 230/385/12 56/109/12
f 42/77/6 41/75/6 249/411/6 250/412/6
f 48/90/6 46/85/6 237/395/6 253/416/6
f 54/104/6 52/99/6 233/389/6 251/414/6
f 23/40/2 244/405/2 252/415/2 51/97/2
f 27/49/2 248/410/2 254/417/2 45/83/2
f 17/28/4 228/381/4 258/423/4 159/288/4
f 19/33/6 20/37/6 241/401/6 229/382/6
f 22/39/54 21/38/54 242/403/54 243/404/54
f 294/475/55 22/39/55 243/404/55 313/496/55
f 26/46/3 24/42/3 245/407/3 247/409/3
f 293/474/6 25/45/6 246/408/6 314/497/6
f 16/27/3 26/46/3 247/409/3 227/380/3
f 21/38/56 160/289/56 239/397/56 242/403/56
f 19/34/6 229/383/6 256/420/6 111/210/6
f 225/375/47 257/421/47 258/423/47 226/377/47
f 208/354/46 239/397/46 257/422/46 225/376/46
f 223/372/12 255/418/12 256/420/12 224/374/12
f 207/353/13 238/396/13 255/419/13 223/373/13
f 216/364/2 248/410/2 250/413/2 218/367/2
f 209/356/4 241/402/4 231/386/4 200/343/4
f 214/362/4 246/408/4 235/392/4 204/349/4
f 4/10/3 7/15/3 327/522/3 321/508/3
f 240/399/5 227/379/5 371/588/5 369/583/5
f 196/337/3 165/296/3 363/573/3 368/582/3
f 43/79/2 268/438/2 259/426/2 29/53/2
f 29/54/2 259/427/2 278/453/2 38/71/2
f 85/175/6 82/170/6 339/541/6 340/543/6
f 35/65/4 265/435/4 286/466/4 63/125/4
f 30/57/4 260/428/4 282/460/4 57/111/4
f 37/69/2 267/437/2 269/440/2 44/81/2
f 115/217/13 289/470/13 274/446/13 116/220/13
f 116/221/12 274/447/12 275/448/12 114/216/12
f 163/293/57 290/471/57 276/449/57 164/294/57
f 164/295/58 276/450/58 277/451/58 162/292/58
f 188/326/15 287/467/15 288/469/15 189/328/15
f 187/325/14 273/445/14 287/468/14 188/327/14
f 185/322/13 285/464/13 286/466/13 186/324/13
f 184/321/12 272/444/12 285/465/12 185/323/12
f 182/318/15 283/461/15 284/463/15 183/320/15
f 181/317/14 271/443/14 283/462/14 182/319/14
f 179/314/13 281/458/13 282/460/13 180/316/13
f 178/313/12 270/442/12 281/459/12 179/315/12
f 177/312/6 176/310/6 268/439/6 269/441/6
f 184/321/6 189/328/6 288/469/6 272/444/6
f 178/313/6 183/320/6 284/463/6 270/442/6
f 171/304/2 263/432/2 271/443/2 181/317/2
f 175/309/2 267/437/2 273/445/2 187/325/2
f 166/297/4 279/455/4 277/451/4 195/336/4
f 167/298/6 168/301/6 260/429/6 280/456/6
f 317/500/3 169/302/3 261/430/3 262/431/3
f 309/492/3 170/303/3 262/431/3
f 174/308/53 172/306/53 264/434/53 266/436/53
f 310/493/6 173/307/6 265/435/6 316/499/6
f 165/296/53 174/308/53 266/436/53 278/454/53
f 169/302/3 193/333/3 290/471/3 261/430/3
f 167/299/6 280/457/6 275/448/6 192/332/6
f 171/305/6 310/493/6 316/499/6 263/433/6
f 172/306/53 309/492/53 315/498/53 264/434/53
f 23/41/6 293/474/6 314/497/6 244/406/6
f 24/42/3 294/475/3 313/496/3 245/407/3
f 245/407/52 313/496/52 312/495/52 213/361/52
f 244/406/6 314/497/6 311/494/6 212/360/6
f 212/360/6 311/494/6 310/493/6 171/305/6
f 213/361/3 312/495/3 309/492/3 172/306/3
f 146/273/49 307/490/49 308/491/49 145/272/49
f 144/271/48 306/489/48 307/490/48 146/273/48
f 143/269/45 304/486/45 305/488/45 142/268/45
f 141/267/44 303/485/44 304/487/44 143/270/44
f 95/191/59 301/482/59 302/484/59 94/190/59
f 93/189/60 300/481/60 301/483/60 95/192/60
f 104/202/61 298/479/61 299/480/61 102/200/61
f 103/201/62 297/478/62 298/479/62 104/202/62
f 264/434/3 315/498/3 296/477/3 34/62/3
f 263/433/6 316/499/6 295/476/6 33/61/6
f 34/62/3 296/477/3 308/491/3 151/279/3
f 9/17/3 291/472/3 331/528/3 329/525/3
f 33/61/6 295/476/6 299/480/6 96/193/6
f 94/190/6 302/484/6 293/474/6 23/41/6
f 1/4/3 14/22/3 325/519/3 326/521/3
f 147/274/3 303/485/3 294/475/3 24/42/3
f 150/278/1 306/489/1 292/473/1 12/20/1
f 11/19/5 291/472/5 305/488/5 148/275/5
f 315/498/63 309/492/63 262/431/63
f 313/496/64 243/404/64 312/495/64
f 319/503/65 318/501/65 340/543/65 339/541/65
f 321/509/5 327/523/5 346/550/5 338/540/5
f 320/506/66 321/510/66 338/539/66 337/538/66
f 328/524/1 319/504/1 339/542/1 341/544/1
f 318/501/4 336/536/4 355/560/4 340/543/4
f 327/523/5 329/526/5 347/551/5 346/550/5
f 332/531/5 322/512/5 343/546/5 350/554/5
f 330/527/1 328/524/1 341/544/1 345/549/1
f 333/532/1 330/527/1 345/549/1 348/552/1
f 325/519/1 334/533/1 352/556/1 351/555/1
f 331/529/5 332/531/5 350/554/5 349/553/5
f 324/517/4 320/506/4 337/538/4 342/545/4
f 326/521/1 325/519/1 351/555/1 353/558/1
f 335/534/4 324/517/4 342/545/4 354/559/4
f 322/512/5 323/514/5 344/548/5 343/546/5
f 356/561/4 357/563/4 359/566/4 358/565/4
f 357/563/4 360/567/4 361/569/4 359/566/4
f 360/567/4 335/534/4 354/559/4 361/569/4
f 336/536/4 356/561/4 358/565/4 355/560/4
f 329/526/5 331/529/5 349/553/5 347/551/5
f 334/533/1 333/532/1 348/552/1 352/556/1
f 197/338/3 228/381/3 335/535/3 360/568/3
f 78/159/6 76/154/6 337/538/6 338/539/6
f 5/12/3 39/72/3 336/537/3 318/502/3
f 76/154/6 112/211/6 342/545/6 337/538/6
f 97/194/6 297/478/6 348/552/6 345/549/6
f 14/22/3 12/20/3 334/533/3 325/519/3
f 115/217/6 85/175/6 340/543/6 355/560/6
f 6/14/3 5/12/3 318/502/3 319/505/3
f 106/204/6 99/196/6 350/554/6 343/546/6
f 300/481/6 93/189/6 347/551/6 349/553/6
f 3/9/3 4/11/3 321/511/3 320/507/3
f 39/72/3 279/455/3 356/562/3 336/537/3
f 228/381/3 17/28/3 324/518/3 335/535/3
f 166/297/3 197/338/3 360/568/3 357/564/3
f 90/184/6 78/160/6 338/540/6 346/550/6
f 13/21/3 2/7/3 323/515/3 322/513/3
f 190/329/6 289/470/6 358/565/6 359/566/6
f 17/28/3 3/9/3 320/507/3 324/518/3
f 99/196/6 300/481/6 349/553/6 350/554/6
f 2/8/2 70/141/2 344/547/2 323/516/2
f 109/208/6 72/148/6 353/558/6 351/555/6
f 70/142/6 106/204/6 343/546/6 344/548/6
f 279/455/3 166/297/3 357/564/3 356/562/3
f 372/593/2 365/576/2 363/574/2 362/572/2
f 373/595/2 367/579/2 365/576/2 372/593/2
f 365/576/2 364/575/2 368/581/2 363/574/2
f 367/579/2 366/577/2 364/575/2 365/576/2
f 364/575/2 369/584/2 371/589/2 368/581/2
f 366/577/2 370/586/2 369/584/2 364/575/2
f 249/411/5 240/400/5 369/585/5 370/587/5
f 217/365/6 249/411/6 370/587/6 366/578/6
f 176/310/6 217/365/6 366/578/6 367/580/6
f 227/380/52 196/337/52 368/582/52 371/590/52
