# Blender 3.3.0
# www.blender.org
mtllib Computer2.mtl
o Cube
v 1.000000 0.289702 -0.959361
v 1.000000 -0.237363 -0.959361
v 1.000000 0.289702 0.959361
v 1.000000 -0.237363 0.959361
v -1.000000 0.289702 -0.959361
v -1.000000 -0.237363 -0.959361
v -1.000000 0.289702 0.959361
v -1.000000 -0.237363 0.959361
v 1.000000 0.051082 -0.959361
v -1.000000 0.051082 0.959361
v 1.000000 0.051082 0.959361
v -1.000000 0.051082 -0.959361
v 0.841738 -0.237363 -0.959361
v 0.841738 0.289702 0.959361
v 0.841738 -0.237363 0.959361
v 0.841738 0.289702 -0.959361
v 0.841738 0.051082 -0.959361
v 0.841738 0.051082 0.959361
v 0.841738 0.175882 -0.959361
v 0.841738 0.175882 0.959361
v -0.855998 -0.237363 -0.959361
v -0.855998 0.289702 0.959361
v -0.855998 0.051082 0.959361
v -0.855998 -0.237363 0.959361
v -0.855998 0.289702 -0.959361
v -0.855998 0.051082 -0.959361
v -0.855998 0.175882 -0.959361
v -0.855998 0.175882 0.959361
v -1.114895 0.175882 1.007185
v 1.107678 0.175882 -1.007185
v 1.107678 0.175882 1.007185
v -1.114895 0.175882 -1.007185
v -1.114895 0.051082 -1.007185
v -1.114895 0.051082 1.007185
v -0.855998 0.051082 1.007185
v -0.855998 0.051082 -1.007185
v -1.000000 -0.237363 0.300549
v 1.000000 0.289702 0.300549
v -1.000000 0.289702 0.300549
v 1.000000 -0.237363 0.300549
v 1.000000 0.051082 0.300549
v -1.000000 0.051082 0.300549
v 0.841738 -0.237363 0.300549
v 0.841738 0.289702 0.300549
v -0.855998 -0.237363 0.300549
v -0.855998 0.289702 0.300549
v 1.107678 0.175882 0.315531
v -1.114895 0.175882 0.315531
v -1.000000 0.289702 -0.285487
v 1.000000 -0.237363 -0.285487
v -1.000000 0.051082 -0.285487
v -1.114895 0.175882 -0.299718
v -1.000000 -0.237363 -0.285487
v 1.000000 0.289702 -0.285487
v 1.000000 0.051082 -0.285487
v 0.841738 -0.237363 -0.285487
v 0.841738 0.289702 -0.285487
v -0.855998 -0.237363 -0.285487
v -0.855998 0.289702 -0.285487
v 1.107678 0.175882 -0.299718
v -1.184327 0.175882 1.007185
v -1.184327 0.175882 -1.007185
v -1.184327 0.175882 -0.299718
v -1.184327 0.175882 0.315531
v -1.000000 -0.237363 0.716478
v 1.000000 0.289702 0.716478
v 1.000000 0.051082 0.716478
v 0.841738 -0.237363 0.716478
v 0.841738 0.289702 0.716478
v -0.855998 -0.237363 0.716478
v -0.855998 0.289702 0.716478
v 1.107678 0.175882 0.752195
v -1.000000 0.289702 0.716478
v 1.000000 -0.237363 0.716478
v -1.000000 0.051082 0.716478
v -1.114895 0.289702 0.752195
v -1.114895 0.051082 0.752195
v -1.184327 0.175882 0.752195
v 1.044858 0.051082 0.959361
v 1.044858 -0.237363 0.959361
v 1.044858 0.051082 0.716478
v 1.044858 -0.237363 0.716478
v -1.114895 0.247390 1.007185
v 1.107678 0.247390 -1.007185
v 1.107678 0.247390 1.007185
v -1.114895 0.247390 -1.007185
v 0.841738 0.247390 -1.007185
v 0.841738 0.247390 1.007185
v -0.855998 0.247390 -1.007185
v -0.855998 0.247390 1.007185
v 1.107678 0.247390 0.315531
v -1.114895 0.247390 0.315531
v 1.107678 0.247390 -0.299718
v -1.114895 0.247390 -0.299718
v -1.184327 0.247390 1.007185
v -1.184327 0.247390 -1.007185
v -1.184327 0.247390 0.315531
v -1.184327 0.247390 -0.299718
v -1.184327 0.247390 0.752195
v 1.107678 0.247390 0.752195
v -1.000000 0.289702 -0.587079
v 1.000000 -0.237363 -0.587079
v -1.000000 0.051082 -0.587079
v -1.114895 0.289702 -0.616345
v -1.114895 0.051082 -0.616345
v -1.000000 -0.237363 -0.587079
v 1.000000 0.289702 -0.587079
v 1.000000 0.051082 -0.587079
v 0.841738 -0.237363 -0.587079
v -0.855998 -0.237363 -0.587079
v -0.855998 0.289702 -0.587079
v 1.107678 0.175882 -0.616345
v -1.184327 0.175882 -0.616345
v -1.184327 0.247390 -0.616345
v 1.107678 0.247390 -0.616345
v 1.082882 0.175882 -0.299718
v 1.082882 0.175882 0.315531
v 1.082882 0.247390 0.315531
v 1.082882 0.175882 -0.616345
v 1.082882 0.247390 -0.299718
v 1.082882 0.175882 0.752195
v 1.082882 0.247390 0.752195
v 1.082882 0.247390 -0.616345
v 0.219069 -0.237363 0.959361
v 0.219069 0.289702 -0.959361
v 0.219069 0.051082 -0.959361
v 0.219069 0.175882 -0.959361
v 0.219069 -0.237363 -0.959361
v 0.219069 0.289702 0.959361
v 0.219069 0.051082 0.959361
v 0.219069 0.175882 0.959361
v 0.219069 0.289702 0.300549
v 0.219069 -0.237363 0.300549
v 0.219069 -0.237363 -0.285487
v 0.219069 0.289702 -0.285487
v 0.219069 0.289702 0.716478
v 0.219069 -0.237363 0.716478
v 0.219069 0.247390 1.007185
v 0.219069 0.247390 -1.007185
v 0.219069 0.289702 -0.587079
v 0.219069 -0.237363 -0.587079
v 0.841738 0.367638 -0.587079
v 0.219069 0.367638 -0.587079
v -1.114895 0.281188 0.973613
v -1.114895 0.261286 1.007185
v -0.855998 0.261286 1.007185
v -0.855998 0.281188 0.982619
v 1.065354 0.281188 -0.988387
v 1.107678 0.261286 -1.007185
v 1.065354 0.281188 0.988387
v 1.107678 0.261286 1.007185
v -1.114895 0.261286 -1.007185
v -1.114895 0.281188 -0.973613
v 0.841738 0.261286 -1.007185
v 0.841738 0.281188 -0.985559
v 0.841738 0.281188 0.985559
v 0.841738 0.261286 1.007185
v -0.855998 0.281188 -0.982619
v -0.855998 0.261286 -1.007185
v 1.067084 0.281188 0.309883
v 1.107678 0.261286 0.315531
v -1.114895 0.261286 0.315531
v -1.081323 0.281188 0.349103
v -1.114895 0.261286 -0.299718
v -1.081323 0.281188 -0.333290
v 1.107678 0.261286 -0.299718
v 1.067084 0.281188 -0.294353
v -1.150756 0.281188 0.973613
v -1.184327 0.261286 1.007185
v -1.150756 0.281188 -0.333290
v -1.184327 0.261286 -0.299718
v -1.184327 0.261286 -1.007185
v -1.150756 0.281188 -0.973613
v -1.150756 0.281188 0.349103
v -1.184327 0.261286 0.315531
v 1.107678 0.261286 0.752195
v 1.066522 0.281188 0.738543
v -1.184327 0.261286 0.752195
v -1.150756 0.281188 0.752195
v 1.107678 0.261286 -0.616345
v 1.066522 0.281188 -0.605159
v -1.184327 0.261286 -0.616345
v -1.150756 0.281188 -0.616345
v 0.219069 0.261286 -1.007185
v 0.219069 0.281188 -0.983686
v 0.219069 0.261286 1.007185
v 0.219069 0.281188 0.983686
v 1.107678 0.073158 -1.007185
v 1.080314 0.051082 -0.995032
v 1.107678 0.073158 1.007185
v 1.080314 0.051082 0.995032
v 0.841738 0.073158 -1.007185
v 0.841738 0.051082 -0.994544
v 0.841738 0.051082 0.994544
v 0.841738 0.073158 1.007185
v 1.107678 0.073158 0.315531
v 1.080817 0.051082 0.311794
v 1.080817 0.051082 -0.296168
v 1.107678 0.073158 -0.299718
v 1.080654 0.051082 0.743231
v 1.107678 0.073158 0.752195
v 1.080654 0.051082 -0.609000
v 1.107678 0.073158 -0.616345
v 0.841738 0.175882 -0.976571
v 0.841738 0.199274 -1.007185
v 0.842256 0.175882 -1.007185
v 0.841738 0.169864 -1.007185
v 0.841738 0.199274 1.007185
v 0.841738 0.175882 0.976571
v 0.841738 0.169864 1.007185
v 0.841876 0.175882 1.007185
v -0.855998 0.199274 -1.007185
v -0.855998 0.175882 -0.976571
v -0.855998 0.169864 -1.007185
v -0.855965 0.175882 -1.007185
v -0.855998 0.175882 0.976571
v -0.855998 0.199274 1.007185
v -0.856095 0.175882 1.007185
v -0.855998 0.169864 1.007185
v 0.219069 0.175882 -0.976571
v 0.219069 0.199274 -1.007185
v 0.219069 0.175882 0.976571
v 0.219069 0.199274 1.007185
v -1.114895 0.071885 0.315531
v -1.090263 0.051082 0.312319
v -1.114895 0.051082 0.340163
v -1.139527 0.051082 0.315531
v -1.090263 0.051082 -0.296667
v -1.114895 0.071885 -0.299718
v -1.139527 0.051082 -0.299718
v -1.114895 0.051082 -0.324350
v -1.159696 0.051082 -1.007185
v -1.184327 0.071885 -1.007185
v -1.184327 0.071885 -0.299718
v -1.159696 0.051082 -0.299718
v -1.184327 0.071885 1.007185
v -1.159696 0.051082 1.007185
v -1.159696 0.051082 0.315531
v -1.184327 0.071885 0.315531
v -1.159696 0.051082 0.752195
v -1.184327 0.071885 0.752195
v -1.159696 0.051082 -0.616345
v -1.184327 0.071885 -0.616345
v 0.841738 0.347716 -0.959361
v 0.841738 0.367638 -0.928903
v 0.969542 0.367638 -0.928903
v 1.000000 0.347716 -0.959361
v 0.219069 0.367638 -0.928903
v 0.219069 0.347716 -0.959361
v 1.000000 0.347716 -0.587079
v 0.969542 0.367638 -0.587079
v 0.969542 0.367638 -0.315945
v 1.000000 0.347716 -0.285487
v 0.841738 0.367638 -0.315945
v 0.841738 0.347716 -0.285487
v 0.219069 0.347716 -0.285487
v 0.219069 0.367638 -0.315945
v -0.855998 -0.237363 -0.977160
v -1.000000 -0.237363 -0.977160
v -1.000000 0.051082 -0.977160
v -1.000000 -0.237363 0.977160
v -1.000000 0.051082 0.977160
v -0.855998 0.051082 0.977160
v -0.855998 -0.237363 0.977160
v -0.855998 0.051082 -0.977160
v 1.000000 0.051082 -0.980709
v 1.000000 -0.237363 -0.980709
v 1.000000 0.051082 0.980709
v 1.000000 -0.237363 0.980709
v 0.841738 -0.237363 0.980709
v 0.841738 0.051082 -0.980709
v 0.841738 -0.237363 -0.980709
v 0.841738 0.051082 0.980709
vn -0.0000 1.0000 -0.0000
vn -1.0000 -0.0000 -0.0000
vn -0.0000 -0.0000 -1.0000
vn -0.0000 -1.0000 -0.0000
vn 1.0000 -0.0000 -0.0000
vn -0.0000 -0.0000 1.0000
vn 0.1279 0.9918 0.0003
vn -0.0087 0.9203 0.3910
vn -0.0087 0.9203 -0.3910
vn -0.0005 0.9476 0.3194
vn -0.1179 0.9930 -0.0118
vn 0.1280 0.9918 -0.0002
vn -0.0348 0.9993 -0.0117
vn -0.0487 0.9987 -0.0124
vn 0.1264 0.9920 0.0001
vn -0.1041 0.9946 -0.0000
vn 0.1264 0.9920 -0.0001
vn -0.0806 0.9967 -0.0139
vn -0.1179 0.9928 0.0191
vn -0.0502 0.9986 0.0174
vn -0.0002 0.9415 0.3369
vn -0.0806 0.9966 0.0198
vn -0.0005 0.9476 -0.3194
vn -0.0022 0.9549 0.2970
vn -0.0022 0.9549 -0.2970
vn -0.0002 0.9415 -0.3369
vn 0.1259 0.9920 -0.0000
vn -0.0098 0.8251 0.5649
vn 0.4301 0.9028 0.0010
vn -0.0041 0.7104 -0.7038
vn -0.0041 0.7104 0.7038
vn -0.0010 0.7499 -0.6615
vn -0.0000 0.8602 0.5099
vn -0.0003 0.7702 0.6378
vn -0.0098 0.8251 -0.5649
vn 0.4402 0.8979 -0.0000
vn -0.0000 0.8602 -0.5099
vn -0.5099 0.8602 -0.0000
vn 0.4377 0.8991 -0.0004
vn 0.4377 0.8991 0.0003
vn 0.4302 0.9027 -0.0006
vn -0.0003 0.7702 -0.6378
vn -0.0010 0.7499 0.6615
vn -0.0330 0.9993 0.0183
vn -0.0008 -0.4893 -0.8721
vn 0.6302 -0.7765 0.0004
vn -0.0008 -0.4893 0.8721
vn 0.6349 -0.7726 -0.0000
vn 0.6338 -0.7735 -0.0002
vn 0.6338 -0.7735 0.0001
vn 0.6302 -0.7764 -0.0003
vn -0.9999 -0.0000 -0.0169
vn -1.0000 -0.0000 0.0045
vn 1.0000 -0.0000 0.0011
vn 1.0000 -0.0000 0.0032
vn -0.0000 -0.7946 -0.6071
vn -0.0000 -0.7946 0.6071
vn -0.0420 -0.7633 -0.6447
vn -0.0399 -0.7634 0.6447
vn -0.6452 -0.7640 -0.0000
vn -0.0000 0.8369 -0.5474
vn 0.5474 0.8369 -0.0000
vn -0.0000 0.8369 0.5474
vt 0.589219 0.090862
vt 0.026377 0.090862
vt 0.585365 0.021766
vt 0.431260 0.472667
vt 0.988651 0.740211
vt 0.026377 0.444778
vt 0.132720 0.472667
vt 0.376250 0.478882
vt 0.380293 0.090862
vt 0.009975 0.481100
vt 0.431260 0.280255
vt 0.380293 0.444778
vt 0.991815 0.481100
vt 0.132720 0.280255
vt 0.988651 0.387594
vt 0.518524 0.477754
vt 0.988651 0.883657
vt 0.991815 0.621033
vt 0.917769 0.612381
vt 0.991815 0.630334
vt 0.011706 0.387594
vt 0.011706 0.883657
vt 0.518338 0.478882
vt 0.009975 0.630334
vt 0.009975 0.621033
vt 0.303215 0.666420
vt 0.431260 0.457441
vt 0.311442 0.457971
vt 0.054383 0.444778
vt 0.132720 0.457441
vt 0.314730 0.459099
vt 0.054383 0.090862
vt 0.585365 0.049772
vt 0.518524 0.470373
vt 0.520074 0.457971
vt 0.518524 0.457971
vt 0.518338 0.469950
vt 0.518338 0.459099
vt 0.580621 0.470373
vt 0.580621 0.457971
vt 0.579815 0.469950
vt 0.593767 0.459099
vt 0.577354 0.459099
vt 0.311442 0.007024
vt 0.431260 0.294109
vt 0.354810 0.444778
vt 0.518338 0.246882
vt 0.917769 0.630381
vt 0.518338 0.010647
vt 0.314730 0.010647
vt 0.132720 0.294109
vt 0.354810 0.090862
vt 0.518523 0.373684
vt 0.520074 0.007024
vt 0.303215 0.684421
vt 0.580621 0.373684
vt 0.580621 0.245754
vt 0.580621 0.007024
vt 0.593767 0.246882
vt 0.577354 0.010647
vt 0.579815 0.246882
vt 0.528138 0.387602
vt 0.580621 0.480398
vt 0.988651 0.945721
vt 0.580621 0.477754
vt 0.579815 0.479067
vt 0.011705 0.945720
vt 0.579815 0.478882
vt 0.520332 0.388935
vt 0.303215 0.666420
vt 0.458234 0.388935
vt 0.009975 0.621033
vt 0.917769 0.612381
vt 0.991815 0.621033
vt 0.466662 0.387602
vt 0.917769 0.630381
vt 0.518338 0.246882
vt 0.466662 0.405602
vt 0.303215 0.684421
vt 0.518523 0.373684
vt 0.458234 0.406936
vt 0.654691 0.481100
vt 0.235227 0.280255
vt 0.026377 0.323258
vt 0.380293 0.323258
vt 0.347150 0.740211
vt 0.235227 0.472667
vt 0.275840 0.387594
vt 0.347149 0.387594
vt 0.347149 0.883657
vt 0.654691 0.630334
vt 0.654691 0.621033
vt 0.235227 0.457441
vt 0.054383 0.323258
vt 0.235227 0.294109
vt 0.354810 0.323258
vt 0.347149 0.945721
vt 0.347149 0.941070
vt 0.660550 0.687303
vt 0.654691 0.687303
vt 0.380293 0.215161
vt 0.326410 0.472667
vt 0.645538 0.740211
vt 0.354807 0.621033
vt 0.354807 0.630334
vt 0.354807 0.687303
vt 0.326410 0.280255
vt 0.354807 0.481100
vt 0.026377 0.215161
vt 0.584056 0.146065
vt 0.589219 0.215161
vt 0.574229 0.387594
vt 0.645538 0.883657
vt 0.645538 0.387594
vt 0.326410 0.457441
vt 0.054383 0.215161
vt 0.584056 0.174071
vt 0.326410 0.294109
vt 0.354810 0.215161
vt 0.645538 0.941070
vt 0.645538 0.945721
vt 0.528138 0.387602
vt 0.991815 0.689963
vt 0.520332 0.388935
vt 0.009975 0.687303
vt 0.354807 0.687303
vt 0.660550 0.687303
vt 0.654691 0.689963
vt 0.867528 0.481100
vt 0.170511 0.280255
vt 0.026377 0.399977
vt 0.135373 0.387594
vt 0.145139 0.883657
vt 0.135373 0.883657
vt 0.170511 0.457441
vt 0.054383 0.399977
vt 0.170511 0.294109
vt 0.354810 0.399977
vt 0.135373 0.945720
vt 0.117714 0.953471
vt 0.135373 0.941070
vt 0.380293 0.399977
vt 0.135374 0.740211
vt 0.170511 0.472667
vt 0.145139 0.740211
vt 0.867528 0.630334
vt 0.867528 0.621033
vt 0.380293 0.399977
vt 0.867528 0.621503
vt 0.867528 0.689963
vt 0.004870 0.883657
vt 0.011706 0.883657
vt 0.518338 0.478882
vt 0.132720 0.472667
vt 0.004870 0.740211
vt 0.376250 0.478882
vt 0.128537 0.883657
vt 0.145139 0.883657
vt 0.135373 0.883657
vt 0.170511 0.472667
vt 0.128538 0.740211
vt 0.145139 0.740211
vt 0.555741 0.387602
vt 0.988651 0.973587
vt 0.608502 0.477754
vt 0.011705 0.973587
vt 0.607417 0.478882
vt 0.548213 0.388935
vt 0.608502 0.457971
vt 0.607417 0.459099
vt 0.548213 0.406936
vt 0.608502 0.245754
vt 0.607417 0.246882
vt 0.555741 0.405602
vt 0.347149 0.973587
vt 0.660550 0.711738
vt 0.654691 0.711738
vt 0.645538 0.973587
vt 0.354807 0.711738
vt 0.991815 0.716452
vt 0.555741 0.387602
vt 0.548213 0.388935
vt 0.009975 0.711738
vt 0.660550 0.711738
vt 0.654691 0.716452
vt 0.354807 0.711738
vt 0.867528 0.716452
vt 0.117713 0.981338
vt 0.135373 0.973587
vt 0.380293 0.159531
vt 0.799099 0.740211
vt 0.373336 0.472667
vt 0.200477 0.621033
vt 0.200477 0.630334
vt 0.380293 0.159531
vt 0.200477 0.621753
vt 0.373336 0.280255
vt 0.200477 0.481100
vt 0.026377 0.159531
vt 0.589219 0.159531
vt 0.799098 0.387594
vt 0.799098 0.883657
vt 0.373336 0.457441
vt 0.373336 0.294109
vt 0.354810 0.159531
vt 0.799098 0.941070
vt 0.799098 0.945721
vt 0.200477 0.687303
vt 0.200477 0.711738
vt 0.799098 0.973587
vt 0.645538 0.941070
vt 0.645538 0.939520
vt 0.347149 0.939520
vt 0.347149 0.941070
vt 0.347149 0.967386
vt 0.347149 0.973587
vt 0.799098 0.941070
vt 0.799098 0.939520
vt 0.799098 0.945721
vt 0.645538 0.967386
vt 0.645538 0.973587
vt 0.135373 0.939520
vt 0.098415 0.953471
vt 0.135373 0.941070
vt 0.135373 0.967386
vt 0.098413 0.981338
vt 0.135373 0.973587
vt 0.799098 0.967386
vt 0.799098 0.973587
vt 0.314730 0.294623
vt 0.132720 0.397537
vt 0.585365 0.159958
vt 0.164569 0.090862
vt 0.520074 0.292580
vt 0.580621 0.292580
vt 0.580621 0.380138
vt 0.431260 0.397537
vt 0.311442 0.292580
vt 0.164569 0.444778
vt 0.518338 0.294623
vt 0.593767 0.381265
vt 0.577354 0.294623
vt 0.164569 0.323258
vt 0.235227 0.397537
vt 0.326410 0.397537
vt 0.584056 0.284257
vt 0.164569 0.215161
vt 0.164569 0.399977
vt 0.170511 0.397537
vt 0.607417 0.381265
vt 0.608502 0.380138
vt 0.164569 0.159531
vt 0.373336 0.397537
vt 0.054383 0.159531
vt 0.164569 0.159531
vt 0.388662 0.444778
vt 0.380293 0.438879
vt 0.569526 0.387602
vt 0.380293 0.444778
vt 0.621203 0.246882
vt 0.569526 0.405602
vt 0.354810 0.444778
vt 0.354810 0.444778
vt 0.026377 0.090862
vt 0.622427 0.477754
vt 0.988651 0.987504
vt 0.026377 0.090862
vt 0.026377 0.444778
vt 0.621203 0.478882
vt 0.011705 0.987504
vt 0.026377 0.444778
vt 0.562138 0.388935
vt 0.380293 0.090862
vt 0.388662 0.090862
vt 0.380293 0.096761
vt 0.622427 0.457971
vt 0.054383 0.090862
vt 0.054383 0.090862
vt 0.054383 0.444778
vt 0.621203 0.459099
vt 0.054383 0.444778
vt 0.354810 0.090862
vt 0.562138 0.406936
vt 0.622427 0.245754
vt 0.354810 0.090862
vt 0.026377 0.323258
vt 0.347149 0.987504
vt 0.026377 0.323258
vt 0.660550 0.723941
vt 0.654691 0.723941
vt 0.380293 0.323258
vt 0.380293 0.330105
vt 0.380293 0.329156
vt 0.354807 0.723941
vt 0.380293 0.215161
vt 0.380293 0.209263
vt 0.380293 0.208353
vt 0.645538 0.987504
vt 0.026377 0.215161
vt 0.026377 0.215161
vt 0.380293 0.438880
vt 0.569526 0.387602
vt 0.991815 0.729681
vt 0.380293 0.444778
vt 0.380293 0.209263
vt 0.354807 0.723941
vt 0.380293 0.215161
vt 0.562138 0.388935
vt 0.009975 0.723941
vt 0.380293 0.090862
vt 0.380293 0.096761
vt 0.380293 0.329156
vt 0.660550 0.723941
vt 0.654691 0.729681
vt 0.380293 0.323258
vt 0.135373 0.987504
vt 0.026377 0.399977
vt 0.026377 0.399977
vt 0.867528 0.729681
vt 0.380293 0.399977
vt 0.380293 0.399977
vt 0.799098 0.987504
vt 0.026377 0.159531
vt 0.026377 0.159531
vt 0.200477 0.723941
vt 0.380293 0.159531
vt 0.380293 0.159531
vt 0.622427 0.380138
vt 0.164569 0.090862
vt 0.164569 0.090862
vt 0.621203 0.381265
vt 0.164569 0.444778
vt 0.164569 0.444778
vt 0.988651 0.886083
vt 0.520951 0.480398
vt 0.520951 0.479527
vt 0.988651 0.387594
vt 0.518524 0.476997
vt 0.988651 0.387594
vt 0.518524 0.477754
vt 0.520742 0.479067
vt 0.011706 0.886083
vt 0.143542 0.936864
vt 0.520742 0.480126
vt 0.011706 0.387594
vt 0.518338 0.478882
vt 0.149436 0.934438
vt 0.518338 0.478762
vt 0.520951 0.461528
vt 0.520951 0.470373
vt 0.520951 0.463380
vt 0.518523 0.470373
vt 0.518524 0.460849
vt 0.518524 0.457971
vt 0.518338 0.469950
vt 0.518338 0.459099
vt 0.518338 0.461358
vt 0.520742 0.469950
vt 0.520742 0.462014
vt 0.520742 0.462722
vt 0.347150 0.886083
vt 0.347150 0.944527
vt 0.347150 0.938817
vt 0.275840 0.387594
vt 0.347150 0.387594
vt 0.348962 0.942100
vt 0.347150 0.936391
vt 0.574229 0.387594
vt 0.643816 0.942100
vt 0.645538 0.387594
vt 0.645538 0.886083
vt 0.645538 0.944527
vt 0.645538 0.387594
vt 0.135373 0.387594
vt 0.267209 0.934438
vt 0.139720 0.936391
vt 0.135373 0.886083
vt 0.267209 0.936864
vt 0.135373 0.938817
vt 0.799098 0.387594
vt 0.799098 0.886083
vt 0.799098 0.387594
vt 0.580621 0.470373
vt 0.580621 0.461072
vt 0.580621 0.457971
vt 0.580621 0.461072
vt 0.582967 0.457971
vt 0.580621 0.463701
vt 0.580621 0.460249
vt 0.580621 0.463349
vt 0.577125 0.461528
vt 0.577125 0.470373
vt 0.577125 0.461072
vt 0.582138 0.459099
vt 0.579815 0.468400
vt 0.589889 0.459099
vt 0.579815 0.469950
vt 0.593767 0.459099
vt 0.579815 0.468400
vt 0.587566 0.459099
vt 0.576354 0.469950
vt 0.576354 0.462014
vt 0.576354 0.468400
vt 0.579815 0.463977
vt 0.579815 0.461376
vt 0.579815 0.470677
vt 0.522678 0.406936
vt 0.593316 0.373684
vt 0.582967 0.245754
vt 0.580621 0.373684
vt 0.593316 0.373684
vt 0.580621 0.245754
vt 0.577627 0.373684
vt 0.517338 0.406936
vt 0.590322 0.373684
vt 0.520332 0.404807
vt 0.593316 0.373684
vt 0.593767 0.246882
vt 0.579815 0.246882
vt 0.585240 0.246882
vt 0.530461 0.405602
vt 0.582138 0.246882
vt 0.579815 0.246882
vt 0.587563 0.246882
vt 0.528138 0.403474
vt 0.579815 0.246882
vt 0.525174 0.405602
vt 0.576850 0.246882
vt 0.580621 0.380138
vt 0.582967 0.380138
vt 0.593767 0.381265
vt 0.585240 0.381265
vt 0.587566 0.381265
vt 0.582138 0.381265
vt 0.587563 0.381265
vt 0.589889 0.381265
vt 0.654691 0.633769
vt 0.660550 0.633769
vt 0.654691 0.622307
vt 0.660550 0.631608
vt 0.654691 0.622034
vt 0.660550 0.631608
vt 0.666696 0.622262
vt 0.654691 0.622307
vt 0.660550 0.631608
vt 0.354807 0.622335
vt 0.354807 0.622056
vt 0.354807 0.633796
vt 0.354807 0.622335
vt 0.354807 0.631636
vt 0.354807 0.622335
vt 0.342801 0.622290
vt 0.458234 0.388935
vt 0.009975 0.621033
vt 0.460644 0.388935
vt 0.009975 0.634993
vt 0.009975 0.621033
vt 0.354807 0.633796
vt 0.354807 0.622335
vt 0.354807 0.631636
vt 0.354807 0.622335
vt 0.469047 0.387602
vt 0.991815 0.633255
vt 0.991815 0.621033
vt 0.466662 0.387602
vt 0.991815 0.621033
vt 0.660550 0.631608
vt 0.654691 0.622307
vt 0.660550 0.633769
vt 0.654691 0.631928
vt 0.654691 0.622307
vt 0.867528 0.622022
vt 0.867528 0.631928
vt 0.867528 0.622307
vt 0.200477 0.622120
vt 0.200477 0.633784
vt 0.200477 0.622323
vt 0.054383 0.090862
vt 0.579611 0.049772
vt 0.054383 0.096480
vt 0.031767 0.096480
vt 0.579123 0.090862
vt 0.026377 0.090862
vt 0.579611 0.021766
vt 0.164569 0.096480
vt 0.579611 0.159958
vt 0.164569 0.090862
vt 0.579123 0.159531
vt 0.026377 0.159531
vt 0.031767 0.159531
vt 0.031767 0.209543
vt 0.579595 0.146065
vt 0.579123 0.215161
vt 0.026377 0.215161
vt 0.054383 0.209543
vt 0.579595 0.174071
vt 0.054383 0.215161
vt 0.579595 0.284257
vt 0.164569 0.215161
vt 0.164569 0.209543
vt 0.311442 0.007024
vt 0.314711 0.406936
vt 0.431260 0.294109
vt 0.009975 0.481100
vt 0.314711 0.388935
vt 0.431260 0.280255
vt 0.009975 0.630334
vt 0.458234 0.388935
vt 0.303215 0.666420
vt 0.324574 0.387602
vt 0.991815 0.481100
vt 0.132720 0.280255
vt 0.466662 0.387602
vt 0.917769 0.612381
vt 0.991815 0.630334
vt 0.466662 0.405602
vt 0.917769 0.630381
vt 0.518338 0.010647
vt 0.324574 0.405602
vt 0.314730 0.010647
vt 0.132720 0.294109
vt 0.520074 0.007024
vt 0.458234 0.406936
vt 0.303215 0.684421
vt 0.440626 0.476808
vt 0.518524 0.477754
vt 0.988651 0.883657
vt 0.431260 0.472667
vt 0.297103 0.476808
vt 0.988651 0.740211
vt 0.446448 0.475766
vt 0.518338 0.478882
vt 0.132720 0.472667
vt 0.304360 0.475766
vt 0.376250 0.478882
vt 0.132720 0.457441
vt 0.304360 0.462215
vt 0.314730 0.459099
vt 0.440626 0.463569
vt 0.520074 0.457971
vt 0.518524 0.457971
vt 0.431260 0.457441
vt 0.297103 0.463569
vt 0.311442 0.457971
vt 0.446448 0.462215
vt 0.518338 0.459099
s 0
usemtl Material
f 71/138/1 73/142/1 7/12/1 22/46/1
f 20/41/2 18/37/2 194/355/2 195/358/2 210/401/2 209/397/2
f 87/169/3 154/276/3 149/265/3 84/165/3
f 68/135/4 74/144/4 4/7/4 15/30/4
f 11/21/4 67/132/4 200/374/4 191/345/4
f 28/59/4 131/241/4 222/431/4 216/418/4
f 2/4/4 13/27/4 272/542/4 267/528/4
f 4/7/4 74/144/4 82/160/4 80/154/4
f 106/198/2 103/194/2 12/24/2 6/10/2
f 6/10/2 12/24/2 260/507/2 259/504/2
f 15/30/4 4/7/4 269/533/4 270/536/4
f 128/238/3 126/234/3 17/35/3 13/28/3
f 86/168/3 152/272/3 159/283/3 89/171/3
f 137/249/4 68/135/4 15/30/4 124/231/4
f 188/334/5 30/64/5 112/207/5 203/381/5
f 66/131/1 69/136/1 14/29/1 3/6/1
f 32/69/3 86/168/3 89/171/3 212/407/3 215/416/3
f 126/234/3 127/235/3 19/40/3 17/35/3
f 139/251/3 184/328/3 154/276/3 87/169/3
f 138/250/6 186/331/6 146/260/6 90/173/6
f 41/88/4 55/112/4 198/368/4 197/364/4
f 218/425/6 217/421/6 90/174/6 83/163/6 29/62/6
f 130/240/6 131/242/6 28/60/6 23/49/6
f 85/167/6 151/269/6 157/280/6 88/170/6
f 65/130/4 70/137/4 24/51/4 8/14/4
f 190/341/6 31/66/6 211/404/6 210/402/6 195/359/6
f 26/54/5 21/44/5 258/501/5 265/522/5
f 124/230/6 130/240/6 23/49/6 24/50/6
f 66/131/7 3/6/7 150/268/7 177/318/7
f 136/248/1 71/138/1 22/46/1 129/239/1
f 22/46/8 7/12/8 144/256/8 147/263/8
f 162/289/3 92/176/3 97/184/3 175/313/3
f 5/9/9 25/52/9 158/282/9 153/274/9
f 84/164/5 149/266/5 180/322/5 115/210/5
f 14/29/10 129/239/10 187/333/10 156/279/10
f 100/189/5 176/316/5 151/270/5 85/166/5
f 201/377/5 72/139/5 31/67/5 190/342/5
f 108/201/4 9/15/4 189/339/4 202/380/4
f 18/38/4 11/23/4 191/346/4 194/356/4
f 32/69/3 33/71/3 232/453/3 233/455/3 62/124/3
f 223/434/6 138/250/6 90/173/6 217/422/6
f 212/409/3 89/172/3 139/251/3 221/430/3
f 104/195/11 153/275/11 173/311/11 183/327/11
f 1/2/12 107/199/12 181/324/12 148/264/12
f 75/147/4 10/18/4 34/74/4 77/149/4
f 101/190/13 5/9/13 153/275/13 104/195/13
f 10/19/4 23/48/4 35/76/4 34/73/4
f 26/55/4 12/26/4 33/70/4 36/79/4
f 208/394/6 88/170/6 138/250/6 223/434/6
f 83/163/6 145/258/6 169/302/6 95/181/6
f 48/99/3 224/438/3 227/445/3 238/467/3 239/469/3 64/127/3
f 86/168/3 32/69/3 62/124/3 96/182/3
f 196/361/5 47/97/5 72/139/5 201/377/5
f 73/142/14 39/85/14 163/292/14 76/148/14
f 152/272/3 86/168/3 96/182/3 172/308/3
f 135/247/1 59/119/1 46/96/1 132/243/1
f 53/107/4 58/118/4 45/95/4 37/83/4
f 38/84/15 66/131/15 177/318/15 160/286/15
f 54/109/1 57/116/1 44/94/1 38/84/1
f 134/245/4 56/115/4 43/93/4 133/244/4
f 39/85/16 49/101/16 165/297/16 163/292/16
f 65/129/2 75/146/2 42/91/2 37/82/2
f 50/103/5 55/113/5 41/90/5 40/86/5
f 199/371/5 60/121/5 47/97/5 196/361/5
f 56/115/4 50/102/4 40/87/4 43/93/4
f 59/119/1 49/101/1 39/85/1 46/96/1
f 111/205/1 101/190/1 49/101/1 59/119/1
f 109/203/4 102/192/4 50/102/4 56/115/4
f 102/191/5 108/202/5 55/113/5 50/103/5
f 141/253/4 109/203/4 56/115/4 134/245/4
f 107/200/5 1/1/5 247/482/5 250/488/5
f 95/180/2 169/303/2 178/319/2 99/187/2
f 106/197/4 110/204/4 58/118/4 53/107/4
f 140/252/1 111/205/1 59/119/1 135/247/1
f 107/199/17 54/109/17 167/300/17 181/324/17
f 230/450/6 229/448/6 52/106/6 63/126/6 234/458/6 235/460/6
f 51/104/4 42/92/4 225/441/4 228/447/4
f 76/148/18 163/293/18 174/312/18 179/321/18
f 92/177/2 162/290/2 164/294/2 94/179/2
f 37/82/2 42/91/2 51/105/2 53/108/2
f 67/132/4 41/89/4 197/365/4 200/374/4
f 99/187/2 178/319/2 175/314/2 97/185/2
f 33/72/4 105/196/4 242/475/4 232/454/4
f 144/257/19 76/148/19 179/321/19 168/301/19
f 77/149/4 34/74/4 237/466/4 240/472/4
f 243/476/2 113/208/2 62/125/2 233/456/2
f 105/196/4 231/452/4 230/451/4 235/461/4 242/475/4
f 49/101/20 101/190/20 104/195/20 165/297/20
f 241/473/2 78/150/2 64/128/2 239/470/2
f 92/176/3 48/99/3 64/127/3 97/184/3
f 227/444/4 226/443/4 77/149/4 240/472/4 238/468/4
f 103/193/4 51/104/4 228/447/4 231/452/4 105/196/4
f 98/186/2 171/306/2 182/325/2 114/209/2
f 34/75/6 29/62/6 61/122/6 236/462/6 237/465/6
f 27/56/5 26/53/5 36/80/5 214/413/5 213/410/5
f 8/13/2 10/20/2 75/146/2 65/129/2
f 90/174/6 146/261/6 145/258/6 83/163/6
f 224/437/2 48/100/2 52/106/2 229/448/2
f 55/114/4 108/201/4 202/380/4 198/370/4
f 93/178/5 166/298/5 161/287/5 91/175/5
f 129/239/21 22/46/21 147/263/21 187/333/21
f 132/243/1 46/96/1 71/138/1 136/248/1
f 37/83/4 45/95/4 70/137/4 65/130/4
f 91/175/5 161/287/5 176/316/5 100/189/5
f 38/84/1 44/94/1 69/136/1 66/131/1
f 133/244/4 43/93/4 68/135/4 137/249/4
f 40/86/5 41/90/5 67/134/5 74/143/5
f 43/93/4 40/87/4 74/144/4 68/135/4
f 46/96/1 39/85/1 73/142/1 71/138/1
f 82/161/5 81/157/5 79/151/5 80/155/5
f 74/145/3 67/133/3 81/158/3 82/162/3
f 67/134/1 11/22/1 79/152/1 81/159/1
f 11/23/6 4/8/6 80/156/6 79/153/6
f 60/120/1 112/206/1 119/217/1 116/211/1
f 61/123/2 95/180/2 99/187/2 78/150/2
f 165/296/22 104/195/22 183/327/22 170/305/22
f 52/106/6 94/179/6 98/186/6 63/126/6
f 29/62/6 83/163/6 95/181/6 61/122/6
f 78/150/2 99/187/2 97/185/2 64/128/2
f 113/208/2 114/209/2 96/183/2 62/125/2
f 48/100/2 92/177/2 94/179/2 52/106/2
f 47/98/1 60/120/1 116/211/1 117/214/1
f 93/178/4 91/175/4 118/216/4 120/221/4
f 125/233/23 16/32/23 155/278/23 185/330/23
f 23/47/5 28/61/5 216/419/5 219/428/5 35/77/5
f 33/71/3 32/69/3 215/416/3 214/414/3 36/81/3
f 131/241/4 20/42/4 209/398/4 222/431/4
f 192/349/3 207/391/3 206/388/3 30/63/3 188/335/3
f 221/430/3 139/251/3 87/169/3 205/387/3
f 72/139/5 100/189/5 85/166/5 31/67/5
f 30/64/5 84/164/5 115/210/5 112/207/5
f 63/126/2 98/186/2 114/209/2 113/208/2
f 236/463/2 61/123/2 78/150/2 241/473/2
f 114/209/2 182/325/2 172/309/2 96/183/2
f 12/25/4 103/193/4 105/196/4 33/72/4
f 17/34/2 19/39/2 204/383/2 207/392/2 192/350/2 193/352/2
f 3/6/24 14/29/24 156/279/24 150/268/24
f 125/233/1 25/52/1 111/205/1 140/252/1
f 6/11/4 21/45/4 110/204/4 106/197/4
f 16/32/25 1/2/25 148/264/25 155/278/25
f 142/254/1 143/255/1 257/500/1 254/495/1
f 128/237/4 13/27/4 109/203/4 141/253/4
f 2/5/5 9/17/5 108/202/5 102/191/5
f 13/27/4 2/4/4 102/192/4 109/203/4
f 25/52/1 5/9/1 101/190/1 111/205/1
f 94/179/6 164/294/6 171/306/6 98/186/6
f 234/458/2 63/126/2 113/208/2 243/476/2
f 115/210/5 180/322/5 166/298/5 93/178/5
f 53/108/2 51/105/2 103/194/2 106/198/2
f 203/381/5 112/207/5 60/121/5 199/371/5
f 117/213/5 118/215/5 122/225/5 121/222/5
f 119/218/5 123/228/5 120/220/5 116/212/5
f 116/212/5 120/220/5 118/215/5 117/213/5
f 112/207/6 115/210/6 123/229/6 119/219/6
f 115/210/4 93/178/4 120/221/4 123/229/4
f 100/188/3 72/140/3 121/223/3 122/226/3
f 72/141/1 47/98/1 117/214/1 121/224/1
f 91/175/4 100/189/4 122/227/4 118/216/4
f 21/45/4 128/237/4 141/253/4 110/204/4
f 251/490/1 142/254/1 254/495/1 252/491/1
f 127/236/4 27/57/4 213/412/4 220/429/4
f 31/68/6 85/167/6 88/170/6 208/394/6 211/405/6
f 45/95/4 133/244/4 137/249/4 70/137/4
f 44/94/1 132/243/1 136/248/1 69/136/1
f 135/246/6 57/117/6 255/496/6 256/498/6
f 110/204/4 141/253/4 134/245/4 58/118/4
f 58/118/4 134/245/4 133/244/4 45/95/4
f 57/116/1 135/247/1 132/243/1 44/94/1
f 25/52/26 125/233/26 185/330/26 158/282/26
f 54/109/27 38/84/27 160/286/27 167/300/27
f 69/136/1 136/248/1 129/239/1 14/29/1
f 15/31/6 18/38/6 130/240/6 124/230/6
f 35/78/6 219/427/6 218/425/6 29/62/6 34/75/6
f 18/38/6 20/43/6 131/242/6 130/240/6
f 88/170/6 157/280/6 186/331/6 138/250/6
f 89/172/3 159/284/3 184/328/3 139/251/3
f 26/54/3 27/58/3 127/235/3 126/234/3
f 70/137/4 137/249/4 124/231/4 24/51/4
f 21/44/3 26/54/3 126/234/3 128/238/3
f 206/389/3 205/387/3 87/169/3 84/165/3 30/65/3
f 57/117/6 54/110/6 253/492/6 255/496/6
f 16/33/3 125/232/3 249/486/3 244/479/3
f 246/481/1 245/480/1 142/254/1 251/490/1
f 140/252/2 135/247/2 256/499/2 257/500/2 143/255/2
f 125/233/2 140/252/2 143/255/2 248/485/2 249/487/2
f 245/480/1 248/485/1 143/255/1 142/254/1
f 54/111/5 107/200/5 250/488/5 253/493/5
f 147/263/28 144/256/28 145/259/28 146/262/28
f 177/318/29 150/268/29 151/271/29 176/317/29
f 155/278/30 148/264/30 149/267/30 154/277/30
f 150/268/31 156/279/31 157/281/31 151/271/31
f 185/330/32 155/278/32 154/277/32 184/329/32
f 171/307/33 164/295/33 165/296/33 170/305/33
f 187/333/34 147/263/34 146/262/34 186/332/34
f 153/274/35 158/282/35 159/285/35 152/273/35
f 167/300/36 160/286/36 161/288/36 166/299/36
f 152/273/37 172/310/37 173/311/37 153/275/37
f 163/292/38 165/297/38 164/295/38 162/291/38
f 181/324/39 167/300/39 166/299/39 180/323/39
f 183/327/38 173/311/38 172/310/38 182/326/38
f 179/321/38 174/312/38 175/315/38 178/320/38
f 162/291/37 175/315/37 174/312/37 163/293/37
f 169/304/33 145/259/33 144/257/33 168/301/33
f 160/286/40 177/318/40 176/317/40 161/288/40
f 168/301/38 179/321/38 178/320/38 169/304/38
f 148/264/41 181/324/41 180/323/41 149/267/41
f 170/305/38 183/327/38 182/326/38 171/307/38
f 158/282/42 185/330/42 184/329/42 159/285/42
f 156/279/43 187/333/43 186/332/43 157/281/43
f 7/12/44 73/142/44 76/148/44 144/257/44
f 192/351/45 188/336/45 189/338/45 193/353/45
f 201/378/46 190/343/46 191/347/46 200/375/46
f 190/344/47 195/360/47 194/357/47 191/348/47
f 199/372/48 196/362/48 197/366/48 198/369/48
f 203/382/49 199/373/49 198/370/49 202/380/49
f 196/363/50 201/379/50 200/376/50 197/367/50
f 188/337/51 203/382/51 202/380/51 189/339/51
f 9/16/4 17/36/4 193/354/4 189/340/4
f 204/384/52 205/386/52 206/390/52 207/393/52
f 208/395/53 209/399/53 210/403/53 211/406/53
f 212/408/54 213/411/54 214/415/54 215/417/54
f 216/419/55 217/423/55 218/426/55 219/428/55
f 221/430/56 205/387/56 204/385/56 220/429/56
f 223/435/57 217/424/57 216/420/57 222/432/57
f 212/409/56 221/430/56 220/429/56 213/412/56
f 208/396/57 223/436/57 222/433/57 209/400/57
f 19/40/4 127/236/4 220/429/4 204/385/4
f 224/438/58 225/440/58 226/442/58 227/445/58
f 228/446/59 229/449/59 230/451/59 231/452/59
f 224/439/60 229/449/60 228/447/60 225/441/60
f 243/477/60 233/457/60 232/454/60 242/475/60
f 241/474/60 239/471/60 238/468/60 240/472/60
f 236/464/60 241/474/60 240/472/60 237/466/60
f 234/459/60 243/477/60 242/475/60 235/461/60
f 42/92/4 75/147/4 77/149/4 226/443/4 225/441/4
f 245/480/61 246/481/61 247/483/61 244/478/61
f 248/485/61 245/480/61 244/478/61 249/487/61
f 251/490/62 252/491/62 253/494/62 250/489/62
f 255/497/63 253/494/63 252/491/63 254/495/63
f 256/499/63 255/497/63 254/495/63 257/500/63
f 246/481/62 251/490/62 250/489/62 247/483/62
f 1/3/3 16/33/3 244/479/3 247/484/3
f 264/519/6 263/516/6 262/513/6 261/510/6
f 259/505/3 260/508/3 265/523/3 258/502/3
f 23/48/1 10/19/1 262/514/1 263/517/1
f 10/20/2 8/13/2 261/511/2 262/515/2
f 24/50/5 23/49/5 263/518/5 264/520/5
f 12/26/1 26/55/1 265/524/1 260/509/1
f 8/14/4 24/51/4 264/521/4 261/512/4
f 21/45/4 6/11/4 259/506/4 258/503/4
f 272/543/3 271/539/3 266/525/3 267/529/3
f 269/534/6 268/531/6 273/545/6 270/537/6
f 4/8/5 11/23/5 268/532/5 269/535/5
f 13/28/2 17/35/2 271/540/2 272/544/2
f 17/36/1 9/16/1 266/526/1 271/541/1
f 11/23/1 18/38/1 273/546/1 268/532/1
f 9/17/5 2/5/5 267/530/5 266/527/5
f 18/38/2 15/31/2 270/538/2 273/546/2
