# Blender 3.3.0
# www.blender.org
mtllib computer7.mtl
o Cube
v -0.046656 1.000000 -1.000000
v -0.046656 -1.000000 -1.000000
v -0.046656 1.000000 1.000000
v -0.046656 -1.000000 1.000000
v -1.000000 1.000000 -1.000000
v -1.000000 -1.000000 -1.000000
v -1.000000 1.000000 1.000000
v -1.000000 -1.000000 1.000000
v -0.467853 -1.000000 -1.000000
v -0.467853 1.000000 1.000000
v -0.467853 -1.000000 1.000000
v -0.467853 1.000000 -1.000000
v -0.046656 -0.052874 -1.000000
v -1.000000 -0.052874 1.000000
v -0.046656 -0.052874 1.000000
v -1.000000 -0.052874 -1.000000
v -0.467853 -0.052874 -1.000000
v -0.467853 -0.052874 1.000000
v -0.046656 -0.083844 -1.000000
v -0.046656 -0.083844 1.000000
v -1.000000 -0.083844 -1.000000
v -0.467853 -0.083844 -1.000000
v -0.467853 -0.083844 1.000000
v -1.000000 -0.083844 1.000000
v -0.046656 -0.648202 -1.000000
v -0.046656 -0.648202 1.000000
v -1.000000 -0.648202 -1.000000
v -0.467853 -0.648202 -1.000000
v -0.467853 -0.648202 1.000000
v -1.000000 -0.648202 1.000000
v -0.046656 -0.691736 -1.000000
v -0.046656 -0.691736 1.000000
v -1.000000 -0.691736 -1.000000
v -0.467853 -0.691736 -1.000000
v -0.467853 -0.691736 1.000000
v -1.000000 -0.691736 1.000000
v -0.046656 -0.972922 -1.000000
v -0.046656 -0.972922 1.000000
v -1.000000 -0.972922 -1.000000
v -0.467853 -0.972922 -1.000000
v -0.467853 -0.972922 1.000000
v -1.000000 -0.972922 1.000000
v -1.044713 -0.010005 1.012259
v -1.005661 -0.052874 1.006980
v -1.032157 -0.010005 1.042572
v -1.027383 -0.034756 1.035874
v -1.033211 -0.040365 1.009511
v -1.003655 -0.040229 1.041092
v -1.044713 0.957131 1.012259
v -1.005661 1.000000 1.006980
v -1.032157 0.957131 1.042573
v -1.027383 0.981882 1.035874
v -1.003655 0.987356 1.041092
v -1.033211 0.987491 1.009511
v -0.467328 1.000000 1.007122
v -0.464652 0.981577 1.046558
v -0.442981 0.987378 1.041117
v -0.487962 0.987374 1.041120
v -0.003977 0.957131 -0.957131
v -0.041758 1.000000 -1.000000
v -0.015043 0.987444 -0.987444
v -0.041351 1.000000 1.006853
v -0.003977 0.957131 1.012259
v -0.044242 0.987354 1.041056
v -0.020962 0.981882 1.035836
v -0.016533 0.957131 1.042572
v -0.015014 0.987513 1.009393
v -1.005378 1.000000 -1.000000
v -1.044713 0.957131 -0.957131
v -1.033192 0.987444 -0.987444
v -0.003977 -0.010005 -0.957131
v -0.041758 -0.052874 -1.000000
v -0.015043 -0.040318 -0.987444
v -0.003977 -0.010005 1.012259
v -0.041351 -0.052874 1.006853
v -0.016533 -0.010005 1.042572
v -0.020962 -0.034756 1.035836
v -0.044242 -0.040228 1.041056
v -0.015014 -0.040387 1.009393
v -1.044713 -0.010005 -0.957131
v -1.005378 -0.052874 -1.000000
v -1.033192 -0.040318 -0.987444
v -0.467328 -0.052874 1.007122
v -0.487962 -0.040247 1.041120
v -0.464652 -0.034451 1.046558
v -0.442981 -0.040252 1.041117
v -1.001844 -0.605333 1.055128
v -1.044713 -0.605333 1.012259
v -1.005661 -0.648202 1.006980
v -1.032157 -0.605333 1.042572
v -1.027383 -0.630084 1.035874
v -1.033211 -0.635693 1.009511
v -1.003655 -0.635558 1.041092
v -1.044713 -0.126713 1.012259
v -1.001844 -0.126713 1.055128
v -1.005661 -0.083844 1.006980
v -1.032157 -0.126713 1.042573
v -1.027383 -0.101962 1.035874
v -1.003655 -0.096489 1.041092
v -1.033211 -0.096353 1.009511
v -0.467328 -0.083844 1.007122
v -0.464652 -0.102267 1.046558
v -0.442981 -0.096466 1.041117
v -0.487962 -0.096471 1.041120
v -1.005378 -0.083844 -1.000000
v -1.044713 -0.126713 -0.957131
v -1.033192 -0.096400 -0.987444
v -0.003977 -0.126713 -0.957131
v -0.041758 -0.083844 -1.000000
v -0.015043 -0.096400 -0.987444
v -0.003977 -0.126713 1.012259
v -0.041351 -0.083844 1.006853
v -0.046846 -0.126713 1.055128
v -0.015014 -0.096331 1.009393
v -0.020962 -0.101962 1.035836
v -0.044242 -0.096490 1.041056
v -0.016533 -0.126713 1.042572
v -0.003977 -0.605333 -0.957131
v -0.041758 -0.648202 -1.000000
v -0.015043 -0.635646 -0.987444
v -0.003977 -0.605333 1.012259
v -0.046846 -0.605333 1.055128
v -0.041351 -0.648202 1.006853
v -0.016533 -0.605333 1.042572
v -0.020962 -0.630084 1.035836
v -0.044242 -0.635556 1.041056
v -0.015014 -0.635715 1.009393
v -1.005378 -0.648202 -1.000000
v -1.044713 -0.605333 -0.957131
v -1.033192 -0.635646 -0.987444
v -0.467328 -0.648202 1.007122
v -0.487962 -0.635575 1.041120
v -0.464652 -0.629779 1.046558
v -0.442981 -0.635580 1.041117
v -1.001844 -0.930053 1.055128
v -1.044713 -0.930053 1.012259
v -1.005661 -0.972922 1.006980
v -1.032157 -0.930053 1.042572
v -1.027383 -0.954804 1.035874
v -1.033211 -0.960413 1.009511
v -1.003655 -0.960278 1.041092
v -1.044713 -0.734605 1.012259
v -1.001844 -0.734605 1.055128
v -1.005661 -0.691736 1.006980
v -1.032157 -0.734605 1.042573
v -1.027383 -0.709854 1.035874
v -1.003655 -0.704380 1.041093
v -1.033211 -0.704245 1.009511
v -0.506654 -0.734605 1.055128
v -0.420916 -0.734605 1.055128
v -0.467328 -0.691736 1.007122
v -0.463785 -0.734605 1.055128
v -0.464652 -0.710158 1.046558
v -0.442981 -0.704357 1.041117
v -0.487962 -0.704362 1.041120
v -1.044713 -0.734605 -0.957131
v -1.005378 -0.691736 -1.000000
v -1.033192 -0.704292 -0.987444
v -0.003977 -0.734605 -0.957131
v -0.041758 -0.691736 -1.000000
v -0.015043 -0.704292 -0.987444
v -0.041351 -0.691736 1.006853
v -0.046846 -0.734605 1.055128
v -0.003977 -0.734605 1.012259
v -0.044242 -0.704382 1.041056
v -0.020962 -0.709854 1.035836
v -0.016533 -0.734605 1.042572
v -0.015014 -0.704222 1.009393
v -0.003977 -0.930053 -0.957131
v -0.041758 -0.972922 -1.000000
v -0.015043 -0.960366 -0.987444
v -0.003977 -0.930053 1.012259
v -0.046846 -0.930053 1.055128
v -0.041351 -0.972922 1.006853
v -0.016533 -0.930053 1.042572
v -0.020962 -0.954804 1.035836
v -0.044242 -0.960276 1.041056
v -0.015014 -0.960435 1.009393
v -1.044713 -0.930053 -0.957131
v -1.005378 -0.972922 -1.000000
v -1.033192 -0.960366 -0.987444
v -0.506654 -0.930053 1.055128
v -0.467328 -0.972922 1.007122
v -0.420916 -0.930053 1.055128
v -0.487962 -0.960296 1.041120
v -0.464652 -0.954499 1.046558
v -0.442981 -0.960300 1.041117
v -0.463785 -0.930053 1.055128
v -0.942547 0.049293 1.100845
v -1.018898 -0.026784 1.058706
v -0.966537 0.025324 1.097637
v -0.989471 0.002449 1.088503
v -1.007858 -0.015849 1.074832
v -0.942547 0.897833 1.100845
v -1.018898 0.973910 1.058706
v -0.966537 0.921803 1.097637
v -0.989471 0.944678 1.088503
v -1.007858 0.962975 1.074832
v -0.493798 0.977931 1.060388
v -0.506654 0.897833 1.100845
v -0.498717 0.965458 1.075870
v -0.502888 0.945855 1.088995
v -0.505675 0.922109 1.097765
v -0.420916 0.897833 1.100845
v -0.436091 0.977934 1.060389
v -0.422071 0.922109 1.097765
v -0.425361 0.945856 1.088996
v -0.430284 0.965459 1.075871
v -0.463785 0.897833 1.100845
v -0.464434 0.975441 1.059754
v -0.463834 0.921919 1.097717
v -0.463975 0.945126 1.088810
v -0.464186 0.963921 1.075479
v -0.106144 0.897833 1.100845
v -0.029738 0.974059 1.058738
v -0.082149 0.921814 1.097640
v -0.059203 0.944721 1.088512
v -0.040798 0.963067 1.074852
v -0.106144 0.049293 1.100845
v -0.029738 -0.026932 1.058738
v -0.082149 0.025312 1.097640
v -0.059203 0.002405 1.088512
v -0.040798 -0.015941 1.074852
v -0.506654 0.049293 1.100845
v -0.493798 -0.030805 1.060388
v -0.505675 0.025017 1.097765
v -0.502888 0.001271 1.088995
v -0.498717 -0.018331 1.075870
v -0.436091 -0.030807 1.060389
v -0.420916 0.049293 1.100845
v -0.430284 -0.018333 1.075871
v -0.425361 0.001270 1.088996
v -0.422071 0.025017 1.097765
v -0.464434 -0.028315 1.059754
v -0.463785 0.049293 1.100845
v -0.464186 -0.016794 1.075479
v -0.463975 0.002000 1.088810
v -0.463834 0.025207 1.097717
v -0.046656 -0.972922 -1.052438
v -0.046656 -1.000000 -1.052438
v -0.467853 1.000000 -1.052438
v -0.046656 1.000000 -1.052438
v -0.467853 -1.000000 -1.052438
v -0.467853 -0.972922 -1.052438
v -0.046656 -0.052874 -1.052438
v -0.467853 -0.052874 -1.052438
v -0.046656 -0.083844 -1.052438
v -0.467853 -0.083844 -1.052438
v -0.046656 -0.648202 -1.052438
v -0.467853 -0.648202 -1.052438
v -0.046656 -0.691736 -1.052438
v -0.467853 -0.691736 -1.052438
v -0.046656 0.530023 -1.000000
v -1.000000 0.530023 -1.000000
v -0.467853 0.530023 -1.000000
v -1.032157 0.525425 1.042572
v -1.044713 0.525425 1.012259
v -0.003977 0.525425 -0.957131
v -0.015043 0.528676 -0.987444
v -0.041758 0.530023 -1.000000
v -0.016533 0.525425 1.042572
v -0.003977 0.525425 1.012259
v -1.005378 0.530023 -1.000000
v -1.033192 0.528676 -0.987444
v -1.044713 0.525425 -0.957131
v -0.942547 0.519066 1.100845
v -0.966537 0.521636 1.097637
v -0.989471 0.524090 1.088503
v -1.007858 0.526052 1.074832
v -1.018898 0.527225 1.058706
v -0.106144 0.519066 1.100845
v -0.082149 0.521638 1.097640
v -0.059203 0.524094 1.088512
v -0.040798 0.526062 1.074852
v -0.029738 0.527241 1.058738
v -0.506654 0.519066 1.100845
v -0.463785 0.519066 1.100845
v -0.420916 0.519066 1.100845
v -0.046656 0.530023 -1.052438
v -0.467853 0.530023 -1.052438
v -0.046656 0.271649 -1.000000
v -1.000000 0.271649 -1.000000
v -0.467853 0.271649 -1.000000
v -1.032157 0.288091 1.042572
v -1.044713 0.288091 1.012259
v -0.003977 0.288091 -0.957131
v -1.005378 0.271649 -1.000000
v -0.966537 0.301642 1.097637
v -0.989471 0.292868 1.088503
v -1.007858 0.285850 1.074832
v -1.018898 0.281656 1.058706
v -0.106144 0.310835 1.100845
v -0.046656 0.271649 -1.052438
v -0.467853 0.271649 -1.052438
v -0.015043 0.276465 -0.987444
v -0.041758 0.271649 -1.000000
v -0.016533 0.288091 1.042572
v -0.003977 0.288091 1.012259
v -1.033192 0.276465 -0.987444
v -1.044713 0.288091 -0.957131
v -0.942547 0.310835 1.100845
v -0.082149 0.301637 1.097640
v -0.059203 0.292851 1.088512
v -0.040798 0.285815 1.074852
v -0.029738 0.281599 1.058738
v -0.506654 0.310835 1.100845
v -0.463785 0.310835 1.100845
v -0.420916 0.310835 1.100845
v -0.942548 0.332605 1.132215
v -0.942548 0.310835 1.110868
v -0.942548 0.324274 1.130590
v -0.942548 0.317211 1.125963
v -0.942548 0.312492 1.119037
v -0.942548 0.497729 1.132215
v -0.942548 0.519066 1.110867
v -0.942548 0.505894 1.130590
v -0.942548 0.512816 1.125962
v -0.942548 0.517441 1.119036
v -0.103258 0.331537 1.131829
v -0.082150 0.301637 1.107660
v -0.095180 0.320095 1.129125
v -0.088332 0.310395 1.123582
v -0.083757 0.303913 1.116045
v -0.082150 0.521638 1.107660
v -0.103258 0.498035 1.131829
v -0.083757 0.519841 1.116045
v -0.088333 0.514725 1.123582
v -0.095180 0.507067 1.129125
v -0.506655 0.310835 1.110874
v -0.506655 0.332555 1.132215
v -0.506655 0.312488 1.119040
v -0.506655 0.317197 1.125964
v -0.506655 0.324243 1.130590
v -0.506655 0.497733 1.132215
v -0.506655 0.519066 1.110873
v -0.506655 0.505897 1.130590
v -0.506655 0.512818 1.125964
v -0.506655 0.517442 1.119040
v -0.463786 0.332538 1.132215
v -0.463786 0.310835 1.110876
v -0.463786 0.324233 1.130590
v -0.463786 0.317192 1.125965
v -0.463786 0.312487 1.119042
v -0.463786 0.519066 1.110874
v -0.463786 0.497735 1.132215
v -0.463786 0.517442 1.119041
v -0.463786 0.512818 1.125964
v -0.463786 0.505898 1.130590
v -0.420917 0.332555 1.132215
v -0.420917 0.310835 1.110874
v -0.420917 0.324243 1.130590
v -0.420917 0.317197 1.125964
v -0.420917 0.312488 1.119040
v -0.420917 0.497733 1.132215
v -0.420917 0.519066 1.110873
v -0.420917 0.505897 1.130590
v -0.420917 0.512818 1.125964
v -0.420917 0.517442 1.119040
v -0.106144 0.519066 1.110867
v -0.106145 0.497729 1.132215
v -0.106144 0.517441 1.119036
v -0.106145 0.512816 1.125962
v -0.106145 0.505894 1.130590
v -0.966538 0.521636 1.107657
v -0.945431 0.498035 1.131829
v -0.964931 0.519840 1.116042
v -0.960356 0.514724 1.123580
v -0.953508 0.507067 1.129124
v -0.966538 0.301642 1.107658
v -0.945431 0.331539 1.131829
v -0.964931 0.303917 1.116043
v -0.960356 0.310398 1.123581
v -0.953508 0.320098 1.129124
v -0.106144 0.310835 1.110868
v -0.106145 0.332605 1.132215
v -0.106144 0.312492 1.119037
v -0.106145 0.317211 1.125963
v -0.106145 0.324274 1.130590
v -0.947286 -1.000000 -1.000000
v -0.947286 1.000000 1.000000
v -0.947286 -1.000000 1.000000
v -0.947286 1.000000 -1.000000
v -0.947286 -0.052874 -1.000000
v -0.947286 -0.052874 1.000000
v -0.947286 -0.083844 1.000000
v -0.947286 -0.083844 -1.000000
v -0.947286 -0.648202 -1.000000
v -0.947286 -0.648202 1.000000
v -0.947286 -0.691736 1.000000
v -0.947286 -0.691736 -1.000000
v -0.947286 -0.972922 -1.000000
v -0.947286 -0.972922 1.000000
v -0.952335 1.000000 1.006994
v -0.952571 0.987357 1.041095
v -0.952571 -0.040231 1.041095
v -0.952335 -0.052874 1.006994
v -0.952335 -0.083844 1.006994
v -0.952571 -0.096487 1.041095
v -0.952792 -0.126713 1.055128
v -0.952792 -0.605333 1.055128
v -0.952571 -0.635559 1.041095
v -0.952335 -0.648202 1.006994
v -0.952335 -0.691736 1.006994
v -0.952571 -0.704378 1.041095
v -0.952792 -0.734605 1.055128
v -0.952792 -0.930053 1.055128
v -0.952571 -0.960279 1.041095
v -0.952335 -0.972922 1.006994
v -0.899368 0.897833 1.100845
v -0.920885 0.921833 1.097650
v -0.941271 0.944794 1.088551
v -0.957423 0.963221 1.074934
v -0.966882 0.974308 1.058872
v -0.899368 0.049293 1.100845
v -0.920885 0.025293 1.097650
v -0.941271 0.002332 1.088551
v -0.957423 -0.016095 1.074934
v -0.966882 -0.027182 1.058872
v -0.899368 0.519066 1.100845
v -0.947286 0.530023 -1.000000
v -0.947286 0.271649 -1.000000
v -0.899368 0.310835 1.100845
v -0.899369 0.519066 1.110868
v -0.899369 0.517442 1.119037
v -0.899369 0.512816 1.125962
v -0.899369 0.505894 1.130590
v -0.899369 0.497729 1.132215
v -0.899369 0.332600 1.132215
v -0.899369 0.324271 1.130590
v -0.899369 0.317210 1.125963
v -0.899369 0.312492 1.119038
v -0.899369 0.310835 1.110869
v -0.099175 -1.000000 1.000000
v -0.099175 1.000000 -1.000000
v -0.099175 -1.000000 -1.000000
v -0.099175 1.000000 1.000000
v -0.099175 -0.052874 1.000000
v -0.099175 -0.083844 1.000000
v -0.099175 -0.648202 1.000000
v -0.099175 -0.691736 1.000000
v -0.099175 -0.972922 1.000000
v -0.094465 1.000000 1.006886
v -0.093961 0.987357 1.041064
v -0.093961 -0.040231 1.041064
v -0.094465 -0.052874 1.006886
v -0.094465 -0.083844 1.006886
v -0.093961 -0.096487 1.041064
v -0.093488 -0.126713 1.055128
v -0.093488 -0.605333 1.055128
v -0.093961 -0.635559 1.041064
v -0.094465 -0.648202 1.006886
v -0.094465 -0.691736 1.006886
v -0.093961 -0.704379 1.041064
v -0.093488 -0.734605 1.055128
v -0.093488 -0.930053 1.055128
v -0.093961 -0.960279 1.041064
v -0.094465 -0.972922 1.006886
v -0.145392 0.897833 1.100845
v -0.124534 0.921851 1.097655
v -0.104859 0.944863 1.088572
v -0.089363 0.963365 1.074979
v -0.080405 0.974542 1.058944
v -0.145392 0.049293 1.100845
v -0.124534 0.025275 1.097655
v -0.104859 0.002264 1.088572
v -0.089363 -0.016239 1.074979
v -0.080405 -0.027416 1.058944
v -0.099175 1.000000 -1.052438
v -0.099175 -1.000000 -1.052438
v -0.099175 -0.052874 -1.052438
v -0.099175 -0.083844 -1.052438
v -0.099175 -0.648202 -1.052438
v -0.099175 -0.691736 -1.052438
v -0.099175 -0.972922 -1.052438
v -0.099175 0.530023 -1.052438
v -0.145392 0.519066 1.100845
v -0.145392 0.310835 1.100845
v -0.099175 0.271649 -1.052438
v -0.145393 0.519066 1.110868
v -0.145393 0.517442 1.119037
v -0.145393 0.512816 1.125962
v -0.145393 0.505894 1.130590
v -0.145393 0.497729 1.132215
v -0.145393 0.332599 1.132215
v -0.145393 0.324270 1.130590
v -0.145393 0.317209 1.125963
v -0.145393 0.312492 1.119038
v -0.145393 0.310835 1.110869
v -0.487957 -0.096471 1.076438
v -0.506650 -0.126713 1.090446
v -0.463781 -0.126713 1.090446
v -0.464648 -0.102267 1.081876
v -0.420912 -0.126713 1.090446
v -0.442976 -0.096466 1.076435
v -0.463781 -0.605333 1.090446
v -0.506650 -0.605333 1.090446
v -0.487957 -0.635575 1.076438
v -0.464648 -0.629779 1.081876
v -0.442976 -0.635580 1.076435
v -0.420912 -0.605333 1.090446
v -0.952567 -0.096487 1.076413
v -0.952787 -0.126713 1.090446
v -0.093484 -0.605333 1.090446
v -0.952567 -0.635559 1.076413
v -0.952787 -0.605333 1.090446
v -0.093956 -0.096487 1.076382
v -0.093484 -0.126713 1.090446
v -0.093956 -0.635559 1.076382
vn -0.0000 1.0000 -0.0000
vn -0.0000 -0.0000 -1.0000
vn -0.0000 -1.0000 -0.0000
vn -0.0000 -0.0000 1.0000
vn 1.0000 -0.0000 -0.0000
vn -1.0000 -0.0000 -0.0000
vn -0.6370 0.6229 0.4542
vn 0.2413 0.9704 -0.0000
vn 0.6443 0.6136 0.4565
vn -0.7726 -0.0000 0.6350
vn -0.8920 -0.3184 0.3209
vn -0.3290 -0.8914 0.3117
vn -0.8920 0.3184 0.3209
vn -0.0041 0.8022 0.5971
vn -0.3290 0.8914 0.3117
vn 0.0052 0.8591 0.5118
vn -0.0001 0.9060 0.4233
vn 0.3379 0.8864 0.3164
vn 0.7745 -0.0000 0.6326
vn 0.8953 0.3073 0.3224
vn 0.8953 -0.3073 0.3224
vn 0.0052 -0.8591 0.5118
vn 0.3379 -0.8864 0.3164
vn -0.1041 -0.8876 0.4487
vn -0.0001 -0.9060 0.4233
vn -0.3245 -0.3491 0.8791
vn -0.3245 0.3491 0.8791
vn 1.0000 -0.0000 -0.0001
vn 0.3271 0.3440 0.8802
vn 0.3271 -0.3440 0.8802
vn 0.0001 -1.0000 -0.0000
vn 0.9999 0.0156 -0.0001
vn -0.0411 0.3927 0.9187
vn 0.0417 0.3962 0.9172
vn -0.0411 -0.3927 0.9187
vn 0.0417 -0.3962 0.9172
vn -0.9239 -0.0000 0.3827
vn -0.0001 0.9376 0.3476
vn 0.0995 0.8903 0.4444
vn 0.4269 0.9043 -0.0001
vn 0.9396 0.3422 -0.0000
vn -0.4124 0.9110 -0.0000
vn -0.9350 0.3548 -0.0000
vn 0.0002 0.9377 0.3475
vn 0.9394 -0.0000 -0.3429
vn 0.4254 -0.0000 -0.9050
vn 0.6443 -0.6136 0.4565
vn 0.9239 -0.0000 0.3827
vn -0.4114 -0.0000 -0.9114
vn -0.9348 -0.0000 -0.3553
vn -0.1041 0.8876 0.4487
vn 0.0995 -0.8903 0.4444
vn 0.0002 -0.9377 0.3474
vn 0.9396 -0.3422 -0.0000
vn 0.4269 -0.9043 -0.0001
vn -0.9350 -0.3548 -0.0000
vn -0.4124 -0.9110 -0.0000
vn -0.6370 -0.6229 0.4542
vn -0.0001 -0.9376 0.3476
vn -0.3827 -0.0000 0.9239
vn -0.0000 0.4211 0.9070
vn 0.0002 0.9377 0.3474
vn 0.9999 -0.0156 -0.0001
vn 0.3827 -0.0000 0.9239
vn 0.2413 -0.9704 -0.0000
vn 0.0001 1.0000 -0.0000
vn -0.0000 -0.4211 0.9070
vn 0.0001 0.4211 0.9070
vn 0.0001 -0.4211 0.9070
vn 0.0008 0.1273 0.9919
vn 0.0067 0.3520 0.9360
vn 0.0239 0.5655 0.8244
vn 0.0595 0.7870 0.6140
vn -0.0008 0.1273 0.9919
vn -0.0068 0.3519 0.9360
vn -0.0242 0.5650 0.8247
vn -0.0610 0.7855 0.6158
vn 0.0008 -0.1273 0.9919
vn 0.0067 -0.3520 0.9360
vn 0.0239 -0.5655 0.8244
vn 0.0595 -0.7870 0.6140
vn -0.0008 -0.1273 0.9919
vn -0.0067 -0.3519 0.9360
vn -0.0242 -0.5650 0.8247
vn -0.0610 -0.7855 0.6158
vn -0.1325 -0.0000 0.9912
vn -0.3700 -0.0000 0.9290
vn -0.5967 -0.0000 0.8025
vn -0.8252 -0.0000 0.5649
vn -0.0002 0.1288 0.9917
vn -0.0012 0.3569 0.9341
vn -0.0034 0.5745 0.8185
vn -0.0066 0.8007 0.5990
vn 0.0002 0.1318 0.9913
vn 0.0015 0.3674 0.9301
vn 0.0044 0.5920 0.8059
vn 0.0084 0.8208 0.5712
vn 0.1324 -0.0000 0.9912
vn 0.3696 -0.0000 0.9292
vn 0.5960 -0.0000 0.8030
vn 0.8245 -0.0000 0.5659
vn 0.0002 -0.1286 0.9917
vn 0.0015 -0.3562 0.9344
vn 0.0043 -0.5733 0.8193
vn 0.0083 -0.7994 0.6007
vn -0.0002 -0.1321 0.9912
vn -0.0012 -0.3687 0.9296
vn -0.0034 -0.5943 0.8042
vn -0.0067 -0.8233 0.5675
vn -0.0041 -0.8021 0.5971
vn -1.0000 -0.0000 -0.0001
vn -0.7726 -0.0000 0.6349
vn -0.4115 -0.0000 -0.9114
vn -0.1066 0.9943 -0.0000
vn 0.1065 0.9943 -0.0000
vn 0.3578 -0.9338 -0.0000
vn -0.3579 -0.9337 -0.0000
vn 1.0000 -0.0000 0.0001
vn 0.9821 -0.0000 0.1882
vn 0.8548 -0.0000 0.5189
vn 0.6291 -0.0000 0.7773
vn 0.3175 -0.0000 0.9483
vn 0.1095 0.1940 0.9749
vn 0.0515 0.5550 0.8303
vn -0.0149 0.8315 0.5553
vn -0.0788 0.9778 0.1944
vn 0.0788 0.9778 0.1944
vn 0.0148 0.8315 0.5553
vn -0.0516 0.5550 0.8303
vn -0.1096 0.1940 0.9749
vn -0.0000 0.1952 0.9808
vn -0.0000 0.5557 0.8314
vn -0.0000 0.8316 0.5554
vn -0.0000 0.9808 0.1950
vn -0.0000 0.5558 0.8313
vn -0.9821 -0.0000 0.1882
vn -0.8549 -0.0000 0.5189
vn -0.6292 -0.0000 0.7772
vn -0.3176 -0.0000 0.9482
vn -0.0000 -0.1915 0.9815
vn -0.0000 -0.5481 0.8364
vn -0.0000 -0.8264 0.5631
vn -0.0000 -0.9800 0.1988
vn -0.0000 -0.1917 0.9815
vn -0.0000 -0.5485 0.8362
vn -0.0000 -0.8267 0.5627
vn -0.0000 -0.9801 0.1986
vn -0.0589 -0.1905 0.9799
vn 0.0967 -0.5449 0.8329
vn 0.2342 -0.8031 0.5478
vn 0.3294 -0.9253 0.1879
vn -0.3295 -0.9253 0.1879
vn -0.2343 -0.8031 0.5478
vn -0.0969 -0.5449 0.8329
vn 0.0587 -0.1906 0.9799
vn -0.0000 -0.9801 0.1984
vn 0.0001 -0.8270 0.5622
vn 0.0001 -0.5489 0.8359
vn 0.0001 -0.1919 0.9814
vn -0.0001 -0.8270 0.5622
vn -0.0001 -0.5489 0.8359
vn -0.0001 -0.1919 0.9814
vn -0.0000 -0.5484 0.8362
vn -0.0042 -0.8558 0.5173
vn -0.0066 -0.8007 0.5990
vn -0.0034 -0.5745 0.8185
vn -0.0012 -0.3569 0.9341
vn -0.0002 -0.1288 0.9917
vn -0.0067 0.8233 0.5675
vn -0.0034 0.5943 0.8042
vn -0.0012 0.3687 0.9296
vn -0.0002 0.1321 0.9912
vn -0.0001 -0.9375 0.3479
vn -0.0000 -0.4207 0.9072
vn -0.0000 0.4207 0.9072
vn -0.0001 0.9375 0.3479
vn -0.2586 0.9660 -0.0000
vn -1.0000 0.0073 0.0001
vn -0.0042 0.8558 0.5173
vn -1.0000 -0.0000 0.0001
vn -0.0000 0.5557 0.8313
vn 0.0084 -0.8208 0.5712
vn 0.0044 -0.5920 0.8059
vn 0.0015 -0.3674 0.9301
vn 0.0002 -0.1318 0.9913
vn 0.0083 0.7994 0.6007
vn 0.0043 0.5733 0.8193
vn 0.0015 0.3562 0.9344
vn 0.0002 0.1286 0.9917
vn 0.0002 -0.9379 0.3469
vn 0.0001 -0.4220 0.9066
vn 0.0001 0.4220 0.9066
vn 0.0002 0.9379 0.3469
vn 0.0052 -0.8080 0.5892
vn 0.0052 0.8080 0.5892
vn -1.0000 -0.0073 0.0001
vn -0.2586 -0.9660 -0.0000
vt 0.299805 0.999023
vt 0.882652 0.625000
vt 0.374898 0.209051
vt 0.270053 0.442336
vt 0.573242 0.375000
vt 0.632652 0.625000
vt 0.014750 0.209051
vt 0.096694 0.442336
vt 0.267543 0.444410
vt 0.882652 0.875000
vt 0.598633 0.999023
vt 0.261714 0.443282
vt 0.598633 0.453125
vt 0.374898 0.076105
vt 0.632652 0.875000
vt 0.159596 0.443282
vt 0.027867 0.444410
vt 0.014750 0.076105
vt 0.431830 0.453125
vt 0.374898 0.150314
vt 0.632652 0.735453
vt 0.161652 0.444410
vt 0.014750 0.150314
vt 0.431830 0.999023
vt 0.882652 0.735453
vt 0.998497 0.737497
vt 0.197379 0.448750
vt 0.299805 0.711642
vt 0.108466 0.450289
vt 0.077276 0.449933
vt 0.621424 0.737930
vt 0.009766 0.707353
vt 0.134212 0.448750
vt 0.285645 0.707353
vt 0.622156 0.737497
vt 0.218134 0.449933
vt 0.254199 0.450289
vt 1.000000 0.737930
vt 0.598633 0.711642
vt 0.431830 0.711642
vt 0.155902 0.449933
vt 0.163758 0.707353
vt 0.998497 0.729784
vt 0.299805 0.703189
vt 0.197379 0.442847
vt 0.134212 0.442847
vt 0.622156 0.729784
vt 0.285645 0.698730
vt 0.218134 0.443261
vt 0.254199 0.443742
vt 1.000000 0.730264
vt 0.598633 0.703189
vt 0.431830 0.703189
vt 0.163758 0.698730
vt 0.155902 0.443261
vt 0.108466 0.443742
vt 0.077276 0.443261
vt 0.621424 0.730264
vt 0.009766 0.698730
vt 0.998497 0.589250
vt 0.299805 0.549148
vt 0.204244 0.448848
vt 0.622156 0.589250
vt 0.123440 0.448848
vt 0.285645 0.541604
vt 0.201101 0.448607
vt 0.278218 0.449316
vt 1.000000 0.590565
vt 0.598633 0.549148
vt 0.431830 0.549148
vt 0.153919 0.448606
vt 0.163758 0.541604
vt 0.179144 0.449316
vt 0.094310 0.448607
vt 0.621424 0.590565
vt 0.009766 0.541604
vt 0.998497 0.578410
vt 0.299805 0.537266
vt 0.204244 0.442072
vt 0.123440 0.442072
vt 0.622156 0.578410
vt 0.285645 0.529484
vt 0.201101 0.442272
vt 1.000000 0.579789
vt 0.278218 0.442678
vt 0.598633 0.537265
vt 0.431830 0.537265
vt 0.163758 0.529484
vt 0.153919 0.442272
vt 0.621424 0.579789
vt 0.179144 0.442678
vt 0.094310 0.442272
vt 0.009766 0.529484
vt 0.270053 0.448331
vt 0.299805 0.460516
vt 0.998497 0.508390
vt 0.096694 0.448331
vt 0.285645 0.451198
vt 0.622156 0.508390
vt 0.267543 0.450446
vt 0.261714 0.448576
vt 1.000000 0.510185
vt 0.598633 0.460516
vt 0.431830 0.460516
vt 0.161652 0.450446
vt 0.163758 0.451198
vt 0.159596 0.448576
vt 0.027867 0.450446
vt 0.621424 0.510185
vt 0.009766 0.451198
vt 0.629321 0.748542
vt 0.621424 0.737930
vt 0.009766 0.707353
vt 0.009766 0.719288
vt 0.621424 0.748542
vt 0.624971 0.737930
vt 0.014360 0.707353
vt 0.009766 0.712397
vt -0.000151 0.707353
vt 0.629827 0.737930
vt 0.020649 0.707353
vt 0.629321 0.987943
vt 0.632652 0.875000
vt 0.009766 0.988553
vt 0.621424 0.987943
vt 0.014360 1.000488
vt 0.621424 0.994070
vt 0.634994 0.875000
vt 0.020649 1.000488
vt 0.626487 0.875000
vt 0.632652 0.865137
vt 0.638201 0.875000
vt 0.629827 0.998554
vt 0.632652 0.735453
vt 0.632652 0.735661
vt 0.163758 0.995359
vt 0.163758 1.000488
vt 0.632652 0.730031
vt 0.632652 0.730455
vt 0.169273 1.000488
vt 0.632652 0.741260
vt 0.157350 1.000488
vt 0.990647 0.989004
vt 0.882652 0.625000
vt 0.299805 0.999023
vt 0.881124 0.625000
vt 0.996198 0.999679
vt 0.299805 0.995596
vt 0.998497 0.996552
vt 0.632652 0.625000
vt 0.630006 0.989003
vt 0.632652 0.634672
vt 0.274971 1.000488
vt 0.285645 0.995444
vt 0.632652 0.629080
vt 0.625689 0.999679
vt 0.622156 0.989004
vt 0.285645 0.988553
vt 0.632652 0.616393
vt 0.638215 0.625000
vt 0.630531 0.999679
vt 0.882652 0.875000
vt 0.598633 0.999023
vt 0.992103 0.987943
vt 0.881124 0.875000
vt 0.997687 0.998555
vt 1.000000 0.995446
vt 0.598633 0.995596
vt 0.990647 0.748172
vt 0.998497 0.737497
vt 0.299805 0.711642
vt 0.998497 0.740623
vt 0.299805 0.715070
vt 0.996198 0.737497
vt 0.630006 0.748172
vt 0.622156 0.737497
vt 0.285645 0.707353
vt 0.285645 0.719288
vt 0.622156 0.748172
vt 0.622156 0.742008
vt 0.625689 0.737497
vt 0.281142 0.707353
vt 0.612624 0.737497
vt 0.274971 0.707353
vt 0.630531 0.737497
vt 0.992103 0.748542
vt 0.598633 0.711642
vt 1.000000 0.737930
vt 0.598633 0.715070
vt 1.000000 0.741038
vt 0.997687 0.737930
vt 0.163758 0.707353
vt 0.156812 0.707353
vt 0.157350 0.707353
vt 0.163682 0.709062
vt 0.169273 0.707353
vt 0.021129 0.553540
vt 0.629321 0.601176
vt 0.621424 0.590565
vt 0.009766 0.541604
vt 0.009766 0.553540
vt 0.621424 0.601176
vt 0.009766 0.546649
vt 0.624971 0.590565
vt 0.014360 0.541604
vt -0.000151 0.541604
vt 0.629827 0.590565
vt 0.020649 0.541604
vt 0.629321 0.719652
vt 0.021129 0.686795
vt 0.009766 0.698730
vt 0.621424 0.730264
vt 0.009766 0.686795
vt 0.621424 0.719652
vt 0.621424 0.725779
vt 0.014360 0.698730
vt 0.624971 0.730264
vt 0.612089 0.730264
vt 0.020649 0.698730
vt 0.629827 0.730264
vt 0.163758 0.694824
vt 0.163758 0.698730
vt 0.163682 0.693114
vt 0.169273 0.694824
vt 0.169741 0.694824
vt 0.157350 0.694824
vt 1.000000 0.730264
vt 0.598633 0.703189
vt 0.992103 0.719652
vt 0.997687 0.730264
vt 0.598633 0.699762
vt 1.000000 0.727156
vt 0.990647 0.719109
vt 0.998497 0.729784
vt 0.299805 0.703189
vt 0.996198 0.729784
vt 0.998497 0.726658
vt 0.299805 0.699762
vt 0.630006 0.719109
vt 0.622156 0.729784
vt 0.285645 0.698730
vt 0.274281 0.686795
vt 0.295142 0.698730
vt 0.630531 0.729784
vt 0.625689 0.729784
vt 0.281142 0.698730
vt 0.285645 0.693686
vt 0.274971 0.698730
vt 0.285645 0.686795
vt 0.622156 0.719109
vt 0.990647 0.599926
vt 0.299805 0.549148
vt 0.998497 0.589250
vt 0.998497 0.592377
vt 0.299805 0.552575
vt 0.996198 0.589250
vt 0.630006 0.599926
vt 0.274281 0.553540
vt 0.622156 0.589250
vt 0.285645 0.541604
vt 0.285645 0.553540
vt 0.622156 0.599926
vt 0.622156 0.593762
vt 0.281142 0.541604
vt 0.625689 0.589250
vt 0.612624 0.589250
vt 0.274971 0.541604
vt 0.630531 0.589250
vt 0.598633 0.549148
vt 1.000000 0.590565
vt 0.992103 0.601177
vt 0.598633 0.552575
vt 1.000000 0.593673
vt 0.997687 0.590565
vt 0.163758 0.541604
vt 0.156812 0.541604
vt 0.157350 0.541604
vt 0.163682 0.543314
vt 0.169273 0.541604
vt 0.021129 0.463133
vt 0.629321 0.520796
vt 0.621424 0.510185
vt 0.009766 0.451198
vt 0.009766 0.463133
vt 0.621424 0.520796
vt 0.009766 0.456242
vt 0.624971 0.510185
vt 0.014360 0.451198
vt -0.000151 0.451198
vt 0.629827 0.510185
vt 0.020649 0.451198
vt 0.629321 0.569177
vt 0.021129 0.517549
vt 0.009766 0.529484
vt 0.621424 0.579789
vt 0.009766 0.517549
vt 0.621424 0.569177
vt 0.621424 0.575304
vt 0.014360 0.529484
vt 0.624971 0.579789
vt 0.612089 0.579788
vt 0.020649 0.529484
vt 0.629827 0.579789
vt 0.152395 0.517549
vt 0.175122 0.517549
vt 0.163758 0.529484
vt 0.163758 0.517549
vt 0.163682 0.527774
vt 0.169741 0.529484
vt 0.169273 0.529484
vt 0.157350 0.529484
vt 0.992103 0.569177
vt 1.000000 0.579789
vt 0.598633 0.537265
vt 0.997687 0.579789
vt 0.598633 0.533838
vt 1.000000 0.576680
vt 0.990647 0.567735
vt 0.998497 0.578410
vt 0.299805 0.537266
vt 0.996198 0.578410
vt 0.998497 0.575283
vt 0.299805 0.533838
vt 0.622156 0.578410
vt 0.285645 0.529484
vt 0.274281 0.517549
vt 0.630006 0.567735
vt 0.274971 0.529484
vt 0.281142 0.529484
vt 0.285645 0.524440
vt 0.625689 0.578410
vt 0.285645 0.517549
vt 0.622156 0.567735
vt 0.295142 0.529484
vt 0.630531 0.578410
vt 0.990647 0.519065
vt 0.299805 0.460516
vt 0.998497 0.508390
vt 0.998497 0.511517
vt 0.299805 0.463943
vt 0.996198 0.508390
vt 0.630006 0.519065
vt 0.274281 0.463133
vt 0.622156 0.508390
vt 0.285645 0.451198
vt 0.285645 0.463133
vt 0.622156 0.519065
vt 0.622156 0.512902
vt 0.281142 0.451198
vt 0.625689 0.508390
vt 0.612624 0.508390
vt 0.274971 0.451198
vt 0.630531 0.508390
vt 0.992103 0.520796
vt 0.598633 0.460516
vt 1.000000 0.510185
vt 0.598633 0.463943
vt 1.000000 0.513293
vt 0.997687 0.510185
vt 0.152395 0.463133
vt 0.163758 0.451198
vt 0.175122 0.463133
vt 0.156812 0.451198
vt 0.157350 0.451198
vt 0.163682 0.452907
vt 0.169273 0.451198
vt 0.163758 0.463133
vt 0.036848 0.735797
vt 0.016287 0.714629
vt 0.016609 0.710977
vt 0.013081 0.714616
vt 0.030489 0.729124
vt 0.022769 0.721022
vt 0.017956 0.716019
vt 0.036848 0.972044
vt 0.016725 0.993692
vt 0.013081 0.993224
vt 0.016609 0.996864
vt 0.030489 0.978717
vt 0.022769 0.986819
vt 0.017956 0.991822
vt 0.155803 0.996762
vt 0.152395 0.972044
vt 0.154530 0.993392
vt 0.152894 0.988553
vt 0.152654 0.978802
vt 0.175122 0.972044
vt 0.171100 0.996761
vt 0.174816 0.978802
vt 0.174533 0.988553
vt 0.172609 0.993409
vt 0.163758 0.972044
vt 0.163758 0.993651
vt 0.163758 0.997493
vt 0.163745 0.978749
vt 0.163758 0.988553
vt 0.163817 0.991556
vt 0.163691 0.993845
vt 0.258562 0.972044
vt 0.279082 0.993310
vt 0.282326 0.993266
vt 0.278816 0.996862
vt 0.264923 0.978720
vt 0.272643 0.986825
vt 0.277458 0.991835
vt 0.258562 0.735797
vt 0.278665 0.714064
vt 0.282326 0.714575
vt 0.278816 0.710979
vt 0.264923 0.729121
vt 0.272643 0.721016
vt 0.277458 0.716006
vt 0.152395 0.735797
vt 0.155803 0.711079
vt 0.152654 0.729039
vt 0.152894 0.719288
vt 0.154530 0.714438
vt 0.171100 0.711079
vt 0.175122 0.735797
vt 0.172608 0.714439
vt 0.174533 0.719288
vt 0.174816 0.729039
vt 0.163701 0.711629
vt 0.163758 0.735797
vt 0.163720 0.714759
vt 0.163733 0.719288
vt 0.163745 0.729091
vt 0.270053 0.448331
vt 0.299805 0.460516
vt 0.270053 0.442336
vt 0.299805 0.453125
vt 0.573242 0.375000
vt 0.431830 0.999023
vt 0.882652 0.735453
vt 0.882652 0.625000
vt 0.299805 0.999023
vt 0.374898 0.150314
vt 0.431830 0.453125
vt 0.431830 0.460516
vt 0.197379 0.448750
vt 0.299805 0.711642
vt 0.431830 0.711642
vt 0.299805 0.703189
vt 0.197379 0.442847
vt 0.431830 0.703189
vt 0.299805 0.549148
vt 0.204244 0.448848
vt 0.431830 0.549148
vt 0.299805 0.537266
vt 0.204244 0.442072
vt 0.431830 0.537265
vt 0.299805 0.870744
vt 0.598633 0.870744
vt 0.431830 0.870744
vt 0.621424 0.881080
vt 0.009766 0.868360
vt 0.629321 0.881080
vt 0.990647 0.881502
vt 0.299805 0.870376
vt 0.998497 0.882312
vt 0.299805 0.870744
vt 0.622156 0.881502
vt 0.285645 0.868360
vt 0.630006 0.881502
vt 0.598633 0.870744
vt 1.000000 0.881885
vt 0.598633 0.870376
vt 0.992103 0.881080
vt 0.036848 0.866589
vt 0.030489 0.867305
vt 0.022769 0.868174
vt 0.017956 0.868710
vt 0.013081 0.868861
vt 0.258562 0.866589
vt 0.264923 0.867305
vt 0.272643 0.868174
vt 0.277458 0.868711
vt 0.282326 0.868865
vt 0.152395 0.866589
vt 0.163758 0.866589
vt 0.175122 0.866589
vt 0.299805 0.870744
vt 0.431830 0.870744
vt 0.299805 0.800221
vt 0.598633 0.800221
vt 0.431830 0.800221
vt 0.009766 0.802282
vt 0.621424 0.822331
vt 0.629321 0.822331
vt 0.990647 0.822402
vt 0.598633 0.800221
vt 0.030489 0.806055
vt 0.022769 0.802947
vt 0.017956 0.801028
vt 0.013081 0.800491
vt 0.258562 0.808614
vt 0.299805 0.800221
vt 0.431830 0.800221
vt 0.299805 0.801535
vt 0.998497 0.819507
vt 0.299805 0.800221
vt 0.622156 0.822402
vt 0.285645 0.802282
vt 0.630006 0.822402
vt 1.000000 0.819453
vt 0.598633 0.801535
vt 0.992103 0.822331
vt 0.036848 0.808614
vt 0.264923 0.806054
vt 0.272643 0.802945
vt 0.277458 0.801024
vt 0.282326 0.800475
vt 0.152395 0.808615
vt 0.163758 0.808614
vt 0.175122 0.808614
vt 0.036848 0.814676
vt 0.036848 0.808614
vt 0.036820 0.812356
vt 0.036848 0.808614
vt 0.036921 0.808644
vt 0.036848 0.860649
vt 0.036848 0.866589
vt 0.036820 0.862922
vt 0.036827 0.866591
vt 0.036871 0.866587
vt 0.259327 0.814378
vt 0.264923 0.806054
vt 0.261525 0.811193
vt 0.263920 0.807677
vt 0.264636 0.806486
vt 0.264923 0.867305
vt 0.259327 0.860734
vt 0.264687 0.867028
vt 0.264125 0.866253
vt 0.261525 0.863248
vt 0.152395 0.808614
vt 0.152395 0.814662
vt 0.152395 0.808615
vt 0.152395 0.808615
vt 0.152395 0.812348
vt 0.152395 0.860650
vt 0.152395 0.866589
vt 0.152395 0.862923
vt 0.152395 0.866589
vt 0.152395 0.866589
vt 0.163758 0.814657
vt 0.163758 0.808614
vt 0.163758 0.812345
vt 0.163758 0.808614
vt 0.163758 0.808614
vt 0.163758 0.866589
vt 0.163758 0.860650
vt 0.163758 0.866589
vt 0.163758 0.866589
vt 0.163758 0.862923
vt 0.175122 0.814662
vt 0.175122 0.808614
vt 0.175122 0.812347
vt 0.175122 0.808614
vt 0.175122 0.808614
vt 0.175122 0.860650
vt 0.175122 0.866589
vt 0.175122 0.862923
vt 0.175122 0.866589
vt 0.175122 0.866589
vt 0.258562 0.866589
vt 0.258562 0.860648
vt 0.258539 0.866586
vt 0.258583 0.866591
vt 0.258590 0.862922
vt 0.030489 0.867305
vt 0.036084 0.860734
vt 0.030724 0.867028
vt 0.031287 0.866253
vt 0.033886 0.863248
vt 0.030489 0.806055
vt 0.036084 0.814379
vt 0.030775 0.806487
vt 0.031491 0.807678
vt 0.033886 0.811193
vt 0.258562 0.808614
vt 0.258562 0.814676
vt 0.258489 0.808644
vt 0.258562 0.808614
vt 0.258590 0.812356
vt 0.582110 0.453125
vt 0.374898 0.083456
vt 0.632652 0.861177
vt 0.041120 0.444410
vt 0.014750 0.083456
vt 0.582110 0.999023
vt 0.882652 0.861177
vt 0.582110 0.711642
vt 0.025020 0.707353
vt 0.085065 0.449933
vt 0.025020 0.698730
vt 0.085065 0.443261
vt 0.582110 0.703189
vt 0.582110 0.549148
vt 0.025020 0.541604
vt 0.100214 0.448606
vt 0.025020 0.529484
vt 0.100214 0.442272
vt 0.582110 0.537265
vt 0.582110 0.460516
vt 0.025020 0.451198
vt 0.041120 0.450446
vt 0.632652 0.861177
vt 0.632652 0.852866
vt 0.034191 1.000488
vt 0.034191 0.707353
vt 0.025020 0.707353
vt 0.025020 0.694824
vt 0.025020 0.698730
vt 0.034191 0.698730
vt 0.034191 0.694824
vt 0.034132 0.686795
vt 0.034132 0.553540
vt 0.034191 0.541605
vt 0.025020 0.541605
vt 0.025020 0.529484
vt 0.034191 0.529484
vt 0.034132 0.517549
vt 0.034132 0.463133
vt 0.034191 0.451198
vt 0.025020 0.451198
vt 0.048294 0.972044
vt 0.042590 0.978725
vt 0.035659 0.986991
vt 0.031485 0.991978
vt 0.030397 0.996854
vt 0.048294 0.735797
vt 0.042590 0.729115
vt 0.035659 0.720850
vt 0.031485 0.715862
vt 0.030397 0.710987
vt 0.048294 0.866589
vt 0.582110 0.870744
vt 0.582110 0.800221
vt 0.048294 0.808615
vt 0.048294 0.866589
vt 0.048314 0.866587
vt 0.048275 0.866591
vt 0.048268 0.862922
vt 0.048294 0.860649
vt 0.048294 0.814674
vt 0.048268 0.812355
vt 0.048294 0.808614
vt 0.048360 0.808641
vt 0.048294 0.808614
vt 0.254340 0.444410
vt 0.014750 0.201727
vt 0.882652 0.638772
vt 0.573242 0.361228
vt 0.374898 0.201727
vt 0.632652 0.638772
vt 0.270447 0.707353
vt 0.210374 0.449933
vt 0.270447 0.698730
vt 0.210374 0.443261
vt 0.270447 0.541604
vt 0.195218 0.448607
vt 0.270447 0.529484
vt 0.195218 0.442272
vt 0.270447 0.451198
vt 0.254340 0.450446
vt 0.632652 0.638772
vt 0.632652 0.646615
vt 0.261792 1.000488
vt 0.261792 0.707353
vt 0.270447 0.707353
vt 0.270447 0.694824
vt 0.270447 0.698730
vt 0.261792 0.694824
vt 0.261792 0.698730
vt 0.261917 0.686795
vt 0.261917 0.553540
vt 0.261792 0.541605
vt 0.270447 0.541604
vt 0.270447 0.529484
vt 0.261792 0.529484
vt 0.261917 0.517549
vt 0.261917 0.463133
vt 0.261792 0.451198
vt 0.270447 0.451198
vt 0.248158 0.972044
vt 0.253687 0.978730
vt 0.260410 0.987041
vt 0.264384 0.992031
vt 0.265385 0.996850
vt 0.248158 0.735797
vt 0.253687 0.729110
vt 0.260410 0.720800
vt 0.264384 0.715811
vt 0.265385 0.710991
vt 0.316267 0.999023
vt 0.882652 0.638772
vt 0.374898 0.201727
vt 0.316267 0.453125
vt 0.573242 0.361228
vt 0.316267 0.711642
vt 0.316267 0.703189
vt 0.316267 0.549148
vt 0.316267 0.537266
vt 0.316267 0.460516
vt 0.316267 0.870744
vt 0.248158 0.866589
vt 0.248158 0.808614
vt 0.316267 0.800221
vt 0.248158 0.866589
vt 0.248138 0.866587
vt 0.248177 0.866591
vt 0.248183 0.862922
vt 0.248158 0.860649
vt 0.248158 0.814674
vt 0.248183 0.812355
vt 0.248158 0.808614
vt 0.248094 0.808640
vt 0.248158 0.808615
vt 0.157350 0.694824
vt 0.152395 0.682888
vt 0.152395 0.686795
vt 0.163758 0.682888
vt 0.163758 0.686795
vt 0.163682 0.693114
vt 0.175122 0.682888
vt 0.175122 0.686795
vt 0.169741 0.694824
vt 0.169273 0.694824
vt 0.163758 0.553540
vt 0.152395 0.553540
vt 0.156812 0.541604
vt 0.157350 0.541604
vt 0.163682 0.543314
vt 0.169273 0.541604
vt 0.175122 0.553540
vt 0.034191 0.698730
vt 0.034191 0.694824
vt 0.034132 0.682888
vt 0.034132 0.686795
vt 0.261917 0.553540
vt 0.034191 0.541605
vt 0.034132 0.553540
vt 0.261792 0.698730
vt 0.261792 0.694824
vt 0.261917 0.686795
vt 0.261917 0.682888
vt 0.261792 0.541605
s 0
usemtl Material
f 382/592/1 5/10/1 7/15/1 380/588/1
f 36/90/1 33/84/1 157/313/1 144/295/1
f 282/485/2 16/39/2 81/187/2 287/491/2
f 435/655/3 2/3/3 4/7/3 433/652/3
f 435/655/3 9/20/3 243/437/3 469/698/3
f 420/638/2 382/591/2 12/24/2 255/454/2
f 379/587/3 9/20/3 11/23/3 381/590/3
f 1/2/1 3/6/1 62/150/1 60/144/1
f 434/653/1 12/25/1 10/21/1 436/656/1
f 438/660/4 437/658/4 18/41/4 23/55/4
f 386/598/2 383/593/2 17/40/2 22/53/2
f 19/44/5 25/61/5 249/446/5 247/443/5
f 19/45/5 13/27/5 15/33/5 20/46/5
f 24/56/6 14/29/6 16/37/6 21/50/6
f 385/597/4 384/595/4 14/30/4 24/57/4
f 7/15/1 5/10/1 68/162/1 50/123/1
f 19/43/1 20/47/1 112/240/1 109/234/1
f 257/457/6 49/122/6 69/164/6 265/468/6
f 22/53/6 17/40/6 246/442/6 248/445/6
f 387/599/2 386/598/2 22/53/2 28/70/2
f 26/63/3 25/60/3 119/253/3 123/259/3
f 440/664/4 439/662/4 29/71/4 35/89/4
f 390/604/2 387/599/2 28/70/2 34/87/2
f 37/94/5 2/4/5 240/430/5 239/428/5
f 31/79/5 25/62/5 26/64/5 32/80/5
f 36/91/6 30/73/6 27/67/6 33/85/6
f 389/603/4 388/601/4 30/74/4 36/92/4
f 195/376/7 53/129/7 52/126/7 51/124/7
f 31/77/1 32/81/1 162/324/1 160/319/1
f 102/223/8 104/226/8 489/720/8 492/725/8
f 31/78/5 37/95/5 239/429/5 251/449/5
f 391/605/2 390/604/2 34/87/2 40/104/2
f 437/657/3 15/34/3 75/177/3 445/671/3
f 433/651/4 441/666/4 41/105/4 11/22/4
f 379/586/2 391/605/2 40/104/2 9/19/2
f 434/653/1 1/2/1 242/435/1 468/697/1
f 2/4/5 37/94/5 38/97/5 4/8/5
f 8/16/6 42/107/6 39/101/6 6/12/6
f 381/589/4 392/607/4 42/108/4 8/17/4
f 384/594/3 18/42/3 83/192/3 396/612/3
f 380/588/1 7/15/1 50/123/1 393/608/1
f 253/452/2 1/1/2 60/145/2 260/461/2
f 258/458/5 59/143/5 63/151/5 262/464/5
f 388/600/3 29/72/3 131/275/3 402/620/3
f 27/68/3 30/75/3 89/199/3 128/270/3
f 25/61/2 19/44/2 109/235/2 119/252/2
f 21/52/2 27/69/2 128/269/2 105/228/2
f 392/606/3 41/106/3 183/361/3 408/626/3
f 39/102/3 42/109/3 137/282/3 180/356/3
f 37/95/2 31/78/2 160/320/2 170/337/2
f 33/86/2 39/103/2 180/355/2 157/314/2
f 436/656/1 10/21/1 55/134/1 442/667/1
f 440/663/1 35/88/1 151/306/1 452/680/1
f 15/35/3 13/26/3 72/170/3 75/176/3
f 136/281/6 142/292/6 156/312/6 179/354/6
f 441/665/3 38/98/3 174/345/3 457/685/3
f 169/336/5 159/318/5 164/327/5 172/342/5
f 406/624/4 405/623/4 143/293/4 135/280/4
f 24/58/1 21/51/1 105/227/1 96/212/1
f 389/602/1 36/93/1 144/294/1 403/621/1
f 438/659/1 23/54/1 101/222/1 446/673/1
f 88/198/6 94/209/6 106/229/6 129/271/6
f 439/661/3 26/65/3 123/260/3 451/679/3
f 215/400/9 66/158/9 65/154/9 64/153/9
f 118/251/5 108/233/5 111/239/5 121/257/5
f 455/683/4 454/682/4 150/305/4 184/362/4
f 400/618/4 399/617/4 95/210/4 87/197/4
f 38/99/3 37/96/3 170/338/3 174/344/3
f 385/596/1 24/59/1 96/211/1 397/614/1
f 270/473/10 195/377/10 51/124/10 256/456/10
f 43/111/11 47/120/11 46/116/11 45/115/11
f 44/113/12 48/121/12 46/117/12 47/119/12
f 49/122/13 51/125/13 52/127/13 54/133/13
f 394/610/14 53/129/14 195/378/14 413/631/14
f 50/123/15 54/132/15 52/128/15 53/130/15
f 306/513/4 224/413/4 235/424/4 307/514/4
f 443/669/16 57/140/16 205/388/16 462/690/16
f 55/134/17 58/141/17 56/135/17 57/138/17
f 62/150/18 64/152/18 65/155/18 67/159/18
f 305/512/19 220/408/19 76/178/19 297/503/19
f 63/151/20 67/161/20 65/156/20 66/157/20
f 74/175/21 76/179/21 77/180/21 79/185/21
f 467/695/22 229/418/22 86/196/22 444/670/22
f 75/176/23 79/185/23 77/181/23 78/183/23
f 229/418/24 234/423/24 85/195/24 86/196/24
f 83/192/25 86/196/25 85/195/25 84/193/25
f 87/197/26 90/201/26 91/203/26 93/208/26
f 88/198/11 92/207/11 91/204/11 90/202/11
f 89/200/12 93/208/12 91/205/12 92/206/12
f 94/209/13 97/214/13 98/215/13 100/220/13
f 95/210/27 99/219/27 98/216/27 97/213/27
f 96/212/15 100/220/15 98/217/15 99/218/15
f 401/619/3 132/277/3 497/733/3 504/742/3
f 449/677/28 448/676/28 507/746/28 503/741/28
f 101/221/17 104/226/17 102/223/17 103/225/17
f 111/239/20 114/244/20 115/245/20 117/250/20
f 112/241/18 116/248/18 115/246/18 114/243/18
f 113/242/29 117/249/29 115/247/29 116/248/29
f 121/257/21 124/262/21 125/263/21 127/268/21
f 122/258/30 126/267/30 125/264/30 124/261/30
f 123/259/23 127/268/23 125/265/23 126/266/23
f 134/279/31 450/678/31 508/748/31 499/735/31
f 131/275/25 134/279/25 133/278/25 132/276/25
f 448/676/32 447/675/32 506/744/32 507/746/32
f 135/280/26 138/284/26 139/286/26 141/291/26
f 136/281/11 140/290/11 139/287/11 138/285/11
f 137/283/12 141/291/12 139/288/12 140/289/12
f 142/292/13 145/297/13 146/298/13 148/303/13
f 143/293/27 147/302/27 146/299/27 145/296/27
f 144/295/15 148/303/15 146/300/15 147/301/15
f 149/304/33 152/307/33 153/308/33 155/311/33
f 150/305/34 154/310/34 153/308/34 152/307/34
f 151/306/17 155/311/17 153/308/17 154/309/17
f 162/325/18 165/328/18 166/329/18 168/334/18
f 163/326/29 167/332/29 166/330/29 165/328/29
f 164/327/20 168/335/20 166/331/20 167/333/20
f 172/342/21 175/347/21 176/348/21 178/353/21
f 173/343/30 177/352/30 176/349/30 175/346/30
f 174/344/23 178/353/23 176/350/23 177/351/23
f 182/360/35 185/364/35 186/365/35 188/367/35
f 183/361/25 187/366/25 186/365/25 185/363/25
f 184/362/36 188/367/36 186/365/36 187/366/36
f 419/637/4 409/627/4 194/375/4 266/469/4
f 256/455/37 51/125/37 49/122/37 257/457/37
f 393/608/38 50/123/38 53/131/38 394/609/38
f 199/382/39 210/393/39 56/136/39 58/142/39
f 60/144/40 62/150/40 67/160/40 61/146/40
f 61/147/41 67/161/41 63/151/41 59/143/41
f 50/123/42 68/162/42 70/165/42 54/132/42
f 54/133/43 70/166/43 69/164/43 49/122/43
f 442/667/44 55/134/44 57/139/44 443/668/44
f 476/707/4 458/686/4 204/387/4 278/481/4
f 286/490/45 71/169/45 73/172/45 295/500/45
f 295/499/46 73/173/46 72/171/46 296/501/46
f 220/407/47 78/184/47 77/182/47 76/178/47
f 297/502/48 76/179/48 74/175/48 298/504/48
f 287/491/49 81/187/49 82/189/49 299/506/49
f 299/505/50 82/190/50 80/186/50 300/507/50
f 307/514/4 235/424/4 230/419/4 308/515/4
f 205/388/51 57/140/51 56/137/51 210/394/51
f 225/414/52 84/194/52 85/195/52 234/423/52
f 444/670/53 86/196/53 83/192/53 445/671/53
f 71/169/54 74/175/54 79/185/54 73/174/54
f 73/174/55 79/185/55 75/176/55 72/170/55
f 43/111/56 80/186/56 82/191/56 47/120/56
f 47/120/57 82/191/57 81/188/57 44/112/57
f 190/369/58 45/114/58 46/118/58 48/121/58
f 395/611/59 48/121/59 44/113/59 396/612/59
f 87/197/60 95/210/60 97/213/60 90/201/60
f 90/202/37 97/214/37 94/209/37 88/198/37
f 397/614/38 96/211/38 99/219/38 398/615/38
f 398/615/61 99/219/61 95/210/61 399/617/61
f 96/212/42 105/227/42 107/230/42 100/220/42
f 100/220/43 107/230/43 106/229/43 94/209/43
f 109/234/40 112/240/40 114/244/40 110/236/40
f 110/236/41 114/244/41 111/239/41 108/233/41
f 446/672/62 101/221/62 103/224/62 447/674/62
f 450/678/63 449/677/63 503/741/63 508/748/63
f 108/233/45 118/251/45 120/254/45 110/237/45
f 110/238/46 120/255/46 119/252/46 109/235/46
f 113/242/64 122/258/64 124/261/64 117/249/64
f 117/250/48 124/262/48 121/257/48 111/239/48
f 105/228/49 128/269/49 130/272/49 107/231/49
f 107/232/50 130/273/50 129/271/50 106/229/50
f 132/276/65 133/278/65 498/734/65 497/732/65
f 447/674/66 103/224/66 494/729/66 506/745/66
f 104/226/1 398/616/1 501/738/1 489/720/1
f 450/678/53 134/279/53 131/275/53 451/679/53
f 118/251/54 121/257/54 127/268/54 120/256/54
f 120/256/55 127/268/55 123/259/55 119/253/55
f 88/198/56 129/271/56 130/274/56 92/207/56
f 92/207/57 130/274/57 128/270/57 89/199/57
f 400/618/67 87/197/67 93/208/67 401/619/67
f 401/619/59 93/208/59 89/200/59 402/620/59
f 135/280/60 143/293/60 145/296/60 138/284/60
f 138/285/37 145/297/37 142/292/37 136/281/37
f 403/621/38 144/294/38 147/302/38 404/622/38
f 404/622/61 147/302/61 143/293/61 405/623/61
f 144/295/42 157/313/42 158/315/42 148/303/42
f 148/303/43 158/315/43 156/312/43 142/292/43
f 160/319/40 162/324/40 168/335/40 161/321/40
f 161/321/41 168/335/41 164/327/41 159/318/41
f 452/680/62 151/306/62 154/310/62 453/681/62
f 453/681/68 154/310/68 150/305/68 454/682/68
f 159/318/45 169/336/45 171/339/45 161/322/45
f 161/323/46 171/340/46 170/337/46 160/320/46
f 163/326/64 173/343/64 175/346/64 167/332/64
f 167/333/48 175/347/48 172/342/48 164/327/48
f 157/314/49 180/355/49 181/357/49 158/316/49
f 158/317/50 181/358/50 179/354/50 156/312/50
f 149/304/4 182/360/4 188/367/4 152/307/4
f 152/307/4 188/367/4 184/362/4 150/305/4
f 455/683/69 184/362/69 187/366/69 456/684/69
f 456/684/53 187/366/53 183/361/53 457/685/53
f 169/336/54 172/342/54 178/353/54 171/341/54
f 171/341/55 178/353/55 174/344/55 170/338/55
f 136/281/56 179/354/56 181/359/56 140/290/56
f 140/290/57 181/359/57 180/356/57 137/282/57
f 406/624/67 135/280/67 141/291/67 407/625/67
f 407/625/59 141/291/59 137/283/59 408/626/59
f 16/38/3 14/31/3 44/112/3 81/188/3
f 200/383/70 209/392/70 211/395/70 203/386/70
f 203/386/71 211/395/71 212/396/71 202/385/71
f 202/385/72 212/396/72 213/397/72 201/384/72
f 201/384/73 213/397/73 210/393/73 199/382/73
f 209/392/74 204/387/74 206/389/74 211/395/74
f 211/395/75 206/389/75 207/390/75 212/396/75
f 212/396/76 207/390/76 208/391/76 213/398/76
f 213/398/77 208/391/77 205/388/77 210/394/77
f 235/424/78 224/413/78 226/415/78 238/427/78
f 238/427/79 226/415/79 227/416/79 237/426/79
f 237/426/80 227/416/80 228/417/80 236/425/80
f 236/425/81 228/417/81 225/414/81 234/423/81
f 230/419/82 235/424/82 238/427/82 233/422/82
f 233/422/83 238/427/83 237/426/83 232/421/83
f 232/421/84 237/426/84 236/425/84 231/420/84
f 231/420/85 236/425/85 234/423/85 229/418/85
f 266/469/86 194/375/86 196/379/86 267/470/86
f 267/470/87 196/379/87 197/380/87 268/471/87
f 268/471/88 197/380/88 198/381/88 269/472/88
f 269/472/89 198/381/89 195/377/89 270/473/89
f 409/627/90 200/383/90 203/386/90 410/628/90
f 410/628/91 203/386/91 202/385/91 411/629/91
f 411/629/92 202/385/92 201/384/92 412/630/92
f 412/630/93 201/384/93 199/382/93 413/631/93
f 458/686/94 214/399/94 216/403/94 459/687/94
f 459/687/95 216/403/95 217/404/95 460/688/95
f 460/688/96 217/404/96 218/405/96 461/689/96
f 461/689/97 218/405/97 215/402/97 462/690/97
f 292/496/98 219/406/98 221/410/98 302/509/98
f 302/509/99 221/410/99 222/411/99 303/510/99
f 303/510/100 222/411/100 223/412/100 304/511/100
f 304/511/101 223/412/101 220/408/101 305/512/101
f 463/691/102 230/419/102 233/422/102 464/692/102
f 464/692/103 233/422/103 232/421/103 465/693/103
f 465/693/104 232/421/104 231/420/104 466/694/104
f 466/694/105 231/420/105 229/418/105 467/695/105
f 414/632/106 189/368/106 191/372/106 415/633/106
f 415/633/107 191/372/107 192/373/107 416/634/107
f 416/634/108 192/373/108 193/374/108 417/635/108
f 417/635/109 193/374/109 190/370/109 418/636/109
f 418/636/110 190/370/110 48/121/110 395/611/110
f 475/706/2 468/696/2 242/436/2 279/482/2
f 471/702/2 470/701/2 245/441/2 247/443/2
f 472/703/2 471/702/2 247/443/2 249/446/2
f 473/704/2 472/703/2 249/446/2 251/449/2
f 474/705/2 473/704/2 251/449/2 239/429/2
f 469/699/2 474/705/2 239/429/2 240/431/2
f 40/104/6 34/87/6 252/451/6 244/439/6
f 281/484/5 13/28/5 245/441/5 293/497/5
f 28/70/6 22/53/6 248/445/6 250/448/6
f 25/62/5 31/79/5 251/450/5 249/447/5
f 13/27/5 19/45/5 247/444/5 245/440/5
f 255/454/6 12/24/6 241/433/6 280/483/6
f 9/19/6 40/104/6 244/439/6 243/438/6
f 34/87/6 28/70/6 250/448/6 252/451/6
f 283/486/6 255/454/6 280/483/6 294/498/6
f 1/1/5 253/452/5 279/482/5 242/436/5
f 478/709/2 475/706/2 279/482/2 293/497/2
f 218/405/101 274/477/101 275/478/101 215/401/101
f 217/404/100 273/476/100 274/477/100 218/405/100
f 216/403/99 272/475/99 273/476/99 217/404/99
f 214/399/98 271/474/98 272/475/98 216/403/98
f 290/494/89 269/472/89 270/473/89 291/495/89
f 289/493/88 268/471/88 269/472/88 290/494/88
f 288/492/87 267/470/87 268/471/87 289/493/87
f 419/637/1 266/469/1 315/522/1 423/641/1
f 209/392/4 277/480/4 278/481/4 204/387/4
f 70/167/50 264/466/50 265/468/50 69/164/50
f 68/163/49 263/465/49 264/467/49 70/168/49
f 66/157/48 261/462/48 262/464/48 63/151/48
f 61/148/46 259/459/46 260/461/46 60/145/46
f 59/143/45 258/458/45 259/460/45 61/149/45
f 267/470/111 288/492/111 369/576/111 364/571/111
f 284/488/37 256/455/37 257/457/37 285/489/37
f 309/516/86 314/521/86 365/572/86 370/577/86
f 215/401/19 275/478/19 261/463/19 66/158/19
f 200/383/4 276/479/4 277/480/4 209/392/4
f 291/495/112 270/473/112 256/456/112 284/487/112
f 286/490/5 258/458/5 262/464/5 298/504/5
f 281/484/2 253/452/2 260/461/2 296/501/2
f 285/489/6 257/457/6 265/468/6 300/507/6
f 421/639/2 420/638/2 255/454/2 283/486/2
f 5/11/2 254/453/2 263/465/2 68/163/2
f 383/593/2 421/639/2 283/486/2 17/40/2
f 43/111/6 285/489/6 300/507/6 80/186/6
f 13/28/2 281/484/2 296/501/2 72/171/2
f 71/169/5 286/490/5 298/504/5 74/175/5
f 190/371/112 291/495/112 284/487/112 45/114/112
f 414/632/4 422/640/4 301/508/4 189/368/4
f 45/115/37 284/488/37 285/489/37 43/111/37
f 463/691/4 477/708/4 308/515/4 230/419/4
f 189/368/86 301/508/86 288/492/86 191/372/86
f 191/372/87 288/492/87 289/493/87 192/373/87
f 192/373/88 289/493/88 290/494/88 193/374/88
f 193/374/89 290/494/89 291/495/89 190/371/89
f 470/701/2 478/709/2 293/497/2 245/441/2
f 17/40/6 283/486/6 294/498/6 246/442/6
f 253/452/5 281/484/5 293/497/5 279/482/5
f 274/477/101 304/511/101 305/512/101 275/478/101
f 273/476/100 303/510/100 304/511/100 274/477/100
f 272/475/99 302/509/99 303/510/99 273/476/99
f 345/552/4 339/546/4 349/556/4 354/561/4
f 334/541/4 330/537/4 339/546/4 345/552/4
f 264/466/50 299/505/50 300/507/50 265/468/50
f 263/465/113 287/491/113 299/506/113 264/467/113
f 261/462/48 297/502/48 298/504/48 262/464/48
f 259/459/46 295/499/46 296/501/46 260/461/46
f 258/458/45 286/490/45 295/500/45 259/460/45
f 275/478/19 305/512/19 297/503/19 261/463/19
f 272/475/114 271/474/114 359/566/114 324/531/114
f 254/453/2 282/485/2 287/491/2 263/465/2
f 266/469/115 267/470/115 364/571/115 315/522/115
f 476/707/1 278/481/1 355/562/1 479/710/1
f 288/492/116 301/508/116 310/517/116 369/576/116
f 292/496/117 302/509/117 320/527/117 374/581/117
f 278/481/1 277/480/1 344/551/1 355/562/1
f 277/480/1 276/479/1 335/542/1 344/551/1
f 477/708/3 292/496/3 374/581/3 488/719/3
f 484/715/4 483/714/4 354/561/4 349/556/4
f 302/509/118 272/475/118 324/531/118 320/527/118
f 422/640/3 306/513/3 329/536/3 432/650/3
f 360/567/98 375/582/98 319/526/98 325/532/98
f 306/513/3 307/514/3 340/547/3 329/536/3
f 307/514/3 308/515/3 350/557/3 340/547/3
f 320/527/119 324/531/119 326/533/119 323/530/119
f 323/530/120 326/533/120 327/534/120 322/529/120
f 322/529/121 327/534/121 328/535/121 321/528/121
f 321/528/122 328/535/122 325/532/122 319/526/122
f 360/567/123 325/532/123 328/535/123 363/570/123
f 363/570/124 328/535/124 327/534/124 362/569/124
f 362/569/125 327/534/125 326/533/125 361/568/125
f 361/568/126 326/533/126 324/531/126 359/566/126
f 315/522/127 364/571/127 366/573/127 318/525/127
f 318/525/128 366/573/128 367/574/128 317/524/128
f 317/524/129 367/574/129 368/575/129 316/523/129
f 316/523/130 368/575/130 365/572/130 314/521/130
f 345/552/131 354/561/131 356/563/131 348/555/131
f 348/555/132 356/563/132 357/564/132 347/554/132
f 347/554/133 357/564/133 358/565/133 346/553/133
f 346/553/134 358/565/134 355/562/134 344/551/134
f 479/710/134 355/562/134 358/565/134 480/711/134
f 480/711/133 358/565/133 357/564/133 481/712/133
f 481/712/132 357/564/132 356/563/132 482/713/132
f 482/713/131 356/563/131 354/561/131 483/714/131
f 423/641/134 315/522/134 318/525/134 424/642/134
f 424/642/133 318/525/133 317/524/133 425/643/133
f 425/643/135 317/524/135 316/523/135 426/644/135
f 426/644/131 316/523/131 314/521/131 427/645/131
f 334/541/131 345/552/131 348/555/131 336/543/131
f 336/543/132 348/555/132 347/554/132 337/544/132
f 337/544/133 347/554/133 346/553/133 338/545/133
f 338/545/134 346/553/134 344/551/134 335/542/134
f 364/571/136 369/576/136 371/578/136 366/573/136
f 366/573/137 371/578/137 372/579/137 367/574/137
f 367/574/138 372/579/138 373/580/138 368/575/138
f 368/575/139 373/580/139 370/577/139 365/572/139
f 428/646/140 309/516/140 311/518/140 429/647/140
f 429/647/141 311/518/141 312/519/141 430/648/141
f 430/648/142 312/519/142 313/520/142 431/649/142
f 431/649/143 313/520/143 310/517/143 432/650/143
f 484/715/144 349/556/144 351/558/144 485/716/144
f 485/716/145 351/558/145 352/559/145 486/717/145
f 486/717/146 352/559/146 353/560/146 487/718/146
f 487/718/147 353/560/147 350/557/147 488/719/147
f 309/516/148 370/577/148 373/580/148 311/518/148
f 311/518/149 373/580/149 372/579/149 312/519/149
f 312/519/150 372/579/150 371/578/150 313/520/150
f 313/520/151 371/578/151 369/576/151 310/517/151
f 374/581/152 320/527/152 323/530/152 376/583/152
f 376/583/153 323/530/153 322/529/153 377/584/153
f 377/584/154 322/529/154 321/528/154 378/585/154
f 378/585/155 321/528/155 319/526/155 375/582/155
f 340/547/156 350/557/156 353/560/156 343/550/156
f 343/550/157 353/560/157 352/559/157 342/549/157
f 342/549/158 352/559/158 351/558/158 341/548/158
f 341/548/159 351/558/159 349/556/159 339/546/159
f 329/536/156 340/547/156 343/550/156 331/538/156
f 331/538/160 343/550/160 342/549/160 332/539/160
f 332/539/161 342/549/161 341/548/161 333/540/161
f 333/540/162 341/548/162 339/546/162 330/537/162
f 428/646/4 427/645/4 314/521/4 309/516/4
f 330/537/4 334/541/4 427/645/4 428/646/4
f 331/538/147 431/649/147 432/650/147 329/536/147
f 332/539/146 430/648/146 431/649/146 331/538/146
f 333/540/163 429/647/163 430/648/163 332/539/163
f 330/537/144 428/646/144 429/647/144 333/540/144
f 336/543/131 426/644/131 427/645/131 334/541/131
f 337/544/132 425/643/132 426/644/132 336/543/132
f 338/545/133 424/642/133 425/643/133 337/544/133
f 335/542/134 423/641/134 424/642/134 338/545/134
f 301/508/3 422/640/3 432/650/3 310/517/3
f 224/413/4 306/513/4 422/640/4 414/632/4
f 16/39/2 282/485/2 421/639/2 383/593/2
f 282/485/2 254/453/2 420/638/2 421/639/2
f 276/479/1 419/637/1 423/641/1 335/542/1
f 225/414/164 418/636/164 395/611/164 84/194/164
f 228/417/165 417/635/165 418/636/165 225/414/165
f 227/416/166 416/634/166 417/635/166 228/417/166
f 226/415/167 415/633/167 416/634/167 227/416/167
f 224/413/168 414/632/168 415/633/168 226/415/168
f 198/381/169 412/630/169 413/631/169 195/378/169
f 197/380/170 411/629/170 412/630/170 198/381/170
f 196/379/171 410/628/171 411/629/171 197/380/171
f 194/375/172 409/627/172 410/628/172 196/379/172
f 185/364/173 407/625/173 408/626/173 183/361/173
f 182/360/174 406/624/174 407/625/174 185/364/174
f 155/311/175 404/622/175 405/623/175 149/304/175
f 151/306/176 403/621/176 404/622/176 155/311/176
f 132/277/173 401/619/173 402/620/173 131/275/173
f 103/225/177 102/223/177 492/725/177 494/728/177
f 398/615/178 399/617/178 502/740/178 501/737/178
f 101/221/176 397/613/176 398/616/176 104/226/176
f 84/194/173 395/611/173 396/612/173 83/192/173
f 55/134/176 393/608/176 394/609/176 58/141/176
f 276/479/4 200/383/4 409/627/4 419/637/4
f 58/142/179 394/610/179 413/631/179 199/382/179
f 23/54/1 385/596/1 397/614/1 101/222/1
f 399/617/180 400/618/180 505/743/180 502/740/180
f 35/88/1 389/602/1 403/621/1 151/306/1
f 182/360/4 149/304/4 405/623/4 406/624/4
f 42/110/3 392/606/3 408/626/3 137/283/3
f 30/76/3 388/600/3 402/620/3 89/200/3
f 10/21/1 380/588/1 393/608/1 55/134/1
f 14/32/3 384/594/3 396/612/3 44/113/3
f 11/22/4 41/105/4 392/607/4 381/589/4
f 6/13/2 39/103/2 391/605/2 379/586/2
f 39/103/2 33/86/2 390/604/2 391/605/2
f 35/89/4 29/71/4 388/601/4 389/603/4
f 33/86/2 27/69/2 387/599/2 390/604/2
f 27/69/2 21/52/2 386/598/2 387/599/2
f 23/55/4 18/41/4 384/595/4 385/597/4
f 21/52/2 16/39/2 383/593/2 386/598/2
f 6/14/3 379/587/3 381/590/3 8/18/3
f 254/453/2 5/11/2 382/591/2 420/638/2
f 12/25/1 382/592/1 380/588/1 10/21/1
f 376/583/143 487/718/143 488/719/143 374/581/143
f 377/584/142 486/717/142 487/718/142 376/583/142
f 378/585/141 485/716/141 486/717/141 377/584/141
f 375/582/140 484/715/140 485/716/140 378/585/140
f 363/570/131 482/713/131 483/714/131 360/567/131
f 362/569/181 481/712/181 482/713/181 363/570/181
f 361/568/133 480/711/133 481/712/133 362/569/133
f 359/566/134 479/710/134 480/711/134 361/568/134
f 375/582/4 360/567/4 483/714/4 484/715/4
f 308/515/3 477/708/3 488/719/3 350/557/3
f 271/474/1 476/707/1 479/710/1 359/566/1
f 246/442/2 294/498/2 478/709/2 470/701/2
f 219/406/4 292/496/4 477/708/4 463/691/4
f 294/498/2 280/483/2 475/706/2 478/709/2
f 243/438/2 244/439/2 474/705/2 469/699/2
f 244/439/2 252/451/2 473/704/2 474/705/2
f 252/451/2 250/448/2 472/703/2 473/704/2
f 250/448/2 248/445/2 471/702/2 472/703/2
f 248/445/2 246/442/2 470/701/2 471/702/2
f 280/483/2 241/433/2 468/696/2 475/706/2
f 223/412/182 466/694/182 467/695/182 220/409/182
f 222/411/183 465/693/183 466/694/183 223/412/183
f 221/410/184 464/692/184 465/693/184 222/411/184
f 219/406/185 463/691/185 464/692/185 221/410/185
f 208/391/186 461/689/186 462/690/186 205/388/186
f 207/390/187 460/688/187 461/689/187 208/391/187
f 206/389/188 459/687/188 460/688/188 207/390/188
f 204/387/189 458/686/189 459/687/189 206/389/189
f 177/352/190 456/684/190 457/685/190 174/345/190
f 173/343/191 455/683/191 456/684/191 177/352/191
f 165/328/192 453/681/192 454/682/192 163/326/192
f 162/325/193 452/680/193 453/681/193 165/328/193
f 126/267/190 450/678/190 451/679/190 123/260/190
f 122/258/191 449/677/191 450/678/191 126/267/191
f 116/248/192 447/675/192 448/676/192 113/242/192
f 112/241/193 446/673/193 447/675/193 116/248/193
f 78/184/190 444/670/190 445/671/190 75/177/190
f 271/474/4 214/399/4 458/686/4 476/707/4
f 62/150/193 442/667/193 443/668/193 64/152/193
f 220/409/194 467/695/194 444/670/194 78/184/194
f 64/153/195 443/669/195 462/690/195 215/402/195
f 173/343/4 163/326/4 454/682/4 455/683/4
f 29/72/3 439/661/3 451/679/3 131/275/3
f 20/48/1 438/659/1 446/673/1 112/241/1
f 41/106/3 441/665/3 457/685/3 183/361/3
f 32/82/1 440/663/1 452/680/1 162/325/1
f 3/6/1 436/656/1 442/667/1 62/150/1
f 12/25/1 434/653/1 468/697/1 241/434/1
f 4/9/4 38/100/4 441/666/4 433/651/4
f 18/42/3 437/657/3 445/671/3 83/192/3
f 122/258/4 113/242/4 448/676/4 449/677/4
f 32/83/4 26/66/4 439/662/4 440/664/4
f 20/49/4 15/36/4 437/658/4 438/660/4
f 1/2/1 434/653/1 436/656/1 3/6/1
f 2/5/3 435/654/3 469/700/3 240/432/3
f 9/20/3 435/655/3 433/652/3 11/23/3
f 503/741/4 507/746/4 493/727/4 500/736/4
f 490/721/33 491/723/33 492/725/33 489/720/33
f 493/726/34 494/729/34 492/725/34 491/723/34
f 496/731/35 497/733/35 498/734/35 495/730/35
f 500/736/36 495/730/36 498/734/36 499/735/36
f 506/745/68 494/729/68 493/726/68 507/747/68
f 490/722/4 496/731/4 495/730/4 491/724/4
f 491/724/4 495/730/4 500/736/4 493/727/4
f 503/741/69 500/736/69 499/735/69 508/748/69
f 496/731/174 505/743/174 504/742/174 497/733/174
f 489/720/175 501/738/175 502/739/175 490/721/175
f 496/731/4 490/722/4 502/740/4 505/743/4
f 400/618/196 401/619/196 504/742/196 505/743/196
f 133/278/197 134/279/197 499/735/197 498/734/197
