# Blender 3.3.0
# www.blender.org
mtllib computer3.mtl
o Cube
v -0.917822 -1.000000 -0.746317
v -0.917822 -1.000000 1.000000
v 0.904240 -1.000000 1.000000
v 0.904240 -1.000000 -0.746317
v -0.917822 0.858901 -0.746317
v -0.917822 0.858901 1.000000
v 0.904240 0.858901 1.000000
v 0.904240 0.858901 -0.746317
v -0.917822 -0.885235 -0.746317
v -0.917822 -0.885235 1.000000
v 0.904240 -0.885235 1.000000
v 0.904240 -0.885235 -0.746317
v -0.917822 -0.204403 -0.746317
v -0.917822 -0.204403 1.000000
v 0.904240 -0.204403 1.000000
v 0.904240 -0.204403 -0.746317
v -0.917822 -0.076348 -0.746317
v -0.917822 -0.076348 1.000000
v 0.904240 -0.076348 1.000000
v 0.904240 -0.076348 -0.746317
v -0.917822 -0.256446 -0.746317
v -0.917822 -0.256446 1.000000
v 0.904240 -0.256446 1.000000
v 0.904240 -0.256446 -0.746317
v -0.917822 0.858901 -0.665982
v 0.904240 0.858901 -0.665982
v 0.904240 0.858901 0.919665
v -0.917822 0.858901 0.919665
v -0.917822 -0.256446 -0.665982
v -0.917822 -0.885235 -0.665982
v -0.917822 -0.885235 0.976303
v 0.904240 -0.885235 0.976303
v 0.904240 -0.256446 -0.665982
v 0.904240 -0.885235 -0.665982
v -0.917822 -0.076348 -0.665982
v -0.917822 -0.204403 -0.665982
v -0.917822 -0.124262 0.685161
v 0.904240 -0.124262 0.685161
v 0.904240 -0.076348 -0.665982
v 0.904240 -0.204403 -0.665982
v 1.000000 0.952975 -0.699291
v 0.952975 0.952975 -0.746317
v 0.952975 1.000000 -0.699291
v 0.993718 0.952975 -0.722773
v 0.993718 0.976456 -0.699291
v 0.987615 0.975463 -0.721779
v 0.952975 0.976456 -0.740034
v 0.976456 0.952975 -0.740034
v 0.975463 0.975463 -0.733932
v 0.976456 0.993718 -0.699291
v 0.952975 0.993718 -0.722773
v 0.975463 0.987615 -0.721779
v 0.952975 -1.000000 -0.746317
v 1.000000 -1.000000 -0.699291
v 0.976487 -1.000000 -0.740017
v 0.993700 -1.000000 -0.722804
v 1.000000 0.952975 0.952975
v 0.952975 1.000000 0.952975
v 0.952975 0.952975 1.000000
v 0.993718 0.976456 0.952975
v 0.993718 0.952975 0.976456
v 0.987615 0.975463 0.975463
v 0.952975 0.993718 0.976456
v 0.976456 0.993718 0.952975
v 0.975463 0.987615 0.975463
v 0.976456 0.952975 0.993718
v 0.952975 0.976456 0.993718
v 0.975463 0.975463 0.987615
v 1.000000 -1.000000 0.952975
v 0.952975 -1.000000 1.000000
v 0.993700 -1.000000 0.976487
v 0.976487 -1.000000 0.993700
v -1.000000 0.952975 -0.699291
v -0.952975 1.000000 -0.699291
v -0.952975 0.952975 -0.746317
v -0.993718 0.976456 -0.699291
v -0.993718 0.952975 -0.722773
v -0.987615 0.975463 -0.721779
v -0.952975 0.993718 -0.722773
v -0.976456 0.993718 -0.699291
v -0.975463 0.987615 -0.721779
v -0.976456 0.952975 -0.740034
v -0.952975 0.976456 -0.740034
v -0.975463 0.975463 -0.733932
v -1.000000 -1.000000 -0.699291
v -0.952975 -1.000000 -0.746317
v -0.993700 -1.000000 -0.722804
v -0.976487 -1.000000 -0.740017
v -1.000000 0.952975 0.952975
v -0.952975 0.952975 1.000000
v -0.952975 1.000000 0.952975
v -0.993718 0.952975 0.976456
v -0.993718 0.976456 0.952975
v -0.987615 0.975463 0.975463
v -0.952975 0.976456 0.993718
v -0.976456 0.952975 0.993718
v -0.975463 0.975463 0.987615
v -0.976456 0.993718 0.952975
v -0.952975 0.993718 0.976456
v -0.975463 0.987615 0.975463
v -0.952975 -1.000000 1.000000
v -1.000000 -1.000000 0.952975
v -0.976487 -1.000000 0.993700
v -0.993700 -1.000000 0.976487
v -0.917822 0.952975 1.000000
v -0.917822 1.000000 0.952975
v -0.917822 0.976487 0.993700
v -0.917822 0.993700 0.976487
v -0.917822 1.000000 -0.699291
v -0.917822 0.952975 -0.746317
v -0.917822 0.993700 -0.722804
v -0.917822 0.976487 -0.740017
v 0.904240 0.952975 -0.746317
v 0.904240 1.000000 -0.699291
v 0.904240 0.976487 -0.740017
v 0.904240 0.993700 -0.722804
v 0.904240 0.952975 1.000000
v 0.904240 1.000000 0.952975
v 0.904240 0.976487 0.993700
v 0.904240 0.993700 0.976487
v 1.000000 0.858901 -0.699291
v 0.952975 0.858901 -0.746317
v 0.993700 0.858901 -0.722804
v 0.976487 0.858901 -0.740017
v -1.000000 0.858901 0.952975
v -0.952975 0.858901 1.000000
v -0.993700 0.858901 0.976487
v -0.976487 0.858901 0.993700
v 0.952975 0.858901 1.000000
v 1.000000 0.858901 0.952975
v 0.976487 0.858901 0.993700
v 0.993700 0.858901 0.976487
v -0.952975 0.858901 -0.746317
v -1.000000 0.858901 -0.699291
v -0.976487 0.858901 -0.740017
v -0.993700 0.858901 -0.722804
v 0.952975 -0.885235 -0.746317
v 1.000000 -0.885235 -0.699291
v 0.976487 -0.885235 -0.740017
v 0.993700 -0.885235 -0.722804
v 1.000000 -0.885235 0.952975
v 0.952975 -0.885235 1.000000
v 0.993700 -0.885235 0.976487
v 0.976487 -0.885235 0.993700
v -1.000000 -0.885235 -0.699291
v -0.952975 -0.885235 -0.746317
v -0.993700 -0.885235 -0.722804
v -0.976487 -0.885235 -0.740017
v -0.952975 -0.885235 1.000000
v -1.000000 -0.885235 0.952975
v -0.976487 -0.885235 0.993700
v -0.993700 -0.885235 0.976487
v -0.952975 -0.204403 1.000000
v -1.000000 -0.204403 0.952975
v -0.976487 -0.204403 0.993700
v -0.993700 -0.204403 0.976487
v 1.000000 -0.204403 -0.699291
v 0.952975 -0.204403 -0.746317
v 0.993700 -0.204403 -0.722804
v 0.976487 -0.204403 -0.740017
v 0.952975 -0.204403 1.000000
v 1.000000 -0.204403 0.952975
v 0.976487 -0.204403 0.993700
v 0.993700 -0.204403 0.976487
v -0.952975 -0.204403 -0.746317
v -1.000000 -0.204403 -0.699291
v -0.976487 -0.204403 -0.740017
v -0.993700 -0.204403 -0.722804
v -1.000000 -0.076348 0.952975
v -0.952975 -0.076348 1.000000
v -0.993700 -0.076348 0.976487
v -0.976487 -0.076348 0.993700
v 0.952975 -0.076348 -0.746317
v 1.000000 -0.076348 -0.699291
v 0.976487 -0.076348 -0.740017
v 0.993700 -0.076348 -0.722804
v 1.000000 -0.076348 0.952975
v 0.952975 -0.076348 1.000000
v 0.993700 -0.076348 0.976487
v 0.976487 -0.076348 0.993700
v -1.000000 -0.076348 -0.699291
v -0.952975 -0.076348 -0.746317
v -0.993700 -0.076348 -0.722804
v -0.976487 -0.076348 -0.740017
v 0.952975 -0.256446 -0.746317
v 1.000000 -0.256446 -0.699291
v 0.976487 -0.256446 -0.740017
v 0.993700 -0.256446 -0.722804
v 1.000000 -0.256446 0.952975
v 0.952975 -0.256446 1.000000
v 0.993700 -0.256446 0.976487
v 0.976487 -0.256446 0.993700
v -1.000000 -0.256446 -0.699291
v -0.952975 -0.256446 -0.746317
v -0.993700 -0.256446 -0.722804
v -0.976487 -0.256446 -0.740017
v -1.000000 -0.256446 0.952975
v -0.952975 -0.256446 1.000000
v -0.993700 -0.256446 0.976487
v -0.976487 -0.256446 0.993700
v -0.917822 0.013789 0.872528
v -0.917822 0.107071 0.919665
v -0.917822 -0.000720 0.951344
v -0.917822 0.038999 0.896097
v -0.917822 0.073142 0.913350
v 0.904240 0.107071 0.919665
v 0.904240 0.013789 0.872528
v 0.904240 -0.000720 0.951344
v 0.904240 0.073142 0.913350
v 0.904240 0.038999 0.896097
v -0.917822 -0.325524 0.976303
v -0.917822 -0.256646 0.934861
v -0.917822 -0.256480 0.999963
v -0.917822 -0.299127 0.970751
v -0.917822 -0.273916 0.955582
v 0.904240 -0.256646 0.934861
v 0.904240 -0.325524 0.976303
v 0.904240 -0.256480 0.999963
v 0.904240 -0.273916 0.955582
v 0.904240 -0.299127 0.970751
v -0.917822 0.523287 0.919665
v 0.904240 0.523287 0.919665
v -0.154533 -1.000000 -0.746317
v -0.154533 -1.000000 1.000000
v -0.154533 0.858901 -0.746317
v -0.154533 0.858901 1.000000
v -0.154533 -0.885235 1.000000
v -0.154533 -0.885235 -0.746317
v -0.154533 0.858901 -0.665982
v -0.154533 0.858901 0.919665
v -0.154533 -0.885235 0.976303
v -0.154533 -0.885235 -0.665982
v -0.154533 -0.124262 0.685161
v -0.154533 -0.256446 -0.665982
v -0.154533 1.000000 0.952975
v -0.154533 0.993700 0.976487
v -0.154533 0.976487 0.993700
v -0.154533 0.952975 1.000000
v -0.154533 1.000000 -0.699291
v -0.154533 0.993700 -0.722804
v -0.154533 0.976487 -0.740017
v -0.154533 0.952975 -0.746317
v -0.154533 0.107071 0.919665
v -0.154533 0.073142 0.913350
v -0.154533 0.038999 0.896097
v -0.154533 0.013789 0.872528
v -0.154533 -0.256646 0.934861
v -0.154533 -0.273916 0.955582
v -0.154533 -0.299127 0.970751
v -0.154533 -0.325524 0.976303
v -0.154533 0.523287 0.919665
v -0.917822 0.353121 0.919665
v 0.904240 0.353121 0.919665
v -0.154533 0.353121 0.919665
v -0.917822 0.353121 0.933946
v -0.917822 0.375405 0.956229
v -0.917822 0.359648 0.949703
v -0.917822 0.501004 0.956229
v -0.917822 0.523287 0.933946
v -0.917822 0.516760 0.949703
v -0.176816 0.501004 0.956229
v -0.154533 0.523287 0.933946
v -0.161060 0.516760 0.949703
v -0.176816 0.375405 0.956229
v -0.154533 0.353121 0.933946
v -0.161060 0.359648 0.949703
v -0.917822 0.263615 -0.746317
v -0.917822 0.263615 1.000000
v 0.904240 0.263615 1.000000
v 0.904240 0.263615 -0.746317
v -0.917822 0.263615 -0.665982
v 0.904240 0.263615 -0.665982
v -0.952975 0.263615 1.000000
v -0.976487 0.263615 0.993700
v -0.993700 0.263615 0.976487
v -1.000000 0.263615 0.952975
v 1.000000 0.263615 -0.699291
v 0.993700 0.263615 -0.722804
v 0.976487 0.263615 -0.740017
v 0.952975 0.263615 -0.746317
v 0.952975 0.263615 1.000000
v 0.976487 0.263615 0.993700
v 0.993700 0.263615 0.976487
v 1.000000 0.263615 0.952975
v -0.952975 0.263615 -0.746317
v -0.976487 0.263615 -0.740017
v -0.993700 0.263615 -0.722804
v -1.000000 0.263615 -0.699291
v -0.154533 0.263615 -0.665982
v -0.917822 -0.290707 -0.746317
v -0.917822 -0.290707 1.000000
v 0.904240 -0.290707 1.000000
v 0.904240 -0.290707 -0.746317
v -0.917822 -0.290707 -0.665982
v 0.904240 -0.290707 -0.665982
v 1.000000 -0.290707 -0.699291
v 0.993700 -0.290707 -0.722804
v 0.976487 -0.290707 -0.740017
v 0.952975 -0.290707 -0.746317
v 0.952975 -0.290707 1.000000
v 0.976487 -0.290707 0.993700
v 0.993700 -0.290707 0.976487
v 1.000000 -0.290707 0.952975
v -0.952975 -0.290707 -0.746317
v -0.976487 -0.290707 -0.740017
v -0.993700 -0.290707 -0.722804
v -1.000000 -0.290707 -0.699291
v -0.952975 -0.290707 1.000000
v -0.976487 -0.290707 0.993700
v -0.993700 -0.290707 0.976487
v -1.000000 -0.290707 0.952975
v -0.154533 -0.290707 -0.665982
v -0.917822 -0.076348 -0.722677
v -0.917822 -0.204403 -0.722677
v 0.904240 -0.076348 -0.722677
v 0.904240 -0.204403 -0.722677
v -0.154533 -0.204403 -0.722677
v -0.917822 0.263615 -0.722677
v 0.904240 0.263615 -0.722677
v -0.154533 -0.076348 -0.722677
v -0.917822 -0.256446 -0.722677
v 0.904240 -0.256446 -0.722677
v -0.154533 -0.256446 -0.722677
v -0.154533 0.263615 -0.722677
vn -0.0000 -0.0000 -1.0000
vn -0.0000 -0.0000 1.0000
vn -0.0000 1.0000 -0.0000
vn 1.0000 -0.0000 -0.0000
vn -1.0000 -0.0000 -0.0000
vn -0.0000 -1.0000 -0.0000
vn -0.0000 0.8835 0.4684
vn 0.9318 0.2566 -0.2566
vn 0.6901 0.2178 -0.6901
vn 0.2566 0.2566 -0.9318
vn 0.2178 0.6901 -0.6901
vn 0.2566 0.9318 -0.2566
vn 0.6901 0.6901 -0.2178
vn 0.5774 0.5774 -0.5774
vn 0.9318 0.2566 0.2566
vn 0.6901 0.6901 0.2178
vn 0.2566 0.9318 0.2566
vn 0.2178 0.6901 0.6901
vn 0.2566 0.2566 0.9318
vn 0.6901 0.2178 0.6901
vn 0.5774 0.5774 0.5774
vn -0.9318 0.2566 -0.2566
vn -0.6901 0.6901 -0.2178
vn -0.2566 0.9318 -0.2566
vn -0.2178 0.6901 -0.6901
vn -0.2566 0.2566 -0.9318
vn -0.6901 0.2178 -0.6901
vn -0.5774 0.5774 -0.5774
vn -0.9318 0.2566 0.2566
vn -0.6901 0.2178 0.6901
vn -0.2566 0.2566 0.9318
vn -0.2178 0.6901 0.6901
vn -0.2566 0.9318 0.2566
vn -0.6901 0.6901 0.2178
vn -0.5774 0.5774 0.5774
vn 0.9659 -0.0000 -0.2588
vn 0.7071 -0.0000 -0.7071
vn 0.2588 -0.0000 -0.9659
vn -0.2586 -0.0000 0.9660
vn -0.7071 0.0001 0.7071
vn -0.9660 -0.0000 0.2586
vn 0.2588 -0.0000 0.9659
vn 0.7071 -0.0000 0.7071
vn 0.9659 -0.0000 0.2588
vn -0.2588 -0.0000 -0.9659
vn -0.7071 -0.0000 -0.7071
vn -0.9659 -0.0000 -0.2588
vn 0.0001 0.9660 0.2586
vn -0.0003 0.7071 0.7071
vn 0.0001 0.2586 0.9660
vn 0.2585 0.9660 -0.0000
vn 0.7071 0.7071 -0.0000
vn 0.9660 0.2585 -0.0000
vn -0.2585 0.9660 -0.0000
vn -0.7071 0.7071 -0.0000
vn -0.9660 0.2585 -0.0000
vn -0.0001 0.9660 -0.2586
vn 0.0002 0.7071 -0.7071
vn -0.0001 0.2586 -0.9660
vn -0.0000 0.9659 0.2588
vn -0.0000 0.7071 0.7071
vn -0.0000 0.2588 0.9659
vn 0.0001 0.9660 -0.2586
vn -0.0003 0.7071 -0.7071
vn 0.0001 0.2586 -0.9660
vn -0.0000 0.9659 -0.2588
vn -0.0000 0.7071 -0.7071
vn -0.0000 0.2588 -0.9659
vn -0.0001 0.9660 0.2586
vn 0.0002 0.7071 0.7071
vn -0.0001 0.2586 0.9660
vn 0.9660 -0.0000 -0.2586
vn 0.7071 0.0001 -0.7071
vn 0.2586 -0.0000 -0.9660
vn -0.2588 -0.0000 0.9659
vn -0.7071 -0.0000 0.7071
vn -0.9659 -0.0000 0.2588
vn 0.2586 -0.0000 0.9660
vn 0.7071 0.0001 0.7071
vn 0.9660 -0.0000 0.2586
vn -0.2586 -0.0000 -0.9660
vn -0.7071 0.0001 -0.7071
vn -0.9660 -0.0000 -0.2586
vn -0.0000 -0.1830 0.9831
vn -0.0000 -0.4510 0.8925
vn -0.0000 -0.6829 0.7305
vn -0.0000 -0.8051 0.5932
vn -0.0000 0.7682 0.6402
vn -0.0000 0.5156 0.8569
vn -0.0000 0.2058 0.9786
vn -0.0000 0.9239 0.3827
vn -0.0000 0.3827 0.9239
vn 0.3827 -0.0000 0.9239
vn 0.9239 -0.0000 0.3827
vn -0.0000 -0.3827 0.9239
vn -0.0000 -0.9239 0.3827
vt 0.902893 0.552919
vt 0.759917 0.596112
vt 0.019325 0.553140
vt 0.759917 0.705044
vt 0.903212 0.705044
vt 0.438877 0.553140
vt 0.903212 0.596112
vt 0.481538 0.552919
vt 0.952499 0.968392
vt 0.902893 0.968392
vt 0.019325 0.534419
vt 0.019325 0.968474
vt 0.017224 0.534419
vt 0.438877 0.968474
vt 0.481538 0.968392
vt 0.955898 0.521936
vt 0.952499 0.578570
vt 0.902893 0.578570
vt 0.019325 0.144727
vt 0.019325 0.578782
vt 0.017224 0.144727
vt 0.438877 0.578782
vt 0.955898 0.132113
vt 0.481538 0.578570
vt 0.902893 0.730739
vt 0.952499 0.730739
vt 0.019325 0.730900
vt 0.019325 0.296845
vt 0.047497 0.296845
vt 0.438877 0.730900
vt 0.017224 0.296845
vt 0.481538 0.730739
vt 0.955898 0.284282
vt 0.952499 0.759360
vt 0.902893 0.759360
vt 0.019325 0.325457
vt 0.019325 0.759511
vt 0.047497 0.325457
vt 0.017224 0.325457
vt 0.438877 0.759511
vt 0.955898 0.312903
vt 0.481538 0.759360
vt 0.902893 0.719107
vt 0.952499 0.719107
vt 0.019325 0.719272
vt 0.019325 0.285217
vt 0.438877 0.719272
vt 0.017224 0.285217
vt 0.481538 0.719107
vt 0.955898 0.272650
vt 0.952499 0.968392
vt 0.902893 0.968392
vt 0.481538 0.968392
vt 0.955898 0.521936
vt 0.017224 0.534419
vt 0.438877 0.968474
vt 0.019325 0.534419
vt 0.019325 0.968474
vt 0.952499 0.719107
vt 0.902893 0.719107
vt 0.902893 0.578570
vt 0.952499 0.578570
vt 0.019325 0.144727
vt 0.019325 0.578782
vt 0.017224 0.144727
vt 0.438877 0.578782
vt 0.955898 0.272650
vt 0.481538 0.719107
vt 0.955898 0.132113
vt 0.481538 0.578570
vt 0.952499 0.759360
vt 0.952499 0.730739
vt 0.019325 0.296845
vt 0.019325 0.730900
vt 0.047497 0.296845
vt 0.017224 0.296845
vt 0.438877 0.730900
vt 0.955898 0.312903
vt 0.955898 0.284282
vt 0.412373 0.541013
vt 0.470268 0.989418
vt 0.397232 0.511152
vt 0.418048 0.541013
vt 0.406598 0.511152
vt 0.412373 0.552530
vt 0.417808 0.552530
vt 0.406598 0.516281
vt 0.397232 0.521878
vt 0.470268 0.999929
vt 0.423737 0.541013
vt 0.459394 0.989418
vt 0.423737 0.552530
vt 0.465068 0.999929
vt 0.401711 0.521878
vt 0.401909 0.511152
vt 0.397232 0.516508
vt 0.401711 0.516281
vt 0.907045 0.596112
vt 0.470268 0.552919
vt 0.910743 0.599046
vt 0.412373 0.062702
vt 0.908894 0.596505
vt 0.423737 0.062702
vt 0.459394 0.552919
vt 0.910248 0.597579
vt 0.418055 0.062702
vt 0.013086 0.541013
vt 0.397232 0.134272
vt 0.450099 0.989493
vt 0.406598 0.134271
vt 0.013085 0.552530
vt 0.460927 0.989493
vt 0.001721 0.541013
vt 0.007651 0.552530
vt 0.460927 1.000000
vt 0.406598 0.129142
vt 0.397232 0.128915
vt 0.401909 0.134272
vt 0.401711 0.129142
vt 0.455506 0.989493
vt 0.397232 0.123545
vt 0.450099 1.000000
vt 0.455277 1.000000
vt 0.401711 0.123545
vt 0.910743 0.702111
vt 0.013086 0.062702
vt 0.907045 0.705044
vt 0.450099 0.553140
vt 0.910248 0.703578
vt 0.460927 0.553140
vt 0.001721 0.062702
vt 0.908894 0.704651
vt 0.455513 0.553140
vt 0.412951 0.541243
vt 0.017631 0.511152
vt 0.911022 0.989418
vt 0.008265 0.511152
vt 0.412951 0.552708
vt 0.418622 0.541243
vt 0.418382 0.552708
vt 0.008265 0.516281
vt 0.017631 0.516508
vt 0.012954 0.511152
vt 0.013152 0.516281
vt 0.921897 0.989418
vt 0.424308 0.541243
vt 0.017631 0.521878
vt 0.911022 0.999929
vt 0.916222 0.999929
vt 0.424308 0.552708
vt 0.013152 0.521878
vt 0.753454 0.599045
vt 0.412951 0.065090
vt 0.757152 0.596112
vt 0.911022 0.552919
vt 0.753950 0.597579
vt 0.418630 0.065090
vt 0.755303 0.596505
vt 0.921897 0.552919
vt 0.424308 0.065090
vt 0.013928 0.541243
vt 0.011231 0.989493
vt 0.017631 0.134272
vt 0.008257 0.541243
vt 0.008265 0.134272
vt 0.013928 0.552708
vt 0.008497 0.552708
vt 0.008265 0.129142
vt 0.017631 0.123545
vt 0.011231 1.000000
vt 0.000403 0.989493
vt 0.002571 0.541243
vt 0.002571 0.552708
vt 0.006053 1.000000
vt 0.013152 0.123545
vt 0.012954 0.134272
vt 0.017631 0.128915
vt 0.013152 0.129142
vt 0.757152 0.705044
vt 0.011231 0.553140
vt 0.753454 0.702111
vt 0.013928 0.065090
vt 0.755303 0.704651
vt 0.000403 0.553140
vt 0.002571 0.065090
vt 0.753950 0.703578
vt 0.008249 0.065090
vt 0.019325 0.989493
vt 0.024632 0.134272
vt 0.024632 0.123545
vt 0.019325 1.000000
vt 0.024632 0.128908
vt 0.024632 0.511152
vt 0.902893 0.989418
vt 0.024632 0.516515
vt 0.902893 0.999929
vt 0.024632 0.521878
vt 0.481538 0.989418
vt 0.387526 0.511152
vt 0.387526 0.521878
vt 0.481538 0.999929
vt 0.387526 0.516515
vt 0.438877 0.989493
vt 0.387526 0.134272
vt 0.438877 1.000000
vt 0.387526 0.123545
vt 0.387526 0.128908
vt 0.412373 0.517973
vt 0.470268 0.968392
vt 0.418055 0.517973
vt 0.459394 0.968392
vt 0.423737 0.517973
vt 0.013928 0.518307
vt 0.011231 0.968474
vt 0.008249 0.518307
vt 0.000403 0.968474
vt 0.002571 0.518307
vt 0.450099 0.968474
vt 0.013086 0.517973
vt 0.455513 0.968474
vt 0.001721 0.517973
vt 0.460927 0.968474
vt 0.911022 0.968392
vt 0.412951 0.518307
vt 0.424308 0.518307
vt 0.921897 0.968392
vt 0.418630 0.518307
vt 0.470268 0.578570
vt 0.412373 0.090810
vt 0.423737 0.090810
vt 0.459394 0.578570
vt 0.418055 0.090810
vt 0.013086 0.090810
vt 0.450099 0.578782
vt 0.460927 0.578782
vt 0.001721 0.090810
vt 0.455513 0.578782
vt 0.412951 0.093071
vt 0.911022 0.578570
vt 0.418630 0.093071
vt 0.921897 0.578570
vt 0.424308 0.093071
vt 0.011231 0.578782
vt 0.013928 0.093071
vt 0.002571 0.093071
vt 0.000403 0.578782
vt 0.008249 0.093071
vt 0.011231 0.730900
vt 0.013928 0.259064
vt 0.000403 0.730900
vt 0.002571 0.259064
vt 0.008249 0.259064
vt 0.412373 0.257555
vt 0.470268 0.730739
vt 0.418055 0.257555
vt 0.423737 0.257555
vt 0.459394 0.730739
vt 0.450099 0.730900
vt 0.013086 0.257555
vt 0.455513 0.730900
vt 0.460927 0.730900
vt 0.001721 0.257555
vt 0.911022 0.730739
vt 0.412951 0.259064
vt 0.921897 0.730739
vt 0.424308 0.259064
vt 0.418630 0.259064
vt 0.013928 0.290285
vt 0.011231 0.759511
vt 0.008249 0.290285
vt 0.002571 0.290285
vt 0.000403 0.759511
vt 0.470268 0.759360
vt 0.412373 0.288917
vt 0.423737 0.288917
vt 0.459394 0.759360
vt 0.418055 0.288917
vt 0.013086 0.288917
vt 0.450099 0.759511
vt 0.460927 0.759511
vt 0.001721 0.288917
vt 0.455513 0.759511
vt 0.412951 0.290285
vt 0.911022 0.759360
vt 0.418630 0.290285
vt 0.921897 0.759360
vt 0.424308 0.290285
vt 0.470268 0.719107
vt 0.412373 0.244809
vt 0.459394 0.719107
vt 0.423737 0.244809
vt 0.418055 0.244809
vt 0.013086 0.244809
vt 0.450099 0.719272
vt 0.001721 0.244809
vt 0.460927 0.719272
vt 0.455513 0.719272
vt 0.412951 0.246375
vt 0.911022 0.719107
vt 0.418630 0.246375
vt 0.424308 0.246375
vt 0.921897 0.719107
vt 0.013928 0.246375
vt 0.011231 0.719272
vt 0.008249 0.246375
vt 0.000403 0.719272
vt 0.002571 0.246375
vt 0.019325 0.319705
vt 0.019325 0.753760
vt 0.019325 0.340554
vt 0.019325 0.325457
vt 0.019325 0.774609
vt 0.019325 0.325457
vt 0.019325 0.323038
vt 0.019325 0.757093
vt 0.019325 0.325457
vt 0.019325 0.765861
vt 0.017224 0.340554
vt 0.047497 0.325457
vt 0.438877 0.774609
vt 0.047497 0.319705
vt 0.438877 0.753760
vt 0.017224 0.325457
vt 0.047497 0.325457
vt 0.047497 0.325457
vt 0.438877 0.765860
vt 0.047497 0.323038
vt 0.438877 0.757093
vt 0.019325 0.708409
vt 0.019325 0.274354
vt 0.019325 0.286872
vt 0.019325 0.285217
vt 0.019325 0.720927
vt 0.019325 0.285217
vt 0.019325 0.280467
vt 0.019325 0.714522
vt 0.019325 0.285217
vt 0.019325 0.719996
vt 0.017224 0.286872
vt 0.017224 0.285217
vt 0.438877 0.720927
vt 0.017224 0.274354
vt 0.438877 0.708409
vt 0.017224 0.285217
vt 0.017224 0.285217
vt 0.438877 0.719996
vt 0.017224 0.280467
vt 0.438877 0.714522
vt 0.019325 0.881934
vt 0.019325 0.447879
vt 0.017224 0.447879
vt 0.438877 0.881934
vt 0.726381 0.552919
vt 0.819945 0.596112
vt 0.195082 0.553140
vt 0.819945 0.705044
vt 0.726381 0.968392
vt 0.195082 0.968474
vt 0.195082 0.578782
vt 0.726381 0.578570
vt 0.726381 0.968392
vt 0.195082 0.968474
vt 0.195082 0.578782
vt 0.726381 0.578570
vt 0.195082 0.730900
vt 0.726381 0.719107
vt 0.176654 0.134272
vt 0.176654 0.128908
vt 0.195082 1.000000
vt 0.176654 0.123545
vt 0.195082 0.989493
vt 0.176654 0.511152
vt 0.176654 0.516515
vt 0.726381 0.999929
vt 0.176654 0.521878
vt 0.726381 0.989418
vt 0.195082 0.774609
vt 0.195082 0.765860
vt 0.195082 0.757093
vt 0.195082 0.753760
vt 0.195082 0.720927
vt 0.195082 0.719996
vt 0.195082 0.714522
vt 0.195082 0.708409
vt 0.195082 0.881934
vt 0.019325 0.838055
vt 0.019325 0.404000
vt 0.017224 0.404000
vt 0.438877 0.838055
vt 0.195082 0.838055
vt 0.019325 0.838055
vt 0.019325 0.404000
vt 0.019325 0.843801
vt 0.019325 0.409746
vt 0.019325 0.838055
vt 0.019325 0.405683
vt 0.019325 0.876188
vt 0.019325 0.442133
vt 0.019325 0.881934
vt 0.019325 0.447879
vt 0.019325 0.881934
vt 0.019325 0.446196
vt 0.189951 0.876188
vt 0.195082 0.881934
vt 0.194330 0.881092
vt 0.189951 0.843801
vt 0.195082 0.838055
vt 0.194330 0.838897
vt 0.952499 0.835343
vt 0.902893 0.835343
vt 0.019325 0.401414
vt 0.019325 0.835469
vt 0.017224 0.401414
vt 0.438877 0.835469
vt 0.955898 0.388887
vt 0.481538 0.835343
vt 0.902893 0.835343
vt 0.952499 0.835343
vt 0.481538 0.835343
vt 0.955898 0.388887
vt 0.011231 0.835469
vt 0.002571 0.373171
vt 0.000403 0.835469
vt 0.008249 0.373171
vt 0.013928 0.373171
vt 0.412373 0.372179
vt 0.418055 0.372179
vt 0.459394 0.835343
vt 0.423737 0.372179
vt 0.470268 0.835343
vt 0.450099 0.835469
vt 0.455513 0.835469
vt 0.001721 0.372179
vt 0.460927 0.835469
vt 0.013086 0.372179
vt 0.911022 0.835343
vt 0.424308 0.373171
vt 0.921897 0.835343
vt 0.418630 0.373171
vt 0.412951 0.373171
vt 0.726381 0.835343
vt 0.952499 0.711450
vt 0.902893 0.711450
vt 0.019325 0.277562
vt 0.019325 0.711617
vt 0.017224 0.277562
vt 0.438877 0.711617
vt 0.481538 0.711450
vt 0.955898 0.264993
vt 0.902893 0.711450
vt 0.952499 0.711450
vt 0.481538 0.711450
vt 0.955898 0.264993
vt 0.412373 0.236418
vt 0.418055 0.236418
vt 0.459394 0.711450
vt 0.423737 0.236418
vt 0.470268 0.711450
vt 0.450099 0.711617
vt 0.455513 0.711617
vt 0.001721 0.236418
vt 0.460927 0.711617
vt 0.013086 0.236418
vt 0.911022 0.711450
vt 0.424308 0.238022
vt 0.921897 0.711449
vt 0.418630 0.238022
vt 0.412951 0.238022
vt 0.011231 0.711617
vt 0.002571 0.238022
vt 0.000403 0.711617
vt 0.008249 0.238022
vt 0.013928 0.238022
vt 0.726381 0.711450
vt 0.952499 0.759360
vt 0.902893 0.759360
vt 0.952499 0.730739
vt 0.902893 0.730739
vt 0.481538 0.759360
vt 0.955898 0.312903
vt 0.481538 0.730739
vt 0.955898 0.284282
vt 0.726381 0.730739
vt 0.952499 0.835343
vt 0.902893 0.835343
vt 0.481538 0.835343
vt 0.955898 0.388887
vt 0.726381 0.759360
vt 0.952499 0.719107
vt 0.902893 0.719107
vt 0.955898 0.272650
vt 0.481538 0.719107
vt 0.726381 0.719107
vt 0.726381 0.835343
s 0
usemtl Material
f 133/223/1 75/136/1 110/194/1 5/10/1
f 2/3/2 10/20/2 149/243/2 101/180/2
f 109/193/3 74/135/3 91/163/3 106/189/3
f 129/218/2 59/109/2 117/203/2 7/14/2
f 4/8/1 12/24/1 137/228/1 53/99/1
f 121/208/4 41/80/4 57/107/4 130/219/4
f 102/182/5 150/244/5 145/238/5 85/153/5
f 86/155/1 146/239/1 9/18/1 1/1/1
f 225/357/1 242/376/1 113/198/1 8/15/1
f 226/358/2 238/371/2 105/188/2 6/12/2
f 8/15/1 113/198/1 42/81/1 122/209/1
f 70/128/2 142/234/2 11/22/2 3/6/2
f 270/416/1 8/15/1 122/209/1 280/430/1
f 223/354/6 4/7/6 3/5/6 224/356/6
f 225/357/6 8/15/6 26/53/6 229/361/6
f 285/436/1 133/223/1 5/10/1 267/410/1
f 21/44/4 13/26/4 36/72/4 29/59/4
f 296/454/4 186/289/4 189/293/4 303/463/4
f 277/426/4 121/208/4 130/219/4 284/435/4
f 268/412/2 6/12/2 126/214/2 273/421/2
f 281/431/2 129/218/2 7/14/2 269/414/2
f 276/425/5 125/213/5 134/224/5 288/440/5
f 239/372/3 109/193/3 106/189/3 235/367/3
f 85/152/6 87/156/6 88/158/6 86/154/6 1/2/6 2/4/6 101/179/6 103/183/6 104/186/6 102/181/6
f 4/7/6 53/98/6 55/102/6 56/105/6 54/100/6 69/125/6 71/129/6 72/132/6 70/127/6 3/5/6
f 54/101/4 138/229/4 141/233/4 69/126/4
f 6/12/2 105/188/2 90/162/2 126/214/2
f 224/355/2 227/359/2 10/20/2 2/3/2
f 125/213/5 89/161/5 73/134/5 134/224/5
f 223/353/1 228/360/1 12/24/1 4/8/1
f 14/27/2 18/37/2 170/269/2 153/248/2
f 154/249/5 169/268/5 181/283/5 166/264/5
f 161/258/2 178/279/2 19/40/2 15/30/2
f 157/253/4 174/274/4 177/278/4 162/259/4
f 267/409/4 5/9/4 25/51/4 271/418/4
f 165/263/1 182/284/1 17/35/1 13/25/1
f 15/29/5 19/38/5 208/324/5 207/321/5 38/75/5
f 16/32/1 20/42/1 173/273/1 158/254/1
f 22/45/2 14/27/2 153/248/2 198/304/2
f 186/289/4 157/253/4 162/259/4 189/293/4
f 24/49/1 16/32/1 158/254/1 185/288/1
f 194/299/1 165/263/1 13/25/1 21/43/1
f 293/449/5 12/23/5 34/69/5 295/453/5
f 190/294/2 161/258/2 15/30/2 23/47/2
f 227/359/3 11/22/3 32/66/3 231/363/3
f 13/26/4 17/34/4 35/71/4 36/72/4
f 311/473/5 197/303/5 193/298/5 307/468/5
f 291/445/2 22/45/2 198/304/2 308/469/2
f 300/459/2 190/294/2 23/47/2 292/447/2
f 293/448/1 24/49/1 185/288/1 299/458/1
f 304/464/1 194/299/1 21/43/1 290/443/1
f 197/303/5 154/249/5 166/264/5 193/298/5
f 289/441/1 229/361/1 26/53/1 272/419/1
f 18/36/4 14/28/4 37/73/4 201/308/4 203/313/4
f 23/48/5 15/31/5 38/76/5 216/339/5 218/344/5
f 35/71/5 271/418/5 318/484/5 313/475/5
f 6/11/4 268/411/4 18/36/4 203/313/4 202/310/4 252/387/4 221/350/4 28/57/4
f 289/441/3 272/419/3 319/486/3 324/494/3
f 312/474/1 234/366/1 33/68/1 295/452/1
f 14/28/4 22/46/4 213/334/4 212/331/4 37/73/4
f 19/39/5 269/413/5 7/13/5 27/55/5 222/351/5 253/388/5 206/318/5 208/323/5
f 251/385/2 230/362/2 28/58/2 221/349/2
f 247/381/7 233/365/7 37/74/7 212/333/7
f 228/360/3 9/18/3 30/61/3 232/364/3
f 20/41/5 16/33/5 40/79/5 39/78/5
f 11/21/5 292/446/5 23/48/5 218/344/5 217/342/5 32/65/5
f 226/358/6 6/12/6 28/58/6 230/362/6
f 270/415/5 20/41/5 39/78/5 272/420/5
f 16/33/5 24/50/5 33/67/5 40/79/5
f 290/442/4 21/44/4 29/59/4 294/451/4
f 231/363/2 250/384/2 211/329/2 31/64/2
f 41/80/8 44/83/8 46/86/8 45/85/8
f 44/83/9 48/90/9 49/92/9 46/86/9
f 42/81/10 47/89/10 49/93/10 48/91/10
f 47/88/11 51/96/11 52/97/11 49/94/11
f 43/82/12 50/95/12 52/97/12 51/96/12
f 50/95/13 45/84/13 46/87/13 52/97/13
f 46/87/14 49/94/14 52/97/14
f 57/107/15 60/111/15 62/114/15 61/113/15
f 60/110/16 64/118/16 65/119/16 62/116/16
f 58/108/17 63/117/17 65/119/17 64/118/17
f 63/117/18 67/121/18 68/124/18 65/119/18
f 59/109/19 66/120/19 68/123/19 67/122/19
f 66/120/20 61/112/20 62/115/20 68/123/20
f 62/116/21 65/119/21 68/124/21
f 73/134/22 76/138/22 78/140/22 77/139/22
f 76/137/23 80/143/23 81/144/23 78/141/23
f 74/135/24 79/142/24 81/144/24 80/143/24
f 79/142/25 83/147/25 84/151/25 81/144/25
f 75/136/26 82/145/26 84/149/26 83/148/26
f 82/146/27 77/139/27 78/140/27 84/150/27
f 78/141/28 81/144/28 84/151/28
f 89/161/29 92/164/29 94/167/29 93/166/29
f 92/164/30 96/172/30 97/173/30 94/167/30
f 90/162/31 95/170/31 97/174/31 96/171/31
f 95/169/32 99/177/32 100/178/32 97/175/32
f 91/163/33 98/176/33 100/178/33 99/177/33
f 98/176/34 93/165/34 94/168/34 100/178/34
f 94/168/35 97/175/35 100/178/35
f 138/229/36 54/101/36 56/106/36 140/232/36
f 140/232/37 56/106/37 55/103/37 139/230/37
f 139/231/38 55/104/38 53/99/38 137/228/38
f 126/214/39 90/162/39 96/171/39 128/216/39
f 128/217/40 96/172/40 92/164/40 127/215/40
f 127/215/41 92/164/41 89/161/41 125/213/41
f 142/234/42 70/128/42 72/133/42 144/237/42
f 144/237/43 72/133/43 71/130/43 143/235/43
f 143/236/44 71/131/44 69/126/44 141/233/44
f 146/239/45 86/155/45 88/159/45 148/241/45
f 148/242/46 88/160/46 87/157/46 147/240/46
f 147/240/47 87/157/47 85/153/47 145/238/47
f 106/189/48 91/163/48 99/177/48 108/192/48
f 108/192/49 99/177/49 95/169/49 107/190/49
f 107/191/50 95/170/50 90/162/50 105/188/50
f 43/82/51 58/108/51 64/118/51 50/95/51
f 50/95/52 64/118/52 60/110/52 45/84/52
f 45/85/53 60/111/53 57/107/53 41/80/53
f 91/163/54 74/135/54 80/143/54 98/176/54
f 98/176/55 80/143/55 76/137/55 93/165/55
f 93/166/56 76/138/56 73/134/56 89/161/56
f 114/199/57 43/82/57 51/96/57 116/202/57
f 116/202/58 51/96/58 47/88/58 115/200/58
f 115/201/59 47/89/59 42/81/59 113/198/59
f 235/367/60 106/189/60 108/192/60 236/368/60
f 236/368/61 108/192/61 107/190/61 237/370/61
f 237/369/62 107/191/62 105/188/62 238/371/62
f 74/135/63 109/193/63 111/195/63 79/142/63
f 79/142/64 111/195/64 112/197/64 83/147/64
f 83/148/65 112/196/65 110/194/65 75/136/65
f 239/372/66 114/199/66 116/202/66 240/373/66
f 240/373/67 116/202/67 115/200/67 241/375/67
f 241/374/68 115/201/68 113/198/68 242/376/68
f 58/108/69 118/204/69 120/207/69 63/117/69
f 63/117/70 120/207/70 119/206/70 67/121/70
f 67/122/71 119/205/71 117/203/71 59/109/71
f 41/80/72 121/208/72 123/210/72 44/83/72
f 44/83/73 123/210/73 124/212/73 48/90/73
f 48/91/74 124/211/74 122/209/74 42/81/74
f 273/421/75 126/214/75 128/216/75 274/423/75
f 274/422/76 128/217/76 127/215/76 275/424/76
f 275/424/77 127/215/77 125/213/77 276/425/77
f 59/109/78 129/218/78 131/220/78 66/120/78
f 66/120/79 131/220/79 132/222/79 61/112/79
f 61/113/80 132/221/80 130/219/80 57/107/80
f 75/136/81 133/223/81 135/226/81 82/145/81
f 82/146/82 135/225/82 136/227/82 77/139/82
f 77/139/83 136/227/83 134/224/83 73/134/83
f 296/454/36 138/229/36 140/232/36 297/455/36
f 297/455/37 140/232/37 139/230/37 298/457/37
f 298/456/38 139/231/38 137/228/38 299/458/38
f 300/459/42 142/234/42 144/237/42 301/460/42
f 301/460/43 144/237/43 143/235/43 302/462/43
f 302/461/44 143/236/44 141/233/44 303/463/44
f 304/464/45 146/239/45 148/241/45 305/466/45
f 305/465/46 148/242/46 147/240/46 306/467/46
f 306/467/47 147/240/47 145/238/47 307/468/47
f 101/180/75 149/243/75 151/246/75 103/184/75
f 103/185/76 151/245/76 152/247/76 104/187/76
f 104/187/77 152/247/77 150/244/77 102/182/77
f 198/304/75 153/248/75 155/250/75 200/306/75
f 200/307/76 155/251/76 156/252/76 199/305/76
f 199/305/77 156/252/77 154/249/77 197/303/77
f 174/274/36 157/253/36 159/255/36 176/277/36
f 176/277/37 159/255/37 160/256/37 175/275/37
f 175/276/38 160/257/38 158/254/38 173/273/38
f 178/279/42 161/258/42 163/260/42 180/282/42
f 180/282/43 163/260/43 164/261/43 179/280/43
f 179/281/44 164/262/44 162/259/44 177/278/44
f 182/284/45 165/263/45 167/265/45 184/286/45
f 184/287/46 167/266/46 168/267/46 183/285/46
f 183/285/47 168/267/47 166/264/47 181/283/47
f 153/248/75 170/269/75 172/272/75 155/250/75
f 155/251/76 172/271/76 171/270/76 156/252/76
f 156/252/77 171/270/77 169/268/77 154/249/77
f 277/426/36 174/274/36 176/277/36 278/427/36
f 278/427/37 176/277/37 175/275/37 279/429/37
f 279/428/38 175/276/38 173/273/38 280/430/38
f 281/431/42 178/279/42 180/282/42 282/432/42
f 282/432/43 180/282/43 179/280/43 283/434/43
f 283/433/44 179/281/44 177/278/44 284/435/44
f 285/436/45 182/284/45 184/286/45 286/438/45
f 286/437/46 184/287/46 183/285/46 287/439/46
f 287/439/47 183/285/47 181/283/47 288/440/47
f 157/253/36 186/289/36 188/292/36 159/255/36
f 159/255/37 188/292/37 187/291/37 160/256/37
f 160/257/38 187/290/38 185/288/38 158/254/38
f 161/258/42 190/294/42 192/297/42 163/260/42
f 163/260/43 192/297/43 191/296/43 164/261/43
f 164/262/44 191/295/44 189/293/44 162/259/44
f 165/263/45 194/299/45 196/302/45 167/265/45
f 167/266/46 196/301/46 195/300/46 168/267/46
f 168/267/47 195/300/47 193/298/47 166/264/47
f 308/469/75 198/304/75 200/306/75 309/471/75
f 309/470/76 200/307/76 199/305/76 310/472/76
f 310/472/77 199/305/77 197/303/77 311/473/77
f 43/82/3 114/199/3 118/204/3 58/108/3
f 201/308/4 204/314/4 203/313/4
f 204/314/4 205/316/4 203/313/4
f 205/316/4 202/311/4 203/313/4
f 206/319/5 209/325/5 208/324/5
f 209/325/5 210/327/5 208/324/5
f 210/327/5 207/321/5 208/324/5
f 243/377/84 202/312/84 205/317/84 244/378/84
f 244/378/85 205/317/85 204/315/85 245/379/85
f 245/379/86 204/315/86 201/309/86 246/380/86
f 233/365/87 246/380/87 201/309/87 37/74/87
f 211/330/4 214/335/4 213/334/4
f 214/335/4 215/337/4 213/334/4
f 215/337/4 212/332/4 213/334/4
f 216/340/5 219/345/5 218/344/5
f 219/345/5 220/347/5 218/344/5
f 220/347/5 217/342/5 218/344/5
f 247/381/88 212/333/88 215/338/88 248/382/88
f 248/382/89 215/338/89 214/336/89 249/383/89
f 249/383/90 214/336/90 211/329/90 250/384/90
f 22/46/4 291/444/4 10/19/4 31/63/4 211/330/4 213/334/4
f 251/385/3 221/349/3 259/399/3 262/404/3
f 253/389/2 222/352/2 251/385/2 254/390/2
f 220/348/90 249/383/90 250/384/90 217/343/90
f 219/346/89 248/382/89 249/383/89 220/348/89
f 216/341/88 247/381/88 248/382/88 219/346/88
f 38/77/87 207/322/87 246/380/87 233/365/87
f 210/328/86 245/379/86 246/380/86 207/322/86
f 209/326/85 244/378/85 245/379/85 210/328/85
f 206/320/84 243/377/84 244/378/84 209/326/84
f 112/196/68 241/374/68 242/376/68 110/194/68
f 111/195/67 240/373/67 241/375/67 112/197/67
f 109/193/66 239/372/66 240/373/66 111/195/66
f 119/205/62 237/369/62 238/371/62 117/203/62
f 120/207/61 236/368/61 237/370/61 119/206/61
f 118/204/60 235/367/60 236/368/60 120/207/60
f 32/66/2 217/343/2 250/384/2 231/363/2
f 7/14/6 226/358/6 230/362/6 27/56/6
f 12/24/3 228/360/3 232/364/3 34/70/3
f 216/341/7 38/77/7 233/365/7 247/381/7
f 222/352/2 27/56/2 230/362/2 251/385/2
f 294/450/1 29/60/1 234/366/1 312/474/1
f 29/59/5 36/72/5 314/477/5 321/489/5
f 271/417/3 289/441/3 324/494/3 318/485/3
f 271/417/1 25/52/1 229/361/1 289/441/1
f 10/20/3 227/359/3 231/363/3 31/64/3
f 1/1/1 9/18/1 228/360/1 223/353/1
f 3/6/2 11/22/2 227/359/2 224/355/2
f 114/199/3 239/372/3 235/367/3 118/204/3
f 5/10/6 225/357/6 229/361/6 25/52/6
f 1/2/6 223/354/6 224/356/6 2/4/6
f 7/14/2 117/203/2 238/371/2 226/358/2
f 5/10/1 110/194/1 242/376/1 225/357/1
f 206/320/2 253/389/2 254/390/2 243/377/2
f 243/377/2 254/390/2 252/386/2 202/312/2
f 252/386/6 254/390/6 265/407/6 255/391/6
f 254/390/4 251/385/4 262/404/4 265/407/4
f 264/406/2 261/403/2 258/397/2 256/393/2
f 262/404/91 259/399/91 260/401/91 263/405/91
f 263/405/92 260/401/92 258/397/92 261/403/92
f 261/403/93 264/406/93 266/408/93 263/405/93
f 263/405/94 266/408/94 265/407/94 262/404/94
f 264/406/95 256/393/95 257/395/95 266/408/95
f 266/408/96 257/395/96 255/391/96 265/407/96
f 221/350/5 252/387/5 255/392/5 257/396/5 256/394/5 258/398/5 260/402/5 259/400/5
f 36/72/5 35/71/5 313/475/5 314/477/5
f 136/227/47 287/439/47 288/440/47 134/224/47
f 135/225/46 286/437/46 287/439/46 136/227/46
f 133/223/45 285/436/45 286/438/45 135/226/45
f 132/221/44 283/433/44 284/435/44 130/219/44
f 131/220/43 282/432/43 283/434/43 132/222/43
f 129/218/42 281/431/42 282/432/42 131/220/42
f 124/211/38 279/428/38 280/430/38 122/209/38
f 123/210/37 278/427/37 279/429/37 124/212/37
f 121/208/36 277/426/36 278/427/36 123/210/36
f 171/270/77 275/424/77 276/425/77 169/268/77
f 172/271/76 274/422/76 275/424/76 171/270/76
f 170/269/75 273/421/75 274/423/75 172/272/75
f 8/16/5 270/415/5 272/420/5 26/54/5
f 234/366/6 29/60/6 321/490/6 323/493/6
f 17/34/4 267/409/4 271/418/4 35/71/4
f 169/268/5 276/425/5 288/440/5 181/283/5
f 178/279/2 281/431/2 269/414/2 19/40/2
f 18/37/2 268/412/2 273/421/2 170/269/2
f 174/274/4 277/426/4 284/435/4 177/278/4
f 182/284/1 285/436/1 267/410/1 17/35/1
f 20/42/1 270/416/1 280/430/1 173/273/1
f 30/61/1 294/450/1 312/474/1 232/364/1
f 152/247/77 310/472/77 311/473/77 150/244/77
f 151/245/76 309/470/76 310/472/76 152/247/76
f 149/243/75 308/469/75 309/471/75 151/246/75
f 195/300/47 306/467/47 307/468/47 193/298/47
f 196/301/46 305/465/46 306/467/46 195/300/46
f 194/299/45 304/464/45 305/466/45 196/302/45
f 191/295/44 302/461/44 303/463/44 189/293/44
f 192/297/43 301/460/43 302/462/43 191/296/43
f 190/294/42 300/459/42 301/460/42 192/297/42
f 187/290/38 298/456/38 299/458/38 185/288/38
f 188/292/37 297/455/37 298/457/37 187/291/37
f 186/289/36 296/454/36 297/455/36 188/292/36
f 9/17/4 290/442/4 294/451/4 30/62/4
f 232/364/1 312/474/1 295/452/1 34/70/1
f 146/239/1 304/464/1 290/443/1 9/18/1
f 12/24/1 293/448/1 299/458/1 137/228/1
f 142/234/2 300/459/2 292/447/2 11/22/2
f 10/20/2 291/445/2 308/469/2 149/243/2
f 150/244/5 311/473/5 307/468/5 145/238/5
f 24/50/5 293/449/5 295/453/5 33/67/5
f 138/229/4 296/454/4 303/463/4 141/233/4
f 323/493/1 317/483/1 316/481/1 322/492/1
f 317/483/1 320/488/1 315/479/1 316/481/1
f 314/478/1 313/476/1 320/488/1 317/483/1
f 321/490/1 314/478/1 317/483/1 323/493/1
f 313/476/1 318/485/1 324/494/1 320/488/1
f 320/488/1 324/494/1 319/486/1 315/479/1
f 39/78/4 40/79/4 316/482/4 315/480/4
f 40/79/4 33/67/4 322/491/4 316/482/4
f 272/420/4 39/78/4 315/480/4 319/487/4
f 33/68/6 234/366/6 323/493/6 322/492/6
