# Blender 3.3.0
# www.blender.org
mtllib computer8.mtl
o Cube
v 0.869161 -1.057568 -1.000000
v 0.869161 -1.057568 1.000000
v -0.850317 -1.057568 -1.000000
v -0.850317 -1.057568 1.000000
v 0.835216 -1.057568 -1.000000
v 0.835216 -1.057568 1.000000
v 0.835216 2.049264 -1.000000
v -0.826716 -1.057568 -1.000000
v -0.826716 -1.057568 1.000000
v -0.826716 2.049264 -1.000000
v 0.869161 -0.117870 -1.000000
v -0.850317 -0.117870 1.000000
v 0.869161 -0.117870 1.000000
v -0.850317 -0.117870 -1.000000
v 0.835216 -0.117870 -1.000000
v 0.835216 -0.117870 1.000000
v -0.826716 -0.117870 -1.000000
v -0.826716 -0.117870 1.000000
v 0.869161 -0.705625 -1.000000
v 0.869161 -0.705625 1.000000
v -0.850317 -0.705625 -1.000000
v 0.835216 -0.705625 -1.000000
v 0.835216 -0.705625 1.000000
v -0.826716 -0.705625 -1.000000
v -0.826716 -0.705625 1.000000
v -0.850317 -0.705625 1.000000
v -0.900787 -1.057568 -1.000000
v -0.900787 -1.057568 1.000000
v 0.919631 -1.057568 -1.000000
v 0.919631 -1.057568 1.000000
v -0.850317 0.994815 1.000000
v 0.869161 0.994815 1.000000
v 0.835216 0.994815 -1.000000
v 0.835216 0.994815 1.000000
v -0.826716 0.994815 -1.000000
v -0.826716 0.994815 1.000000
v -0.850317 1.499076 1.000000
v 0.869161 1.499076 1.000000
v 0.835216 1.499076 -1.000000
v 0.835216 1.499076 1.000000
v -0.826716 1.499076 -1.000000
v -0.826716 1.499076 1.000000
v 0.835216 2.049264 0.773524
v 0.835216 1.809750 1.000000
v -0.826716 1.809750 1.000000
v -0.826716 2.049264 0.773524
v 0.477781 -1.057568 1.000000
v 0.477781 2.049264 -1.000000
v 0.477781 -1.057568 -1.000000
v 0.477781 -0.117870 1.000000
v 0.477781 -0.705625 1.000000
v 0.477781 0.994815 1.000000
v 0.477781 1.499076 1.000000
v 0.477781 2.049264 0.773524
v 0.477781 1.809750 1.000000
v 0.820554 -1.057568 1.000000
v 0.820554 2.049264 -1.000000
v 0.820554 -0.117870 -1.000000
v 0.820554 -0.705625 -1.000000
v 0.820554 0.994815 -1.000000
v 0.820554 1.499076 -1.000000
v 0.820554 1.809750 1.000000
v 0.820554 -1.057568 -1.000000
v 0.820554 -0.117870 1.000000
v 0.820554 -0.705625 1.000000
v 0.820554 0.994815 1.000000
v 0.820554 1.499076 1.000000
v 0.820554 2.049264 0.773524
v 0.820554 1.499076 1.037327
v 0.477781 1.499076 1.037327
v 0.477781 1.809750 1.037327
v 0.820554 1.809750 1.037327
v 0.869161 -0.899194 -1.000000
v 0.869161 -0.899194 1.000000
v -0.850317 -0.899194 -1.000000
v 0.835216 -0.899194 -1.000000
v 0.835216 -0.899194 1.000000
v -0.826716 -0.899194 -1.000000
v -0.826716 -0.899194 1.000000
v -0.850317 -0.899194 1.000000
v 0.919631 -0.899194 -1.000000
v 0.919631 -0.899194 1.000000
v -0.900787 -0.899194 -1.000000
v -0.900787 -0.899194 1.000000
v 0.477781 -0.899194 1.000000
v 0.477781 -0.899194 -1.000000
v 0.820554 -0.899194 1.000000
v 0.820554 -0.899194 -1.000000
v -0.826716 -1.057568 -1.124238
v -0.850317 -1.057568 -1.124238
v 0.869161 -0.899194 -1.124238
v 0.869161 -1.057568 -1.124238
v -0.850317 -0.899194 -1.124238
v 0.835216 -1.057568 -1.124238
v 0.835216 -0.899194 -1.124238
v 0.477781 -1.057568 -1.124238
v -0.826716 -0.899194 -1.124238
v 0.820554 -1.057568 -1.124238
v 0.477781 -0.899194 -1.124238
v 0.820554 -0.899194 -1.124238
v 0.015227 -1.057568 -1.000000
v 0.015227 -0.117870 1.000000
v 0.015227 -0.705625 1.000000
v 0.015227 0.994815 1.000000
v 0.015227 1.499076 1.000000
v 0.015227 2.049264 0.773524
v 0.015227 -1.057568 1.000000
v 0.015227 2.049264 -1.000000
v 0.015227 -0.117870 -1.000000
v 0.015227 -0.705625 -1.000000
v 0.015227 0.994815 -1.000000
v 0.015227 1.499076 -1.000000
v 0.015227 1.809750 1.000000
v 0.015227 -0.899194 -1.000000
v 0.015227 -0.899194 1.000000
v 0.015227 -1.057568 -1.124238
v 0.015227 -0.899194 -1.124238
v 0.015227 2.049264 -1.087472
v 0.477781 2.049264 -1.087472
v 0.015227 -0.117870 -1.087472
v 0.477781 -0.117870 -1.087472
v 0.015227 -0.705625 -1.087472
v 0.477781 -0.705625 -1.087472
v 0.015227 0.994815 -1.087472
v 0.477781 0.994815 -1.087472
v 0.015227 1.499076 -1.087472
v 0.477781 1.499076 -1.087472
v 0.820554 2.049264 -1.087472
v 0.820554 -0.117870 -1.087472
v 0.820554 -0.705625 -1.087472
v 0.820554 0.994815 -1.087472
v 0.820554 1.499076 -1.087472
v 0.477781 -0.899194 -1.087472
v 0.820554 -0.899194 -1.087472
v 0.015227 -0.899194 -1.087472
v 0.869161 1.499076 -0.999027
v 0.869161 1.447662 -1.000000
v 0.870017 1.499076 -1.000000
v 0.869161 1.550490 -1.000000
v 0.869161 1.484017 -0.999958
v -0.850317 1.447662 -1.000000
v -0.850317 1.499076 -0.999027
v -0.850317 1.550490 -1.000000
v -0.849935 1.499076 -1.000000
v -0.850317 1.484017 -0.999958
v 0.869161 1.447662 1.051636
v 0.869161 1.499076 1.003021
v 0.869161 1.484017 1.037397
v 0.835216 1.499076 1.003021
v 0.835216 1.447662 1.051636
v 0.835216 1.484017 1.037397
v -0.826716 1.499076 1.003021
v -0.826716 1.447662 1.051636
v -0.826716 1.484017 1.037397
v -0.850317 1.499076 1.003021
v -0.850317 1.447662 1.051636
v -0.850317 1.484017 1.037397
v 0.884921 1.499076 -0.951385
v 0.926259 1.447662 -1.000000
v 0.914152 1.484017 -0.985761
v 0.884921 1.499076 1.000000
v 0.926259 1.447662 1.000000
v 0.914152 1.484017 1.000000
v -0.866077 1.499076 -0.951385
v -0.907415 1.447662 -1.000000
v -0.895307 1.484017 -0.985761
v -0.907415 1.447662 1.000000
v -0.866077 1.499076 1.000000
v -0.895307 1.484017 1.000000
v 0.884921 1.499076 1.003021
v 0.926259 1.447662 1.051636
v 0.914152 1.484017 1.037397
v -0.866077 1.499076 1.003021
v -0.907415 1.447662 1.051636
v -0.895307 1.484017 1.037397
v 0.477781 1.499076 1.003021
v 0.477781 1.447662 1.051636
v 0.477781 1.484017 1.037397
v 0.820554 1.447662 1.051636
v 0.820554 1.499076 1.003021
v 0.820554 1.484017 1.037397
v 0.015227 1.447662 1.051636
v 0.015227 1.499076 1.003021
v 0.015227 1.484017 1.037397
v 0.869161 1.047928 -1.000000
v 0.869161 0.994815 -0.949778
v 0.869161 0.941702 -1.000000
v 0.870017 0.994815 -1.000000
v 0.869161 1.021371 -0.993272
v 0.869161 1.001930 -0.974889
v -0.850317 0.994815 -0.949778
v -0.850317 1.047928 -1.000000
v -0.849935 0.994815 -1.000000
v -0.850317 0.941702 -1.000000
v -0.850317 1.001930 -0.974889
v -0.850317 1.021371 -0.993272
v 0.869161 0.994815 1.001415
v 0.869161 1.047928 1.051636
v 0.869161 1.001930 1.026525
v 0.869161 1.021371 1.044908
v 0.835216 1.047928 1.051636
v 0.835216 0.994815 1.001415
v 0.835216 1.021371 1.044908
v 0.835216 1.001930 1.026525
v -0.826716 1.047928 1.051636
v -0.826716 0.994815 1.001415
v -0.826716 1.021371 1.044908
v -0.826716 1.001930 1.026525
v -0.850317 1.047928 1.051636
v -0.850317 0.994815 1.001415
v -0.850317 1.021371 1.044908
v -0.850317 1.001930 1.026525
v 0.883555 0.994815 -0.949778
v 0.926259 1.047928 -1.000000
v 0.904907 1.001930 -0.974889
v 0.920538 1.021371 -0.993272
v 0.883555 0.994815 1.000000
v 0.926259 1.047928 1.000000
v 0.904907 1.001930 1.000000
v 0.920538 1.021371 1.000000
v -0.864711 0.994815 -0.949778
v -0.907415 1.047928 -1.000000
v -0.886063 1.001930 -0.974889
v -0.901694 1.021371 -0.993272
v 0.926259 1.047928 1.051636
v 0.883555 0.994815 1.001415
v 0.920538 1.021371 1.044908
v 0.904907 1.001930 1.026525
v -0.864711 0.994815 1.000000
v -0.907415 1.047928 1.000000
v -0.886063 1.001930 1.000000
v -0.901694 1.021371 1.000000
v -0.864711 0.994815 1.001415
v -0.907415 1.047928 1.051636
v -0.886063 1.001930 1.026525
v -0.901694 1.021371 1.044908
v 0.477781 1.047928 1.051636
v 0.477781 0.994815 1.001415
v 0.477781 1.021371 1.044908
v 0.477781 1.001930 1.026525
v 0.820554 0.994815 1.001415
v 0.820554 1.047928 1.051636
v 0.820554 1.001930 1.026525
v 0.820554 1.021371 1.044908
v 0.015227 0.994815 1.001415
v 0.015227 1.047928 1.051636
v 0.015227 1.001930 1.026525
v 0.015227 1.021371 1.044908
v 0.841773 2.049264 -1.000000
v 0.869161 2.015200 -1.000000
v 0.855467 2.044700 -1.000000
v 0.865492 2.032232 -1.000000
v -0.850317 2.015200 -1.000000
v -0.826716 2.049264 -1.000000
v -0.847155 2.032232 -1.000000
v -0.838516 2.044700 -1.000000
v 0.869161 2.015200 0.760183
v 0.841773 2.049264 0.773524
v 0.865492 2.032232 0.766853
v 0.855467 2.044700 0.771737
v 0.869161 1.761576 1.000000
v 0.841773 1.809750 1.000000
v 0.865492 1.785663 1.000000
v 0.855467 1.803296 1.000000
v -0.826716 1.809750 1.000000
v -0.850317 1.761576 1.000000
v -0.838516 1.803296 1.000000
v -0.847155 1.785663 1.000000
v -0.850317 2.015200 0.760183
v -0.822928 2.049264 0.773524
v -0.846648 2.032232 0.766853
v -0.836623 2.044700 0.771737
v 0.820331 -0.136384 1.099019
v 0.835216 -0.117870 1.081514
v -0.826716 -0.117870 1.081514
v -0.811830 -0.136384 1.099019
v 0.820331 -0.687111 1.099019
v 0.835216 -0.705625 1.081514
v -0.826716 -0.705625 1.081514
v -0.811830 -0.687111 1.099019
v 0.477781 -0.117870 1.081514
v 0.477781 -0.136384 1.099019
v 0.477781 -0.687111 1.099019
v 0.477781 -0.705625 1.081514
v 0.820554 -0.136384 1.099019
v 0.820554 -0.117870 1.081514
v 0.820554 -0.705625 1.081514
v 0.820554 -0.687111 1.099019
v 0.015227 -0.136384 1.099019
v 0.015227 -0.117870 1.081514
v 0.015227 -0.705625 1.081514
v 0.015227 -0.687111 1.099019
v 0.881983 -0.705625 -1.000000
v 0.919631 -0.752449 -1.000000
v 0.919631 -0.752449 1.000000
v 0.881983 -0.705625 1.000000
v -0.900787 -0.752449 -1.000000
v -0.863139 -0.705625 -1.000000
v -0.863139 -0.705625 1.000000
v -0.900787 -0.752449 1.000000
v 0.919631 -0.899194 -1.014937
v 0.869161 -0.899194 -1.124238
v 0.869161 -1.057568 -1.124238
v 0.919631 -1.057568 -1.014937
v -0.850317 -0.899194 -1.124238
v -0.900787 -0.899194 -1.014937
v -0.900787 -1.057568 -1.014937
v -0.850317 -1.057568 -1.124238
vn -0.0000 1.0000 -0.0000
vn -1.0000 -0.0000 -0.0000
vn -0.0000 -1.0000 -0.0000
vn -0.0000 -0.0000 -1.0000
vn -0.0000 -0.6871 -0.7266
vn -0.0000 -0.0000 1.0000
vn 1.0000 -0.0000 -0.0000
vn -0.0000 0.6871 0.7266
vn 0.6051 -0.0000 0.7962
vn -0.8623 -0.0000 -0.5065
vn -0.0000 0.9160 0.4012
vn -0.0000 0.3647 0.9311
vn 0.4580 0.8890 -0.0000
vn 0.9488 0.3160 -0.0000
vn -0.4580 0.8890 -0.0000
vn -0.9488 0.3160 -0.0000
vn 0.3932 0.8344 -0.3863
vn 0.1346 0.2125 -0.9678
vn -0.1346 0.2125 -0.9678
vn -0.3932 0.8344 -0.3862
vn 0.9997 -0.0000 0.0227
vn -0.9999 -0.0000 -0.0101
vn -0.0000 -0.2456 -0.9694
vn -0.0000 -0.9621 -0.2726
vn -0.0000 -0.2456 0.9694
vn -0.0000 -0.6871 0.7266
vn -0.0000 -0.9621 0.2726
vn 0.9776 -0.2106 -0.0000
vn 0.7793 -0.6266 -0.0000
vn 0.3162 -0.9487 -0.0000
vn -0.9776 -0.2106 -0.0000
vn -0.7793 -0.6266 -0.0000
vn -0.3162 -0.9487 -0.0000
vn -0.9795 0.1390 0.1460
vn -0.7933 0.4204 0.4405
vn -0.3292 0.6508 0.6842
vn 0.9763 0.1487 0.1573
vn 0.7704 0.4380 0.4632
vn 0.3081 0.6536 0.6913
vn 0.9776 0.2106 -0.0000
vn 0.7793 0.6266 -0.0000
vn 0.3162 0.9487 -0.0000
vn -0.3371 0.9415 0.0005
vn -0.8006 0.5991 0.0005
vn -0.9805 0.1966 0.0001
vn 0.7618 -0.0000 0.6478
vn -0.7618 -0.0000 0.6478
vn -0.7793 0.6266 -0.0000
vn 0.9079 -0.0000 -0.4192
vn -0.9079 -0.0000 -0.4192
vt 0.500000 0.337795
vt 0.571263 0.260063
vt 0.250000 0.337795
vt 0.570286 0.260063
vt 0.500000 0.259867
vt 0.250000 0.259867
vt 0.001230 0.260063
vt 0.500000 0.337103
vt 0.250000 0.337103
vt 0.568137 0.260063
vt 0.565207 0.260063
vt 0.559101 0.005236
vt 0.876698 0.878732
vt 0.500000 0.260949
vt 0.009168 0.260063
vt 0.250000 0.260949
vt 0.876698 0.994274
vt 0.559101 0.256460
vt 0.866353 0.002953
vt 0.999593 0.483563
vt 0.002007 0.483772
vt 0.571751 0.483770
vt 0.601807 0.483563
vt 0.000359 0.483775
vt 0.866353 0.260028
vt 0.866353 0.005236
vt 0.566672 0.483770
vt 0.568137 0.483770
vt 0.866353 0.256460
vt 0.009168 0.483770
vt 0.949684 0.002953
vt 0.999593 0.343565
vt 0.571751 0.343848
vt 0.570286 0.343848
vt 0.571263 0.343848
vt 0.601807 0.343565
vt 0.949684 0.260028
vt 0.000359 0.343851
vt 0.949684 0.005236
vt 0.566672 0.343848
vt 0.565207 0.343848
vt 0.568137 0.343848
vt 0.949684 0.256460
vt 0.009168 0.343848
vt 0.002007 0.343849
vt 0.500000 0.259867
vt 0.000359 0.260065
vt 0.250000 0.259867
vt 0.001230 0.260063
vt 0.002784 0.260065
vt 0.500000 0.337795
vt 0.999593 0.259735
vt 0.571263 0.260063
vt 0.250000 0.337795
vt 0.601807 0.259735
vt 0.002007 0.748662
vt 0.571751 0.748657
vt 0.573216 0.748657
vt 0.601807 0.748595
vt 0.708599 0.005236
vt 0.566672 0.748657
vt 0.568137 0.748657
vt 0.708599 0.256460
vt 0.009168 0.748657
vt 0.002009 0.868708
vt 0.573216 0.868703
vt 0.601807 0.868706
vt 0.637106 0.005236
vt 0.568137 0.868703
vt 0.637106 0.256460
vt 0.009168 0.868703
vt 0.655007 0.878732
vt 0.568137 0.942662
vt 0.568137 0.998470
vt 0.626698 0.878732
vt 0.009168 0.998470
vt 0.009168 0.942662
vt 0.626698 0.994274
vt 0.655007 0.994274
vt 0.250000 0.320725
vt 0.447918 0.260063
vt 0.876698 0.903582
vt 0.500000 0.320725
vt 0.447918 0.483770
vt 0.447918 0.343848
vt 0.447918 0.748657
vt 0.447918 0.868703
vt 0.655007 0.903582
vt 0.626698 0.903582
vt 0.447918 0.998470
vt 0.250000 0.336431
vt 0.563206 0.260063
vt 0.559101 0.007452
vt 0.559101 0.255991
vt 0.876698 0.879751
vt 0.866353 0.007452
vt 0.866353 0.255991
vt 0.949684 0.007452
vt 0.949684 0.255991
vt 0.708599 0.007452
vt 0.708599 0.255991
vt 0.637106 0.007452
vt 0.637106 0.255991
vt 0.563205 0.998470
vt 0.626698 0.879751
vt 0.500000 0.336431
vt 0.563205 0.483770
vt 0.563205 0.343848
vt 0.563205 0.748657
vt 0.563205 0.868703
vt 0.655007 0.879751
vt 0.563205 0.868703
vt 0.447918 0.868703
vt 0.447918 0.998470
vt 0.626698 0.903582
vt 0.563205 0.998470
vt 0.626698 0.879751
vt 0.977128 0.002953
vt 0.979896 0.001790
vt 0.571263 0.297766
vt 0.570286 0.297766
vt 0.977127 0.260028
vt 0.979896 0.258865
vt 0.977128 0.005236
vt 0.979896 0.004073
vt 0.568137 0.297766
vt 0.565207 0.297766
vt 0.979896 0.255297
vt 0.977128 0.256460
vt 0.009168 0.297766
vt 0.001580 0.297767
vt 0.977128 0.002953
vt 0.979896 0.001790
vt 0.999593 0.297458
vt 0.571263 0.297766
vt 0.601807 0.297459
vt 0.977127 0.260028
vt 0.979896 0.258865
vt 0.000359 0.297769
vt 0.002007 0.297767
vt 0.447918 0.297766
vt 0.979896 0.058104
vt 0.563205 0.297766
vt 0.977128 0.007452
vt 0.977128 0.255991
vt 0.979896 0.006289
vt 0.500000 0.260949
vt 0.999582 0.256460
vt 0.500000 0.259867
vt 0.999582 0.260028
vt 0.979896 0.001790
vt 0.977128 0.002953
vt 0.999582 0.002953
vt 0.500000 0.337795
vt 0.977127 0.260028
vt 0.979896 0.258865
vt 0.999582 0.005236
vt 0.500000 0.337103
vt 0.979896 0.004073
vt 0.977128 0.005236
vt 0.999582 0.059267
vt 0.500000 0.320725
vt 0.977128 0.256460
vt 0.979896 0.255297
vt 0.999582 0.007452
vt 0.500000 0.336431
vt 0.977128 0.059267
vt 0.979896 0.058104
vt 0.977128 0.007452
vt 0.979896 0.006289
vt 0.500000 0.299529
vt 0.292345 0.483770
vt 0.292345 0.343848
vt 0.292345 0.748657
vt 0.292345 0.868703
vt 0.655007 0.935740
vt 0.292345 0.260063
vt 0.250000 0.299529
vt 0.876698 0.935740
vt 0.559101 0.129189
vt 0.866353 0.129189
vt 0.949684 0.129189
vt 0.708599 0.129189
vt 0.637106 0.129189
vt 0.626698 0.935740
vt 0.292345 0.998470
vt 0.978512 0.128607
vt 0.292345 0.297766
vt 0.999582 0.129189
vt 0.500000 0.299529
vt 0.978512 0.128607
vt 0.876698 0.935740
vt 0.559101 0.129189
vt 0.876698 0.903582
vt 0.559101 0.059267
vt 0.866353 0.129189
vt 0.866353 0.059267
vt 0.949684 0.129189
vt 0.949684 0.059267
vt 0.708599 0.129189
vt 0.708599 0.059267
vt 0.637106 0.129189
vt 0.637106 0.059267
vt 0.559101 0.255991
vt 0.876698 0.879751
vt 0.559101 0.007452
vt 0.866353 0.007452
vt 0.866353 0.255991
vt 0.949684 0.255991
vt 0.949684 0.007452
vt 0.708599 0.007452
vt 0.708599 0.255991
vt 0.637106 0.255991
vt 0.637106 0.007452
vt 0.977128 0.059267
vt 0.979896 0.058104
vt 0.977128 0.255991
vt 0.977128 0.007452
vt 0.979896 0.006289
vt 0.978512 0.128607
vt 0.637106 0.002953
vt 0.989924 0.868706
vt 0.644395 0.002953
vt 0.637106 0.005233
vt 0.629816 0.002953
vt 0.999593 0.880952
vt 0.637106 0.002953
vt 0.639241 0.002953
vt 0.999593 0.868706
vt 0.637106 0.002953
vt 0.644395 0.260028
vt 0.637106 0.260028
vt 0.000399 0.868713
vt 0.000359 0.880953
vt 0.629816 0.260028
vt 0.637106 0.260028
vt 0.637106 0.256466
vt 0.639241 0.260028
vt 0.637106 0.260028
vt 0.000359 0.868713
vt 0.567679 0.856463
vt 0.559066 0.856463
vt 0.573216 0.868703
vt 0.571666 0.868703
vt 0.572053 0.868703
vt 0.571666 0.868703
vt 0.567679 0.868703
vt 0.572053 0.868703
vt 0.559066 0.868703
vt 0.566587 0.868703
vt 0.568137 0.868703
vt 0.562600 0.856463
vt 0.568137 0.856463
vt 0.566587 0.868703
vt 0.562600 0.868703
vt 0.568137 0.868703
vt 0.009168 0.868703
vt 0.009168 0.856463
vt 0.009168 0.868703
vt 0.002009 0.868708
vt 0.002008 0.856468
vt 0.002009 0.868708
vt 0.989924 0.868706
vt 0.999593 0.856460
vt 0.644395 0.002953
vt 0.996761 0.868706
vt 0.999593 0.868706
vt 0.637106 0.002953
vt 0.573216 0.868703
vt 0.601807 0.868706
vt 0.572053 0.868703
vt 0.601807 0.856460
vt 0.608574 0.856460
vt 0.601807 0.868706
vt 0.608574 0.868706
vt 0.572053 0.868703
vt 0.000399 0.868713
vt 0.000359 0.856474
vt 0.644395 0.260028
vt 0.637106 0.260028
vt 0.000359 0.868713
vt 0.002008 0.856468
vt 0.002009 0.868708
vt 0.002009 0.868708
vt 0.573216 0.868703
vt 0.572053 0.868703
vt 0.608574 0.856460
vt 0.569525 0.856463
vt 0.608574 0.868706
vt 0.572053 0.868703
vt 0.567307 0.868703
vt 0.002009 0.868708
vt 0.002008 0.856468
vt 0.002009 0.868708
vt 0.447918 0.868703
vt 0.447918 0.856463
vt 0.447918 0.868703
vt 0.563205 0.856463
vt 0.563205 0.868703
vt 0.563205 0.868703
vt 0.292345 0.856463
vt 0.292345 0.868703
vt 0.292345 0.868703
vt 0.999593 0.748595
vt 0.701069 0.002953
vt 0.989605 0.748595
vt 0.716129 0.002953
vt 0.999593 0.735944
vt 0.708599 0.005233
vt 0.999593 0.748595
vt 0.998255 0.748595
vt 0.999593 0.748595
vt 0.708599 0.002953
vt 0.994599 0.748595
vt 0.000401 0.748666
vt 0.000359 0.748666
vt 0.701069 0.260028
vt 0.708599 0.256466
vt 0.000359 0.748666
vt 0.716129 0.260028
vt 0.000359 0.736022
vt 0.000380 0.748666
vt 0.708599 0.260028
vt 0.000359 0.748666
vt 0.573216 0.748657
vt 0.559066 0.761301
vt 0.567679 0.761301
vt 0.567679 0.760976
vt 0.559066 0.760976
vt 0.573216 0.748657
vt 0.566434 0.750208
vt 0.567679 0.755536
vt 0.566434 0.754858
vt 0.559066 0.755536
vt 0.562600 0.761302
vt 0.562600 0.760976
vt 0.568137 0.761302
vt 0.568137 0.748657
vt 0.562600 0.755536
vt 0.561355 0.754858
vt 0.568137 0.754979
vt 0.561355 0.750208
vt 0.568137 0.748657
vt 0.009168 0.761302
vt 0.009168 0.748657
vt 0.009168 0.754979
vt 0.009168 0.748657
vt 0.002007 0.761306
vt 0.002007 0.748662
vt 0.002007 0.754984
vt 0.002007 0.748662
vt 0.989605 0.748595
vt 0.999593 0.761246
vt 0.701069 0.002953
vt 0.994599 0.748595
vt 0.998255 0.754921
vt 0.999593 0.748595
vt 0.708599 0.002953
vt 0.573216 0.748657
vt 0.601807 0.748595
vt 0.608574 0.761246
vt 0.608574 0.760952
vt 0.601807 0.761246
vt 0.573216 0.748657
vt 0.601807 0.748595
vt 0.608574 0.755509
vt 0.573216 0.748657
vt 0.601807 0.754921
vt 0.000401 0.748666
vt 0.701069 0.260028
vt 0.000359 0.761311
vt 0.000380 0.748666
vt 0.708599 0.260028
vt 0.000359 0.748666
vt 0.000365 0.754988
vt 0.569525 0.761302
vt 0.608574 0.761246
vt 0.608574 0.760952
vt 0.569525 0.760976
vt 0.573216 0.748657
vt 0.608574 0.755509
vt 0.573216 0.748657
vt 0.566434 0.751758
vt 0.568477 0.755536
vt 0.573216 0.748657
vt 0.566434 0.751758
vt 0.002007 0.748662
vt 0.002007 0.761306
vt 0.002007 0.748662
vt 0.002007 0.754984
vt 0.002007 0.748662
vt 0.002007 0.761306
vt 0.002007 0.748662
vt 0.002007 0.754984
vt 0.447918 0.761302
vt 0.447918 0.748657
vt 0.447918 0.754979
vt 0.447918 0.748657
vt 0.563205 0.748657
vt 0.563205 0.761302
vt 0.563205 0.748657
vt 0.563205 0.754979
vt 0.292345 0.748657
vt 0.292345 0.761302
vt 0.292345 0.748657
vt 0.292345 0.754979
vt 0.559101 0.004795
vt 0.876698 0.878529
vt 0.563931 0.002953
vt 0.999593 0.991642
vt 0.559748 0.003874
vt 0.876698 0.878106
vt 0.561516 0.003200
vt 0.999593 0.999756
vt 0.876698 0.877682
vt 0.563931 0.260028
vt 0.000359 0.991585
vt 0.559101 0.256460
vt 0.876698 0.994274
vt 0.561516 0.259550
vt 0.000359 0.995639
vt 0.559748 0.258244
vt 0.876698 0.995915
vt 0.000359 0.999694
vt 0.649505 0.991642
vt 0.655007 0.878529
vt 0.645913 0.998568
vt 0.654417 0.877682
vt 0.648178 0.999756
vt 0.655841 0.877682
vt 0.654849 0.878105
vt 0.655231 0.878106
vt 0.573216 0.931194
vt 0.601807 0.931231
vt 0.569118 0.942662
vt 0.626698 0.878529
vt 0.572667 0.936928
vt 0.601807 0.942706
vt 0.626698 0.877682
vt 0.571167 0.941126
vt 0.626316 0.878105
vt 0.009168 0.942662
vt 0.626698 0.994274
vt 0.001637 0.931197
vt 0.002378 0.931203
vt 0.005373 0.941127
vt 0.002446 0.942672
vt 0.626698 0.995915
vt 0.002616 0.936931
vt 0.002412 0.936937
vt 0.002451 0.991584
vt 0.655007 0.994011
vt 0.002480 0.995639
vt 0.002509 0.999376
vt 0.654849 0.995915
vt 0.655231 0.995915
vt 0.002507 0.999694
vt 0.563130 0.479362
vt 0.568137 0.483770
vt 0.009168 0.483770
vt 0.014175 0.479362
vt 0.563130 0.348255
vt 0.568137 0.343848
vt 0.009168 0.343848
vt 0.014175 0.348255
vt 0.447918 0.483770
vt 0.447918 0.479362
vt 0.447918 0.348255
vt 0.447918 0.343848
vt 0.563205 0.479362
vt 0.563205 0.483770
vt 0.563205 0.343848
vt 0.563205 0.348255
vt 0.292345 0.479362
vt 0.292345 0.483770
vt 0.292345 0.343848
vt 0.292345 0.348255
vt 0.949684 0.002953
vt 0.999593 0.343565
vt 0.956322 0.002953
vt 0.999593 0.332412
vt 0.571263 0.332701
vt 0.601807 0.332412
vt 0.571263 0.343848
vt 0.601807 0.343565
vt 0.956322 0.260028
vt 0.000359 0.332704
vt 0.949684 0.260028
vt 0.000359 0.343851
vt 0.002007 0.343849
vt 0.002007 0.332702
vt 0.979896 0.001790
vt 0.999593 0.297458
vt 0.979896 0.001790
vt 0.977128 0.002953
vt 0.999593 0.297458
vt 0.999582 0.002953
vt 0.500000 0.337795
vt 0.999593 0.259735
vt 0.500000 0.337795
vt 0.999593 0.259735
vt 0.979896 0.258865
vt 0.977127 0.260028
vt 0.000359 0.297769
vt 0.979896 0.258865
vt 0.000359 0.297769
vt 0.500000 0.259867
vt 0.000359 0.260065
vt 0.500000 0.259867
vt 0.999582 0.260028
vt 0.000359 0.260065
s 0
usemtl Material
f 108/179/1 10/17/1 46/79/1 106/176/1
f 37/65/2 266/445/2 269/451/2 253/417/2 143/234/2 142/233/2
f 5/8/3 1/1/3 2/3/3 6/9/3
f 37/65/1 142/233/1 164/277/1 168/283/1
f 136/222/1 38/67/1 161/270/1 158/263/1
f 61/102/4 57/93/4 7/12/4 39/68/4
f 63/106/3 5/8/3 6/9/3 56/91/3
f 144/237/4 143/235/4 253/416/4 255/420/4 256/422/4 254/418/4 10/18/4 41/70/4
f 46/79/5 270/452/5 265/443/5 45/78/5
f 3/5/3 8/14/3 9/16/3 4/6/3
f 197/325/3 32/58/3 217/359/3 226/380/3
f 105/175/6 113/186/6 45/76/6 42/71/6
f 65/108/3 23/42/3 278/463/3 287/472/3
f 21/37/4 14/25/4 17/29/4 24/43/4
f 20/33/6 13/22/6 16/27/6 23/40/6
f 59/98/4 58/96/4 15/26/4 22/39/4
f 22/39/4 15/26/4 11/19/4 19/31/4
f 19/32/7 11/20/7 13/23/7 20/36/7
f 26/45/2 12/21/2 14/24/2 21/38/2
f 25/44/6 18/30/6 12/21/6 26/45/6
f 79/130/6 25/44/6 26/45/6 80/131/6
f 81/134/7 294/481/7 295/483/7 82/136/7
f 74/120/6 2/2/6 30/53/6 82/135/6
f 76/124/4 22/39/4 19/31/4 73/118/4
f 88/144/4 59/98/4 22/39/4 76/124/4
f 74/121/6 20/34/6 23/41/6 77/127/6
f 75/122/4 21/37/4 24/43/4 78/129/4
f 115/188/6 103/173/6 25/44/6 79/130/6
f 18/30/2 25/44/2 279/464/2 275/460/2
f 16/28/1 64/107/1 286/471/1 274/459/1
f 25/44/3 103/173/3 291/476/3 279/464/3
f 292/477/6 289/474/6 276/461/6 280/465/6
f 80/131/6 26/45/6 299/490/6 300/491/6 84/140/6
f 20/35/6 74/120/6 82/135/6 295/482/6 296/484/6
f 2/3/3 1/1/3 29/51/3 30/54/3
f 3/5/3 4/6/3 28/48/3 27/46/3
f 21/37/4 75/122/4 83/137/4 297/486/4 298/488/4
f 1/1/3 5/8/3 94/158/3 92/154/3
f 73/118/4 19/31/4 293/478/4 294/480/4 81/132/4
f 102/172/6 104/174/6 36/64/6 18/30/6
f 191/315/3 31/56/3 229/387/3 221/369/3
f 13/22/6 32/57/6 34/61/6 16/27/6
f 58/96/4 60/100/4 33/60/4 15/26/4
f 33/60/4 39/68/4 138/224/4 137/223/4 185/305/4 188/309/4
f 32/59/3 186/306/3 213/352/3 217/360/3
f 141/231/4 192/317/4 222/370/4 165/279/4
f 18/30/6 36/64/6 31/56/6 12/21/6
f 38/66/1 147/243/1 170/285/1 161/269/1
f 258/426/8 43/72/8 44/75/8 262/436/8
f 201/337/6 150/253/6 179/298/6 242/400/6
f 60/100/4 61/102/4 39/68/4 33/60/4
f 39/68/4 7/12/4 249/407/4 251/411/4 252/413/4 250/409/4 139/225/4 138/224/4
f 12/21/2 31/56/2 191/315/2 194/321/2 14/24/2
f 209/348/6 156/261/6 174/293/6 234/392/6
f 146/242/6 198/326/6 225/376/6 171/288/6
f 105/175/1 42/71/1 152/257/1 183/302/1
f 38/66/1 40/69/1 149/251/1 147/243/1
f 42/71/1 37/65/1 155/260/1 152/257/1
f 31/56/3 210/349/3 233/391/3 229/387/3
f 214/353/7 159/264/7 162/272/7 218/363/7
f 155/260/1 37/65/1 168/283/1 173/292/1
f 31/56/3 36/64/3 206/345/3 210/349/3
f 193/318/4 192/317/4 141/231/4 144/237/4 41/70/4 35/63/4
f 230/388/2 167/282/2 165/278/2 222/371/2
f 52/86/3 66/109/3 241/399/3 238/396/3
f 167/282/2 230/388/2 234/392/2 174/293/2
f 66/109/3 34/62/3 202/338/3 241/399/3
f 14/25/4 194/320/4 193/318/4 35/63/4 17/29/4
f 218/361/7 162/273/7 171/287/7 225/377/7
f 185/305/4 137/223/4 159/265/4 214/354/4
f 198/327/6 146/241/6 150/252/6 201/335/6
f 10/17/3 254/419/3 270/452/3 46/79/3
f 36/64/3 104/174/3 245/403/3 206/345/3
f 34/62/3 32/58/3 197/325/3 202/338/3
f 42/71/6 45/77/6 265/442/6 267/446/6 268/449/6 266/444/6 37/65/6
f 38/66/6 261/433/6 263/437/6 264/440/6 262/435/6 44/73/6 40/69/6
f 106/176/8 46/79/8 45/78/8 113/185/8
f 136/222/7 139/226/7 250/410/7 257/425/7 261/434/7 38/67/7
f 68/111/8 54/88/8 55/89/8 62/105/8
f 53/87/1 105/175/1 183/302/1 176/295/1
f 242/400/6 179/298/6 177/296/6 237/395/6
f 59/99/7 88/145/7 134/217/7 130/209/7
f 237/395/6 177/296/6 182/301/6 246/404/6
f 111/183/2 112/184/2 126/202/2 124/200/2
f 64/107/6 66/109/6 52/86/6 50/84/6
f 50/84/1 102/172/1 290/475/1 281/466/1
f 283/468/6 282/467/6 289/474/6 292/477/6
f 87/143/6 65/108/6 51/85/6 85/141/6
f 108/179/1 48/82/1 119/194/1 118/192/1
f 61/103/7 60/101/7 131/212/7 132/213/7
f 55/90/2 53/87/2 70/113/2 71/114/2
f 101/171/3 49/83/3 47/80/3 107/178/3
f 57/94/7 61/103/7 132/213/7 128/204/7
f 57/95/1 48/82/1 54/88/1 68/111/1
f 7/13/1 57/95/1 68/111/1 43/72/1
f 40/69/6 44/74/6 62/104/6 67/110/6
f 77/126/6 23/42/6 65/108/6 87/143/6
f 23/42/7 16/28/7 274/459/7 278/463/7
f 102/172/1 18/30/1 275/460/1 290/475/1
f 16/28/6 34/62/6 66/109/6 64/107/6
f 40/69/1 67/110/1 180/299/1 149/251/1
f 246/404/6 182/301/6 153/258/6 205/344/6
f 43/72/8 68/111/8 62/105/8 44/75/8
f 109/181/2 111/183/2 124/200/2 120/196/2
f 104/174/3 52/86/3 238/396/3 245/403/3
f 58/97/7 59/99/7 130/209/7 129/208/7
f 103/173/3 51/85/3 284/469/3 291/476/3
f 48/82/1 57/95/1 128/205/1 119/194/1
f 86/142/3 114/187/3 135/220/3 133/216/3
f 49/83/3 63/106/3 56/91/3 47/80/3
f 114/187/2 110/182/2 122/198/2 135/220/2
f 69/112/6 72/116/6 71/114/6 70/113/6
f 67/110/7 62/104/7 72/116/7 69/112/7
f 53/87/3 67/110/3 69/112/3 70/113/3
f 62/105/1 55/89/1 71/115/1 72/117/1
f 76/125/1 73/119/1 91/151/1 95/159/1
f 6/10/6 77/126/6 87/143/6 56/92/6
f 3/5/3 27/46/3 307/507/3 308/509/3 90/149/3
f 56/92/6 87/143/6 85/141/6 47/81/6
f 84/140/2 300/491/2 297/487/2 83/139/2
f 4/7/6 80/131/6 84/140/6 28/49/6
f 29/52/7 81/134/7 82/136/7 30/55/7
f 28/50/2 84/140/2 83/139/2 27/47/2
f 107/177/6 115/188/6 79/130/6 9/15/6
f 88/146/1 76/125/1 95/159/1 100/170/1
f 2/4/6 74/121/6 77/127/6 6/11/6
f 101/171/3 8/14/3 89/147/3 116/190/3
f 26/45/1 21/38/1 298/489/1 299/490/1
f 114/187/1 86/142/1 99/168/1 117/191/1
f 9/15/6 79/130/6 80/131/6 4/7/6
f 83/138/1 75/123/1 93/156/1 305/502/1 306/505/1
f 96/161/4 99/167/4 100/169/4 98/165/4
f 116/189/4 117/191/4 99/167/4 96/161/4
f 90/150/4 93/155/4 97/163/4 89/148/4
f 98/165/4 100/169/4 95/160/4 94/157/4
f 94/157/4 95/160/4 91/152/4 92/153/4
f 73/119/1 81/133/1 301/492/1 302/494/1 91/151/1
f 8/14/3 3/5/3 90/149/3 89/147/3
f 92/153/1 91/152/1 302/495/1 303/497/1
f 63/106/3 49/83/3 96/162/3 98/166/3
f 29/51/3 1/1/3 92/154/3 303/498/3 304/500/3
f 86/142/1 88/146/1 100/170/1 99/168/1
f 93/155/1 90/150/1 308/510/1 305/503/1
f 5/8/3 63/106/3 98/166/3 94/158/3
f 27/47/2 83/139/2 306/506/2 307/508/2
f 75/123/1 78/128/1 97/164/1 93/156/1
f 89/148/4 97/163/4 117/191/4 116/189/4
f 78/128/1 114/187/1 117/191/1 97/164/1
f 49/83/3 101/171/3 116/190/3 96/162/3
f 47/81/6 85/141/6 115/188/6 107/177/6
f 41/70/4 10/18/4 108/180/4 112/184/4
f 8/14/3 101/171/3 107/178/3 9/16/3
f 24/43/4 17/29/4 109/181/4 110/182/4
f 78/129/4 24/43/4 110/182/4 114/187/4
f 288/473/6 285/470/6 282/467/6 283/468/6
f 17/29/4 35/63/4 111/183/4 109/181/4
f 205/344/6 153/258/6 156/261/6 209/348/6
f 35/63/4 41/70/4 112/184/4 111/183/4
f 54/88/8 106/176/8 113/185/8 55/89/8
f 67/110/1 53/87/1 176/295/1 180/299/1
f 50/84/6 52/86/6 104/174/6 102/172/6
f 51/85/3 65/108/3 287/472/3 284/469/3
f 64/107/1 50/84/1 281/466/1 286/471/1
f 85/141/6 51/85/6 103/173/6 115/188/6
f 53/87/6 55/90/6 113/186/6 105/175/6
f 48/82/1 108/179/1 106/176/1 54/88/1
f 124/200/4 126/202/4 127/203/4 125/201/4
f 120/196/4 124/200/4 125/201/4 121/197/4
f 135/220/4 122/198/4 123/199/4 133/215/4
f 122/198/4 120/196/4 121/197/4 123/199/4
f 126/202/4 118/193/4 119/195/4 127/203/4
f 125/201/4 127/203/4 132/214/4 131/211/4
f 121/197/4 125/201/4 131/211/4 129/207/4
f 133/215/4 123/199/4 130/210/4 134/218/4
f 123/199/4 121/197/4 129/207/4 130/210/4
f 127/203/4 119/195/4 128/206/4 132/214/4
f 112/184/2 108/180/2 118/193/2 126/202/2
f 60/101/7 58/97/7 129/208/7 131/212/7
f 88/146/3 86/142/3 133/216/3 134/219/3
f 110/182/2 109/181/2 120/196/2 122/198/2
f 136/221/9 140/228/9 137/223/9 138/224/9 139/227/9
f 141/231/10 145/238/10 142/232/10 143/236/10 144/237/10
f 183/302/11 152/257/11 154/259/11 184/303/11
f 184/303/12 154/259/12 153/258/12 182/301/12
f 147/244/11 149/250/11 151/254/11 148/246/11
f 148/247/12 151/255/12 150/252/12 146/241/12
f 152/257/11 155/260/11 157/262/11 154/259/11
f 154/259/12 157/262/12 156/261/12 153/258/12
f 158/263/13 161/270/13 163/274/13 160/266/13
f 160/266/14 163/274/14 162/272/14 159/264/14
f 168/283/15 164/277/15 166/281/15 169/284/15
f 169/284/16 166/281/16 165/278/16 167/282/16
f 171/287/14 162/273/14 163/275/14 172/289/14
f 172/290/13 163/276/13 161/271/13 170/286/13
f 167/282/16 174/293/16 175/294/16 169/284/16
f 169/284/15 175/294/15 173/292/15 168/283/15
f 155/260/11 173/292/11 175/294/11 157/262/11
f 157/262/12 175/294/12 174/293/12 156/261/12
f 136/222/17 158/263/17 160/267/17 140/229/17
f 140/230/18 160/268/18 159/265/18 137/223/18
f 170/286/11 147/245/11 148/248/11 172/290/11
f 172/291/12 148/249/12 146/242/12 171/288/12
f 141/231/19 165/279/19 166/280/19 145/239/19
f 145/240/20 166/281/20 164/277/20 142/233/20
f 180/299/11 176/295/11 178/297/11 181/300/11
f 181/300/12 178/297/12 177/296/12 179/298/12
f 149/251/11 180/299/11 181/300/11 151/256/11
f 151/256/12 181/300/12 179/298/12 150/253/12
f 176/295/11 183/302/11 184/303/11 178/297/11
f 178/297/12 184/303/12 182/301/12 177/296/12
f 15/26/4 33/60/4 188/309/4 187/307/4 11/19/4
f 185/304/21 189/311/21 190/314/21 186/306/21 187/308/21 188/310/21
f 191/315/22 195/322/22 196/324/22 192/316/22 193/319/22 194/321/22
f 222/370/23 192/317/23 196/323/23 224/373/23
f 224/374/5 196/324/5 195/322/5 223/372/5
f 223/372/24 195/322/24 191/315/24 221/369/24
f 246/404/25 205/344/25 207/346/25 248/406/25
f 248/406/26 207/346/26 208/347/26 247/405/26
f 247/405/27 208/347/27 206/345/27 245/403/27
f 198/328/25 201/336/25 203/339/25 200/332/25
f 200/333/26 203/340/26 204/342/26 199/331/26
f 199/330/27 204/343/27 202/338/27 197/325/27
f 205/344/25 209/348/25 211/350/25 207/346/25
f 207/346/26 211/350/26 212/351/26 208/347/26
f 208/347/27 212/351/27 210/349/27 206/345/27
f 218/362/28 225/378/28 227/381/28 220/366/28
f 220/367/29 227/382/29 228/385/29 219/364/29
f 219/364/30 228/385/30 226/380/30 217/359/30
f 214/353/28 218/363/28 220/368/28 216/356/28
f 216/356/29 220/368/29 219/365/29 215/355/29
f 215/355/30 219/365/30 217/360/30 213/352/30
f 230/388/31 222/371/31 224/375/31 232/390/31
f 232/390/32 224/375/32 223/372/32 231/389/32
f 231/389/33 223/372/33 221/369/33 229/387/33
f 234/392/31 230/388/31 232/390/31 236/394/31
f 236/394/32 232/390/32 231/389/32 235/393/32
f 235/393/33 231/389/33 229/387/33 233/391/33
f 233/391/27 210/349/27 212/351/27 235/393/27
f 235/393/26 212/351/26 211/350/26 236/394/26
f 236/394/25 211/350/25 209/348/25 234/392/25
f 213/352/24 186/306/24 190/314/24 215/355/24
f 215/355/5 190/314/5 189/312/5 216/357/5
f 216/358/23 189/313/23 185/305/23 214/354/23
f 197/325/27 226/380/27 228/385/27 199/330/27
f 199/331/26 228/386/26 227/383/26 200/333/26
f 200/334/25 227/384/25 225/379/25 198/329/25
f 242/400/25 237/395/25 239/397/25 244/402/25
f 244/402/26 239/397/26 240/398/26 243/401/26
f 243/401/27 240/398/27 238/396/27 241/399/27
f 201/337/25 242/400/25 244/402/25 203/341/25
f 203/341/26 244/402/26 243/401/26 204/343/26
f 204/343/27 243/401/27 241/399/27 202/338/27
f 237/395/25 246/404/25 248/406/25 239/397/25
f 239/397/26 248/406/26 247/405/26 240/398/26
f 240/398/27 247/405/27 245/403/27 238/396/27
f 11/20/7 187/308/7 186/306/7 32/59/7 13/23/7
f 269/451/34 266/445/34 268/450/34 271/453/34
f 271/453/35 268/450/35 267/447/35 272/454/35
f 272/455/36 267/448/36 265/443/36 270/452/36
f 261/434/37 257/425/37 259/427/37 263/438/37
f 263/439/38 259/428/38 260/431/38 264/441/38
f 264/441/39 260/431/39 258/426/39 262/436/39
f 257/425/40 250/410/40 252/414/40 259/429/40
f 259/430/41 252/415/41 251/412/41 260/432/41
f 260/432/42 251/412/42 249/408/42 258/426/42
f 270/452/43 254/419/43 256/423/43 272/456/43
f 272/457/44 256/424/44 255/421/44 271/453/44
f 271/453/45 255/421/45 253/417/45 269/451/45
f 249/408/1 7/13/1 43/72/1 258/426/1
f 290/475/8 275/460/8 276/461/8 289/474/8
f 273/458/46 277/462/46 278/463/46 274/459/46
f 275/460/47 279/464/47 280/465/47 276/461/47
f 292/477/26 280/465/26 279/464/26 291/476/26
f 286/471/8 281/466/8 282/467/8 285/470/8
f 288/473/26 283/468/26 284/469/26 287/472/26
f 274/459/8 286/471/8 285/470/8 273/458/8
f 277/462/26 288/473/26 287/472/26 278/463/26
f 281/466/8 290/475/8 289/474/8 282/467/8
f 283/468/26 292/477/26 291/476/26 284/469/26
f 277/462/4 273/458/4 285/470/4 288/473/4
f 299/490/48 298/489/48 297/487/48 300/491/48
f 293/479/41 296/485/41 295/483/41 294/481/41
f 19/32/1 20/36/1 296/485/1 293/479/1
f 301/493/49 304/501/49 303/499/49 302/496/49
f 305/504/50 308/511/50 307/508/50 306/506/50
f 81/134/7 29/52/7 304/501/7 301/493/7
