# Blender 3.3.0
# www.blender.org
mtllib computer4.mtl
o Cube
v 1.000000 -0.866524 -0.513199
v 1.000000 -0.866524 0.513199
v -1.000000 -0.866524 -0.513199
v -1.000000 -0.866524 0.513199
v -1.000000 -0.866524 0.141073
v -1.000000 1.245073 0.141073
v 1.000000 -0.866524 0.141073
v 1.000000 0.224974 -0.513199
v -1.000000 0.224974 0.513199
v 1.000000 0.224974 0.513199
v -1.000000 0.224974 -0.513199
v 1.000000 0.224974 0.141073
v -1.000000 0.224974 0.141073
v 1.000000 -0.527395 -0.513199
v 1.000000 -0.527395 0.513199
v -1.000000 -0.527395 -0.513199
v 1.000000 -0.527395 0.141073
v -1.000000 -0.527395 0.141073
v -1.000000 -0.527395 0.513199
v 0.942781 -0.866524 -0.513199
v 0.942781 -0.866524 0.513199
v 0.942781 -0.866524 0.141073
v 0.942781 1.245073 0.141073
v 0.942781 0.224974 -0.513199
v 0.942781 0.224974 0.513199
v 0.942781 -0.527395 0.513199
v 0.942781 -0.527395 -0.513199
v -1.221878 -0.527395 -0.513199
v -1.221878 -0.866524 -0.513199
v -1.221878 1.245073 0.141073
v -1.221878 -0.866524 0.141073
v -1.221878 -0.527395 0.141073
v -1.221878 0.224974 -0.513199
v -1.221878 0.224974 0.141073
v 1.074437 -0.527395 0.141073
v -1.000000 0.772738 0.513199
v 1.000000 0.772738 -0.513199
v 1.000000 0.772738 0.513199
v -1.000000 0.772738 -0.513199
v 1.000000 0.772738 0.141073
v -1.000000 0.772738 0.141073
v 0.942781 0.772738 -0.513199
v 0.942781 0.772738 0.513199
v -1.221878 0.772738 -0.513199
v -1.221878 0.772738 0.141073
v -1.000000 1.208131 0.513199
v 1.000000 1.208131 -0.513199
v 1.000000 1.208131 0.513199
v -1.000000 1.208131 -0.513199
v 1.000000 1.208131 0.141073
v -1.000000 1.208131 0.141073
v 0.942781 1.208131 -0.513199
v 0.942781 1.208131 0.513199
v -1.221878 1.208131 -0.513199
v -1.221878 1.208131 0.141073
v -1.000000 -0.866524 0.474436
v -1.000000 1.245073 0.474436
v 1.000000 -0.866524 0.474436
v -1.000000 0.224974 0.474436
v 1.000000 0.224974 0.474436
v 1.000000 -0.527395 0.474436
v -1.000000 -0.527395 0.474436
v 0.942781 -0.866524 0.474436
v 0.942781 1.245073 0.474436
v 1.074437 -0.527395 0.474436
v -1.000000 0.772738 0.474436
v -1.000000 1.208131 0.474436
v -1.000000 1.245073 -0.473341
v 1.000000 -0.866524 -0.473341
v -1.000000 -0.866524 -0.473341
v 1.000000 0.224974 -0.473341
v 1.000000 -0.527395 -0.473341
v 0.942781 1.245073 -0.473341
v 0.942781 -0.866524 -0.473341
v -1.221878 1.245073 -0.473341
v -1.221878 -0.866524 -0.473341
v -1.221878 0.224974 -0.473341
v -1.221878 -0.527395 -0.473341
v 1.074437 -0.527395 -0.473341
v -1.221878 0.772738 -0.473341
v -1.221878 1.208131 -0.473341
v 1.000000 -0.527395 -0.546774
v 1.000000 -0.866524 -0.546774
v 1.000000 -0.527395 0.546774
v 1.000000 -0.866524 0.546774
v 0.942781 -0.866524 0.546774
v 1.000000 0.772738 -0.546774
v 1.000000 0.224974 -0.546774
v 1.000000 0.772738 0.546774
v 1.000000 0.224974 0.546774
v 0.942781 0.224974 -0.546774
v 0.942781 -0.527395 -0.546774
v 0.942781 -0.866524 -0.546774
v 0.942781 0.224974 0.546774
v 0.942781 -0.527395 0.546774
v 0.942781 0.772738 -0.546774
v 0.942781 0.772738 0.546774
v 1.000000 1.208131 -0.546774
v 1.000000 1.208131 0.546774
v 0.942781 1.208131 -0.546774
v 0.942781 1.208131 0.546774
v 0.980354 1.245073 -0.513199
v 1.000000 1.225427 -0.513199
v 0.990177 1.242441 -0.513199
v 0.997368 1.235250 -0.513199
v 0.980354 1.245073 0.513199
v 1.000000 1.225427 0.513199
v 0.990177 1.242441 0.513199
v 0.997368 1.235250 0.513199
v 0.980354 1.245073 0.141073
v 1.000000 1.225427 0.141073
v 0.990177 1.242441 0.141073
v 0.997368 1.235250 0.141073
v 1.000000 1.225427 0.474436
v 0.980354 1.245073 0.474436
v 0.997368 1.235250 0.474436
v 0.990177 1.242441 0.474436
v 1.000000 1.225427 -0.473341
v 0.980354 1.245073 -0.473341
v 0.997368 1.235250 -0.473341
v 0.990177 1.242441 -0.473341
v 0.942781 1.245073 -0.527128
v 0.942781 1.225427 -0.546774
v 0.942781 1.242441 -0.536951
v 0.942781 1.235250 -0.544142
v 1.000000 1.225427 -0.546774
v 0.980354 1.245073 -0.527128
v 0.997368 1.235250 -0.544142
v 0.990177 1.242441 -0.536951
v 0.980354 1.245073 0.527128
v 1.000000 1.225427 0.546774
v 0.990177 1.242441 0.536951
v 0.997368 1.235250 0.544142
v 0.942781 1.225427 0.546774
v 0.942781 1.245073 0.527128
v 0.942781 1.235250 0.544142
v 0.942781 1.242441 0.536951
v 1.051645 1.208131 0.141073
v 1.073338 1.186439 0.141073
v 1.062492 1.205225 0.141073
v 1.070432 1.197285 0.141073
v 1.073338 0.794430 0.141073
v 1.051645 0.772738 0.141073
v 1.070432 0.783584 0.141073
v 1.062492 0.775644 0.141073
v 1.073338 0.794430 -0.451649
v 1.062492 0.775644 -0.470435
v 1.070432 0.783584 -0.462495
v 1.073338 1.186439 -0.451649
v 1.070432 1.197285 -0.462495
v 1.062492 1.205225 -0.470435
v 1.073338 0.794430 0.452743
v 1.070432 0.783584 0.463590
v 1.062492 0.775644 0.471530
v 1.073338 1.186439 0.452743
v 1.062492 1.205225 0.471530
v 1.070432 1.197285 0.463590
v 1.000000 0.772738 0.451174
v 1.000000 0.795999 0.474436
v 1.000000 0.772738 0.497697
v 1.000000 0.749476 0.474436
v 1.000000 0.775854 0.462805
v 1.000000 0.784368 0.471319
v 1.000000 1.184870 0.474436
v 1.000000 1.208131 0.451174
v 1.000000 1.225377 0.474436
v 1.000000 1.208131 0.497697
v 1.000000 1.196501 0.471319
v 1.000000 1.205015 0.462805
v 1.000000 0.795999 -0.473341
v 1.000000 0.772738 -0.450080
v 1.000000 0.749476 -0.473341
v 1.000000 0.772738 -0.496603
v 1.000000 0.784368 -0.470225
v 1.000000 0.775854 -0.461711
v 1.000000 1.208131 -0.450080
v 1.000000 1.184870 -0.473341
v 1.000000 1.208131 -0.496603
v 1.000000 1.225377 -0.473341
v 1.000000 1.205015 -0.461711
v 1.000000 1.196501 -0.470225
v 1.051645 0.772738 -0.450080
v 1.051645 0.795999 -0.473341
v 1.062445 0.775631 -0.470448
v 1.051645 0.775854 -0.461711
v 1.051645 0.784368 -0.470225
v 1.051645 1.184870 -0.473341
v 1.051645 1.208131 -0.450080
v 1.062445 1.205238 -0.470448
v 1.051645 1.196501 -0.470225
v 1.051645 1.205015 -0.461711
v 1.051645 0.795999 0.474436
v 1.051645 0.772738 0.451174
v 1.062445 0.775631 0.471542
v 1.051645 0.784368 0.471319
v 1.051645 0.775854 0.462805
v 1.051645 1.208131 0.451174
v 1.051645 1.184870 0.474436
v 1.062445 1.205238 0.471542
v 1.051645 1.205015 0.462805
v 1.051645 1.196501 0.471319
v 1.074437 0.203634 -0.491859
v 1.053096 0.224974 -0.513199
v 1.071578 0.214304 -0.502529
v 1.063766 0.222115 -0.510340
v 1.053096 0.224974 0.141073
v 1.074437 0.203634 0.141073
v 1.063766 0.222115 0.141073
v 1.071578 0.214304 0.141073
v 1.053096 0.224974 0.513199
v 1.074437 0.203634 0.491859
v 1.063766 0.222115 0.510340
v 1.071578 0.214304 0.502529
v 1.053096 -0.527395 -0.513199
v 1.074437 -0.527395 -0.491859
v 1.063766 -0.527395 -0.510340
v 1.071578 -0.527395 -0.502529
v 1.074437 -0.527395 0.491859
v 1.053096 -0.527395 0.513199
v 1.071578 -0.527395 0.502529
v 1.063766 -0.527395 0.510340
v 1.074437 0.203634 0.474436
v 1.053096 0.224974 0.474436
v 1.071578 0.214304 0.474436
v 1.063766 0.222115 0.474436
v 1.074437 0.203634 -0.473341
v 1.053096 0.224974 -0.473341
v 1.071578 0.214304 -0.473341
v 1.063766 0.222115 -0.473341
v -1.000000 -0.195181 0.513199
v 1.000000 -0.195181 -0.513199
v 1.000000 -0.195181 0.513199
v -1.000000 -0.195181 -0.513199
v -1.000000 -0.195181 0.141073
v 0.942781 -0.195181 0.513199
v 0.942781 -0.195181 -0.513199
v -1.221878 -0.195181 -0.513199
v -1.221878 -0.195181 0.141073
v -1.000000 -0.195181 0.474436
v -1.221878 -0.195181 -0.473341
v 1.000000 -0.195181 -0.546774
v 1.000000 -0.195181 0.546774
v 0.942781 -0.195181 0.546774
v 0.942781 -0.195181 -0.546774
v 1.074437 -0.204604 -0.491859
v 1.071578 -0.199893 -0.502529
v 1.063766 -0.196444 -0.510340
v 1.053096 -0.195181 -0.513199
v 1.053096 -0.195181 0.513199
v 1.063766 -0.196444 0.510340
v 1.071578 -0.199893 0.502529
v 1.074437 -0.204604 0.491859
v 1.074437 -0.204604 -0.473341
v 1.074437 -0.204604 0.141073
v 1.074437 -0.204604 0.474436
v -1.000000 1.229624 -0.513199
v -1.000000 1.245073 -0.497750
v -1.000000 1.237349 -0.511129
v -1.000000 1.243003 -0.505475
v -1.000000 1.229624 0.513199
v -1.000000 1.245073 0.497750
v -1.000000 1.237349 0.511129
v -1.000000 1.243003 0.505475
v 0.942781 1.245073 0.497750
v 0.942781 1.229624 0.513199
v 0.942781 1.245073 0.527078
v 0.942747 1.245073 0.513199
v 0.942781 1.243003 0.505475
v 0.942781 1.237349 0.511129
v 0.942781 1.229624 -0.513199
v 0.942781 1.245073 -0.497750
v 0.942747 1.245073 -0.513199
v 0.942781 1.245073 -0.527078
v 0.942781 1.237349 -0.511129
v 0.942781 1.243003 -0.505475
v -1.221878 1.245073 -0.497750
v -1.221878 1.229624 -0.513199
v -1.221878 1.243003 -0.505475
v -1.221878 1.237349 -0.511129
vn -0.0000 1.0000 -0.0000
vn -0.0000 -0.0000 1.0000
vn -0.0000 -1.0000 -0.0000
vn 1.0000 -0.0000 -0.0000
vn -1.0000 -0.0000 -0.0000
vn -0.0000 -0.0000 -1.0000
vn 0.2588 -0.0000 -0.9659
vn 0.2588 0.9659 -0.0000
vn 0.7071 0.7071 -0.0000
vn 0.9659 0.2588 -0.0000
vn -0.0000 0.9659 -0.2588
vn -0.0000 0.7071 -0.7071
vn -0.0000 0.2588 -0.9659
vn -0.0000 0.9659 0.2588
vn -0.0000 0.7071 0.7071
vn -0.0000 0.2588 0.9659
vn 0.9659 -0.2588 -0.0000
vn 0.7071 -0.7071 -0.0000
vn 0.2588 -0.0000 0.9659
vn 0.2588 -0.9659 -0.0000
vn 0.7071 -0.0000 0.7071
vn 0.9659 -0.0000 0.2588
vn 0.9659 -0.0000 -0.2588
vn 0.7071 -0.0000 -0.7071
vn -0.2235 -0.9415 -0.2523
vn -0.5060 -0.6099 -0.6099
vn -0.2235 -0.2523 -0.9415
vn -0.2235 0.2523 -0.9415
vn -0.5060 0.6099 -0.6099
vn -0.2235 0.9415 -0.2523
vn -0.2235 -0.2523 0.9415
vn -0.5060 -0.6099 0.6099
vn -0.2235 -0.9415 0.2523
vn -0.2235 0.9415 0.2523
vn -0.5060 0.6099 0.6099
vn -0.2235 0.2523 0.9415
vn -0.0000 -0.2588 -0.9659
vn -0.0000 -0.7071 -0.7071
vn -0.0000 -0.9659 -0.2588
vn -0.0000 -0.2588 0.9659
vn -0.0000 -0.7071 0.7071
vn -0.0000 -0.9659 0.2588
vn -1.0000 -0.0030 -0.0000
vt 0.245972 0.506231
vt 0.671669 0.998760
vt -0.000000 0.506232
vt 0.520881 0.998760
vt 0.048077 0.506836
vt 0.671669 0.511580
vt 0.045150 0.505429
vt 0.520881 0.511580
vt 0.503906 0.508898
vt 0.413268 0.508898
vt 0.575550 0.511580
vt 0.413268 1.008123
vt 0.234822 0.283406
vt 0.089178 0.506231
vt 0.575550 0.998760
vt 0.245972 0.761355
vt 0.253743 0.637072
vt 0.045150 0.635928
vt 0.503906 0.766951
vt -0.000000 0.761355
vt 0.252339 0.635928
vt 0.048077 0.637072
vt 0.089178 0.761355
vt 0.413268 0.766951
vt 0.245972 0.585499
vt 0.253743 0.547300
vt -0.000000 0.585499
vt 0.252339 0.545975
vt 0.048077 0.547300
vt 0.089178 0.585499
vt 0.413268 0.589075
vt 0.503906 0.589075
vt 0.045150 0.545975
vt 0.247859 0.506836
vt 0.671669 0.984822
vt 0.246412 0.505429
vt 0.520881 0.984822
vt 0.575550 0.984822
vt 0.234822 0.040559
vt 0.247859 0.637072
vt 0.246412 0.635928
vt 0.246412 0.545975
vt 0.247859 0.547300
vt 0.048077 0.547300
vt 0.253906 0.589075
vt 0.048077 0.506836
vt 0.253906 0.508898
vt 0.671669 0.511580
vt 0.234822 0.283406
vt 0.413268 1.008123
vt 0.575550 0.511580
vt 0.413268 0.508898
vt 0.413268 0.589075
vt 0.253906 0.766951
vt 0.048077 0.637072
vt 0.413268 0.766951
vt 0.089178 0.585499
vt 0.045150 0.701418
vt 0.503906 0.896453
vt 0.245972 0.889388
vt -0.000000 0.889388
vt 0.048077 0.702431
vt 0.089178 0.889388
vt 0.413268 0.896453
vt 0.247858 0.702431
vt 0.246412 0.701418
vt 0.048077 0.702431
vt 0.253906 0.896453
vt 0.413268 0.896453
vt 0.503906 0.999389
vt 0.045150 0.753473
vt 0.245972 0.991156
vt -0.000000 0.991156
vt 0.048077 0.754381
vt 0.089178 0.991156
vt 0.413268 0.999389
vt 0.247858 0.754381
vt 0.246412 0.753473
vt 0.048077 0.754381
vt 0.253906 0.999389
vt 0.413268 0.999389
vt 0.526576 0.511580
vt 0.494465 0.508898
vt 0.494465 1.008123
vt 0.153625 0.283406
vt 0.009289 0.506232
vt 0.526576 0.998760
vt 0.494465 0.766951
vt 0.009289 0.761355
vt 0.009289 0.585499
vt 0.494465 0.589075
vt 0.526576 0.984822
vt 0.153625 0.040559
vt 0.009289 0.585499
vt 0.494465 0.896453
vt 0.494465 0.999389
vt 0.384476 0.283406
vt 0.236420 0.506231
vt 0.665813 0.998760
vt 0.665813 0.511580
vt 0.236420 0.761355
vt 0.236420 0.585499
vt 0.384476 0.040559
vt 0.665813 0.984822
vt 0.384476 0.283406
vt 0.263614 1.008123
vt 0.665813 0.511580
vt 0.263614 0.508898
vt 0.263614 0.766951
vt 0.263614 0.589075
vt 0.236420 0.585499
vt 0.263614 0.896453
vt 0.263614 0.999389
vt 0.245972 0.585499
vt 0.253743 0.547300
vt 0.245972 0.506231
vt 0.253743 0.506836
vt 0.671669 0.998760
vt -0.000000 0.585499
vt 0.252339 0.545975
vt 0.252339 0.505429
vt -0.000000 0.506232
vt 0.520881 0.998760
vt 0.246412 0.505429
vt 0.520881 0.984822
vt 0.253743 0.702431
vt 0.245972 0.889388
vt 0.245972 0.761355
vt 0.253743 0.637072
vt 0.252339 0.701418
vt -0.000000 0.889388
vt 0.252339 0.635928
vt -0.000000 0.761355
vt 0.247859 0.637072
vt 0.247859 0.547300
vt 0.247859 0.506836
vt 0.671669 0.984822
vt 0.246412 0.635928
vt 0.246412 0.545975
vt 0.247858 0.702431
vt 0.246412 0.701418
vt 0.253743 0.754381
vt 0.245972 0.991156
vt -0.000000 0.991156
vt 0.252339 0.753473
vt 0.247858 0.754381
vt 0.246412 0.753473
vt 0.394184 0.035862
vt 0.245972 0.995199
vt 0.394184 0.034634
vt 0.394184 0.033406
vt 0.245972 0.999791
vt 0.144184 0.035862
vt -0.000000 0.995199
vt 0.144184 0.034634
vt 0.144184 0.033406
vt 0.000000 0.999791
vt 0.234822 0.035862
vt 0.089178 0.995199
vt 0.234822 0.034634
vt 0.234822 0.033406
vt 0.089178 0.999791
vt 0.009289 0.995199
vt 0.153625 0.035862
vt 0.153625 0.033406
vt 0.009289 0.999791
vt 0.153625 0.034634
vt 0.236420 0.995199
vt 0.384476 0.035862
vt 0.384476 0.033406
vt 0.236420 0.999791
vt 0.384476 0.034634
vt 0.247859 0.758789
vt 0.394184 0.040559
vt 0.247858 0.756445
vt 0.247859 0.758475
vt 0.394184 0.040559
vt 0.247858 0.757617
vt 0.394184 0.040559
vt 0.247858 0.758789
vt 0.245972 0.995199
vt 0.253743 0.756445
vt 0.394184 0.035862
vt 0.394184 0.033406
vt 0.245972 0.999791
vt 0.394184 0.033735
vt 0.253472 0.758789
vt 0.394184 0.034634
vt 0.144184 0.035862
vt 0.252339 0.755541
vt -0.000000 0.995199
vt 0.144184 0.034634
vt 0.144184 0.033735
vt 0.252067 0.757890
vt 0.144184 0.033406
vt 0.000000 0.999791
vt 0.246412 0.755541
vt 0.246412 0.757890
vt 0.144184 0.040559
vt 0.246412 0.756716
vt 0.144184 0.040559
vt 0.246412 0.757890
vt 0.246412 0.757575
vt 0.144184 0.040559
vt 0.089178 0.991156
vt 0.089178 0.986086
vt 0.089178 0.991156
vt 0.089178 0.988621
vt 0.089178 0.894459
vt 0.089178 0.889388
vt 0.089178 0.891923
vt 0.089178 0.889388
vt 0.231221 0.894459
vt 0.236072 0.889728
vt 0.233821 0.891923
vt 0.231221 0.986086
vt 0.233821 0.988621
vt 0.236072 0.990816
vt 0.014488 0.894459
vt 0.011889 0.891923
vt 0.009638 0.889728
vt 0.014488 0.986086
vt 0.009638 0.990816
vt 0.011889 0.988621
vt 0.014864 0.889388
vt 0.009289 0.889388
vt 0.009289 0.894825
vt 0.003715 0.889388
vt 0.009289 0.883951
vt 0.012077 0.889388
vt 0.010036 0.889388
vt 0.009289 0.892107
vt 0.009289 0.985719
vt 0.009289 0.991156
vt 0.014864 0.991156
vt 0.009289 0.995187
vt 0.003715 0.991156
vt 0.009289 0.988437
vt 0.009289 0.990428
vt 0.012077 0.991156
vt 0.236420 0.894825
vt 0.236420 0.889388
vt 0.230845 0.889388
vt 0.236420 0.883951
vt 0.241994 0.889388
vt 0.236420 0.892107
vt 0.236420 0.890117
vt 0.233633 0.889388
vt 0.230845 0.991156
vt 0.236420 0.991156
vt 0.236420 0.985719
vt 0.241994 0.991156
vt 0.236420 0.995187
vt 0.233633 0.991156
vt 0.235673 0.991156
vt 0.236420 0.988437
vt 0.230845 0.889388
vt 0.236420 0.889388
vt 0.236420 0.894825
vt 0.236073 0.889726
vt 0.233633 0.889388
vt 0.235673 0.889388
vt 0.236420 0.892107
vt 0.236420 0.985719
vt 0.236420 0.991156
vt 0.230845 0.991156
vt 0.236073 0.990818
vt 0.236420 0.988437
vt 0.236420 0.990428
vt 0.233633 0.991156
vt 0.009289 0.894825
vt 0.009289 0.889388
vt 0.014864 0.889388
vt 0.009636 0.889726
vt 0.009289 0.892107
vt 0.009289 0.890117
vt 0.012077 0.889388
vt 0.014864 0.991156
vt 0.009289 0.991156
vt 0.009289 0.985719
vt 0.009636 0.990818
vt 0.012077 0.991156
vt 0.010036 0.991156
vt 0.009289 0.988438
vt 0.240858 0.756367
vt 0.245972 0.761355
vt 0.253743 0.637072
vt 0.243415 0.758861
vt 0.245287 0.761355
vt 0.253743 0.636731
vt 0.245972 0.760687
vt 0.089178 0.761355
vt 0.089178 0.756367
vt 0.089178 0.761355
vt 0.089178 0.758861
vt -0.000000 0.761355
vt 0.252339 0.635928
vt 0.005114 0.756367
vt 0.000685 0.761355
vt 0.252339 0.635586
vt 0.002557 0.758861
vt -0.000000 0.758861
vt 0.252339 0.634652
vt 0.245972 0.585499
vt 0.253743 0.547300
vt 0.240858 0.585499
vt 0.245287 0.585499
vt 0.245972 0.585499
vt 0.253743 0.547300
vt 0.243415 0.585499
vt 0.005114 0.585499
vt -0.000000 0.585499
vt 0.252339 0.545975
vt 0.002557 0.585499
vt 0.252339 0.545975
vt -0.000000 0.585499
vt 0.000685 0.585499
vt 0.252339 0.545975
vt 0.009289 0.756367
vt 0.009289 0.761355
vt 0.009289 0.758861
vt 0.009289 0.761355
vt 0.236420 0.756367
vt 0.236420 0.761355
vt 0.236420 0.758861
vt 0.236420 0.761355
vt 0.503906 0.667617
vt 0.045150 0.585694
vt 0.253743 0.586940
vt 0.252339 0.585694
vt 0.048077 0.586940
vt 0.413268 0.667617
vt 0.246412 0.585694
vt 0.247859 0.586940
vt 0.048077 0.586940
vt 0.253906 0.667617
vt 0.413268 0.667617
vt 0.494465 0.667617
vt 0.263614 0.667617
vt 0.253743 0.586940
vt 0.252339 0.585694
vt 0.246412 0.585694
vt 0.247859 0.586940
vt 0.240858 0.660947
vt 0.243415 0.662048
vt 0.253743 0.586789
vt 0.245972 0.662854
vt 0.253743 0.586940
vt 0.252339 0.585694
vt 0.252339 0.585543
vt -0.000000 0.662048
vt 0.252339 0.585131
vt 0.005114 0.660947
vt 0.236420 0.660947
vt 0.089178 0.660947
vt 0.009289 0.660947
vt 0.048077 0.756946
vt 0.390421 0.283406
vt 0.394184 0.283406
vt 0.048077 0.758789
vt 0.392302 0.283406
vt 0.503906 1.004471
vt 0.045150 0.756043
vt 0.500143 1.008123
vt 0.147947 0.283406
vt 0.503402 1.006297
vt 0.144184 0.283406
vt 0.045150 0.757890
vt 0.502025 1.007634
vt 0.146065 0.283406
vt 0.144184 0.040559
vt 0.147947 0.040559
vt 0.144184 0.040559
vt 0.246412 0.756043
vt 0.246412 0.757890
vt 0.144184 0.040559
vt 0.144184 0.038628
vt 0.144184 0.040559
vt 0.146065 0.040559
vt 0.144184 0.040559
vt 0.246412 0.757890
vt 0.394184 0.040559
vt 0.247858 0.756946
vt 0.390421 0.040559
vt 0.394184 0.038628
vt 0.247859 0.758789
vt 0.394184 0.040559
vt 0.393680 0.040559
vt 0.394184 0.040559
vt 0.247858 0.758789
vt 0.392302 0.040559
vt 0.257669 1.008123
vt 0.390421 0.283406
vt 0.253906 1.004471
vt 0.048077 0.756946
vt 0.255788 1.007634
vt 0.392302 0.283406
vt 0.254410 1.006297
vt 0.394184 0.283406
vt 0.048077 0.758789
s 0
usemtl Material
f 115/164/1 64/93/1 264/372/1 267/377/1 106/153/1
f 64/93/1 57/85/1 261/365/1 264/372/1
f 51/76/2 6/12/2 30/50/2 55/81/2
f 63/92/3 58/87/3 2/4/3 21/37/3
f 48/73/4 107/154/4 131/191/4 99/144/4
f 26/42/5 21/36/5 86/124/5 95/139/5
f 40/63/3 171/243/3 182/257/3 143/210/3
f 74/104/3 69/99/3 7/15/3 22/38/3
f 67/96/5 57/84/5 6/12/5 51/76/5
f 73/103/1 68/97/1 6/13/1 23/39/1
f 239/338/5 59/88/5 13/24/5 234/332/5
f 61/90/3 17/30/3 35/57/3 65/94/3
f 119/169/1 73/103/1 23/39/1 110/158/1
f 15/27/3 61/90/3 65/94/3 218/311/3 220/314/3 221/317/3 219/312/3
f 234/332/2 13/24/2 34/56/2 238/337/2
f 235/333/2 25/41/2 9/18/2 230/328/2
f 21/36/2 26/42/2 19/33/2 4/7/2
f 16/29/6 3/5/6 29/46/6 28/44/6
f 58/86/4 61/90/4 15/27/4 2/3/4
f 43/66/5 25/41/5 94/138/5 97/141/5
f 69/98/4 72/102/4 17/30/4 7/14/4
f 56/83/5 62/91/5 18/31/5 5/10/5
f 3/5/6 16/29/6 27/43/6 20/34/6
f 53/78/5 43/66/5 97/141/5 101/147/5
f 103/149/4 47/72/4 98/143/4 126/181/4
f 233/331/6 11/22/6 24/40/6 236/334/6
f 110/158/1 23/39/1 64/93/1 115/164/1
f 70/100/3 74/104/3 22/38/3 5/11/3
f 68/97/1 257/358/1 276/393/1 75/105/1
f 56/82/3 63/92/3 21/37/3 4/8/3
f 231/329/4 14/26/4 82/115/4 241/340/4
f 266/375/5 265/374/5 53/78/5 101/147/5 134/197/5 136/200/5 137/203/5 135/198/5
f 240/339/5 77/109/5 33/54/5 237/336/5
f 76/108/5 78/110/5 28/45/5 29/47/5
f 233/331/6 16/29/6 28/44/6 237/335/6
f 39/62/6 11/22/6 33/55/6 44/67/6
f 70/100/3 5/11/3 31/51/3 76/107/3
f 256/357/6 49/74/6 54/79/6 277/395/6
f 5/10/2 18/31/2 32/53/2 31/52/2
f 12/23/1 60/89/1 223/320/1 206/292/1
f 232/330/2 15/28/2 219/313/2 249/349/2
f 255/356/4 222/319/4 211/298/4 252/353/4
f 253/354/4 226/323/4 207/293/4 254/355/4
f 8/16/1 71/101/1 227/324/1 203/286/1
f 72/102/3 14/25/3 214/304/3 216/307/3 217/310/3 215/306/3 79/111/3
f 49/74/6 39/62/6 44/67/6 54/79/6
f 77/109/5 80/112/5 44/68/5 33/54/5
f 20/34/5 27/43/5 92/135/5 93/136/5
f 11/22/6 39/62/6 42/65/6 24/40/6
f 59/88/5 66/95/5 41/64/5 13/24/5
f 37/60/4 47/72/4 178/252/4 177/251/4 170/241/4 173/245/4
f 14/25/4 1/1/4 83/116/4 82/114/4
f 158/225/3 40/63/3 143/210/3 193/273/3
f 13/24/2 41/64/2 45/69/2 34/56/2
f 25/41/2 43/66/2 36/58/2 9/18/2
f 46/70/5 260/362/5 262/366/5 263/369/5 261/364/5 57/84/5 67/96/5
f 80/112/5 81/113/5 54/80/5 44/68/5
f 176/249/4 179/253/4 118/168/4 111/159/4 50/75/4
f 39/62/6 49/74/6 52/77/6 42/65/6
f 66/95/5 67/96/5 51/76/5 41/64/5
f 167/237/4 166/236/4 114/163/4 107/154/4 48/73/4
f 42/65/5 52/77/5 100/146/5 96/140/5
f 12/23/4 40/63/4 158/225/4 161/229/4 60/89/4
f 41/64/2 51/76/2 55/81/2 45/69/2
f 43/66/2 53/78/2 46/71/2 36/58/2
f 36/59/5 46/70/5 67/96/5 66/95/5
f 164/233/2 159/227/2 192/271/2 198/280/2
f 9/19/5 36/59/5 66/95/5 59/88/5
f 254/355/4 207/293/4 222/319/4 255/356/4
f 60/89/1 10/20/1 210/296/1 223/320/1
f 151/218/7 147/214/7 184/260/7 183/259/7 187/264/7 189/267/7
f 5/11/3 22/38/3 63/92/3 56/82/3
f 4/9/5 19/32/5 62/91/5 56/83/5
f 7/14/4 17/30/4 61/90/4 58/86/4
f 230/327/5 9/19/5 59/88/5 239/338/5
f 53/78/2 265/374/2 260/363/2 46/71/2
f 100/146/6 123/175/6 126/182/6 98/142/6
f 22/38/3 7/15/3 58/87/3 63/92/3
f 23/39/1 6/13/1 57/85/1 64/93/1
f 170/241/6 177/251/6 187/264/6 183/259/6
f 45/69/5 55/81/5 81/113/5 80/112/5
f 176/249/1 50/75/1 138/205/1 188/266/1
f 34/56/5 45/69/5 80/112/5 77/109/5
f 71/101/1 12/23/1 206/292/1 227/324/1
f 231/329/6 8/17/6 203/287/6 248/348/6
f 6/13/1 68/97/1 75/105/1 30/49/1
f 3/6/3 70/100/3 76/107/3 29/48/3
f 31/52/5 32/53/5 78/110/5 76/108/5
f 238/337/5 34/56/5 77/109/5 240/339/5
f 55/81/5 30/50/5 75/106/5 81/113/5
f 3/6/3 20/35/3 74/104/3 70/100/3
f 81/113/5 75/106/5 276/392/5 278/396/5 279/398/5 277/394/5 54/80/5
f 1/1/4 14/25/4 72/102/4 69/98/4
f 17/30/3 72/102/3 79/111/3 35/57/3
f 49/74/6 256/357/6 270/383/6 52/77/6
f 20/35/3 1/2/3 69/99/3 74/104/3
f 106/153/1 267/377/1 266/376/1 135/199/1 130/189/1
f 47/72/4 103/149/4 118/168/4 179/253/4 178/252/4
f 50/75/4 111/159/4 114/163/4 166/236/4 165/235/4
f 60/89/4 161/229/4 160/228/4 38/61/4 10/20/4
f 71/101/4 172/244/4 171/243/4 40/63/4 12/23/4
f 146/213/4 149/216/4 139/206/4 142/209/4
f 8/16/4 37/60/4 173/245/4 172/244/4 71/101/4
f 102/148/1 272/385/1 271/384/1 73/103/1 119/169/1
f 244/343/6 91/134/6 88/129/6 241/340/6
f 93/136/6 92/135/6 82/115/6 83/117/6
f 85/121/2 84/120/2 95/139/2 86/124/2
f 242/341/2 90/132/2 94/138/2 243/342/2
f 52/77/5 270/383/5 273/386/5 122/173/5 124/176/5 125/178/5 123/175/5 100/146/5
f 90/132/2 89/130/2 97/141/2 94/138/2
f 91/134/6 96/140/6 87/126/6 88/129/6
f 89/130/2 99/145/2 101/147/2 97/141/2
f 96/140/6 100/146/6 98/142/6 87/126/6
f 232/330/4 10/21/4 90/132/4 242/341/4
f 2/3/4 15/27/4 84/119/4 85/122/4
f 47/72/4 37/60/4 87/127/4 98/143/4
f 235/333/5 26/42/5 95/139/5 243/342/5
f 38/61/4 48/73/4 99/144/4 89/131/4
f 236/334/5 24/40/5 91/134/5 244/343/5
f 37/60/4 8/16/4 88/128/4 87/127/4
f 99/145/2 131/190/2 134/197/2 101/147/2
f 1/2/3 20/35/3 93/137/3 83/118/3
f 10/20/4 38/61/4 89/131/4 90/133/4
f 21/37/3 2/4/3 85/123/3 86/125/3
f 50/75/1 165/235/1 197/278/1 138/205/1
f 24/40/5 42/65/5 96/140/5 91/134/5
f 115/164/8 106/153/8 108/155/8 117/167/8
f 117/167/9 108/155/9 109/156/9 116/165/9
f 116/166/10 109/157/10 107/154/10 114/163/10
f 119/169/8 110/158/8 112/160/8 121/172/8
f 121/172/9 112/160/9 113/161/9 120/170/9
f 120/171/10 113/162/10 111/159/10 118/168/10
f 127/183/8 102/148/8 104/150/8 129/188/8
f 129/188/9 104/150/9 105/151/9 128/184/9
f 128/185/10 105/152/10 103/149/10 126/181/10
f 110/158/8 115/164/8 117/167/8 112/160/8
f 112/160/9 117/167/9 116/165/9 113/161/9
f 113/162/10 116/166/10 114/163/10 111/159/10
f 102/148/8 119/169/8 121/172/8 104/150/8
f 104/150/9 121/172/9 120/170/9 105/151/9
f 105/152/10 120/171/10 118/168/10 103/149/10
f 122/174/11 127/183/11 129/188/11 124/177/11
f 124/177/12 129/188/12 128/186/12 125/179/12
f 125/180/13 128/187/13 126/182/13 123/175/13
f 130/189/14 135/199/14 137/204/14 132/192/14
f 132/192/15 137/204/15 136/201/15 133/193/15
f 133/194/16 136/202/16 134/197/16 131/190/16
f 106/153/8 130/189/8 132/192/8 108/155/8
f 108/155/9 132/192/9 133/195/9 109/156/9
f 109/157/10 133/196/10 131/191/10 107/154/10
f 273/387/1 272/385/1 102/148/1 127/183/1 122/174/1
f 146/213/17 142/209/17 144/211/17 148/215/17
f 148/215/18 144/211/18 145/212/18 147/214/18
f 189/267/8 188/266/8 138/205/8 140/207/8 151/218/8
f 199/281/19 198/280/19 192/271/19 194/274/19 154/221/19 156/223/19
f 151/218/9 140/207/9 141/208/9 150/217/9
f 150/217/10 141/208/10 139/206/10 149/216/10
f 142/209/17 152/219/17 153/220/17 144/211/17
f 144/211/18 153/220/18 154/221/18 145/212/18
f 138/205/8 197/278/8 199/281/8 156/223/8 140/207/8
f 140/207/9 156/223/9 157/224/9 141/208/9
f 141/208/10 157/224/10 155/222/10 139/206/10
f 145/212/20 154/221/20 194/274/20 193/273/20 143/210/20
f 156/223/21 154/221/21 153/220/21 157/224/21
f 157/224/22 153/220/22 152/219/22 155/222/22
f 149/216/23 146/213/23 148/215/23 150/217/23
f 150/217/24 148/215/24 147/214/24 151/218/24
f 147/214/20 145/212/20 143/210/20 182/257/20 184/260/20
f 142/209/4 139/206/4 155/222/4 152/219/4
f 158/225/4 162/230/4 163/231/4 159/226/4 160/228/4 161/229/4
f 164/233/4 168/238/4 169/239/4 165/234/4 166/236/4 167/237/4
f 170/241/4 174/246/4 175/247/4 171/242/4 172/244/4 173/245/4
f 176/249/4 180/254/4 181/255/4 177/250/4 178/252/4 179/253/4
f 182/257/25 185/261/25 184/260/25
f 185/261/26 186/262/26 184/260/26
f 186/262/27 183/258/27 184/260/27
f 187/264/28 190/268/28 189/267/28
f 190/268/29 191/269/29 189/267/29
f 191/269/30 188/265/30 189/267/30
f 192/271/31 195/275/31 194/274/31
f 195/275/32 196/276/32 194/274/32
f 196/276/33 193/272/33 194/274/33
f 197/278/34 200/282/34 199/281/34
f 200/282/35 201/283/35 199/281/35
f 201/283/36 198/279/36 199/281/36
f 164/233/16 198/280/16 201/284/16 168/238/16
f 168/238/15 201/284/15 200/282/15 169/240/15
f 169/240/14 200/282/14 197/278/14 165/235/14
f 187/264/13 177/251/13 181/256/13 190/268/13
f 190/268/12 181/256/12 180/254/12 191/270/12
f 191/270/11 180/254/11 176/249/11 188/266/11
f 170/241/37 183/259/37 186/263/37 174/246/37
f 174/246/38 186/263/38 185/261/38 175/248/38
f 175/248/39 185/261/39 182/257/39 171/243/39
f 192/271/40 159/227/40 163/232/40 195/275/40
f 195/275/41 163/232/41 162/230/41 196/277/41
f 196/277/42 162/230/42 158/225/42 193/273/42
f 160/228/4 159/227/4 164/233/4 167/237/4 48/73/4 38/61/4
f 227/324/8 206/292/8 208/294/8 229/326/8
f 229/326/9 208/294/9 209/295/9 228/325/9
f 228/325/10 209/295/10 207/293/10 226/323/10
f 223/320/8 210/296/8 212/299/8 225/322/8
f 225/322/9 212/299/9 213/301/9 224/321/9
f 224/321/10 213/301/10 211/298/10 222/319/10
f 245/344/23 215/306/23 217/310/23 246/345/23
f 246/345/24 217/310/24 216/308/24 247/347/24
f 247/346/7 216/309/7 214/305/7 248/348/7
f 249/349/19 219/313/19 221/318/19 250/350/19
f 250/350/21 221/318/21 220/315/21 251/352/21
f 251/351/22 220/316/22 218/311/22 252/353/22
f 206/292/8 223/320/8 225/322/8 208/294/8
f 208/294/9 225/322/9 224/321/9 209/295/9
f 209/295/10 224/321/10 222/319/10 207/293/10
f 203/286/8 227/324/8 229/326/8 205/289/8
f 205/289/9 229/326/9 228/325/9 204/288/9
f 204/288/10 228/325/10 226/323/10 202/285/10
f 245/344/4 202/285/4 226/323/4 253/354/4
f 215/306/4 245/344/4 253/354/4 79/111/4
f 213/302/22 251/351/22 252/353/22 211/298/22
f 212/300/21 250/350/21 251/352/21 213/303/21
f 210/297/19 249/349/19 250/350/19 212/300/19
f 205/290/7 247/346/7 248/348/7 203/287/7
f 204/288/24 246/345/24 247/347/24 205/291/24
f 202/285/23 245/344/23 246/345/23 204/288/23
f 27/43/5 236/334/5 244/343/5 92/135/5
f 25/41/5 235/333/5 243/342/5 94/138/5
f 15/28/4 232/330/4 242/341/4 84/120/4
f 84/120/2 242/341/2 243/342/2 95/139/2
f 92/135/6 244/343/6 241/340/6 82/115/6
f 32/53/5 238/337/5 240/339/5 78/110/5
f 14/26/6 231/329/6 248/348/6 214/305/6
f 19/32/5 230/327/5 239/338/5 62/91/5
f 35/57/4 254/355/4 255/356/4 65/94/4
f 79/111/4 253/354/4 254/355/4 35/57/4
f 65/94/4 255/356/4 252/353/4 218/311/4
f 10/21/2 232/330/2 249/349/2 210/297/2
f 11/22/6 233/331/6 237/335/6 33/55/6
f 78/110/5 240/339/5 237/336/5 28/45/5
f 8/17/4 231/329/4 241/340/4 88/129/4
f 16/29/6 233/331/6 236/334/6 27/43/6
f 26/42/2 235/333/2 230/328/2 19/33/2
f 18/31/2 234/332/2 238/337/2 32/53/2
f 62/91/5 239/338/5 234/332/5 18/31/5
f 264/371/43 268/378/43 269/380/43 265/373/43 266/376/43 267/377/43
f 270/382/43 274/388/43 275/391/43 271/384/43 272/385/43 273/387/43
f 264/372/14 261/365/14 263/370/14 268/379/14
f 268/379/15 263/370/15 262/367/15 269/380/15
f 269/381/16 262/368/16 260/363/16 265/374/16
f 257/358/11 271/384/11 275/391/11 259/361/11
f 259/361/12 275/391/12 274/389/12 258/359/12
f 258/360/13 274/390/13 270/383/13 256/357/13
f 276/393/11 257/358/11 259/361/11 278/397/11
f 278/397/12 259/361/12 258/359/12 279/399/12
f 279/400/13 258/360/13 256/357/13 277/395/13
f 271/384/1 257/358/1 68/97/1 73/103/1
